G04 #@! TF.FileFunction,Copper,L2,Bot,Signal*
%FSLAX46Y46*%
G04 Gerber Fmt 4.6, Leading zero omitted, Abs format (unit mm)*
G04 Created by KiCad (PCBNEW 4.0.5) date Sunday, 26 February 2017 'PMt' 14:34:23*
%MOMM*%
%LPD*%
G01*
G04 APERTURE LIST*
%ADD10C,0.100000*%
%ADD11R,2.400000X1.600000*%
%ADD12O,2.400000X1.600000*%
%ADD13R,1.200000X1.700000*%
%ADD14O,1.200000X1.700000*%
%ADD15R,1.300000X1.300000*%
%ADD16C,1.300000*%
%ADD17C,1.524000*%
%ADD18R,1.400000X1.400000*%
%ADD19C,1.400000*%
%ADD20C,2.499360*%
%ADD21R,1.600000X2.400000*%
%ADD22O,1.600000X2.400000*%
%ADD23C,3.500000*%
%ADD24C,0.685800*%
%ADD25C,0.355600*%
%ADD26C,0.304800*%
%ADD27C,0.457200*%
%ADD28C,0.254000*%
G04 APERTURE END LIST*
D10*
D11*
X98810000Y-112145000D03*
D12*
X91190000Y-104525000D03*
X98810000Y-109605000D03*
X91190000Y-107065000D03*
X98810000Y-107065000D03*
X91190000Y-109605000D03*
X98810000Y-104525000D03*
X91190000Y-112145000D03*
D13*
X74775000Y-107700000D03*
D14*
X72775000Y-107700000D03*
X70775000Y-107700000D03*
D15*
X105160000Y-100080000D03*
D16*
X102660000Y-100080000D03*
D17*
X81030000Y-95000000D03*
X83030000Y-95000000D03*
X85030000Y-95000000D03*
X87030000Y-95000000D03*
X89030000Y-95000000D03*
X91030000Y-95000000D03*
X93030000Y-95000000D03*
X95030000Y-95000000D03*
X97030000Y-95000000D03*
X99030000Y-95000000D03*
X101030000Y-95000000D03*
X103030000Y-95000000D03*
X105030000Y-95000000D03*
X107030000Y-95000000D03*
X109030000Y-95000000D03*
X81030000Y-90400000D03*
X81030000Y-88400000D03*
X81030000Y-86400000D03*
X81030000Y-84400000D03*
X81030000Y-82400000D03*
D18*
X92460000Y-100080000D03*
D19*
X97460000Y-100080000D03*
D15*
X87380000Y-100080000D03*
D16*
X85380000Y-100080000D03*
D18*
X92460000Y-117225000D03*
D19*
X97460000Y-117225000D03*
D13*
X69410000Y-82300000D03*
D14*
X71410000Y-82300000D03*
X73410000Y-82300000D03*
X75410000Y-82300000D03*
X77410000Y-82300000D03*
D20*
X104525000Y-112820640D03*
X107024360Y-117860000D03*
X102025640Y-117860000D03*
X85475000Y-112820640D03*
X87974360Y-117860000D03*
X82975640Y-117860000D03*
D21*
X117860000Y-98810000D03*
D22*
X110240000Y-106430000D03*
X115320000Y-98810000D03*
X112780000Y-106430000D03*
X112780000Y-98810000D03*
X115320000Y-106430000D03*
X110240000Y-98810000D03*
X117860000Y-106430000D03*
D15*
X114645000Y-93730000D03*
D16*
X112145000Y-93730000D03*
D17*
X72000000Y-91500000D03*
X72000000Y-94000000D03*
X72000000Y-96000000D03*
X72000000Y-98500000D03*
D23*
X69600000Y-88550000D03*
X69600000Y-101450000D03*
D24*
X96016000Y-104144000D03*
D25*
X91190000Y-112145000D02*
X90790000Y-112145000D01*
D26*
X110240000Y-98810000D02*
X110240000Y-98410000D01*
D27*
X94970000Y-97000000D02*
X94970000Y-113385000D01*
X94970000Y-113385000D02*
X95000000Y-113415000D01*
X94968368Y-104601643D02*
X95000000Y-104570011D01*
X94968368Y-105442893D02*
X94968368Y-104601643D01*
X95000000Y-113415000D02*
X95000000Y-105474525D01*
X95000000Y-104570011D02*
X95000000Y-97030000D01*
X95000000Y-105474525D02*
X94968368Y-105442893D01*
X93488699Y-114926301D02*
X86745000Y-114926301D01*
X86745000Y-114926301D02*
X86391941Y-114926301D01*
X79379000Y-109605000D02*
X84700301Y-114926301D01*
X84700301Y-114926301D02*
X86745000Y-114926301D01*
X73372800Y-109605000D02*
X79379000Y-109605000D01*
X72775000Y-107700000D02*
X72775000Y-109007200D01*
X72775000Y-109007200D02*
X73372800Y-109605000D01*
X97030000Y-95000000D02*
X95000000Y-97030000D01*
X94970000Y-97000000D02*
X95000000Y-97030000D01*
X86391941Y-114926301D02*
X86110000Y-114926301D01*
X85909339Y-114926301D02*
X86110000Y-114926301D01*
X82975640Y-117860000D02*
X85909339Y-114926301D01*
X95000000Y-113415000D02*
X93488699Y-114926301D01*
X96270000Y-114685000D02*
X98850640Y-114685000D01*
X98850640Y-114685000D02*
X102025640Y-117860000D01*
X95000000Y-113415000D02*
X96270000Y-114685000D01*
D26*
X96016000Y-104144000D02*
X96016000Y-103659067D01*
X95762000Y-103405067D02*
X95762000Y-97413000D01*
X95762000Y-97413000D02*
X96905000Y-96270000D01*
X96016000Y-103659067D02*
X95762000Y-103405067D01*
X96905000Y-96270000D02*
X99760000Y-96270000D01*
X99760000Y-96270000D02*
X101030000Y-95000000D01*
D28*
G36*
X101343606Y-64096360D02*
X107225342Y-65917061D01*
X112641418Y-68845523D01*
X117385538Y-72770200D01*
X121276999Y-77541603D01*
X124167578Y-82977992D01*
X125947173Y-88872295D01*
X126548000Y-95000000D01*
X126535700Y-95880872D01*
X125764012Y-101989412D01*
X123820532Y-107831728D01*
X120779287Y-113185287D01*
X116756117Y-117846174D01*
X111904264Y-121636857D01*
X106408532Y-124412951D01*
X100478253Y-126068715D01*
X94339309Y-126541081D01*
X88225530Y-125812057D01*
X82369789Y-123909411D01*
X76995128Y-120905615D01*
X72306268Y-116915082D01*
X70920413Y-115166568D01*
X73016396Y-115166568D01*
X73086527Y-115548680D01*
X73229541Y-115909892D01*
X73439992Y-116236447D01*
X73709862Y-116515907D01*
X74028874Y-116737626D01*
X74384875Y-116893159D01*
X74764307Y-116976582D01*
X75152716Y-116984718D01*
X75535308Y-116917257D01*
X75897510Y-116776768D01*
X76225526Y-116568602D01*
X76506863Y-116300689D01*
X76730804Y-115983233D01*
X76888818Y-115628326D01*
X76974889Y-115249486D01*
X76981085Y-114805753D01*
X76905626Y-114424658D01*
X76757582Y-114065477D01*
X76542593Y-113741892D01*
X76268847Y-113466228D01*
X75946770Y-113248985D01*
X75588632Y-113098437D01*
X75208073Y-113020320D01*
X74819588Y-113017607D01*
X74437975Y-113090404D01*
X74077770Y-113235936D01*
X73752692Y-113448662D01*
X73475123Y-113720477D01*
X73255637Y-114041028D01*
X73102593Y-114398107D01*
X73021820Y-114778112D01*
X73016396Y-115166568D01*
X70920413Y-115166568D01*
X68481805Y-112089811D01*
X66094205Y-107444044D01*
X69794000Y-107444044D01*
X69794000Y-107955956D01*
X69812683Y-108146500D01*
X69868020Y-108329786D01*
X69957904Y-108498833D01*
X70078911Y-108647202D01*
X70226432Y-108769242D01*
X70394847Y-108860304D01*
X70577743Y-108916919D01*
X70768151Y-108936932D01*
X70958821Y-108919580D01*
X71142489Y-108865523D01*
X71312160Y-108776822D01*
X71461370Y-108656854D01*
X71584436Y-108510189D01*
X71676672Y-108342413D01*
X71734563Y-108159917D01*
X71749829Y-108023813D01*
X71762850Y-108156613D01*
X71821053Y-108349390D01*
X71915592Y-108527191D01*
X72042865Y-108683244D01*
X72114600Y-108742588D01*
X72114600Y-109007200D01*
X72120555Y-109067934D01*
X72125870Y-109128682D01*
X72126838Y-109132014D01*
X72127177Y-109135472D01*
X72144810Y-109193876D01*
X72161828Y-109252452D01*
X72163427Y-109255537D01*
X72164430Y-109258859D01*
X72193055Y-109312696D01*
X72221142Y-109366880D01*
X72223309Y-109369595D01*
X72224939Y-109372660D01*
X72263482Y-109419918D01*
X72301552Y-109467608D01*
X72306316Y-109472438D01*
X72306399Y-109472540D01*
X72306493Y-109472618D01*
X72308027Y-109474173D01*
X72905827Y-110071973D01*
X72952942Y-110110674D01*
X72999696Y-110149905D01*
X73002738Y-110151577D01*
X73005422Y-110153782D01*
X73059180Y-110182607D01*
X73112641Y-110211997D01*
X73115952Y-110213047D01*
X73119012Y-110214688D01*
X73177321Y-110232515D01*
X73235495Y-110250969D01*
X73238948Y-110251356D01*
X73242267Y-110252371D01*
X73302922Y-110258532D01*
X73363579Y-110265336D01*
X73370367Y-110265383D01*
X73370494Y-110265396D01*
X73370612Y-110265385D01*
X73372800Y-110265400D01*
X79105454Y-110265400D01*
X84233328Y-115393274D01*
X84280443Y-115431975D01*
X84327197Y-115471206D01*
X84330239Y-115472878D01*
X84332923Y-115475083D01*
X84386681Y-115503908D01*
X84393847Y-115507847D01*
X83602336Y-116299358D01*
X83475273Y-116245946D01*
X83152253Y-116179640D01*
X82822506Y-116177338D01*
X82498591Y-116239128D01*
X82192848Y-116362656D01*
X81916920Y-116543218D01*
X81681319Y-116773936D01*
X81495018Y-117046021D01*
X81365114Y-117349111D01*
X81296554Y-117671660D01*
X81291950Y-118001383D01*
X81351477Y-118325721D01*
X81472868Y-118632320D01*
X81651499Y-118909501D01*
X81880566Y-119146707D01*
X82151345Y-119334903D01*
X82453520Y-119466920D01*
X82775583Y-119537730D01*
X83105266Y-119544636D01*
X83430011Y-119487375D01*
X83737450Y-119368127D01*
X84015871Y-119191436D01*
X84254671Y-118964030D01*
X84444753Y-118694572D01*
X84578876Y-118393326D01*
X84651933Y-118071765D01*
X84652975Y-117997112D01*
X86341537Y-117997112D01*
X86399265Y-118311651D01*
X86516989Y-118608987D01*
X86690223Y-118877794D01*
X86912370Y-119107834D01*
X87174968Y-119290344D01*
X87468014Y-119418373D01*
X87780347Y-119487043D01*
X88100069Y-119493741D01*
X88415004Y-119438209D01*
X88713154Y-119322564D01*
X88983164Y-119151211D01*
X89214749Y-118930675D01*
X89399088Y-118669358D01*
X89529160Y-118377213D01*
X89600009Y-118065367D01*
X89605110Y-117700104D01*
X89542995Y-117386401D01*
X89421131Y-117090738D01*
X89244161Y-116824376D01*
X89018824Y-116597460D01*
X88911398Y-116525000D01*
X91326111Y-116525000D01*
X91326111Y-117925000D01*
X91331594Y-117993763D01*
X91367712Y-118110391D01*
X91434892Y-118212340D01*
X91527814Y-118291537D01*
X91639121Y-118341711D01*
X91760000Y-118358889D01*
X93160000Y-118358889D01*
X93228763Y-118353406D01*
X93345391Y-118317288D01*
X93447340Y-118250108D01*
X93526537Y-118157186D01*
X93531458Y-118146269D01*
X96718336Y-118146269D01*
X96777797Y-118380037D01*
X97016242Y-118490934D01*
X97271740Y-118553183D01*
X97534473Y-118564390D01*
X97794344Y-118524125D01*
X98041366Y-118433935D01*
X98142203Y-118380037D01*
X98201664Y-118146269D01*
X97460000Y-117404605D01*
X96718336Y-118146269D01*
X93531458Y-118146269D01*
X93576711Y-118045879D01*
X93593889Y-117925000D01*
X93593889Y-117299473D01*
X96120610Y-117299473D01*
X96160875Y-117559344D01*
X96251065Y-117806366D01*
X96304963Y-117907203D01*
X96538731Y-117966664D01*
X97280395Y-117225000D01*
X97639605Y-117225000D01*
X98381269Y-117966664D01*
X98615037Y-117907203D01*
X98725934Y-117668758D01*
X98788183Y-117413260D01*
X98799390Y-117150527D01*
X98759125Y-116890656D01*
X98668935Y-116643634D01*
X98615037Y-116542797D01*
X98381269Y-116483336D01*
X97639605Y-117225000D01*
X97280395Y-117225000D01*
X96538731Y-116483336D01*
X96304963Y-116542797D01*
X96194066Y-116781242D01*
X96131817Y-117036740D01*
X96120610Y-117299473D01*
X93593889Y-117299473D01*
X93593889Y-116525000D01*
X93588406Y-116456237D01*
X93552288Y-116339609D01*
X93528646Y-116303731D01*
X96718336Y-116303731D01*
X97460000Y-117045395D01*
X98201664Y-116303731D01*
X98142203Y-116069963D01*
X97903758Y-115959066D01*
X97648260Y-115896817D01*
X97385527Y-115885610D01*
X97125656Y-115925875D01*
X96878634Y-116016065D01*
X96777797Y-116069963D01*
X96718336Y-116303731D01*
X93528646Y-116303731D01*
X93485108Y-116237660D01*
X93392186Y-116158463D01*
X93280879Y-116108289D01*
X93160000Y-116091111D01*
X91760000Y-116091111D01*
X91691237Y-116096594D01*
X91574609Y-116132712D01*
X91472660Y-116199892D01*
X91393463Y-116292814D01*
X91343289Y-116404121D01*
X91326111Y-116525000D01*
X88911398Y-116525000D01*
X88753704Y-116418634D01*
X88458898Y-116294710D01*
X88145637Y-116230406D01*
X87825852Y-116228174D01*
X87511724Y-116288097D01*
X87215217Y-116407893D01*
X86947626Y-116583000D01*
X86719143Y-116806748D01*
X86538470Y-117070613D01*
X86412490Y-117364546D01*
X86346002Y-117677350D01*
X86341537Y-117997112D01*
X84652975Y-117997112D01*
X84657192Y-117695122D01*
X84593142Y-117371647D01*
X84536168Y-117233418D01*
X86182885Y-115586701D01*
X93488699Y-115586701D01*
X93549433Y-115580746D01*
X93610181Y-115575431D01*
X93613513Y-115574463D01*
X93616971Y-115574124D01*
X93675375Y-115556491D01*
X93733951Y-115539473D01*
X93737036Y-115537874D01*
X93740358Y-115536871D01*
X93794195Y-115508246D01*
X93848379Y-115480159D01*
X93851094Y-115477992D01*
X93854159Y-115476362D01*
X93901417Y-115437819D01*
X93949107Y-115399749D01*
X93953937Y-115394985D01*
X93954039Y-115394902D01*
X93954117Y-115394808D01*
X93955672Y-115393274D01*
X95000000Y-114348946D01*
X95803027Y-115151973D01*
X95850142Y-115190674D01*
X95896896Y-115229905D01*
X95899938Y-115231577D01*
X95902622Y-115233782D01*
X95956399Y-115262617D01*
X96009841Y-115291997D01*
X96013150Y-115293047D01*
X96016211Y-115294688D01*
X96074535Y-115312520D01*
X96132695Y-115330969D01*
X96136148Y-115331356D01*
X96139467Y-115332371D01*
X96200122Y-115338532D01*
X96260779Y-115345336D01*
X96267567Y-115345383D01*
X96267694Y-115345396D01*
X96267812Y-115345385D01*
X96270000Y-115345400D01*
X98577094Y-115345400D01*
X100464824Y-117233130D01*
X100415114Y-117349111D01*
X100346554Y-117671660D01*
X100341950Y-118001383D01*
X100401477Y-118325721D01*
X100522868Y-118632320D01*
X100701499Y-118909501D01*
X100930566Y-119146707D01*
X101201345Y-119334903D01*
X101503520Y-119466920D01*
X101825583Y-119537730D01*
X102155266Y-119544636D01*
X102480011Y-119487375D01*
X102787450Y-119368127D01*
X103065871Y-119191436D01*
X103304671Y-118964030D01*
X103494753Y-118694572D01*
X103628876Y-118393326D01*
X103701933Y-118071765D01*
X103702975Y-117997112D01*
X105391537Y-117997112D01*
X105449265Y-118311651D01*
X105566989Y-118608987D01*
X105740223Y-118877794D01*
X105962370Y-119107834D01*
X106224968Y-119290344D01*
X106518014Y-119418373D01*
X106830347Y-119487043D01*
X107150069Y-119493741D01*
X107465004Y-119438209D01*
X107763154Y-119322564D01*
X108033164Y-119151211D01*
X108264749Y-118930675D01*
X108449088Y-118669358D01*
X108579160Y-118377213D01*
X108650009Y-118065367D01*
X108655110Y-117700104D01*
X108592995Y-117386401D01*
X108471131Y-117090738D01*
X108294161Y-116824376D01*
X108068824Y-116597460D01*
X107803704Y-116418634D01*
X107508898Y-116294710D01*
X107195637Y-116230406D01*
X106875852Y-116228174D01*
X106561724Y-116288097D01*
X106265217Y-116407893D01*
X105997626Y-116583000D01*
X105769143Y-116806748D01*
X105588470Y-117070613D01*
X105462490Y-117364546D01*
X105396002Y-117677350D01*
X105391537Y-117997112D01*
X103702975Y-117997112D01*
X103707192Y-117695122D01*
X103643142Y-117371647D01*
X103517482Y-117066773D01*
X103334999Y-116792113D01*
X103102642Y-116558128D01*
X102829262Y-116373732D01*
X102525273Y-116245946D01*
X102202253Y-116179640D01*
X101872506Y-116177338D01*
X101548591Y-116239128D01*
X101399109Y-116299523D01*
X100266154Y-115166568D01*
X113016396Y-115166568D01*
X113086527Y-115548680D01*
X113229541Y-115909892D01*
X113439992Y-116236447D01*
X113709862Y-116515907D01*
X114028874Y-116737626D01*
X114384875Y-116893159D01*
X114764307Y-116976582D01*
X115152716Y-116984718D01*
X115535308Y-116917257D01*
X115897510Y-116776768D01*
X116225526Y-116568602D01*
X116506863Y-116300689D01*
X116730804Y-115983233D01*
X116888818Y-115628326D01*
X116974889Y-115249486D01*
X116981085Y-114805753D01*
X116905626Y-114424658D01*
X116757582Y-114065477D01*
X116542593Y-113741892D01*
X116268847Y-113466228D01*
X115946770Y-113248985D01*
X115588632Y-113098437D01*
X115208073Y-113020320D01*
X114819588Y-113017607D01*
X114437975Y-113090404D01*
X114077770Y-113235936D01*
X113752692Y-113448662D01*
X113475123Y-113720477D01*
X113255637Y-114041028D01*
X113102593Y-114398107D01*
X113021820Y-114778112D01*
X113016396Y-115166568D01*
X100266154Y-115166568D01*
X99317613Y-114218027D01*
X99270498Y-114179326D01*
X99223744Y-114140095D01*
X99220702Y-114138423D01*
X99218018Y-114136218D01*
X99164260Y-114107393D01*
X99110799Y-114078003D01*
X99107488Y-114076953D01*
X99104428Y-114075312D01*
X99046119Y-114057485D01*
X98987945Y-114039031D01*
X98984492Y-114038644D01*
X98981173Y-114037629D01*
X98920518Y-114031468D01*
X98859861Y-114024664D01*
X98853073Y-114024617D01*
X98852946Y-114024604D01*
X98852828Y-114024615D01*
X98850640Y-114024600D01*
X96543546Y-114024600D01*
X95660400Y-113141454D01*
X95660400Y-111345000D01*
X97227157Y-111345000D01*
X97227157Y-112945000D01*
X97231995Y-113005673D01*
X97263864Y-113108580D01*
X97323140Y-113198535D01*
X97405130Y-113268415D01*
X97503342Y-113312686D01*
X97610000Y-113327843D01*
X100010000Y-113327843D01*
X100070673Y-113323005D01*
X100173580Y-113291136D01*
X100263535Y-113231860D01*
X100333415Y-113149870D01*
X100377686Y-113051658D01*
X100391030Y-112957752D01*
X102892177Y-112957752D01*
X102949905Y-113272291D01*
X103067629Y-113569627D01*
X103240863Y-113838434D01*
X103463010Y-114068474D01*
X103725608Y-114250984D01*
X104018654Y-114379013D01*
X104330987Y-114447683D01*
X104650709Y-114454381D01*
X104965644Y-114398849D01*
X105263794Y-114283204D01*
X105533804Y-114111851D01*
X105765389Y-113891315D01*
X105949728Y-113629998D01*
X106079800Y-113337853D01*
X106150649Y-113026007D01*
X106155750Y-112660744D01*
X106093635Y-112347041D01*
X105971771Y-112051378D01*
X105794801Y-111785016D01*
X105569464Y-111558100D01*
X105304344Y-111379274D01*
X105009538Y-111255350D01*
X104696277Y-111191046D01*
X104376492Y-111188814D01*
X104062364Y-111248737D01*
X103765857Y-111368533D01*
X103498266Y-111543640D01*
X103269783Y-111767388D01*
X103089110Y-112031253D01*
X102963130Y-112325186D01*
X102896642Y-112637990D01*
X102892177Y-112957752D01*
X100391030Y-112957752D01*
X100392843Y-112945000D01*
X100392843Y-111345000D01*
X100388005Y-111284327D01*
X100356136Y-111181420D01*
X100296860Y-111091465D01*
X100214870Y-111021585D01*
X100116658Y-110977314D01*
X100010000Y-110962157D01*
X97610000Y-110962157D01*
X97549327Y-110966995D01*
X97446420Y-110998864D01*
X97356465Y-111058140D01*
X97286585Y-111140130D01*
X97242314Y-111238342D01*
X97227157Y-111345000D01*
X95660400Y-111345000D01*
X95660400Y-109596755D01*
X97221379Y-109596755D01*
X97242269Y-109826297D01*
X97307346Y-110047410D01*
X97414131Y-110251672D01*
X97558558Y-110431302D01*
X97735124Y-110579459D01*
X97937105Y-110690499D01*
X98156806Y-110760192D01*
X98385861Y-110785885D01*
X98402350Y-110786000D01*
X99217650Y-110786000D01*
X99447041Y-110763508D01*
X99667694Y-110696889D01*
X99871205Y-110588680D01*
X100049823Y-110443003D01*
X100196743Y-110265407D01*
X100306370Y-110062656D01*
X100374528Y-109842473D01*
X100398621Y-109613245D01*
X100377731Y-109383703D01*
X100312654Y-109162590D01*
X100205869Y-108958328D01*
X100061442Y-108778698D01*
X99884876Y-108630541D01*
X99682895Y-108519501D01*
X99463194Y-108449808D01*
X99234139Y-108424115D01*
X99217650Y-108424000D01*
X98402350Y-108424000D01*
X98172959Y-108446492D01*
X97952306Y-108513111D01*
X97748795Y-108621320D01*
X97570177Y-108766997D01*
X97423257Y-108944593D01*
X97313630Y-109147344D01*
X97245472Y-109367527D01*
X97221379Y-109596755D01*
X95660400Y-109596755D01*
X95660400Y-107056755D01*
X97221379Y-107056755D01*
X97242269Y-107286297D01*
X97307346Y-107507410D01*
X97414131Y-107711672D01*
X97558558Y-107891302D01*
X97735124Y-108039459D01*
X97937105Y-108150499D01*
X98156806Y-108220192D01*
X98385861Y-108245885D01*
X98402350Y-108246000D01*
X99217650Y-108246000D01*
X99447041Y-108223508D01*
X99667694Y-108156889D01*
X99871205Y-108048680D01*
X100049823Y-107903003D01*
X100196743Y-107725407D01*
X100306370Y-107522656D01*
X100374528Y-107302473D01*
X100398621Y-107073245D01*
X100377731Y-106843703D01*
X100312654Y-106622590D01*
X100205869Y-106418328D01*
X100061442Y-106238698D01*
X99884876Y-106090541D01*
X99760390Y-106022104D01*
X109008200Y-106022104D01*
X109008200Y-106837896D01*
X109031659Y-107077154D01*
X109101144Y-107307298D01*
X109214008Y-107519564D01*
X109365951Y-107705864D01*
X109551186Y-107859104D01*
X109762658Y-107973447D01*
X109992312Y-108044537D01*
X110231400Y-108069666D01*
X110470816Y-108047877D01*
X110701440Y-107980001D01*
X110914488Y-107868622D01*
X111101845Y-107717983D01*
X111256375Y-107533822D01*
X111372191Y-107323154D01*
X111444882Y-107094002D01*
X111471680Y-106855095D01*
X111471800Y-106837896D01*
X111471800Y-106022350D01*
X111599000Y-106022350D01*
X111599000Y-106837650D01*
X111621492Y-107067041D01*
X111688111Y-107287694D01*
X111796320Y-107491205D01*
X111941997Y-107669823D01*
X112119593Y-107816743D01*
X112322344Y-107926370D01*
X112542527Y-107994528D01*
X112771755Y-108018621D01*
X113001297Y-107997731D01*
X113222410Y-107932654D01*
X113426672Y-107825869D01*
X113606302Y-107681442D01*
X113754459Y-107504876D01*
X113865499Y-107302895D01*
X113935192Y-107083194D01*
X113960885Y-106854139D01*
X113961000Y-106837650D01*
X113961000Y-106022350D01*
X114139000Y-106022350D01*
X114139000Y-106837650D01*
X114161492Y-107067041D01*
X114228111Y-107287694D01*
X114336320Y-107491205D01*
X114481997Y-107669823D01*
X114659593Y-107816743D01*
X114862344Y-107926370D01*
X115082527Y-107994528D01*
X115311755Y-108018621D01*
X115541297Y-107997731D01*
X115762410Y-107932654D01*
X115966672Y-107825869D01*
X116146302Y-107681442D01*
X116294459Y-107504876D01*
X116405499Y-107302895D01*
X116475192Y-107083194D01*
X116500885Y-106854139D01*
X116501000Y-106837650D01*
X116501000Y-106022350D01*
X116500976Y-106022104D01*
X116628200Y-106022104D01*
X116628200Y-106837896D01*
X116651659Y-107077154D01*
X116721144Y-107307298D01*
X116834008Y-107519564D01*
X116985951Y-107705864D01*
X117171186Y-107859104D01*
X117382658Y-107973447D01*
X117612312Y-108044537D01*
X117851400Y-108069666D01*
X118090816Y-108047877D01*
X118321440Y-107980001D01*
X118534488Y-107868622D01*
X118721845Y-107717983D01*
X118876375Y-107533822D01*
X118992191Y-107323154D01*
X119064882Y-107094002D01*
X119091680Y-106855095D01*
X119091800Y-106837896D01*
X119091800Y-106022104D01*
X119068341Y-105782846D01*
X118998856Y-105552702D01*
X118885992Y-105340436D01*
X118734049Y-105154136D01*
X118548814Y-105000896D01*
X118337342Y-104886553D01*
X118107688Y-104815463D01*
X117868600Y-104790334D01*
X117629184Y-104812123D01*
X117398560Y-104879999D01*
X117185512Y-104991378D01*
X116998155Y-105142017D01*
X116843625Y-105326178D01*
X116727809Y-105536846D01*
X116655118Y-105765998D01*
X116628320Y-106004905D01*
X116628200Y-106022104D01*
X116500976Y-106022104D01*
X116478508Y-105792959D01*
X116411889Y-105572306D01*
X116303680Y-105368795D01*
X116158003Y-105190177D01*
X115980407Y-105043257D01*
X115777656Y-104933630D01*
X115557473Y-104865472D01*
X115328245Y-104841379D01*
X115098703Y-104862269D01*
X114877590Y-104927346D01*
X114673328Y-105034131D01*
X114493698Y-105178558D01*
X114345541Y-105355124D01*
X114234501Y-105557105D01*
X114164808Y-105776806D01*
X114139115Y-106005861D01*
X114139000Y-106022350D01*
X113961000Y-106022350D01*
X113938508Y-105792959D01*
X113871889Y-105572306D01*
X113763680Y-105368795D01*
X113618003Y-105190177D01*
X113440407Y-105043257D01*
X113237656Y-104933630D01*
X113017473Y-104865472D01*
X112788245Y-104841379D01*
X112558703Y-104862269D01*
X112337590Y-104927346D01*
X112133328Y-105034131D01*
X111953698Y-105178558D01*
X111805541Y-105355124D01*
X111694501Y-105557105D01*
X111624808Y-105776806D01*
X111599115Y-106005861D01*
X111599000Y-106022350D01*
X111471800Y-106022350D01*
X111471800Y-106022104D01*
X111448341Y-105782846D01*
X111378856Y-105552702D01*
X111265992Y-105340436D01*
X111114049Y-105154136D01*
X110928814Y-105000896D01*
X110717342Y-104886553D01*
X110487688Y-104815463D01*
X110248600Y-104790334D01*
X110009184Y-104812123D01*
X109778560Y-104879999D01*
X109565512Y-104991378D01*
X109378155Y-105142017D01*
X109223625Y-105326178D01*
X109107809Y-105536846D01*
X109035118Y-105765998D01*
X109008320Y-106004905D01*
X109008200Y-106022104D01*
X99760390Y-106022104D01*
X99682895Y-105979501D01*
X99463194Y-105909808D01*
X99234139Y-105884115D01*
X99217650Y-105884000D01*
X98402350Y-105884000D01*
X98172959Y-105906492D01*
X97952306Y-105973111D01*
X97748795Y-106081320D01*
X97570177Y-106226997D01*
X97423257Y-106404593D01*
X97313630Y-106607344D01*
X97245472Y-106827527D01*
X97221379Y-107056755D01*
X95660400Y-107056755D01*
X95660400Y-105474525D01*
X95654445Y-105413794D01*
X95649130Y-105353043D01*
X95648162Y-105349711D01*
X95647823Y-105346253D01*
X95630400Y-105288546D01*
X95630400Y-104757609D01*
X95661129Y-104778966D01*
X95791220Y-104835801D01*
X95929873Y-104866286D01*
X96071806Y-104869259D01*
X96211613Y-104844607D01*
X96343970Y-104793270D01*
X96463834Y-104717201D01*
X96566640Y-104619300D01*
X96639228Y-104516400D01*
X97170334Y-104516400D01*
X97192123Y-104755816D01*
X97259999Y-104986440D01*
X97371378Y-105199488D01*
X97522017Y-105386845D01*
X97706178Y-105541375D01*
X97916846Y-105657191D01*
X98145998Y-105729882D01*
X98384905Y-105756680D01*
X98402104Y-105756800D01*
X99217896Y-105756800D01*
X99457154Y-105733341D01*
X99687298Y-105663856D01*
X99899564Y-105550992D01*
X100085864Y-105399049D01*
X100239104Y-105213814D01*
X100353447Y-105002342D01*
X100424537Y-104772688D01*
X100449666Y-104533600D01*
X100427877Y-104294184D01*
X100360001Y-104063560D01*
X100248622Y-103850512D01*
X100097983Y-103663155D01*
X99913822Y-103508625D01*
X99703154Y-103392809D01*
X99474002Y-103320118D01*
X99235095Y-103293320D01*
X99217896Y-103293200D01*
X98402104Y-103293200D01*
X98162846Y-103316659D01*
X97932702Y-103386144D01*
X97720436Y-103499008D01*
X97534136Y-103650951D01*
X97380896Y-103836186D01*
X97266553Y-104047658D01*
X97195463Y-104277312D01*
X97170334Y-104516400D01*
X96639228Y-104516400D01*
X96648473Y-104503295D01*
X96706215Y-104373604D01*
X96737667Y-104235168D01*
X96739931Y-104073018D01*
X96712357Y-103933757D01*
X96658259Y-103802505D01*
X96579697Y-103684260D01*
X96548822Y-103653168D01*
X96544592Y-103610031D01*
X96540298Y-103560947D01*
X96539514Y-103558250D01*
X96539241Y-103555462D01*
X96525019Y-103508356D01*
X96511255Y-103460979D01*
X96509963Y-103458486D01*
X96509153Y-103455804D01*
X96486046Y-103412347D01*
X96463347Y-103368556D01*
X96461595Y-103366362D01*
X96460280Y-103363888D01*
X96429156Y-103325726D01*
X96398400Y-103287199D01*
X96394549Y-103283294D01*
X96394485Y-103283215D01*
X96394412Y-103283155D01*
X96393171Y-103281896D01*
X96295400Y-103184125D01*
X96295400Y-100175165D01*
X96326713Y-100175165D01*
X96366780Y-100393476D01*
X96448488Y-100599847D01*
X96568724Y-100786416D01*
X96722909Y-100946079D01*
X96905169Y-101072753D01*
X97108562Y-101161614D01*
X97325342Y-101209276D01*
X97547251Y-101213924D01*
X97765836Y-101175382D01*
X97972772Y-101095116D01*
X98160177Y-100976186D01*
X98320912Y-100823120D01*
X98448856Y-100641748D01*
X98539134Y-100438980D01*
X98588308Y-100222538D01*
X98589028Y-100170961D01*
X101576778Y-100170961D01*
X101615076Y-100379627D01*
X101693174Y-100576881D01*
X101808099Y-100755209D01*
X101955472Y-100907818D01*
X102129680Y-101028896D01*
X102324088Y-101113831D01*
X102531291Y-101159387D01*
X102743396Y-101163830D01*
X102952325Y-101126990D01*
X103150119Y-101050271D01*
X103329245Y-100936594D01*
X103482879Y-100790290D01*
X103605171Y-100616932D01*
X103691460Y-100423121D01*
X103704494Y-100365750D01*
X103875000Y-100365750D01*
X103875000Y-100792542D01*
X103899403Y-100915223D01*
X103947270Y-101030785D01*
X104016763Y-101134789D01*
X104105211Y-101223237D01*
X104209215Y-101292730D01*
X104324777Y-101340597D01*
X104447458Y-101365000D01*
X104874250Y-101365000D01*
X105033000Y-101206250D01*
X105033000Y-100207000D01*
X105287000Y-100207000D01*
X105287000Y-101206250D01*
X105445750Y-101365000D01*
X105872542Y-101365000D01*
X105995223Y-101340597D01*
X106110785Y-101292730D01*
X106214789Y-101223237D01*
X106303237Y-101134789D01*
X106372730Y-101030785D01*
X106420597Y-100915223D01*
X106445000Y-100792542D01*
X106445000Y-100365750D01*
X106286250Y-100207000D01*
X105287000Y-100207000D01*
X105033000Y-100207000D01*
X104033750Y-100207000D01*
X103875000Y-100365750D01*
X103704494Y-100365750D01*
X103738462Y-100216241D01*
X103741846Y-99973924D01*
X103700639Y-99765813D01*
X103619794Y-99569668D01*
X103502391Y-99392963D01*
X103477064Y-99367458D01*
X103875000Y-99367458D01*
X103875000Y-99794250D01*
X104033750Y-99953000D01*
X105033000Y-99953000D01*
X105033000Y-98953750D01*
X105287000Y-98953750D01*
X105287000Y-99953000D01*
X106286250Y-99953000D01*
X106445000Y-99794250D01*
X106445000Y-99367458D01*
X106420597Y-99244777D01*
X106372730Y-99129215D01*
X106303237Y-99025211D01*
X106214789Y-98936763D01*
X106110785Y-98867270D01*
X105995223Y-98819403D01*
X105872542Y-98795000D01*
X105445750Y-98795000D01*
X105287000Y-98953750D01*
X105033000Y-98953750D01*
X104874250Y-98795000D01*
X104447458Y-98795000D01*
X104324777Y-98819403D01*
X104209215Y-98867270D01*
X104105211Y-98936763D01*
X104016763Y-99025211D01*
X103947270Y-99129215D01*
X103899403Y-99244777D01*
X103875000Y-99367458D01*
X103477064Y-99367458D01*
X103352902Y-99242426D01*
X103177020Y-99123792D01*
X102981445Y-99041580D01*
X102773626Y-98998921D01*
X102561479Y-98997440D01*
X102353085Y-99037193D01*
X102156381Y-99116667D01*
X101978860Y-99232833D01*
X101827284Y-99381268D01*
X101707425Y-99556317D01*
X101623849Y-99751314D01*
X101579740Y-99958829D01*
X101576778Y-100170961D01*
X98589028Y-100170961D01*
X98591848Y-99969021D01*
X98548736Y-99751291D01*
X98464155Y-99546081D01*
X98341326Y-99361208D01*
X98184927Y-99203714D01*
X98000916Y-99079597D01*
X97796302Y-98993585D01*
X97578878Y-98948954D01*
X97356926Y-98947405D01*
X97138900Y-98988995D01*
X96933105Y-99072142D01*
X96747379Y-99193678D01*
X96588796Y-99348973D01*
X96463397Y-99532113D01*
X96375959Y-99736122D01*
X96329812Y-99953229D01*
X96326713Y-100175165D01*
X96295400Y-100175165D01*
X96295400Y-98402104D01*
X109008200Y-98402104D01*
X109008200Y-99217896D01*
X109031659Y-99457154D01*
X109101144Y-99687298D01*
X109214008Y-99899564D01*
X109365951Y-100085864D01*
X109551186Y-100239104D01*
X109762658Y-100353447D01*
X109992312Y-100424537D01*
X110231400Y-100449666D01*
X110470816Y-100427877D01*
X110701440Y-100360001D01*
X110914488Y-100248622D01*
X111101845Y-100097983D01*
X111256375Y-99913822D01*
X111372191Y-99703154D01*
X111399005Y-99618625D01*
X111502834Y-99876483D01*
X111657399Y-100112839D01*
X111855105Y-100314500D01*
X112088354Y-100473715D01*
X112348182Y-100584367D01*
X112430961Y-100601904D01*
X112653000Y-100479915D01*
X112653000Y-98937000D01*
X112633000Y-98937000D01*
X112633000Y-98683000D01*
X112653000Y-98683000D01*
X112653000Y-97140085D01*
X112907000Y-97140085D01*
X112907000Y-98683000D01*
X112927000Y-98683000D01*
X112927000Y-98937000D01*
X112907000Y-98937000D01*
X112907000Y-100479915D01*
X113129039Y-100601904D01*
X113211818Y-100584367D01*
X113471646Y-100473715D01*
X113704895Y-100314500D01*
X113902601Y-100112839D01*
X114057166Y-99876483D01*
X114160661Y-99619454D01*
X114181144Y-99687298D01*
X114294008Y-99899564D01*
X114445951Y-100085864D01*
X114631186Y-100239104D01*
X114842658Y-100353447D01*
X115072312Y-100424537D01*
X115311400Y-100449666D01*
X115550816Y-100427877D01*
X115781440Y-100360001D01*
X115994488Y-100248622D01*
X116181845Y-100097983D01*
X116336375Y-99913822D01*
X116452191Y-99703154D01*
X116524882Y-99474002D01*
X116551680Y-99235095D01*
X116551800Y-99217896D01*
X116551800Y-98402104D01*
X116528341Y-98162846D01*
X116458856Y-97932702D01*
X116345992Y-97720436D01*
X116255923Y-97610000D01*
X116677157Y-97610000D01*
X116677157Y-100010000D01*
X116681995Y-100070673D01*
X116713864Y-100173580D01*
X116773140Y-100263535D01*
X116855130Y-100333415D01*
X116953342Y-100377686D01*
X117060000Y-100392843D01*
X118660000Y-100392843D01*
X118720673Y-100388005D01*
X118823580Y-100356136D01*
X118913535Y-100296860D01*
X118983415Y-100214870D01*
X119027686Y-100116658D01*
X119042843Y-100010000D01*
X119042843Y-97610000D01*
X119038005Y-97549327D01*
X119006136Y-97446420D01*
X118946860Y-97356465D01*
X118864870Y-97286585D01*
X118766658Y-97242314D01*
X118660000Y-97227157D01*
X117060000Y-97227157D01*
X116999327Y-97231995D01*
X116896420Y-97263864D01*
X116806465Y-97323140D01*
X116736585Y-97405130D01*
X116692314Y-97503342D01*
X116677157Y-97610000D01*
X116255923Y-97610000D01*
X116194049Y-97534136D01*
X116008814Y-97380896D01*
X115797342Y-97266553D01*
X115567688Y-97195463D01*
X115328600Y-97170334D01*
X115089184Y-97192123D01*
X114858560Y-97259999D01*
X114645512Y-97371378D01*
X114458155Y-97522017D01*
X114303625Y-97706178D01*
X114187809Y-97916846D01*
X114160995Y-98001375D01*
X114057166Y-97743517D01*
X113902601Y-97507161D01*
X113704895Y-97305500D01*
X113471646Y-97146285D01*
X113211818Y-97035633D01*
X113129039Y-97018096D01*
X112907000Y-97140085D01*
X112653000Y-97140085D01*
X112430961Y-97018096D01*
X112348182Y-97035633D01*
X112088354Y-97146285D01*
X111855105Y-97305500D01*
X111657399Y-97507161D01*
X111502834Y-97743517D01*
X111399339Y-98000546D01*
X111378856Y-97932702D01*
X111265992Y-97720436D01*
X111114049Y-97534136D01*
X110928814Y-97380896D01*
X110717342Y-97266553D01*
X110487688Y-97195463D01*
X110248600Y-97170334D01*
X110009184Y-97192123D01*
X109778560Y-97259999D01*
X109565512Y-97371378D01*
X109378155Y-97522017D01*
X109223625Y-97706178D01*
X109107809Y-97916846D01*
X109035118Y-98145998D01*
X109008320Y-98384905D01*
X109008200Y-98402104D01*
X96295400Y-98402104D01*
X96295400Y-97633942D01*
X97125942Y-96803400D01*
X99760000Y-96803400D01*
X99808991Y-96798596D01*
X99858120Y-96794298D01*
X99860817Y-96793514D01*
X99863605Y-96793241D01*
X99910725Y-96779015D01*
X99958087Y-96765255D01*
X99960579Y-96763963D01*
X99963263Y-96763153D01*
X100006738Y-96740037D01*
X100050511Y-96717347D01*
X100052705Y-96715595D01*
X100055179Y-96714280D01*
X100093341Y-96683156D01*
X100131868Y-96652400D01*
X100135773Y-96648549D01*
X100135852Y-96648485D01*
X100135912Y-96648412D01*
X100137171Y-96647171D01*
X100688972Y-96095370D01*
X100894009Y-96140451D01*
X101118114Y-96145145D01*
X101338862Y-96106221D01*
X101547846Y-96025162D01*
X101737106Y-95905054D01*
X101899432Y-95750473D01*
X102028641Y-95567307D01*
X102031546Y-95560783D01*
X102129905Y-95713407D01*
X102285615Y-95874650D01*
X102469679Y-96002577D01*
X102675085Y-96092317D01*
X102894009Y-96140451D01*
X103118114Y-96145145D01*
X103338862Y-96106221D01*
X103547846Y-96025162D01*
X103737106Y-95905054D01*
X103899432Y-95750473D01*
X104028641Y-95567307D01*
X104031546Y-95560783D01*
X104129905Y-95713407D01*
X104285615Y-95874650D01*
X104469679Y-96002577D01*
X104675085Y-96092317D01*
X104894009Y-96140451D01*
X105118114Y-96145145D01*
X105338862Y-96106221D01*
X105547846Y-96025162D01*
X105737106Y-95905054D01*
X105899432Y-95750473D01*
X106028641Y-95567307D01*
X106031546Y-95560783D01*
X106129905Y-95713407D01*
X106285615Y-95874650D01*
X106469679Y-96002577D01*
X106675085Y-96092317D01*
X106894009Y-96140451D01*
X107118114Y-96145145D01*
X107338862Y-96106221D01*
X107547846Y-96025162D01*
X107737106Y-95905054D01*
X107899432Y-95750473D01*
X108028641Y-95567307D01*
X108031546Y-95560783D01*
X108129905Y-95713407D01*
X108285615Y-95874650D01*
X108469679Y-96002577D01*
X108675085Y-96092317D01*
X108894009Y-96140451D01*
X109118114Y-96145145D01*
X109338862Y-96106221D01*
X109547846Y-96025162D01*
X109737106Y-95905054D01*
X109899432Y-95750473D01*
X110028641Y-95567307D01*
X110119813Y-95362532D01*
X110169473Y-95143949D01*
X110173049Y-94887923D01*
X110129510Y-94668038D01*
X110044092Y-94460798D01*
X109920047Y-94274095D01*
X109762101Y-94115042D01*
X109576269Y-93989697D01*
X109369630Y-93902834D01*
X109150054Y-93857762D01*
X108925906Y-93856197D01*
X108705722Y-93898199D01*
X108497891Y-93982169D01*
X108310327Y-94104907D01*
X108150175Y-94261739D01*
X108029211Y-94438401D01*
X107920047Y-94274095D01*
X107762101Y-94115042D01*
X107576269Y-93989697D01*
X107369630Y-93902834D01*
X107150054Y-93857762D01*
X106925906Y-93856197D01*
X106705722Y-93898199D01*
X106497891Y-93982169D01*
X106310327Y-94104907D01*
X106150175Y-94261739D01*
X106029211Y-94438401D01*
X105920047Y-94274095D01*
X105762101Y-94115042D01*
X105576269Y-93989697D01*
X105369630Y-93902834D01*
X105150054Y-93857762D01*
X104925906Y-93856197D01*
X104705722Y-93898199D01*
X104497891Y-93982169D01*
X104310327Y-94104907D01*
X104150175Y-94261739D01*
X104029211Y-94438401D01*
X103920047Y-94274095D01*
X103762101Y-94115042D01*
X103576269Y-93989697D01*
X103369630Y-93902834D01*
X103150054Y-93857762D01*
X102925906Y-93856197D01*
X102705722Y-93898199D01*
X102497891Y-93982169D01*
X102310327Y-94104907D01*
X102150175Y-94261739D01*
X102029211Y-94438401D01*
X101920047Y-94274095D01*
X101762101Y-94115042D01*
X101576269Y-93989697D01*
X101369630Y-93902834D01*
X101150054Y-93857762D01*
X100925906Y-93856197D01*
X100705722Y-93898199D01*
X100497891Y-93982169D01*
X100310327Y-94104907D01*
X100150175Y-94261739D01*
X100029211Y-94438401D01*
X99920047Y-94274095D01*
X99762101Y-94115042D01*
X99576269Y-93989697D01*
X99369630Y-93902834D01*
X99150054Y-93857762D01*
X98925906Y-93856197D01*
X98705722Y-93898199D01*
X98497891Y-93982169D01*
X98310327Y-94104907D01*
X98150175Y-94261739D01*
X98060167Y-94393191D01*
X97959605Y-94241833D01*
X97794639Y-94075711D01*
X97600547Y-93944795D01*
X97384724Y-93854071D01*
X97223427Y-93820961D01*
X111061778Y-93820961D01*
X111100076Y-94029627D01*
X111178174Y-94226881D01*
X111293099Y-94405209D01*
X111440472Y-94557818D01*
X111614680Y-94678896D01*
X111809088Y-94763831D01*
X112016291Y-94809387D01*
X112228396Y-94813830D01*
X112437325Y-94776990D01*
X112635119Y-94700271D01*
X112814245Y-94586594D01*
X112967879Y-94440290D01*
X113090171Y-94266932D01*
X113176460Y-94073121D01*
X113223462Y-93866241D01*
X113226846Y-93623924D01*
X113185639Y-93415813D01*
X113104794Y-93219668D01*
X113011999Y-93080000D01*
X113561111Y-93080000D01*
X113561111Y-94380000D01*
X113566594Y-94448763D01*
X113602712Y-94565391D01*
X113669892Y-94667340D01*
X113762814Y-94746537D01*
X113874121Y-94796711D01*
X113995000Y-94813889D01*
X115295000Y-94813889D01*
X115363763Y-94808406D01*
X115480391Y-94772288D01*
X115582340Y-94705108D01*
X115661537Y-94612186D01*
X115711711Y-94500879D01*
X115728889Y-94380000D01*
X115728889Y-93080000D01*
X115723406Y-93011237D01*
X115687288Y-92894609D01*
X115620108Y-92792660D01*
X115527186Y-92713463D01*
X115415879Y-92663289D01*
X115295000Y-92646111D01*
X113995000Y-92646111D01*
X113926237Y-92651594D01*
X113809609Y-92687712D01*
X113707660Y-92754892D01*
X113628463Y-92847814D01*
X113578289Y-92959121D01*
X113561111Y-93080000D01*
X113011999Y-93080000D01*
X112987391Y-93042963D01*
X112837902Y-92892426D01*
X112662020Y-92773792D01*
X112466445Y-92691580D01*
X112258626Y-92648921D01*
X112046479Y-92647440D01*
X111838085Y-92687193D01*
X111641381Y-92766667D01*
X111463860Y-92882833D01*
X111312284Y-93031268D01*
X111192425Y-93206317D01*
X111108849Y-93401314D01*
X111064740Y-93608829D01*
X111061778Y-93820961D01*
X97223427Y-93820961D01*
X97155390Y-93806995D01*
X96921279Y-93805361D01*
X96691310Y-93849230D01*
X96474241Y-93936931D01*
X96278341Y-94065125D01*
X96111071Y-94228927D01*
X95998890Y-94392764D01*
X95920047Y-94274095D01*
X95762101Y-94115042D01*
X95576269Y-93989697D01*
X95369630Y-93902834D01*
X95150054Y-93857762D01*
X94925906Y-93856197D01*
X94705722Y-93898199D01*
X94497891Y-93982169D01*
X94310327Y-94104907D01*
X94150175Y-94261739D01*
X94029211Y-94438401D01*
X93920047Y-94274095D01*
X93762101Y-94115042D01*
X93576269Y-93989697D01*
X93369630Y-93902834D01*
X93150054Y-93857762D01*
X92925906Y-93856197D01*
X92705722Y-93898199D01*
X92497891Y-93982169D01*
X92310327Y-94104907D01*
X92150175Y-94261739D01*
X92029211Y-94438401D01*
X91920047Y-94274095D01*
X91762101Y-94115042D01*
X91576269Y-93989697D01*
X91369630Y-93902834D01*
X91150054Y-93857762D01*
X90925906Y-93856197D01*
X90705722Y-93898199D01*
X90497891Y-93982169D01*
X90310327Y-94104907D01*
X90150175Y-94261739D01*
X90029211Y-94438401D01*
X89920047Y-94274095D01*
X89762101Y-94115042D01*
X89576269Y-93989697D01*
X89369630Y-93902834D01*
X89150054Y-93857762D01*
X88925906Y-93856197D01*
X88705722Y-93898199D01*
X88497891Y-93982169D01*
X88310327Y-94104907D01*
X88150175Y-94261739D01*
X88029211Y-94438401D01*
X87920047Y-94274095D01*
X87762101Y-94115042D01*
X87576269Y-93989697D01*
X87369630Y-93902834D01*
X87150054Y-93857762D01*
X86925906Y-93856197D01*
X86705722Y-93898199D01*
X86497891Y-93982169D01*
X86310327Y-94104907D01*
X86150175Y-94261739D01*
X86029211Y-94438401D01*
X85920047Y-94274095D01*
X85762101Y-94115042D01*
X85576269Y-93989697D01*
X85369630Y-93902834D01*
X85150054Y-93857762D01*
X84925906Y-93856197D01*
X84705722Y-93898199D01*
X84497891Y-93982169D01*
X84310327Y-94104907D01*
X84153804Y-94258185D01*
X83995565Y-94214040D01*
X83209605Y-95000000D01*
X83995565Y-95785960D01*
X84156588Y-95741038D01*
X84285615Y-95874650D01*
X84469679Y-96002577D01*
X84675085Y-96092317D01*
X84894009Y-96140451D01*
X85118114Y-96145145D01*
X85338862Y-96106221D01*
X85547846Y-96025162D01*
X85737106Y-95905054D01*
X85899432Y-95750473D01*
X86028641Y-95567307D01*
X86031546Y-95560783D01*
X86129905Y-95713407D01*
X86285615Y-95874650D01*
X86469679Y-96002577D01*
X86675085Y-96092317D01*
X86894009Y-96140451D01*
X87118114Y-96145145D01*
X87338862Y-96106221D01*
X87547846Y-96025162D01*
X87737106Y-95905054D01*
X87899432Y-95750473D01*
X88028641Y-95567307D01*
X88031546Y-95560783D01*
X88129905Y-95713407D01*
X88285615Y-95874650D01*
X88469679Y-96002577D01*
X88675085Y-96092317D01*
X88894009Y-96140451D01*
X89118114Y-96145145D01*
X89338862Y-96106221D01*
X89547846Y-96025162D01*
X89737106Y-95905054D01*
X89899432Y-95750473D01*
X90028641Y-95567307D01*
X90031546Y-95560783D01*
X90129905Y-95713407D01*
X90285615Y-95874650D01*
X90469679Y-96002577D01*
X90675085Y-96092317D01*
X90894009Y-96140451D01*
X91118114Y-96145145D01*
X91338862Y-96106221D01*
X91547846Y-96025162D01*
X91737106Y-95905054D01*
X91899432Y-95750473D01*
X92028641Y-95567307D01*
X92031546Y-95560783D01*
X92129905Y-95713407D01*
X92285615Y-95874650D01*
X92469679Y-96002577D01*
X92675085Y-96092317D01*
X92894009Y-96140451D01*
X93118114Y-96145145D01*
X93338862Y-96106221D01*
X93547846Y-96025162D01*
X93737106Y-95905054D01*
X93899432Y-95750473D01*
X94028641Y-95567307D01*
X94031546Y-95560783D01*
X94129905Y-95713407D01*
X94285615Y-95874650D01*
X94469679Y-96002577D01*
X94675085Y-96092317D01*
X94894009Y-96140451D01*
X94954339Y-96141715D01*
X94693027Y-96403027D01*
X94664641Y-96417993D01*
X94608389Y-96447401D01*
X94607484Y-96448129D01*
X94606463Y-96448667D01*
X94557393Y-96488402D01*
X94507942Y-96528162D01*
X94507197Y-96529050D01*
X94506298Y-96529778D01*
X94465723Y-96578477D01*
X94425095Y-96626896D01*
X94424540Y-96627906D01*
X94423795Y-96628800D01*
X94393439Y-96684478D01*
X94363003Y-96739841D01*
X94362653Y-96740946D01*
X94362099Y-96741961D01*
X94343202Y-96802262D01*
X94324031Y-96862695D01*
X94323902Y-96863848D01*
X94323556Y-96864951D01*
X94316728Y-96927800D01*
X94309664Y-96990779D01*
X94309649Y-96992966D01*
X94309636Y-96993084D01*
X94309647Y-96993211D01*
X94309600Y-97000000D01*
X94309600Y-104578443D01*
X94308032Y-104592422D01*
X94307985Y-104599210D01*
X94307972Y-104599337D01*
X94307983Y-104599455D01*
X94307968Y-104601643D01*
X94307968Y-105442893D01*
X94309600Y-105459538D01*
X94309600Y-113171453D01*
X93215153Y-114265901D01*
X86241059Y-114265901D01*
X86483804Y-114111851D01*
X86715389Y-113891315D01*
X86899728Y-113629998D01*
X87029800Y-113337853D01*
X87100649Y-113026007D01*
X87105750Y-112660744D01*
X87043635Y-112347041D01*
X86956815Y-112136400D01*
X89550334Y-112136400D01*
X89572123Y-112375816D01*
X89639999Y-112606440D01*
X89751378Y-112819488D01*
X89902017Y-113006845D01*
X90086178Y-113161375D01*
X90296846Y-113277191D01*
X90525998Y-113349882D01*
X90764905Y-113376680D01*
X90782104Y-113376800D01*
X91597896Y-113376800D01*
X91837154Y-113353341D01*
X92067298Y-113283856D01*
X92279564Y-113170992D01*
X92465864Y-113019049D01*
X92619104Y-112833814D01*
X92733447Y-112622342D01*
X92804537Y-112392688D01*
X92829666Y-112153600D01*
X92807877Y-111914184D01*
X92740001Y-111683560D01*
X92628622Y-111470512D01*
X92477983Y-111283155D01*
X92293822Y-111128625D01*
X92083154Y-111012809D01*
X91854002Y-110940118D01*
X91615095Y-110913320D01*
X91597896Y-110913200D01*
X90782104Y-110913200D01*
X90542846Y-110936659D01*
X90312702Y-111006144D01*
X90100436Y-111119008D01*
X89914136Y-111270951D01*
X89760896Y-111456186D01*
X89646553Y-111667658D01*
X89575463Y-111897312D01*
X89550334Y-112136400D01*
X86956815Y-112136400D01*
X86921771Y-112051378D01*
X86744801Y-111785016D01*
X86519464Y-111558100D01*
X86254344Y-111379274D01*
X85959538Y-111255350D01*
X85646277Y-111191046D01*
X85326492Y-111188814D01*
X85012364Y-111248737D01*
X84715857Y-111368533D01*
X84448266Y-111543640D01*
X84219783Y-111767388D01*
X84039110Y-112031253D01*
X83913130Y-112325186D01*
X83846642Y-112637990D01*
X83842177Y-112957752D01*
X83881847Y-113173901D01*
X80304701Y-109596755D01*
X89601379Y-109596755D01*
X89622269Y-109826297D01*
X89687346Y-110047410D01*
X89794131Y-110251672D01*
X89938558Y-110431302D01*
X90115124Y-110579459D01*
X90317105Y-110690499D01*
X90536806Y-110760192D01*
X90765861Y-110785885D01*
X90782350Y-110786000D01*
X91597650Y-110786000D01*
X91827041Y-110763508D01*
X92047694Y-110696889D01*
X92251205Y-110588680D01*
X92429823Y-110443003D01*
X92576743Y-110265407D01*
X92686370Y-110062656D01*
X92754528Y-109842473D01*
X92778621Y-109613245D01*
X92757731Y-109383703D01*
X92692654Y-109162590D01*
X92585869Y-108958328D01*
X92441442Y-108778698D01*
X92264876Y-108630541D01*
X92062895Y-108519501D01*
X91843194Y-108449808D01*
X91614139Y-108424115D01*
X91597650Y-108424000D01*
X90782350Y-108424000D01*
X90552959Y-108446492D01*
X90332306Y-108513111D01*
X90128795Y-108621320D01*
X89950177Y-108766997D01*
X89803257Y-108944593D01*
X89693630Y-109147344D01*
X89625472Y-109367527D01*
X89601379Y-109596755D01*
X80304701Y-109596755D01*
X79845973Y-109138027D01*
X79798858Y-109099326D01*
X79752104Y-109060095D01*
X79749062Y-109058423D01*
X79746378Y-109056218D01*
X79692620Y-109027393D01*
X79639159Y-108998003D01*
X79635848Y-108996953D01*
X79632788Y-108995312D01*
X79574479Y-108977485D01*
X79516305Y-108959031D01*
X79512852Y-108958644D01*
X79509533Y-108957629D01*
X79448878Y-108951468D01*
X79388221Y-108944664D01*
X79381433Y-108944617D01*
X79381306Y-108944604D01*
X79381188Y-108944615D01*
X79379000Y-108944600D01*
X73646346Y-108944600D01*
X73440499Y-108738753D01*
X73496913Y-108693395D01*
X73626352Y-108539135D01*
X73723364Y-108362671D01*
X73784253Y-108170725D01*
X73792157Y-108100257D01*
X73792157Y-108550000D01*
X73796995Y-108610673D01*
X73828864Y-108713580D01*
X73888140Y-108803535D01*
X73970130Y-108873415D01*
X74068342Y-108917686D01*
X74175000Y-108932843D01*
X75375000Y-108932843D01*
X75435673Y-108928005D01*
X75538580Y-108896136D01*
X75628535Y-108836860D01*
X75698415Y-108754870D01*
X75742686Y-108656658D01*
X75757843Y-108550000D01*
X75757843Y-107056755D01*
X89601379Y-107056755D01*
X89622269Y-107286297D01*
X89687346Y-107507410D01*
X89794131Y-107711672D01*
X89938558Y-107891302D01*
X90115124Y-108039459D01*
X90317105Y-108150499D01*
X90536806Y-108220192D01*
X90765861Y-108245885D01*
X90782350Y-108246000D01*
X91597650Y-108246000D01*
X91827041Y-108223508D01*
X92047694Y-108156889D01*
X92251205Y-108048680D01*
X92429823Y-107903003D01*
X92576743Y-107725407D01*
X92686370Y-107522656D01*
X92754528Y-107302473D01*
X92778621Y-107073245D01*
X92757731Y-106843703D01*
X92692654Y-106622590D01*
X92585869Y-106418328D01*
X92441442Y-106238698D01*
X92264876Y-106090541D01*
X92062895Y-105979501D01*
X91843194Y-105909808D01*
X91614139Y-105884115D01*
X91597650Y-105884000D01*
X90782350Y-105884000D01*
X90552959Y-105906492D01*
X90332306Y-105973111D01*
X90128795Y-106081320D01*
X89950177Y-106226997D01*
X89803257Y-106404593D01*
X89693630Y-106607344D01*
X89625472Y-106827527D01*
X89601379Y-107056755D01*
X75757843Y-107056755D01*
X75757843Y-106850000D01*
X75753005Y-106789327D01*
X75721136Y-106686420D01*
X75661860Y-106596465D01*
X75579870Y-106526585D01*
X75481658Y-106482314D01*
X75375000Y-106467157D01*
X74175000Y-106467157D01*
X74114327Y-106471995D01*
X74011420Y-106503864D01*
X73921465Y-106563140D01*
X73851585Y-106645130D01*
X73807314Y-106743342D01*
X73792157Y-106850000D01*
X73792157Y-107294454D01*
X73787150Y-107243387D01*
X73728947Y-107050610D01*
X73634408Y-106872809D01*
X73507135Y-106716756D01*
X73351975Y-106588397D01*
X73174839Y-106492620D01*
X72982472Y-106433072D01*
X72782203Y-106412023D01*
X72581660Y-106430274D01*
X72388481Y-106487130D01*
X72210024Y-106580425D01*
X72053087Y-106706605D01*
X71923648Y-106860865D01*
X71826636Y-107037329D01*
X71765747Y-107229275D01*
X71749310Y-107375817D01*
X71737317Y-107253500D01*
X71681980Y-107070214D01*
X71592096Y-106901167D01*
X71471089Y-106752798D01*
X71323568Y-106630758D01*
X71155153Y-106539696D01*
X70972257Y-106483081D01*
X70781849Y-106463068D01*
X70591179Y-106480420D01*
X70407511Y-106534477D01*
X70237840Y-106623178D01*
X70088630Y-106743146D01*
X69965564Y-106889811D01*
X69873328Y-107057587D01*
X69815437Y-107240083D01*
X69794096Y-107430347D01*
X69794000Y-107444044D01*
X66094205Y-107444044D01*
X65667411Y-106613593D01*
X65066153Y-104516755D01*
X89601379Y-104516755D01*
X89622269Y-104746297D01*
X89687346Y-104967410D01*
X89794131Y-105171672D01*
X89938558Y-105351302D01*
X90115124Y-105499459D01*
X90317105Y-105610499D01*
X90536806Y-105680192D01*
X90765861Y-105705885D01*
X90782350Y-105706000D01*
X91597650Y-105706000D01*
X91827041Y-105683508D01*
X92047694Y-105616889D01*
X92251205Y-105508680D01*
X92429823Y-105363003D01*
X92576743Y-105185407D01*
X92686370Y-104982656D01*
X92754528Y-104762473D01*
X92778621Y-104533245D01*
X92757731Y-104303703D01*
X92692654Y-104082590D01*
X92585869Y-103878328D01*
X92441442Y-103698698D01*
X92264876Y-103550541D01*
X92062895Y-103439501D01*
X91843194Y-103369808D01*
X91614139Y-103344115D01*
X91597650Y-103344000D01*
X90782350Y-103344000D01*
X90552959Y-103366492D01*
X90332306Y-103433111D01*
X90128795Y-103541320D01*
X89950177Y-103686997D01*
X89803257Y-103864593D01*
X89693630Y-104067344D01*
X89625472Y-104287527D01*
X89601379Y-104516755D01*
X65066153Y-104516755D01*
X64665528Y-103119609D01*
X68109997Y-103119609D01*
X68296073Y-103460766D01*
X68713409Y-103676513D01*
X69164815Y-103806696D01*
X69632946Y-103846313D01*
X70099811Y-103793842D01*
X70547468Y-103651297D01*
X70903927Y-103460766D01*
X71090003Y-103119609D01*
X69600000Y-101629605D01*
X68109997Y-103119609D01*
X64665528Y-103119609D01*
X64196222Y-101482946D01*
X67203687Y-101482946D01*
X67256158Y-101949811D01*
X67398703Y-102397468D01*
X67589234Y-102753927D01*
X67930391Y-102940003D01*
X69420395Y-101450000D01*
X69779605Y-101450000D01*
X71269609Y-102940003D01*
X71610766Y-102753927D01*
X71826513Y-102336591D01*
X71956696Y-101885185D01*
X71996313Y-101417054D01*
X71945566Y-100965527D01*
X84674078Y-100965527D01*
X84727466Y-101194201D01*
X84957374Y-101300095D01*
X85203524Y-101359102D01*
X85456455Y-101368952D01*
X85706449Y-101329270D01*
X85943896Y-101241578D01*
X86032534Y-101194201D01*
X86085922Y-100965527D01*
X85380000Y-100259605D01*
X84674078Y-100965527D01*
X71945566Y-100965527D01*
X71943842Y-100950189D01*
X71801297Y-100502532D01*
X71616316Y-100156455D01*
X84091048Y-100156455D01*
X84130730Y-100406449D01*
X84218422Y-100643896D01*
X84265799Y-100732534D01*
X84494473Y-100785922D01*
X85200395Y-100080000D01*
X85559605Y-100080000D01*
X86265527Y-100785922D01*
X86299930Y-100777890D01*
X86301594Y-100798763D01*
X86337712Y-100915391D01*
X86404892Y-101017340D01*
X86497814Y-101096537D01*
X86609121Y-101146711D01*
X86730000Y-101163889D01*
X88030000Y-101163889D01*
X88098763Y-101158406D01*
X88215391Y-101122288D01*
X88317340Y-101055108D01*
X88396537Y-100962186D01*
X88446711Y-100850879D01*
X88463889Y-100730000D01*
X88463889Y-100365750D01*
X91125000Y-100365750D01*
X91125000Y-100842542D01*
X91149403Y-100965223D01*
X91197270Y-101080785D01*
X91266763Y-101184789D01*
X91355211Y-101273237D01*
X91459215Y-101342730D01*
X91574777Y-101390597D01*
X91697458Y-101415000D01*
X92174250Y-101415000D01*
X92333000Y-101256250D01*
X92333000Y-100207000D01*
X92587000Y-100207000D01*
X92587000Y-101256250D01*
X92745750Y-101415000D01*
X93222542Y-101415000D01*
X93345223Y-101390597D01*
X93460785Y-101342730D01*
X93564789Y-101273237D01*
X93653237Y-101184789D01*
X93722730Y-101080785D01*
X93770597Y-100965223D01*
X93795000Y-100842542D01*
X93795000Y-100365750D01*
X93636250Y-100207000D01*
X92587000Y-100207000D01*
X92333000Y-100207000D01*
X91283750Y-100207000D01*
X91125000Y-100365750D01*
X88463889Y-100365750D01*
X88463889Y-99430000D01*
X88458406Y-99361237D01*
X88444849Y-99317458D01*
X91125000Y-99317458D01*
X91125000Y-99794250D01*
X91283750Y-99953000D01*
X92333000Y-99953000D01*
X92333000Y-98903750D01*
X92587000Y-98903750D01*
X92587000Y-99953000D01*
X93636250Y-99953000D01*
X93795000Y-99794250D01*
X93795000Y-99317458D01*
X93770597Y-99194777D01*
X93722730Y-99079215D01*
X93653237Y-98975211D01*
X93564789Y-98886763D01*
X93460785Y-98817270D01*
X93345223Y-98769403D01*
X93222542Y-98745000D01*
X92745750Y-98745000D01*
X92587000Y-98903750D01*
X92333000Y-98903750D01*
X92174250Y-98745000D01*
X91697458Y-98745000D01*
X91574777Y-98769403D01*
X91459215Y-98817270D01*
X91355211Y-98886763D01*
X91266763Y-98975211D01*
X91197270Y-99079215D01*
X91149403Y-99194777D01*
X91125000Y-99317458D01*
X88444849Y-99317458D01*
X88422288Y-99244609D01*
X88355108Y-99142660D01*
X88262186Y-99063463D01*
X88150879Y-99013289D01*
X88030000Y-98996111D01*
X86730000Y-98996111D01*
X86661237Y-99001594D01*
X86544609Y-99037712D01*
X86442660Y-99104892D01*
X86363463Y-99197814D01*
X86313289Y-99309121D01*
X86302821Y-99382785D01*
X86265527Y-99374078D01*
X85559605Y-100080000D01*
X85200395Y-100080000D01*
X84494473Y-99374078D01*
X84265799Y-99427466D01*
X84159905Y-99657374D01*
X84100898Y-99903524D01*
X84091048Y-100156455D01*
X71616316Y-100156455D01*
X71610766Y-100146073D01*
X71269609Y-99959997D01*
X69779605Y-101450000D01*
X69420395Y-101450000D01*
X67930391Y-99959997D01*
X67589234Y-100146073D01*
X67373487Y-100563409D01*
X67243304Y-101014815D01*
X67203687Y-101482946D01*
X64196222Y-101482946D01*
X63970287Y-100695018D01*
X63893484Y-99780391D01*
X68109997Y-99780391D01*
X69600000Y-101270395D01*
X71090003Y-99780391D01*
X70918289Y-99465565D01*
X71214040Y-99465565D01*
X71281020Y-99705656D01*
X71530048Y-99822756D01*
X71797135Y-99889023D01*
X72072017Y-99901910D01*
X72344133Y-99860922D01*
X72603023Y-99767636D01*
X72718980Y-99705656D01*
X72785960Y-99465565D01*
X72000000Y-98679605D01*
X71214040Y-99465565D01*
X70918289Y-99465565D01*
X70903927Y-99439234D01*
X70486591Y-99223487D01*
X70035185Y-99093304D01*
X69567054Y-99053687D01*
X69100189Y-99106158D01*
X68652532Y-99248703D01*
X68296073Y-99439234D01*
X68109997Y-99780391D01*
X63893484Y-99780391D01*
X63792014Y-98572017D01*
X70598090Y-98572017D01*
X70639078Y-98844133D01*
X70732364Y-99103023D01*
X70794344Y-99218980D01*
X71034435Y-99285960D01*
X71820395Y-98500000D01*
X72179605Y-98500000D01*
X72965565Y-99285960D01*
X73205656Y-99218980D01*
X73217179Y-99194473D01*
X84674078Y-99194473D01*
X85380000Y-99900395D01*
X86085922Y-99194473D01*
X86032534Y-98965799D01*
X85802626Y-98859905D01*
X85556476Y-98800898D01*
X85303545Y-98791048D01*
X85053551Y-98830730D01*
X84816104Y-98918422D01*
X84727466Y-98965799D01*
X84674078Y-99194473D01*
X73217179Y-99194473D01*
X73322756Y-98969952D01*
X73389023Y-98702865D01*
X73401910Y-98427983D01*
X73360922Y-98155867D01*
X73267636Y-97896977D01*
X73205656Y-97781020D01*
X72965565Y-97714040D01*
X72179605Y-98500000D01*
X71820395Y-98500000D01*
X71034435Y-97714040D01*
X70794344Y-97781020D01*
X70677244Y-98030048D01*
X70610977Y-98297135D01*
X70598090Y-98572017D01*
X63792014Y-98572017D01*
X63455075Y-94559521D01*
X63507079Y-94095893D01*
X70858041Y-94095893D01*
X70898415Y-94315874D01*
X70980748Y-94523824D01*
X71101905Y-94711822D01*
X71257269Y-94872706D01*
X71440924Y-95000349D01*
X71443216Y-95001350D01*
X71281926Y-95106896D01*
X71122130Y-95263380D01*
X70995772Y-95447921D01*
X70907664Y-95653491D01*
X70861164Y-95872259D01*
X70858041Y-96095893D01*
X70898415Y-96315874D01*
X70980748Y-96523824D01*
X71101905Y-96711822D01*
X71257269Y-96872706D01*
X71440924Y-97000349D01*
X71645873Y-97089890D01*
X71782700Y-97119973D01*
X71655867Y-97139078D01*
X71396977Y-97232364D01*
X71281020Y-97294344D01*
X71214040Y-97534435D01*
X72000000Y-98320395D01*
X72785960Y-97534435D01*
X72718980Y-97294344D01*
X72469952Y-97177244D01*
X72229619Y-97117615D01*
X72308176Y-97103763D01*
X72516696Y-97022884D01*
X72705535Y-96903043D01*
X72867500Y-96748806D01*
X72996422Y-96566047D01*
X73087391Y-96361727D01*
X73136942Y-96143629D01*
X73140509Y-95888172D01*
X73097067Y-95668776D01*
X73011839Y-95461996D01*
X72888069Y-95275708D01*
X72730474Y-95117009D01*
X72705818Y-95100378D01*
X79834631Y-95100378D01*
X79876894Y-95330648D01*
X79963077Y-95548324D01*
X80089900Y-95745114D01*
X80252531Y-95913523D01*
X80444775Y-96047136D01*
X80659311Y-96140865D01*
X80887965Y-96191138D01*
X81122030Y-96196041D01*
X81352590Y-96155387D01*
X81570862Y-96070725D01*
X81736567Y-95965565D01*
X82244040Y-95965565D01*
X82311020Y-96205656D01*
X82560048Y-96322756D01*
X82827135Y-96389023D01*
X83102017Y-96401910D01*
X83374133Y-96360922D01*
X83633023Y-96267636D01*
X83748980Y-96205656D01*
X83815960Y-95965565D01*
X83030000Y-95179605D01*
X82244040Y-95965565D01*
X81736567Y-95965565D01*
X81768533Y-95945279D01*
X81938073Y-95783828D01*
X81957595Y-95756154D01*
X82064435Y-95785960D01*
X82850395Y-95000000D01*
X82064435Y-94214040D01*
X81960419Y-94243058D01*
X81959605Y-94241833D01*
X81794639Y-94075711D01*
X81733445Y-94034435D01*
X82244040Y-94034435D01*
X83030000Y-94820395D01*
X83815960Y-94034435D01*
X83748980Y-93794344D01*
X83499952Y-93677244D01*
X83232865Y-93610977D01*
X82957983Y-93598090D01*
X82685867Y-93639078D01*
X82426977Y-93732364D01*
X82311020Y-93794344D01*
X82244040Y-94034435D01*
X81733445Y-94034435D01*
X81600547Y-93944795D01*
X81384724Y-93854071D01*
X81155390Y-93806995D01*
X80921279Y-93805361D01*
X80691310Y-93849230D01*
X80474241Y-93936931D01*
X80278341Y-94065125D01*
X80111071Y-94228927D01*
X79978804Y-94422100D01*
X79886575Y-94637284D01*
X79837900Y-94866285D01*
X79834631Y-95100378D01*
X72705818Y-95100378D01*
X72554943Y-94998612D01*
X72705535Y-94903043D01*
X72867500Y-94748806D01*
X72996422Y-94566047D01*
X73087391Y-94361727D01*
X73136942Y-94143629D01*
X73140509Y-93888172D01*
X73097067Y-93668776D01*
X73011839Y-93461996D01*
X72888069Y-93275708D01*
X72730474Y-93117009D01*
X72545055Y-92991942D01*
X72338875Y-92905272D01*
X72119787Y-92860300D01*
X71896137Y-92858738D01*
X71676443Y-92900647D01*
X71469073Y-92984430D01*
X71281926Y-93106896D01*
X71122130Y-93263380D01*
X70995772Y-93447921D01*
X70907664Y-93653491D01*
X70861164Y-93872259D01*
X70858041Y-94095893D01*
X63507079Y-94095893D01*
X63786995Y-91600378D01*
X70804631Y-91600378D01*
X70846894Y-91830648D01*
X70933077Y-92048324D01*
X71059900Y-92245114D01*
X71222531Y-92413523D01*
X71414775Y-92547136D01*
X71629311Y-92640865D01*
X71857965Y-92691138D01*
X72092030Y-92696041D01*
X72322590Y-92655387D01*
X72540862Y-92570725D01*
X72738533Y-92445279D01*
X72908073Y-92283828D01*
X73043025Y-92092521D01*
X73138249Y-91878645D01*
X73190117Y-91650347D01*
X73193851Y-91382942D01*
X73148377Y-91153284D01*
X73059163Y-90936833D01*
X72929605Y-90741833D01*
X72764639Y-90575711D01*
X72570547Y-90444795D01*
X72354724Y-90354071D01*
X72125390Y-90306995D01*
X71891279Y-90305361D01*
X71661310Y-90349230D01*
X71444241Y-90436931D01*
X71248341Y-90565125D01*
X71081071Y-90728927D01*
X70948804Y-90922100D01*
X70856575Y-91137284D01*
X70807900Y-91366285D01*
X70804631Y-91600378D01*
X63786995Y-91600378D01*
X63941873Y-90219609D01*
X68109997Y-90219609D01*
X68296073Y-90560766D01*
X68713409Y-90776513D01*
X69164815Y-90906696D01*
X69632946Y-90946313D01*
X70099811Y-90893842D01*
X70547468Y-90751297D01*
X70903927Y-90560766D01*
X71090003Y-90219609D01*
X69600000Y-88729605D01*
X68109997Y-90219609D01*
X63941873Y-90219609D01*
X64125455Y-88582946D01*
X67203687Y-88582946D01*
X67256158Y-89049811D01*
X67398703Y-89497468D01*
X67589234Y-89853927D01*
X67930391Y-90040003D01*
X69420395Y-88550000D01*
X69779605Y-88550000D01*
X71269609Y-90040003D01*
X71610766Y-89853927D01*
X71826513Y-89436591D01*
X71956696Y-88985185D01*
X71996313Y-88517054D01*
X71943842Y-88050189D01*
X71801297Y-87602532D01*
X71610766Y-87246073D01*
X71269609Y-87059997D01*
X69779605Y-88550000D01*
X69420395Y-88550000D01*
X67930391Y-87059997D01*
X67589234Y-87246073D01*
X67373487Y-87663409D01*
X67243304Y-88114815D01*
X67203687Y-88582946D01*
X64125455Y-88582946D01*
X64141399Y-88440802D01*
X64636390Y-86880391D01*
X68109997Y-86880391D01*
X69600000Y-88370395D01*
X71090003Y-86880391D01*
X70903927Y-86539234D01*
X70486591Y-86323487D01*
X70035185Y-86193304D01*
X69567054Y-86153687D01*
X69100189Y-86206158D01*
X68652532Y-86348703D01*
X68296073Y-86539234D01*
X68109997Y-86880391D01*
X64636390Y-86880391D01*
X66003118Y-82571921D01*
X66619899Y-81450000D01*
X68376111Y-81450000D01*
X68376111Y-83150000D01*
X68381594Y-83218763D01*
X68417712Y-83335391D01*
X68484892Y-83437340D01*
X68577814Y-83516537D01*
X68689121Y-83566711D01*
X68810000Y-83583889D01*
X70010000Y-83583889D01*
X70078763Y-83578406D01*
X70195391Y-83542288D01*
X70297340Y-83475108D01*
X70376537Y-83382186D01*
X70426711Y-83270879D01*
X70443889Y-83150000D01*
X70443889Y-82681887D01*
X70450175Y-82745995D01*
X70505369Y-82928806D01*
X70595020Y-83097415D01*
X70715713Y-83245400D01*
X70862852Y-83367124D01*
X71030831Y-83457950D01*
X71213253Y-83514419D01*
X71403169Y-83534380D01*
X71593345Y-83517073D01*
X71776538Y-83463156D01*
X71945769Y-83374684D01*
X72094593Y-83255027D01*
X72217341Y-83108742D01*
X72309337Y-82941400D01*
X72367078Y-82759377D01*
X72388365Y-82569605D01*
X72388460Y-82555944D01*
X72388460Y-82044056D01*
X72431540Y-82044056D01*
X72431540Y-82555944D01*
X72450175Y-82745995D01*
X72505369Y-82928806D01*
X72595020Y-83097415D01*
X72715713Y-83245400D01*
X72862852Y-83367124D01*
X73030831Y-83457950D01*
X73213253Y-83514419D01*
X73403169Y-83534380D01*
X73593345Y-83517073D01*
X73776538Y-83463156D01*
X73945769Y-83374684D01*
X74094593Y-83255027D01*
X74217341Y-83108742D01*
X74262581Y-83026449D01*
X74287348Y-83093705D01*
X74414991Y-83302276D01*
X74580872Y-83481938D01*
X74778616Y-83625786D01*
X75000623Y-83728292D01*
X75092391Y-83743462D01*
X75283000Y-83618731D01*
X75283000Y-82427000D01*
X75537000Y-82427000D01*
X75537000Y-83618731D01*
X75727609Y-83743462D01*
X75819377Y-83728292D01*
X76041384Y-83625786D01*
X76239128Y-83481938D01*
X76405009Y-83302276D01*
X76410000Y-83294121D01*
X76414991Y-83302276D01*
X76580872Y-83481938D01*
X76778616Y-83625786D01*
X77000623Y-83728292D01*
X77092391Y-83743462D01*
X77283000Y-83618731D01*
X77283000Y-82427000D01*
X77537000Y-82427000D01*
X77537000Y-83618731D01*
X77727609Y-83743462D01*
X77819377Y-83728292D01*
X78041384Y-83625786D01*
X78239128Y-83481938D01*
X78405009Y-83302276D01*
X78532652Y-83093705D01*
X78617152Y-82864239D01*
X78655262Y-82622697D01*
X78550011Y-82496107D01*
X79885498Y-82496107D01*
X79925962Y-82716578D01*
X80008479Y-82924991D01*
X80129905Y-83113407D01*
X80285615Y-83274650D01*
X80468236Y-83401574D01*
X80310327Y-83504907D01*
X80150175Y-83661739D01*
X80023535Y-83846691D01*
X79935232Y-84052719D01*
X79888628Y-84271975D01*
X79885498Y-84496107D01*
X79925962Y-84716578D01*
X80008479Y-84924991D01*
X80129905Y-85113407D01*
X80285615Y-85274650D01*
X80468236Y-85401574D01*
X80310327Y-85504907D01*
X80150175Y-85661739D01*
X80023535Y-85846691D01*
X79935232Y-86052719D01*
X79888628Y-86271975D01*
X79885498Y-86496107D01*
X79925962Y-86716578D01*
X80008479Y-86924991D01*
X80129905Y-87113407D01*
X80285615Y-87274650D01*
X80468236Y-87401574D01*
X80310327Y-87504907D01*
X80150175Y-87661739D01*
X80023535Y-87846691D01*
X79935232Y-88052719D01*
X79888628Y-88271975D01*
X79885498Y-88496107D01*
X79925962Y-88716578D01*
X80008479Y-88924991D01*
X80129905Y-89113407D01*
X80285615Y-89274650D01*
X80468236Y-89401574D01*
X80310327Y-89504907D01*
X80150175Y-89661739D01*
X80023535Y-89846691D01*
X79935232Y-90052719D01*
X79888628Y-90271975D01*
X79885498Y-90496107D01*
X79925962Y-90716578D01*
X80008479Y-90924991D01*
X80129905Y-91113407D01*
X80285615Y-91274650D01*
X80469679Y-91402577D01*
X80675085Y-91492317D01*
X80894009Y-91540451D01*
X81118114Y-91545145D01*
X81338862Y-91506221D01*
X81547846Y-91425162D01*
X81737106Y-91305054D01*
X81899432Y-91150473D01*
X82028641Y-90967307D01*
X82119813Y-90762532D01*
X82169473Y-90543949D01*
X82173049Y-90287923D01*
X82129510Y-90068038D01*
X82044092Y-89860798D01*
X81920047Y-89674095D01*
X81762101Y-89515042D01*
X81589581Y-89398676D01*
X81737106Y-89305054D01*
X81899432Y-89150473D01*
X82028641Y-88967307D01*
X82119813Y-88762532D01*
X82169473Y-88543949D01*
X82173049Y-88287923D01*
X82129510Y-88068038D01*
X82044092Y-87860798D01*
X81920047Y-87674095D01*
X81762101Y-87515042D01*
X81589581Y-87398676D01*
X81737106Y-87305054D01*
X81899432Y-87150473D01*
X82028641Y-86967307D01*
X82119813Y-86762532D01*
X82169473Y-86543949D01*
X82173049Y-86287923D01*
X82129510Y-86068038D01*
X82044092Y-85860798D01*
X81920047Y-85674095D01*
X81762101Y-85515042D01*
X81589581Y-85398676D01*
X81737106Y-85305054D01*
X81899432Y-85150473D01*
X82028641Y-84967307D01*
X82119813Y-84762532D01*
X82169473Y-84543949D01*
X82173049Y-84287923D01*
X82129510Y-84068038D01*
X82044092Y-83860798D01*
X81920047Y-83674095D01*
X81762101Y-83515042D01*
X81589581Y-83398676D01*
X81737106Y-83305054D01*
X81899432Y-83150473D01*
X82028641Y-82967307D01*
X82119813Y-82762532D01*
X82169473Y-82543949D01*
X82173049Y-82287923D01*
X82129510Y-82068038D01*
X82044092Y-81860798D01*
X81920047Y-81674095D01*
X81762101Y-81515042D01*
X81576269Y-81389697D01*
X81369630Y-81302834D01*
X81150054Y-81257762D01*
X80925906Y-81256197D01*
X80705722Y-81298199D01*
X80497891Y-81382169D01*
X80310327Y-81504907D01*
X80150175Y-81661739D01*
X80023535Y-81846691D01*
X79935232Y-82052719D01*
X79888628Y-82271975D01*
X79885498Y-82496107D01*
X78550011Y-82496107D01*
X78492553Y-82427000D01*
X77537000Y-82427000D01*
X77283000Y-82427000D01*
X75537000Y-82427000D01*
X75283000Y-82427000D01*
X75263000Y-82427000D01*
X75263000Y-82173000D01*
X75283000Y-82173000D01*
X75283000Y-80981269D01*
X75537000Y-80981269D01*
X75537000Y-82173000D01*
X77283000Y-82173000D01*
X77283000Y-80981269D01*
X77537000Y-80981269D01*
X77537000Y-82173000D01*
X78492553Y-82173000D01*
X78655262Y-81977303D01*
X78617152Y-81735761D01*
X78532652Y-81506295D01*
X78405009Y-81297724D01*
X78239128Y-81118062D01*
X78041384Y-80974214D01*
X77819377Y-80871708D01*
X77727609Y-80856538D01*
X77537000Y-80981269D01*
X77283000Y-80981269D01*
X77092391Y-80856538D01*
X77000623Y-80871708D01*
X76778616Y-80974214D01*
X76580872Y-81118062D01*
X76414991Y-81297724D01*
X76410000Y-81305879D01*
X76405009Y-81297724D01*
X76239128Y-81118062D01*
X76041384Y-80974214D01*
X75819377Y-80871708D01*
X75727609Y-80856538D01*
X75537000Y-80981269D01*
X75283000Y-80981269D01*
X75092391Y-80856538D01*
X75000623Y-80871708D01*
X74778616Y-80974214D01*
X74580872Y-81118062D01*
X74414991Y-81297724D01*
X74287348Y-81506295D01*
X74262635Y-81573404D01*
X74224980Y-81502585D01*
X74104287Y-81354600D01*
X73957148Y-81232876D01*
X73789169Y-81142050D01*
X73606747Y-81085581D01*
X73416831Y-81065620D01*
X73226655Y-81082927D01*
X73043462Y-81136844D01*
X72874231Y-81225316D01*
X72725407Y-81344973D01*
X72602659Y-81491258D01*
X72510663Y-81658600D01*
X72452922Y-81840623D01*
X72431635Y-82030395D01*
X72431540Y-82044056D01*
X72388460Y-82044056D01*
X72369825Y-81854005D01*
X72314631Y-81671194D01*
X72224980Y-81502585D01*
X72104287Y-81354600D01*
X71957148Y-81232876D01*
X71789169Y-81142050D01*
X71606747Y-81085581D01*
X71416831Y-81065620D01*
X71226655Y-81082927D01*
X71043462Y-81136844D01*
X70874231Y-81225316D01*
X70725407Y-81344973D01*
X70602659Y-81491258D01*
X70510663Y-81658600D01*
X70452922Y-81840623D01*
X70443889Y-81921152D01*
X70443889Y-81450000D01*
X70438406Y-81381237D01*
X70402288Y-81264609D01*
X70335108Y-81162660D01*
X70242186Y-81083463D01*
X70130879Y-81033289D01*
X70010000Y-81016111D01*
X68810000Y-81016111D01*
X68741237Y-81021594D01*
X68624609Y-81057712D01*
X68522660Y-81124892D01*
X68443463Y-81217814D01*
X68393289Y-81329121D01*
X68376111Y-81450000D01*
X66619899Y-81450000D01*
X68969319Y-77176421D01*
X70655786Y-75166568D01*
X73016396Y-75166568D01*
X73086527Y-75548680D01*
X73229541Y-75909892D01*
X73439992Y-76236447D01*
X73709862Y-76515907D01*
X74028874Y-76737626D01*
X74384875Y-76893159D01*
X74764307Y-76976582D01*
X75152716Y-76984718D01*
X75535308Y-76917257D01*
X75897510Y-76776768D01*
X76225526Y-76568602D01*
X76506863Y-76300689D01*
X76730804Y-75983233D01*
X76888818Y-75628326D01*
X76974889Y-75249486D01*
X76976046Y-75166568D01*
X113016396Y-75166568D01*
X113086527Y-75548680D01*
X113229541Y-75909892D01*
X113439992Y-76236447D01*
X113709862Y-76515907D01*
X114028874Y-76737626D01*
X114384875Y-76893159D01*
X114764307Y-76976582D01*
X115152716Y-76984718D01*
X115535308Y-76917257D01*
X115897510Y-76776768D01*
X116225526Y-76568602D01*
X116506863Y-76300689D01*
X116730804Y-75983233D01*
X116888818Y-75628326D01*
X116974889Y-75249486D01*
X116981085Y-74805753D01*
X116905626Y-74424658D01*
X116757582Y-74065477D01*
X116542593Y-73741892D01*
X116268847Y-73466228D01*
X115946770Y-73248985D01*
X115588632Y-73098437D01*
X115208073Y-73020320D01*
X114819588Y-73017607D01*
X114437975Y-73090404D01*
X114077770Y-73235936D01*
X113752692Y-73448662D01*
X113475123Y-73720477D01*
X113255637Y-74041028D01*
X113102593Y-74398107D01*
X113021820Y-74778112D01*
X113016396Y-75166568D01*
X76976046Y-75166568D01*
X76981085Y-74805753D01*
X76905626Y-74424658D01*
X76757582Y-74065477D01*
X76542593Y-73741892D01*
X76268847Y-73466228D01*
X75946770Y-73248985D01*
X75588632Y-73098437D01*
X75208073Y-73020320D01*
X74819588Y-73017607D01*
X74437975Y-73090404D01*
X74077770Y-73235936D01*
X73752692Y-73448662D01*
X73475123Y-73720477D01*
X73255637Y-74041028D01*
X73102593Y-74398107D01*
X73021820Y-74778112D01*
X73016396Y-75166568D01*
X70655786Y-75166568D01*
X72927021Y-72459816D01*
X77725475Y-68601759D01*
X83181911Y-65749204D01*
X89088494Y-64010802D01*
X95220245Y-63452769D01*
X101343606Y-64096360D01*
X101343606Y-64096360D01*
G37*
X101343606Y-64096360D02*
X107225342Y-65917061D01*
X112641418Y-68845523D01*
X117385538Y-72770200D01*
X121276999Y-77541603D01*
X124167578Y-82977992D01*
X125947173Y-88872295D01*
X126548000Y-95000000D01*
X126535700Y-95880872D01*
X125764012Y-101989412D01*
X123820532Y-107831728D01*
X120779287Y-113185287D01*
X116756117Y-117846174D01*
X111904264Y-121636857D01*
X106408532Y-124412951D01*
X100478253Y-126068715D01*
X94339309Y-126541081D01*
X88225530Y-125812057D01*
X82369789Y-123909411D01*
X76995128Y-120905615D01*
X72306268Y-116915082D01*
X70920413Y-115166568D01*
X73016396Y-115166568D01*
X73086527Y-115548680D01*
X73229541Y-115909892D01*
X73439992Y-116236447D01*
X73709862Y-116515907D01*
X74028874Y-116737626D01*
X74384875Y-116893159D01*
X74764307Y-116976582D01*
X75152716Y-116984718D01*
X75535308Y-116917257D01*
X75897510Y-116776768D01*
X76225526Y-116568602D01*
X76506863Y-116300689D01*
X76730804Y-115983233D01*
X76888818Y-115628326D01*
X76974889Y-115249486D01*
X76981085Y-114805753D01*
X76905626Y-114424658D01*
X76757582Y-114065477D01*
X76542593Y-113741892D01*
X76268847Y-113466228D01*
X75946770Y-113248985D01*
X75588632Y-113098437D01*
X75208073Y-113020320D01*
X74819588Y-113017607D01*
X74437975Y-113090404D01*
X74077770Y-113235936D01*
X73752692Y-113448662D01*
X73475123Y-113720477D01*
X73255637Y-114041028D01*
X73102593Y-114398107D01*
X73021820Y-114778112D01*
X73016396Y-115166568D01*
X70920413Y-115166568D01*
X68481805Y-112089811D01*
X66094205Y-107444044D01*
X69794000Y-107444044D01*
X69794000Y-107955956D01*
X69812683Y-108146500D01*
X69868020Y-108329786D01*
X69957904Y-108498833D01*
X70078911Y-108647202D01*
X70226432Y-108769242D01*
X70394847Y-108860304D01*
X70577743Y-108916919D01*
X70768151Y-108936932D01*
X70958821Y-108919580D01*
X71142489Y-108865523D01*
X71312160Y-108776822D01*
X71461370Y-108656854D01*
X71584436Y-108510189D01*
X71676672Y-108342413D01*
X71734563Y-108159917D01*
X71749829Y-108023813D01*
X71762850Y-108156613D01*
X71821053Y-108349390D01*
X71915592Y-108527191D01*
X72042865Y-108683244D01*
X72114600Y-108742588D01*
X72114600Y-109007200D01*
X72120555Y-109067934D01*
X72125870Y-109128682D01*
X72126838Y-109132014D01*
X72127177Y-109135472D01*
X72144810Y-109193876D01*
X72161828Y-109252452D01*
X72163427Y-109255537D01*
X72164430Y-109258859D01*
X72193055Y-109312696D01*
X72221142Y-109366880D01*
X72223309Y-109369595D01*
X72224939Y-109372660D01*
X72263482Y-109419918D01*
X72301552Y-109467608D01*
X72306316Y-109472438D01*
X72306399Y-109472540D01*
X72306493Y-109472618D01*
X72308027Y-109474173D01*
X72905827Y-110071973D01*
X72952942Y-110110674D01*
X72999696Y-110149905D01*
X73002738Y-110151577D01*
X73005422Y-110153782D01*
X73059180Y-110182607D01*
X73112641Y-110211997D01*
X73115952Y-110213047D01*
X73119012Y-110214688D01*
X73177321Y-110232515D01*
X73235495Y-110250969D01*
X73238948Y-110251356D01*
X73242267Y-110252371D01*
X73302922Y-110258532D01*
X73363579Y-110265336D01*
X73370367Y-110265383D01*
X73370494Y-110265396D01*
X73370612Y-110265385D01*
X73372800Y-110265400D01*
X79105454Y-110265400D01*
X84233328Y-115393274D01*
X84280443Y-115431975D01*
X84327197Y-115471206D01*
X84330239Y-115472878D01*
X84332923Y-115475083D01*
X84386681Y-115503908D01*
X84393847Y-115507847D01*
X83602336Y-116299358D01*
X83475273Y-116245946D01*
X83152253Y-116179640D01*
X82822506Y-116177338D01*
X82498591Y-116239128D01*
X82192848Y-116362656D01*
X81916920Y-116543218D01*
X81681319Y-116773936D01*
X81495018Y-117046021D01*
X81365114Y-117349111D01*
X81296554Y-117671660D01*
X81291950Y-118001383D01*
X81351477Y-118325721D01*
X81472868Y-118632320D01*
X81651499Y-118909501D01*
X81880566Y-119146707D01*
X82151345Y-119334903D01*
X82453520Y-119466920D01*
X82775583Y-119537730D01*
X83105266Y-119544636D01*
X83430011Y-119487375D01*
X83737450Y-119368127D01*
X84015871Y-119191436D01*
X84254671Y-118964030D01*
X84444753Y-118694572D01*
X84578876Y-118393326D01*
X84651933Y-118071765D01*
X84652975Y-117997112D01*
X86341537Y-117997112D01*
X86399265Y-118311651D01*
X86516989Y-118608987D01*
X86690223Y-118877794D01*
X86912370Y-119107834D01*
X87174968Y-119290344D01*
X87468014Y-119418373D01*
X87780347Y-119487043D01*
X88100069Y-119493741D01*
X88415004Y-119438209D01*
X88713154Y-119322564D01*
X88983164Y-119151211D01*
X89214749Y-118930675D01*
X89399088Y-118669358D01*
X89529160Y-118377213D01*
X89600009Y-118065367D01*
X89605110Y-117700104D01*
X89542995Y-117386401D01*
X89421131Y-117090738D01*
X89244161Y-116824376D01*
X89018824Y-116597460D01*
X88911398Y-116525000D01*
X91326111Y-116525000D01*
X91326111Y-117925000D01*
X91331594Y-117993763D01*
X91367712Y-118110391D01*
X91434892Y-118212340D01*
X91527814Y-118291537D01*
X91639121Y-118341711D01*
X91760000Y-118358889D01*
X93160000Y-118358889D01*
X93228763Y-118353406D01*
X93345391Y-118317288D01*
X93447340Y-118250108D01*
X93526537Y-118157186D01*
X93531458Y-118146269D01*
X96718336Y-118146269D01*
X96777797Y-118380037D01*
X97016242Y-118490934D01*
X97271740Y-118553183D01*
X97534473Y-118564390D01*
X97794344Y-118524125D01*
X98041366Y-118433935D01*
X98142203Y-118380037D01*
X98201664Y-118146269D01*
X97460000Y-117404605D01*
X96718336Y-118146269D01*
X93531458Y-118146269D01*
X93576711Y-118045879D01*
X93593889Y-117925000D01*
X93593889Y-117299473D01*
X96120610Y-117299473D01*
X96160875Y-117559344D01*
X96251065Y-117806366D01*
X96304963Y-117907203D01*
X96538731Y-117966664D01*
X97280395Y-117225000D01*
X97639605Y-117225000D01*
X98381269Y-117966664D01*
X98615037Y-117907203D01*
X98725934Y-117668758D01*
X98788183Y-117413260D01*
X98799390Y-117150527D01*
X98759125Y-116890656D01*
X98668935Y-116643634D01*
X98615037Y-116542797D01*
X98381269Y-116483336D01*
X97639605Y-117225000D01*
X97280395Y-117225000D01*
X96538731Y-116483336D01*
X96304963Y-116542797D01*
X96194066Y-116781242D01*
X96131817Y-117036740D01*
X96120610Y-117299473D01*
X93593889Y-117299473D01*
X93593889Y-116525000D01*
X93588406Y-116456237D01*
X93552288Y-116339609D01*
X93528646Y-116303731D01*
X96718336Y-116303731D01*
X97460000Y-117045395D01*
X98201664Y-116303731D01*
X98142203Y-116069963D01*
X97903758Y-115959066D01*
X97648260Y-115896817D01*
X97385527Y-115885610D01*
X97125656Y-115925875D01*
X96878634Y-116016065D01*
X96777797Y-116069963D01*
X96718336Y-116303731D01*
X93528646Y-116303731D01*
X93485108Y-116237660D01*
X93392186Y-116158463D01*
X93280879Y-116108289D01*
X93160000Y-116091111D01*
X91760000Y-116091111D01*
X91691237Y-116096594D01*
X91574609Y-116132712D01*
X91472660Y-116199892D01*
X91393463Y-116292814D01*
X91343289Y-116404121D01*
X91326111Y-116525000D01*
X88911398Y-116525000D01*
X88753704Y-116418634D01*
X88458898Y-116294710D01*
X88145637Y-116230406D01*
X87825852Y-116228174D01*
X87511724Y-116288097D01*
X87215217Y-116407893D01*
X86947626Y-116583000D01*
X86719143Y-116806748D01*
X86538470Y-117070613D01*
X86412490Y-117364546D01*
X86346002Y-117677350D01*
X86341537Y-117997112D01*
X84652975Y-117997112D01*
X84657192Y-117695122D01*
X84593142Y-117371647D01*
X84536168Y-117233418D01*
X86182885Y-115586701D01*
X93488699Y-115586701D01*
X93549433Y-115580746D01*
X93610181Y-115575431D01*
X93613513Y-115574463D01*
X93616971Y-115574124D01*
X93675375Y-115556491D01*
X93733951Y-115539473D01*
X93737036Y-115537874D01*
X93740358Y-115536871D01*
X93794195Y-115508246D01*
X93848379Y-115480159D01*
X93851094Y-115477992D01*
X93854159Y-115476362D01*
X93901417Y-115437819D01*
X93949107Y-115399749D01*
X93953937Y-115394985D01*
X93954039Y-115394902D01*
X93954117Y-115394808D01*
X93955672Y-115393274D01*
X95000000Y-114348946D01*
X95803027Y-115151973D01*
X95850142Y-115190674D01*
X95896896Y-115229905D01*
X95899938Y-115231577D01*
X95902622Y-115233782D01*
X95956399Y-115262617D01*
X96009841Y-115291997D01*
X96013150Y-115293047D01*
X96016211Y-115294688D01*
X96074535Y-115312520D01*
X96132695Y-115330969D01*
X96136148Y-115331356D01*
X96139467Y-115332371D01*
X96200122Y-115338532D01*
X96260779Y-115345336D01*
X96267567Y-115345383D01*
X96267694Y-115345396D01*
X96267812Y-115345385D01*
X96270000Y-115345400D01*
X98577094Y-115345400D01*
X100464824Y-117233130D01*
X100415114Y-117349111D01*
X100346554Y-117671660D01*
X100341950Y-118001383D01*
X100401477Y-118325721D01*
X100522868Y-118632320D01*
X100701499Y-118909501D01*
X100930566Y-119146707D01*
X101201345Y-119334903D01*
X101503520Y-119466920D01*
X101825583Y-119537730D01*
X102155266Y-119544636D01*
X102480011Y-119487375D01*
X102787450Y-119368127D01*
X103065871Y-119191436D01*
X103304671Y-118964030D01*
X103494753Y-118694572D01*
X103628876Y-118393326D01*
X103701933Y-118071765D01*
X103702975Y-117997112D01*
X105391537Y-117997112D01*
X105449265Y-118311651D01*
X105566989Y-118608987D01*
X105740223Y-118877794D01*
X105962370Y-119107834D01*
X106224968Y-119290344D01*
X106518014Y-119418373D01*
X106830347Y-119487043D01*
X107150069Y-119493741D01*
X107465004Y-119438209D01*
X107763154Y-119322564D01*
X108033164Y-119151211D01*
X108264749Y-118930675D01*
X108449088Y-118669358D01*
X108579160Y-118377213D01*
X108650009Y-118065367D01*
X108655110Y-117700104D01*
X108592995Y-117386401D01*
X108471131Y-117090738D01*
X108294161Y-116824376D01*
X108068824Y-116597460D01*
X107803704Y-116418634D01*
X107508898Y-116294710D01*
X107195637Y-116230406D01*
X106875852Y-116228174D01*
X106561724Y-116288097D01*
X106265217Y-116407893D01*
X105997626Y-116583000D01*
X105769143Y-116806748D01*
X105588470Y-117070613D01*
X105462490Y-117364546D01*
X105396002Y-117677350D01*
X105391537Y-117997112D01*
X103702975Y-117997112D01*
X103707192Y-117695122D01*
X103643142Y-117371647D01*
X103517482Y-117066773D01*
X103334999Y-116792113D01*
X103102642Y-116558128D01*
X102829262Y-116373732D01*
X102525273Y-116245946D01*
X102202253Y-116179640D01*
X101872506Y-116177338D01*
X101548591Y-116239128D01*
X101399109Y-116299523D01*
X100266154Y-115166568D01*
X113016396Y-115166568D01*
X113086527Y-115548680D01*
X113229541Y-115909892D01*
X113439992Y-116236447D01*
X113709862Y-116515907D01*
X114028874Y-116737626D01*
X114384875Y-116893159D01*
X114764307Y-116976582D01*
X115152716Y-116984718D01*
X115535308Y-116917257D01*
X115897510Y-116776768D01*
X116225526Y-116568602D01*
X116506863Y-116300689D01*
X116730804Y-115983233D01*
X116888818Y-115628326D01*
X116974889Y-115249486D01*
X116981085Y-114805753D01*
X116905626Y-114424658D01*
X116757582Y-114065477D01*
X116542593Y-113741892D01*
X116268847Y-113466228D01*
X115946770Y-113248985D01*
X115588632Y-113098437D01*
X115208073Y-113020320D01*
X114819588Y-113017607D01*
X114437975Y-113090404D01*
X114077770Y-113235936D01*
X113752692Y-113448662D01*
X113475123Y-113720477D01*
X113255637Y-114041028D01*
X113102593Y-114398107D01*
X113021820Y-114778112D01*
X113016396Y-115166568D01*
X100266154Y-115166568D01*
X99317613Y-114218027D01*
X99270498Y-114179326D01*
X99223744Y-114140095D01*
X99220702Y-114138423D01*
X99218018Y-114136218D01*
X99164260Y-114107393D01*
X99110799Y-114078003D01*
X99107488Y-114076953D01*
X99104428Y-114075312D01*
X99046119Y-114057485D01*
X98987945Y-114039031D01*
X98984492Y-114038644D01*
X98981173Y-114037629D01*
X98920518Y-114031468D01*
X98859861Y-114024664D01*
X98853073Y-114024617D01*
X98852946Y-114024604D01*
X98852828Y-114024615D01*
X98850640Y-114024600D01*
X96543546Y-114024600D01*
X95660400Y-113141454D01*
X95660400Y-111345000D01*
X97227157Y-111345000D01*
X97227157Y-112945000D01*
X97231995Y-113005673D01*
X97263864Y-113108580D01*
X97323140Y-113198535D01*
X97405130Y-113268415D01*
X97503342Y-113312686D01*
X97610000Y-113327843D01*
X100010000Y-113327843D01*
X100070673Y-113323005D01*
X100173580Y-113291136D01*
X100263535Y-113231860D01*
X100333415Y-113149870D01*
X100377686Y-113051658D01*
X100391030Y-112957752D01*
X102892177Y-112957752D01*
X102949905Y-113272291D01*
X103067629Y-113569627D01*
X103240863Y-113838434D01*
X103463010Y-114068474D01*
X103725608Y-114250984D01*
X104018654Y-114379013D01*
X104330987Y-114447683D01*
X104650709Y-114454381D01*
X104965644Y-114398849D01*
X105263794Y-114283204D01*
X105533804Y-114111851D01*
X105765389Y-113891315D01*
X105949728Y-113629998D01*
X106079800Y-113337853D01*
X106150649Y-113026007D01*
X106155750Y-112660744D01*
X106093635Y-112347041D01*
X105971771Y-112051378D01*
X105794801Y-111785016D01*
X105569464Y-111558100D01*
X105304344Y-111379274D01*
X105009538Y-111255350D01*
X104696277Y-111191046D01*
X104376492Y-111188814D01*
X104062364Y-111248737D01*
X103765857Y-111368533D01*
X103498266Y-111543640D01*
X103269783Y-111767388D01*
X103089110Y-112031253D01*
X102963130Y-112325186D01*
X102896642Y-112637990D01*
X102892177Y-112957752D01*
X100391030Y-112957752D01*
X100392843Y-112945000D01*
X100392843Y-111345000D01*
X100388005Y-111284327D01*
X100356136Y-111181420D01*
X100296860Y-111091465D01*
X100214870Y-111021585D01*
X100116658Y-110977314D01*
X100010000Y-110962157D01*
X97610000Y-110962157D01*
X97549327Y-110966995D01*
X97446420Y-110998864D01*
X97356465Y-111058140D01*
X97286585Y-111140130D01*
X97242314Y-111238342D01*
X97227157Y-111345000D01*
X95660400Y-111345000D01*
X95660400Y-109596755D01*
X97221379Y-109596755D01*
X97242269Y-109826297D01*
X97307346Y-110047410D01*
X97414131Y-110251672D01*
X97558558Y-110431302D01*
X97735124Y-110579459D01*
X97937105Y-110690499D01*
X98156806Y-110760192D01*
X98385861Y-110785885D01*
X98402350Y-110786000D01*
X99217650Y-110786000D01*
X99447041Y-110763508D01*
X99667694Y-110696889D01*
X99871205Y-110588680D01*
X100049823Y-110443003D01*
X100196743Y-110265407D01*
X100306370Y-110062656D01*
X100374528Y-109842473D01*
X100398621Y-109613245D01*
X100377731Y-109383703D01*
X100312654Y-109162590D01*
X100205869Y-108958328D01*
X100061442Y-108778698D01*
X99884876Y-108630541D01*
X99682895Y-108519501D01*
X99463194Y-108449808D01*
X99234139Y-108424115D01*
X99217650Y-108424000D01*
X98402350Y-108424000D01*
X98172959Y-108446492D01*
X97952306Y-108513111D01*
X97748795Y-108621320D01*
X97570177Y-108766997D01*
X97423257Y-108944593D01*
X97313630Y-109147344D01*
X97245472Y-109367527D01*
X97221379Y-109596755D01*
X95660400Y-109596755D01*
X95660400Y-107056755D01*
X97221379Y-107056755D01*
X97242269Y-107286297D01*
X97307346Y-107507410D01*
X97414131Y-107711672D01*
X97558558Y-107891302D01*
X97735124Y-108039459D01*
X97937105Y-108150499D01*
X98156806Y-108220192D01*
X98385861Y-108245885D01*
X98402350Y-108246000D01*
X99217650Y-108246000D01*
X99447041Y-108223508D01*
X99667694Y-108156889D01*
X99871205Y-108048680D01*
X100049823Y-107903003D01*
X100196743Y-107725407D01*
X100306370Y-107522656D01*
X100374528Y-107302473D01*
X100398621Y-107073245D01*
X100377731Y-106843703D01*
X100312654Y-106622590D01*
X100205869Y-106418328D01*
X100061442Y-106238698D01*
X99884876Y-106090541D01*
X99760390Y-106022104D01*
X109008200Y-106022104D01*
X109008200Y-106837896D01*
X109031659Y-107077154D01*
X109101144Y-107307298D01*
X109214008Y-107519564D01*
X109365951Y-107705864D01*
X109551186Y-107859104D01*
X109762658Y-107973447D01*
X109992312Y-108044537D01*
X110231400Y-108069666D01*
X110470816Y-108047877D01*
X110701440Y-107980001D01*
X110914488Y-107868622D01*
X111101845Y-107717983D01*
X111256375Y-107533822D01*
X111372191Y-107323154D01*
X111444882Y-107094002D01*
X111471680Y-106855095D01*
X111471800Y-106837896D01*
X111471800Y-106022350D01*
X111599000Y-106022350D01*
X111599000Y-106837650D01*
X111621492Y-107067041D01*
X111688111Y-107287694D01*
X111796320Y-107491205D01*
X111941997Y-107669823D01*
X112119593Y-107816743D01*
X112322344Y-107926370D01*
X112542527Y-107994528D01*
X112771755Y-108018621D01*
X113001297Y-107997731D01*
X113222410Y-107932654D01*
X113426672Y-107825869D01*
X113606302Y-107681442D01*
X113754459Y-107504876D01*
X113865499Y-107302895D01*
X113935192Y-107083194D01*
X113960885Y-106854139D01*
X113961000Y-106837650D01*
X113961000Y-106022350D01*
X114139000Y-106022350D01*
X114139000Y-106837650D01*
X114161492Y-107067041D01*
X114228111Y-107287694D01*
X114336320Y-107491205D01*
X114481997Y-107669823D01*
X114659593Y-107816743D01*
X114862344Y-107926370D01*
X115082527Y-107994528D01*
X115311755Y-108018621D01*
X115541297Y-107997731D01*
X115762410Y-107932654D01*
X115966672Y-107825869D01*
X116146302Y-107681442D01*
X116294459Y-107504876D01*
X116405499Y-107302895D01*
X116475192Y-107083194D01*
X116500885Y-106854139D01*
X116501000Y-106837650D01*
X116501000Y-106022350D01*
X116500976Y-106022104D01*
X116628200Y-106022104D01*
X116628200Y-106837896D01*
X116651659Y-107077154D01*
X116721144Y-107307298D01*
X116834008Y-107519564D01*
X116985951Y-107705864D01*
X117171186Y-107859104D01*
X117382658Y-107973447D01*
X117612312Y-108044537D01*
X117851400Y-108069666D01*
X118090816Y-108047877D01*
X118321440Y-107980001D01*
X118534488Y-107868622D01*
X118721845Y-107717983D01*
X118876375Y-107533822D01*
X118992191Y-107323154D01*
X119064882Y-107094002D01*
X119091680Y-106855095D01*
X119091800Y-106837896D01*
X119091800Y-106022104D01*
X119068341Y-105782846D01*
X118998856Y-105552702D01*
X118885992Y-105340436D01*
X118734049Y-105154136D01*
X118548814Y-105000896D01*
X118337342Y-104886553D01*
X118107688Y-104815463D01*
X117868600Y-104790334D01*
X117629184Y-104812123D01*
X117398560Y-104879999D01*
X117185512Y-104991378D01*
X116998155Y-105142017D01*
X116843625Y-105326178D01*
X116727809Y-105536846D01*
X116655118Y-105765998D01*
X116628320Y-106004905D01*
X116628200Y-106022104D01*
X116500976Y-106022104D01*
X116478508Y-105792959D01*
X116411889Y-105572306D01*
X116303680Y-105368795D01*
X116158003Y-105190177D01*
X115980407Y-105043257D01*
X115777656Y-104933630D01*
X115557473Y-104865472D01*
X115328245Y-104841379D01*
X115098703Y-104862269D01*
X114877590Y-104927346D01*
X114673328Y-105034131D01*
X114493698Y-105178558D01*
X114345541Y-105355124D01*
X114234501Y-105557105D01*
X114164808Y-105776806D01*
X114139115Y-106005861D01*
X114139000Y-106022350D01*
X113961000Y-106022350D01*
X113938508Y-105792959D01*
X113871889Y-105572306D01*
X113763680Y-105368795D01*
X113618003Y-105190177D01*
X113440407Y-105043257D01*
X113237656Y-104933630D01*
X113017473Y-104865472D01*
X112788245Y-104841379D01*
X112558703Y-104862269D01*
X112337590Y-104927346D01*
X112133328Y-105034131D01*
X111953698Y-105178558D01*
X111805541Y-105355124D01*
X111694501Y-105557105D01*
X111624808Y-105776806D01*
X111599115Y-106005861D01*
X111599000Y-106022350D01*
X111471800Y-106022350D01*
X111471800Y-106022104D01*
X111448341Y-105782846D01*
X111378856Y-105552702D01*
X111265992Y-105340436D01*
X111114049Y-105154136D01*
X110928814Y-105000896D01*
X110717342Y-104886553D01*
X110487688Y-104815463D01*
X110248600Y-104790334D01*
X110009184Y-104812123D01*
X109778560Y-104879999D01*
X109565512Y-104991378D01*
X109378155Y-105142017D01*
X109223625Y-105326178D01*
X109107809Y-105536846D01*
X109035118Y-105765998D01*
X109008320Y-106004905D01*
X109008200Y-106022104D01*
X99760390Y-106022104D01*
X99682895Y-105979501D01*
X99463194Y-105909808D01*
X99234139Y-105884115D01*
X99217650Y-105884000D01*
X98402350Y-105884000D01*
X98172959Y-105906492D01*
X97952306Y-105973111D01*
X97748795Y-106081320D01*
X97570177Y-106226997D01*
X97423257Y-106404593D01*
X97313630Y-106607344D01*
X97245472Y-106827527D01*
X97221379Y-107056755D01*
X95660400Y-107056755D01*
X95660400Y-105474525D01*
X95654445Y-105413794D01*
X95649130Y-105353043D01*
X95648162Y-105349711D01*
X95647823Y-105346253D01*
X95630400Y-105288546D01*
X95630400Y-104757609D01*
X95661129Y-104778966D01*
X95791220Y-104835801D01*
X95929873Y-104866286D01*
X96071806Y-104869259D01*
X96211613Y-104844607D01*
X96343970Y-104793270D01*
X96463834Y-104717201D01*
X96566640Y-104619300D01*
X96639228Y-104516400D01*
X97170334Y-104516400D01*
X97192123Y-104755816D01*
X97259999Y-104986440D01*
X97371378Y-105199488D01*
X97522017Y-105386845D01*
X97706178Y-105541375D01*
X97916846Y-105657191D01*
X98145998Y-105729882D01*
X98384905Y-105756680D01*
X98402104Y-105756800D01*
X99217896Y-105756800D01*
X99457154Y-105733341D01*
X99687298Y-105663856D01*
X99899564Y-105550992D01*
X100085864Y-105399049D01*
X100239104Y-105213814D01*
X100353447Y-105002342D01*
X100424537Y-104772688D01*
X100449666Y-104533600D01*
X100427877Y-104294184D01*
X100360001Y-104063560D01*
X100248622Y-103850512D01*
X100097983Y-103663155D01*
X99913822Y-103508625D01*
X99703154Y-103392809D01*
X99474002Y-103320118D01*
X99235095Y-103293320D01*
X99217896Y-103293200D01*
X98402104Y-103293200D01*
X98162846Y-103316659D01*
X97932702Y-103386144D01*
X97720436Y-103499008D01*
X97534136Y-103650951D01*
X97380896Y-103836186D01*
X97266553Y-104047658D01*
X97195463Y-104277312D01*
X97170334Y-104516400D01*
X96639228Y-104516400D01*
X96648473Y-104503295D01*
X96706215Y-104373604D01*
X96737667Y-104235168D01*
X96739931Y-104073018D01*
X96712357Y-103933757D01*
X96658259Y-103802505D01*
X96579697Y-103684260D01*
X96548822Y-103653168D01*
X96544592Y-103610031D01*
X96540298Y-103560947D01*
X96539514Y-103558250D01*
X96539241Y-103555462D01*
X96525019Y-103508356D01*
X96511255Y-103460979D01*
X96509963Y-103458486D01*
X96509153Y-103455804D01*
X96486046Y-103412347D01*
X96463347Y-103368556D01*
X96461595Y-103366362D01*
X96460280Y-103363888D01*
X96429156Y-103325726D01*
X96398400Y-103287199D01*
X96394549Y-103283294D01*
X96394485Y-103283215D01*
X96394412Y-103283155D01*
X96393171Y-103281896D01*
X96295400Y-103184125D01*
X96295400Y-100175165D01*
X96326713Y-100175165D01*
X96366780Y-100393476D01*
X96448488Y-100599847D01*
X96568724Y-100786416D01*
X96722909Y-100946079D01*
X96905169Y-101072753D01*
X97108562Y-101161614D01*
X97325342Y-101209276D01*
X97547251Y-101213924D01*
X97765836Y-101175382D01*
X97972772Y-101095116D01*
X98160177Y-100976186D01*
X98320912Y-100823120D01*
X98448856Y-100641748D01*
X98539134Y-100438980D01*
X98588308Y-100222538D01*
X98589028Y-100170961D01*
X101576778Y-100170961D01*
X101615076Y-100379627D01*
X101693174Y-100576881D01*
X101808099Y-100755209D01*
X101955472Y-100907818D01*
X102129680Y-101028896D01*
X102324088Y-101113831D01*
X102531291Y-101159387D01*
X102743396Y-101163830D01*
X102952325Y-101126990D01*
X103150119Y-101050271D01*
X103329245Y-100936594D01*
X103482879Y-100790290D01*
X103605171Y-100616932D01*
X103691460Y-100423121D01*
X103704494Y-100365750D01*
X103875000Y-100365750D01*
X103875000Y-100792542D01*
X103899403Y-100915223D01*
X103947270Y-101030785D01*
X104016763Y-101134789D01*
X104105211Y-101223237D01*
X104209215Y-101292730D01*
X104324777Y-101340597D01*
X104447458Y-101365000D01*
X104874250Y-101365000D01*
X105033000Y-101206250D01*
X105033000Y-100207000D01*
X105287000Y-100207000D01*
X105287000Y-101206250D01*
X105445750Y-101365000D01*
X105872542Y-101365000D01*
X105995223Y-101340597D01*
X106110785Y-101292730D01*
X106214789Y-101223237D01*
X106303237Y-101134789D01*
X106372730Y-101030785D01*
X106420597Y-100915223D01*
X106445000Y-100792542D01*
X106445000Y-100365750D01*
X106286250Y-100207000D01*
X105287000Y-100207000D01*
X105033000Y-100207000D01*
X104033750Y-100207000D01*
X103875000Y-100365750D01*
X103704494Y-100365750D01*
X103738462Y-100216241D01*
X103741846Y-99973924D01*
X103700639Y-99765813D01*
X103619794Y-99569668D01*
X103502391Y-99392963D01*
X103477064Y-99367458D01*
X103875000Y-99367458D01*
X103875000Y-99794250D01*
X104033750Y-99953000D01*
X105033000Y-99953000D01*
X105033000Y-98953750D01*
X105287000Y-98953750D01*
X105287000Y-99953000D01*
X106286250Y-99953000D01*
X106445000Y-99794250D01*
X106445000Y-99367458D01*
X106420597Y-99244777D01*
X106372730Y-99129215D01*
X106303237Y-99025211D01*
X106214789Y-98936763D01*
X106110785Y-98867270D01*
X105995223Y-98819403D01*
X105872542Y-98795000D01*
X105445750Y-98795000D01*
X105287000Y-98953750D01*
X105033000Y-98953750D01*
X104874250Y-98795000D01*
X104447458Y-98795000D01*
X104324777Y-98819403D01*
X104209215Y-98867270D01*
X104105211Y-98936763D01*
X104016763Y-99025211D01*
X103947270Y-99129215D01*
X103899403Y-99244777D01*
X103875000Y-99367458D01*
X103477064Y-99367458D01*
X103352902Y-99242426D01*
X103177020Y-99123792D01*
X102981445Y-99041580D01*
X102773626Y-98998921D01*
X102561479Y-98997440D01*
X102353085Y-99037193D01*
X102156381Y-99116667D01*
X101978860Y-99232833D01*
X101827284Y-99381268D01*
X101707425Y-99556317D01*
X101623849Y-99751314D01*
X101579740Y-99958829D01*
X101576778Y-100170961D01*
X98589028Y-100170961D01*
X98591848Y-99969021D01*
X98548736Y-99751291D01*
X98464155Y-99546081D01*
X98341326Y-99361208D01*
X98184927Y-99203714D01*
X98000916Y-99079597D01*
X97796302Y-98993585D01*
X97578878Y-98948954D01*
X97356926Y-98947405D01*
X97138900Y-98988995D01*
X96933105Y-99072142D01*
X96747379Y-99193678D01*
X96588796Y-99348973D01*
X96463397Y-99532113D01*
X96375959Y-99736122D01*
X96329812Y-99953229D01*
X96326713Y-100175165D01*
X96295400Y-100175165D01*
X96295400Y-98402104D01*
X109008200Y-98402104D01*
X109008200Y-99217896D01*
X109031659Y-99457154D01*
X109101144Y-99687298D01*
X109214008Y-99899564D01*
X109365951Y-100085864D01*
X109551186Y-100239104D01*
X109762658Y-100353447D01*
X109992312Y-100424537D01*
X110231400Y-100449666D01*
X110470816Y-100427877D01*
X110701440Y-100360001D01*
X110914488Y-100248622D01*
X111101845Y-100097983D01*
X111256375Y-99913822D01*
X111372191Y-99703154D01*
X111399005Y-99618625D01*
X111502834Y-99876483D01*
X111657399Y-100112839D01*
X111855105Y-100314500D01*
X112088354Y-100473715D01*
X112348182Y-100584367D01*
X112430961Y-100601904D01*
X112653000Y-100479915D01*
X112653000Y-98937000D01*
X112633000Y-98937000D01*
X112633000Y-98683000D01*
X112653000Y-98683000D01*
X112653000Y-97140085D01*
X112907000Y-97140085D01*
X112907000Y-98683000D01*
X112927000Y-98683000D01*
X112927000Y-98937000D01*
X112907000Y-98937000D01*
X112907000Y-100479915D01*
X113129039Y-100601904D01*
X113211818Y-100584367D01*
X113471646Y-100473715D01*
X113704895Y-100314500D01*
X113902601Y-100112839D01*
X114057166Y-99876483D01*
X114160661Y-99619454D01*
X114181144Y-99687298D01*
X114294008Y-99899564D01*
X114445951Y-100085864D01*
X114631186Y-100239104D01*
X114842658Y-100353447D01*
X115072312Y-100424537D01*
X115311400Y-100449666D01*
X115550816Y-100427877D01*
X115781440Y-100360001D01*
X115994488Y-100248622D01*
X116181845Y-100097983D01*
X116336375Y-99913822D01*
X116452191Y-99703154D01*
X116524882Y-99474002D01*
X116551680Y-99235095D01*
X116551800Y-99217896D01*
X116551800Y-98402104D01*
X116528341Y-98162846D01*
X116458856Y-97932702D01*
X116345992Y-97720436D01*
X116255923Y-97610000D01*
X116677157Y-97610000D01*
X116677157Y-100010000D01*
X116681995Y-100070673D01*
X116713864Y-100173580D01*
X116773140Y-100263535D01*
X116855130Y-100333415D01*
X116953342Y-100377686D01*
X117060000Y-100392843D01*
X118660000Y-100392843D01*
X118720673Y-100388005D01*
X118823580Y-100356136D01*
X118913535Y-100296860D01*
X118983415Y-100214870D01*
X119027686Y-100116658D01*
X119042843Y-100010000D01*
X119042843Y-97610000D01*
X119038005Y-97549327D01*
X119006136Y-97446420D01*
X118946860Y-97356465D01*
X118864870Y-97286585D01*
X118766658Y-97242314D01*
X118660000Y-97227157D01*
X117060000Y-97227157D01*
X116999327Y-97231995D01*
X116896420Y-97263864D01*
X116806465Y-97323140D01*
X116736585Y-97405130D01*
X116692314Y-97503342D01*
X116677157Y-97610000D01*
X116255923Y-97610000D01*
X116194049Y-97534136D01*
X116008814Y-97380896D01*
X115797342Y-97266553D01*
X115567688Y-97195463D01*
X115328600Y-97170334D01*
X115089184Y-97192123D01*
X114858560Y-97259999D01*
X114645512Y-97371378D01*
X114458155Y-97522017D01*
X114303625Y-97706178D01*
X114187809Y-97916846D01*
X114160995Y-98001375D01*
X114057166Y-97743517D01*
X113902601Y-97507161D01*
X113704895Y-97305500D01*
X113471646Y-97146285D01*
X113211818Y-97035633D01*
X113129039Y-97018096D01*
X112907000Y-97140085D01*
X112653000Y-97140085D01*
X112430961Y-97018096D01*
X112348182Y-97035633D01*
X112088354Y-97146285D01*
X111855105Y-97305500D01*
X111657399Y-97507161D01*
X111502834Y-97743517D01*
X111399339Y-98000546D01*
X111378856Y-97932702D01*
X111265992Y-97720436D01*
X111114049Y-97534136D01*
X110928814Y-97380896D01*
X110717342Y-97266553D01*
X110487688Y-97195463D01*
X110248600Y-97170334D01*
X110009184Y-97192123D01*
X109778560Y-97259999D01*
X109565512Y-97371378D01*
X109378155Y-97522017D01*
X109223625Y-97706178D01*
X109107809Y-97916846D01*
X109035118Y-98145998D01*
X109008320Y-98384905D01*
X109008200Y-98402104D01*
X96295400Y-98402104D01*
X96295400Y-97633942D01*
X97125942Y-96803400D01*
X99760000Y-96803400D01*
X99808991Y-96798596D01*
X99858120Y-96794298D01*
X99860817Y-96793514D01*
X99863605Y-96793241D01*
X99910725Y-96779015D01*
X99958087Y-96765255D01*
X99960579Y-96763963D01*
X99963263Y-96763153D01*
X100006738Y-96740037D01*
X100050511Y-96717347D01*
X100052705Y-96715595D01*
X100055179Y-96714280D01*
X100093341Y-96683156D01*
X100131868Y-96652400D01*
X100135773Y-96648549D01*
X100135852Y-96648485D01*
X100135912Y-96648412D01*
X100137171Y-96647171D01*
X100688972Y-96095370D01*
X100894009Y-96140451D01*
X101118114Y-96145145D01*
X101338862Y-96106221D01*
X101547846Y-96025162D01*
X101737106Y-95905054D01*
X101899432Y-95750473D01*
X102028641Y-95567307D01*
X102031546Y-95560783D01*
X102129905Y-95713407D01*
X102285615Y-95874650D01*
X102469679Y-96002577D01*
X102675085Y-96092317D01*
X102894009Y-96140451D01*
X103118114Y-96145145D01*
X103338862Y-96106221D01*
X103547846Y-96025162D01*
X103737106Y-95905054D01*
X103899432Y-95750473D01*
X104028641Y-95567307D01*
X104031546Y-95560783D01*
X104129905Y-95713407D01*
X104285615Y-95874650D01*
X104469679Y-96002577D01*
X104675085Y-96092317D01*
X104894009Y-96140451D01*
X105118114Y-96145145D01*
X105338862Y-96106221D01*
X105547846Y-96025162D01*
X105737106Y-95905054D01*
X105899432Y-95750473D01*
X106028641Y-95567307D01*
X106031546Y-95560783D01*
X106129905Y-95713407D01*
X106285615Y-95874650D01*
X106469679Y-96002577D01*
X106675085Y-96092317D01*
X106894009Y-96140451D01*
X107118114Y-96145145D01*
X107338862Y-96106221D01*
X107547846Y-96025162D01*
X107737106Y-95905054D01*
X107899432Y-95750473D01*
X108028641Y-95567307D01*
X108031546Y-95560783D01*
X108129905Y-95713407D01*
X108285615Y-95874650D01*
X108469679Y-96002577D01*
X108675085Y-96092317D01*
X108894009Y-96140451D01*
X109118114Y-96145145D01*
X109338862Y-96106221D01*
X109547846Y-96025162D01*
X109737106Y-95905054D01*
X109899432Y-95750473D01*
X110028641Y-95567307D01*
X110119813Y-95362532D01*
X110169473Y-95143949D01*
X110173049Y-94887923D01*
X110129510Y-94668038D01*
X110044092Y-94460798D01*
X109920047Y-94274095D01*
X109762101Y-94115042D01*
X109576269Y-93989697D01*
X109369630Y-93902834D01*
X109150054Y-93857762D01*
X108925906Y-93856197D01*
X108705722Y-93898199D01*
X108497891Y-93982169D01*
X108310327Y-94104907D01*
X108150175Y-94261739D01*
X108029211Y-94438401D01*
X107920047Y-94274095D01*
X107762101Y-94115042D01*
X107576269Y-93989697D01*
X107369630Y-93902834D01*
X107150054Y-93857762D01*
X106925906Y-93856197D01*
X106705722Y-93898199D01*
X106497891Y-93982169D01*
X106310327Y-94104907D01*
X106150175Y-94261739D01*
X106029211Y-94438401D01*
X105920047Y-94274095D01*
X105762101Y-94115042D01*
X105576269Y-93989697D01*
X105369630Y-93902834D01*
X105150054Y-93857762D01*
X104925906Y-93856197D01*
X104705722Y-93898199D01*
X104497891Y-93982169D01*
X104310327Y-94104907D01*
X104150175Y-94261739D01*
X104029211Y-94438401D01*
X103920047Y-94274095D01*
X103762101Y-94115042D01*
X103576269Y-93989697D01*
X103369630Y-93902834D01*
X103150054Y-93857762D01*
X102925906Y-93856197D01*
X102705722Y-93898199D01*
X102497891Y-93982169D01*
X102310327Y-94104907D01*
X102150175Y-94261739D01*
X102029211Y-94438401D01*
X101920047Y-94274095D01*
X101762101Y-94115042D01*
X101576269Y-93989697D01*
X101369630Y-93902834D01*
X101150054Y-93857762D01*
X100925906Y-93856197D01*
X100705722Y-93898199D01*
X100497891Y-93982169D01*
X100310327Y-94104907D01*
X100150175Y-94261739D01*
X100029211Y-94438401D01*
X99920047Y-94274095D01*
X99762101Y-94115042D01*
X99576269Y-93989697D01*
X99369630Y-93902834D01*
X99150054Y-93857762D01*
X98925906Y-93856197D01*
X98705722Y-93898199D01*
X98497891Y-93982169D01*
X98310327Y-94104907D01*
X98150175Y-94261739D01*
X98060167Y-94393191D01*
X97959605Y-94241833D01*
X97794639Y-94075711D01*
X97600547Y-93944795D01*
X97384724Y-93854071D01*
X97223427Y-93820961D01*
X111061778Y-93820961D01*
X111100076Y-94029627D01*
X111178174Y-94226881D01*
X111293099Y-94405209D01*
X111440472Y-94557818D01*
X111614680Y-94678896D01*
X111809088Y-94763831D01*
X112016291Y-94809387D01*
X112228396Y-94813830D01*
X112437325Y-94776990D01*
X112635119Y-94700271D01*
X112814245Y-94586594D01*
X112967879Y-94440290D01*
X113090171Y-94266932D01*
X113176460Y-94073121D01*
X113223462Y-93866241D01*
X113226846Y-93623924D01*
X113185639Y-93415813D01*
X113104794Y-93219668D01*
X113011999Y-93080000D01*
X113561111Y-93080000D01*
X113561111Y-94380000D01*
X113566594Y-94448763D01*
X113602712Y-94565391D01*
X113669892Y-94667340D01*
X113762814Y-94746537D01*
X113874121Y-94796711D01*
X113995000Y-94813889D01*
X115295000Y-94813889D01*
X115363763Y-94808406D01*
X115480391Y-94772288D01*
X115582340Y-94705108D01*
X115661537Y-94612186D01*
X115711711Y-94500879D01*
X115728889Y-94380000D01*
X115728889Y-93080000D01*
X115723406Y-93011237D01*
X115687288Y-92894609D01*
X115620108Y-92792660D01*
X115527186Y-92713463D01*
X115415879Y-92663289D01*
X115295000Y-92646111D01*
X113995000Y-92646111D01*
X113926237Y-92651594D01*
X113809609Y-92687712D01*
X113707660Y-92754892D01*
X113628463Y-92847814D01*
X113578289Y-92959121D01*
X113561111Y-93080000D01*
X113011999Y-93080000D01*
X112987391Y-93042963D01*
X112837902Y-92892426D01*
X112662020Y-92773792D01*
X112466445Y-92691580D01*
X112258626Y-92648921D01*
X112046479Y-92647440D01*
X111838085Y-92687193D01*
X111641381Y-92766667D01*
X111463860Y-92882833D01*
X111312284Y-93031268D01*
X111192425Y-93206317D01*
X111108849Y-93401314D01*
X111064740Y-93608829D01*
X111061778Y-93820961D01*
X97223427Y-93820961D01*
X97155390Y-93806995D01*
X96921279Y-93805361D01*
X96691310Y-93849230D01*
X96474241Y-93936931D01*
X96278341Y-94065125D01*
X96111071Y-94228927D01*
X95998890Y-94392764D01*
X95920047Y-94274095D01*
X95762101Y-94115042D01*
X95576269Y-93989697D01*
X95369630Y-93902834D01*
X95150054Y-93857762D01*
X94925906Y-93856197D01*
X94705722Y-93898199D01*
X94497891Y-93982169D01*
X94310327Y-94104907D01*
X94150175Y-94261739D01*
X94029211Y-94438401D01*
X93920047Y-94274095D01*
X93762101Y-94115042D01*
X93576269Y-93989697D01*
X93369630Y-93902834D01*
X93150054Y-93857762D01*
X92925906Y-93856197D01*
X92705722Y-93898199D01*
X92497891Y-93982169D01*
X92310327Y-94104907D01*
X92150175Y-94261739D01*
X92029211Y-94438401D01*
X91920047Y-94274095D01*
X91762101Y-94115042D01*
X91576269Y-93989697D01*
X91369630Y-93902834D01*
X91150054Y-93857762D01*
X90925906Y-93856197D01*
X90705722Y-93898199D01*
X90497891Y-93982169D01*
X90310327Y-94104907D01*
X90150175Y-94261739D01*
X90029211Y-94438401D01*
X89920047Y-94274095D01*
X89762101Y-94115042D01*
X89576269Y-93989697D01*
X89369630Y-93902834D01*
X89150054Y-93857762D01*
X88925906Y-93856197D01*
X88705722Y-93898199D01*
X88497891Y-93982169D01*
X88310327Y-94104907D01*
X88150175Y-94261739D01*
X88029211Y-94438401D01*
X87920047Y-94274095D01*
X87762101Y-94115042D01*
X87576269Y-93989697D01*
X87369630Y-93902834D01*
X87150054Y-93857762D01*
X86925906Y-93856197D01*
X86705722Y-93898199D01*
X86497891Y-93982169D01*
X86310327Y-94104907D01*
X86150175Y-94261739D01*
X86029211Y-94438401D01*
X85920047Y-94274095D01*
X85762101Y-94115042D01*
X85576269Y-93989697D01*
X85369630Y-93902834D01*
X85150054Y-93857762D01*
X84925906Y-93856197D01*
X84705722Y-93898199D01*
X84497891Y-93982169D01*
X84310327Y-94104907D01*
X84153804Y-94258185D01*
X83995565Y-94214040D01*
X83209605Y-95000000D01*
X83995565Y-95785960D01*
X84156588Y-95741038D01*
X84285615Y-95874650D01*
X84469679Y-96002577D01*
X84675085Y-96092317D01*
X84894009Y-96140451D01*
X85118114Y-96145145D01*
X85338862Y-96106221D01*
X85547846Y-96025162D01*
X85737106Y-95905054D01*
X85899432Y-95750473D01*
X86028641Y-95567307D01*
X86031546Y-95560783D01*
X86129905Y-95713407D01*
X86285615Y-95874650D01*
X86469679Y-96002577D01*
X86675085Y-96092317D01*
X86894009Y-96140451D01*
X87118114Y-96145145D01*
X87338862Y-96106221D01*
X87547846Y-96025162D01*
X87737106Y-95905054D01*
X87899432Y-95750473D01*
X88028641Y-95567307D01*
X88031546Y-95560783D01*
X88129905Y-95713407D01*
X88285615Y-95874650D01*
X88469679Y-96002577D01*
X88675085Y-96092317D01*
X88894009Y-96140451D01*
X89118114Y-96145145D01*
X89338862Y-96106221D01*
X89547846Y-96025162D01*
X89737106Y-95905054D01*
X89899432Y-95750473D01*
X90028641Y-95567307D01*
X90031546Y-95560783D01*
X90129905Y-95713407D01*
X90285615Y-95874650D01*
X90469679Y-96002577D01*
X90675085Y-96092317D01*
X90894009Y-96140451D01*
X91118114Y-96145145D01*
X91338862Y-96106221D01*
X91547846Y-96025162D01*
X91737106Y-95905054D01*
X91899432Y-95750473D01*
X92028641Y-95567307D01*
X92031546Y-95560783D01*
X92129905Y-95713407D01*
X92285615Y-95874650D01*
X92469679Y-96002577D01*
X92675085Y-96092317D01*
X92894009Y-96140451D01*
X93118114Y-96145145D01*
X93338862Y-96106221D01*
X93547846Y-96025162D01*
X93737106Y-95905054D01*
X93899432Y-95750473D01*
X94028641Y-95567307D01*
X94031546Y-95560783D01*
X94129905Y-95713407D01*
X94285615Y-95874650D01*
X94469679Y-96002577D01*
X94675085Y-96092317D01*
X94894009Y-96140451D01*
X94954339Y-96141715D01*
X94693027Y-96403027D01*
X94664641Y-96417993D01*
X94608389Y-96447401D01*
X94607484Y-96448129D01*
X94606463Y-96448667D01*
X94557393Y-96488402D01*
X94507942Y-96528162D01*
X94507197Y-96529050D01*
X94506298Y-96529778D01*
X94465723Y-96578477D01*
X94425095Y-96626896D01*
X94424540Y-96627906D01*
X94423795Y-96628800D01*
X94393439Y-96684478D01*
X94363003Y-96739841D01*
X94362653Y-96740946D01*
X94362099Y-96741961D01*
X94343202Y-96802262D01*
X94324031Y-96862695D01*
X94323902Y-96863848D01*
X94323556Y-96864951D01*
X94316728Y-96927800D01*
X94309664Y-96990779D01*
X94309649Y-96992966D01*
X94309636Y-96993084D01*
X94309647Y-96993211D01*
X94309600Y-97000000D01*
X94309600Y-104578443D01*
X94308032Y-104592422D01*
X94307985Y-104599210D01*
X94307972Y-104599337D01*
X94307983Y-104599455D01*
X94307968Y-104601643D01*
X94307968Y-105442893D01*
X94309600Y-105459538D01*
X94309600Y-113171453D01*
X93215153Y-114265901D01*
X86241059Y-114265901D01*
X86483804Y-114111851D01*
X86715389Y-113891315D01*
X86899728Y-113629998D01*
X87029800Y-113337853D01*
X87100649Y-113026007D01*
X87105750Y-112660744D01*
X87043635Y-112347041D01*
X86956815Y-112136400D01*
X89550334Y-112136400D01*
X89572123Y-112375816D01*
X89639999Y-112606440D01*
X89751378Y-112819488D01*
X89902017Y-113006845D01*
X90086178Y-113161375D01*
X90296846Y-113277191D01*
X90525998Y-113349882D01*
X90764905Y-113376680D01*
X90782104Y-113376800D01*
X91597896Y-113376800D01*
X91837154Y-113353341D01*
X92067298Y-113283856D01*
X92279564Y-113170992D01*
X92465864Y-113019049D01*
X92619104Y-112833814D01*
X92733447Y-112622342D01*
X92804537Y-112392688D01*
X92829666Y-112153600D01*
X92807877Y-111914184D01*
X92740001Y-111683560D01*
X92628622Y-111470512D01*
X92477983Y-111283155D01*
X92293822Y-111128625D01*
X92083154Y-111012809D01*
X91854002Y-110940118D01*
X91615095Y-110913320D01*
X91597896Y-110913200D01*
X90782104Y-110913200D01*
X90542846Y-110936659D01*
X90312702Y-111006144D01*
X90100436Y-111119008D01*
X89914136Y-111270951D01*
X89760896Y-111456186D01*
X89646553Y-111667658D01*
X89575463Y-111897312D01*
X89550334Y-112136400D01*
X86956815Y-112136400D01*
X86921771Y-112051378D01*
X86744801Y-111785016D01*
X86519464Y-111558100D01*
X86254344Y-111379274D01*
X85959538Y-111255350D01*
X85646277Y-111191046D01*
X85326492Y-111188814D01*
X85012364Y-111248737D01*
X84715857Y-111368533D01*
X84448266Y-111543640D01*
X84219783Y-111767388D01*
X84039110Y-112031253D01*
X83913130Y-112325186D01*
X83846642Y-112637990D01*
X83842177Y-112957752D01*
X83881847Y-113173901D01*
X80304701Y-109596755D01*
X89601379Y-109596755D01*
X89622269Y-109826297D01*
X89687346Y-110047410D01*
X89794131Y-110251672D01*
X89938558Y-110431302D01*
X90115124Y-110579459D01*
X90317105Y-110690499D01*
X90536806Y-110760192D01*
X90765861Y-110785885D01*
X90782350Y-110786000D01*
X91597650Y-110786000D01*
X91827041Y-110763508D01*
X92047694Y-110696889D01*
X92251205Y-110588680D01*
X92429823Y-110443003D01*
X92576743Y-110265407D01*
X92686370Y-110062656D01*
X92754528Y-109842473D01*
X92778621Y-109613245D01*
X92757731Y-109383703D01*
X92692654Y-109162590D01*
X92585869Y-108958328D01*
X92441442Y-108778698D01*
X92264876Y-108630541D01*
X92062895Y-108519501D01*
X91843194Y-108449808D01*
X91614139Y-108424115D01*
X91597650Y-108424000D01*
X90782350Y-108424000D01*
X90552959Y-108446492D01*
X90332306Y-108513111D01*
X90128795Y-108621320D01*
X89950177Y-108766997D01*
X89803257Y-108944593D01*
X89693630Y-109147344D01*
X89625472Y-109367527D01*
X89601379Y-109596755D01*
X80304701Y-109596755D01*
X79845973Y-109138027D01*
X79798858Y-109099326D01*
X79752104Y-109060095D01*
X79749062Y-109058423D01*
X79746378Y-109056218D01*
X79692620Y-109027393D01*
X79639159Y-108998003D01*
X79635848Y-108996953D01*
X79632788Y-108995312D01*
X79574479Y-108977485D01*
X79516305Y-108959031D01*
X79512852Y-108958644D01*
X79509533Y-108957629D01*
X79448878Y-108951468D01*
X79388221Y-108944664D01*
X79381433Y-108944617D01*
X79381306Y-108944604D01*
X79381188Y-108944615D01*
X79379000Y-108944600D01*
X73646346Y-108944600D01*
X73440499Y-108738753D01*
X73496913Y-108693395D01*
X73626352Y-108539135D01*
X73723364Y-108362671D01*
X73784253Y-108170725D01*
X73792157Y-108100257D01*
X73792157Y-108550000D01*
X73796995Y-108610673D01*
X73828864Y-108713580D01*
X73888140Y-108803535D01*
X73970130Y-108873415D01*
X74068342Y-108917686D01*
X74175000Y-108932843D01*
X75375000Y-108932843D01*
X75435673Y-108928005D01*
X75538580Y-108896136D01*
X75628535Y-108836860D01*
X75698415Y-108754870D01*
X75742686Y-108656658D01*
X75757843Y-108550000D01*
X75757843Y-107056755D01*
X89601379Y-107056755D01*
X89622269Y-107286297D01*
X89687346Y-107507410D01*
X89794131Y-107711672D01*
X89938558Y-107891302D01*
X90115124Y-108039459D01*
X90317105Y-108150499D01*
X90536806Y-108220192D01*
X90765861Y-108245885D01*
X90782350Y-108246000D01*
X91597650Y-108246000D01*
X91827041Y-108223508D01*
X92047694Y-108156889D01*
X92251205Y-108048680D01*
X92429823Y-107903003D01*
X92576743Y-107725407D01*
X92686370Y-107522656D01*
X92754528Y-107302473D01*
X92778621Y-107073245D01*
X92757731Y-106843703D01*
X92692654Y-106622590D01*
X92585869Y-106418328D01*
X92441442Y-106238698D01*
X92264876Y-106090541D01*
X92062895Y-105979501D01*
X91843194Y-105909808D01*
X91614139Y-105884115D01*
X91597650Y-105884000D01*
X90782350Y-105884000D01*
X90552959Y-105906492D01*
X90332306Y-105973111D01*
X90128795Y-106081320D01*
X89950177Y-106226997D01*
X89803257Y-106404593D01*
X89693630Y-106607344D01*
X89625472Y-106827527D01*
X89601379Y-107056755D01*
X75757843Y-107056755D01*
X75757843Y-106850000D01*
X75753005Y-106789327D01*
X75721136Y-106686420D01*
X75661860Y-106596465D01*
X75579870Y-106526585D01*
X75481658Y-106482314D01*
X75375000Y-106467157D01*
X74175000Y-106467157D01*
X74114327Y-106471995D01*
X74011420Y-106503864D01*
X73921465Y-106563140D01*
X73851585Y-106645130D01*
X73807314Y-106743342D01*
X73792157Y-106850000D01*
X73792157Y-107294454D01*
X73787150Y-107243387D01*
X73728947Y-107050610D01*
X73634408Y-106872809D01*
X73507135Y-106716756D01*
X73351975Y-106588397D01*
X73174839Y-106492620D01*
X72982472Y-106433072D01*
X72782203Y-106412023D01*
X72581660Y-106430274D01*
X72388481Y-106487130D01*
X72210024Y-106580425D01*
X72053087Y-106706605D01*
X71923648Y-106860865D01*
X71826636Y-107037329D01*
X71765747Y-107229275D01*
X71749310Y-107375817D01*
X71737317Y-107253500D01*
X71681980Y-107070214D01*
X71592096Y-106901167D01*
X71471089Y-106752798D01*
X71323568Y-106630758D01*
X71155153Y-106539696D01*
X70972257Y-106483081D01*
X70781849Y-106463068D01*
X70591179Y-106480420D01*
X70407511Y-106534477D01*
X70237840Y-106623178D01*
X70088630Y-106743146D01*
X69965564Y-106889811D01*
X69873328Y-107057587D01*
X69815437Y-107240083D01*
X69794096Y-107430347D01*
X69794000Y-107444044D01*
X66094205Y-107444044D01*
X65667411Y-106613593D01*
X65066153Y-104516755D01*
X89601379Y-104516755D01*
X89622269Y-104746297D01*
X89687346Y-104967410D01*
X89794131Y-105171672D01*
X89938558Y-105351302D01*
X90115124Y-105499459D01*
X90317105Y-105610499D01*
X90536806Y-105680192D01*
X90765861Y-105705885D01*
X90782350Y-105706000D01*
X91597650Y-105706000D01*
X91827041Y-105683508D01*
X92047694Y-105616889D01*
X92251205Y-105508680D01*
X92429823Y-105363003D01*
X92576743Y-105185407D01*
X92686370Y-104982656D01*
X92754528Y-104762473D01*
X92778621Y-104533245D01*
X92757731Y-104303703D01*
X92692654Y-104082590D01*
X92585869Y-103878328D01*
X92441442Y-103698698D01*
X92264876Y-103550541D01*
X92062895Y-103439501D01*
X91843194Y-103369808D01*
X91614139Y-103344115D01*
X91597650Y-103344000D01*
X90782350Y-103344000D01*
X90552959Y-103366492D01*
X90332306Y-103433111D01*
X90128795Y-103541320D01*
X89950177Y-103686997D01*
X89803257Y-103864593D01*
X89693630Y-104067344D01*
X89625472Y-104287527D01*
X89601379Y-104516755D01*
X65066153Y-104516755D01*
X64665528Y-103119609D01*
X68109997Y-103119609D01*
X68296073Y-103460766D01*
X68713409Y-103676513D01*
X69164815Y-103806696D01*
X69632946Y-103846313D01*
X70099811Y-103793842D01*
X70547468Y-103651297D01*
X70903927Y-103460766D01*
X71090003Y-103119609D01*
X69600000Y-101629605D01*
X68109997Y-103119609D01*
X64665528Y-103119609D01*
X64196222Y-101482946D01*
X67203687Y-101482946D01*
X67256158Y-101949811D01*
X67398703Y-102397468D01*
X67589234Y-102753927D01*
X67930391Y-102940003D01*
X69420395Y-101450000D01*
X69779605Y-101450000D01*
X71269609Y-102940003D01*
X71610766Y-102753927D01*
X71826513Y-102336591D01*
X71956696Y-101885185D01*
X71996313Y-101417054D01*
X71945566Y-100965527D01*
X84674078Y-100965527D01*
X84727466Y-101194201D01*
X84957374Y-101300095D01*
X85203524Y-101359102D01*
X85456455Y-101368952D01*
X85706449Y-101329270D01*
X85943896Y-101241578D01*
X86032534Y-101194201D01*
X86085922Y-100965527D01*
X85380000Y-100259605D01*
X84674078Y-100965527D01*
X71945566Y-100965527D01*
X71943842Y-100950189D01*
X71801297Y-100502532D01*
X71616316Y-100156455D01*
X84091048Y-100156455D01*
X84130730Y-100406449D01*
X84218422Y-100643896D01*
X84265799Y-100732534D01*
X84494473Y-100785922D01*
X85200395Y-100080000D01*
X85559605Y-100080000D01*
X86265527Y-100785922D01*
X86299930Y-100777890D01*
X86301594Y-100798763D01*
X86337712Y-100915391D01*
X86404892Y-101017340D01*
X86497814Y-101096537D01*
X86609121Y-101146711D01*
X86730000Y-101163889D01*
X88030000Y-101163889D01*
X88098763Y-101158406D01*
X88215391Y-101122288D01*
X88317340Y-101055108D01*
X88396537Y-100962186D01*
X88446711Y-100850879D01*
X88463889Y-100730000D01*
X88463889Y-100365750D01*
X91125000Y-100365750D01*
X91125000Y-100842542D01*
X91149403Y-100965223D01*
X91197270Y-101080785D01*
X91266763Y-101184789D01*
X91355211Y-101273237D01*
X91459215Y-101342730D01*
X91574777Y-101390597D01*
X91697458Y-101415000D01*
X92174250Y-101415000D01*
X92333000Y-101256250D01*
X92333000Y-100207000D01*
X92587000Y-100207000D01*
X92587000Y-101256250D01*
X92745750Y-101415000D01*
X93222542Y-101415000D01*
X93345223Y-101390597D01*
X93460785Y-101342730D01*
X93564789Y-101273237D01*
X93653237Y-101184789D01*
X93722730Y-101080785D01*
X93770597Y-100965223D01*
X93795000Y-100842542D01*
X93795000Y-100365750D01*
X93636250Y-100207000D01*
X92587000Y-100207000D01*
X92333000Y-100207000D01*
X91283750Y-100207000D01*
X91125000Y-100365750D01*
X88463889Y-100365750D01*
X88463889Y-99430000D01*
X88458406Y-99361237D01*
X88444849Y-99317458D01*
X91125000Y-99317458D01*
X91125000Y-99794250D01*
X91283750Y-99953000D01*
X92333000Y-99953000D01*
X92333000Y-98903750D01*
X92587000Y-98903750D01*
X92587000Y-99953000D01*
X93636250Y-99953000D01*
X93795000Y-99794250D01*
X93795000Y-99317458D01*
X93770597Y-99194777D01*
X93722730Y-99079215D01*
X93653237Y-98975211D01*
X93564789Y-98886763D01*
X93460785Y-98817270D01*
X93345223Y-98769403D01*
X93222542Y-98745000D01*
X92745750Y-98745000D01*
X92587000Y-98903750D01*
X92333000Y-98903750D01*
X92174250Y-98745000D01*
X91697458Y-98745000D01*
X91574777Y-98769403D01*
X91459215Y-98817270D01*
X91355211Y-98886763D01*
X91266763Y-98975211D01*
X91197270Y-99079215D01*
X91149403Y-99194777D01*
X91125000Y-99317458D01*
X88444849Y-99317458D01*
X88422288Y-99244609D01*
X88355108Y-99142660D01*
X88262186Y-99063463D01*
X88150879Y-99013289D01*
X88030000Y-98996111D01*
X86730000Y-98996111D01*
X86661237Y-99001594D01*
X86544609Y-99037712D01*
X86442660Y-99104892D01*
X86363463Y-99197814D01*
X86313289Y-99309121D01*
X86302821Y-99382785D01*
X86265527Y-99374078D01*
X85559605Y-100080000D01*
X85200395Y-100080000D01*
X84494473Y-99374078D01*
X84265799Y-99427466D01*
X84159905Y-99657374D01*
X84100898Y-99903524D01*
X84091048Y-100156455D01*
X71616316Y-100156455D01*
X71610766Y-100146073D01*
X71269609Y-99959997D01*
X69779605Y-101450000D01*
X69420395Y-101450000D01*
X67930391Y-99959997D01*
X67589234Y-100146073D01*
X67373487Y-100563409D01*
X67243304Y-101014815D01*
X67203687Y-101482946D01*
X64196222Y-101482946D01*
X63970287Y-100695018D01*
X63893484Y-99780391D01*
X68109997Y-99780391D01*
X69600000Y-101270395D01*
X71090003Y-99780391D01*
X70918289Y-99465565D01*
X71214040Y-99465565D01*
X71281020Y-99705656D01*
X71530048Y-99822756D01*
X71797135Y-99889023D01*
X72072017Y-99901910D01*
X72344133Y-99860922D01*
X72603023Y-99767636D01*
X72718980Y-99705656D01*
X72785960Y-99465565D01*
X72000000Y-98679605D01*
X71214040Y-99465565D01*
X70918289Y-99465565D01*
X70903927Y-99439234D01*
X70486591Y-99223487D01*
X70035185Y-99093304D01*
X69567054Y-99053687D01*
X69100189Y-99106158D01*
X68652532Y-99248703D01*
X68296073Y-99439234D01*
X68109997Y-99780391D01*
X63893484Y-99780391D01*
X63792014Y-98572017D01*
X70598090Y-98572017D01*
X70639078Y-98844133D01*
X70732364Y-99103023D01*
X70794344Y-99218980D01*
X71034435Y-99285960D01*
X71820395Y-98500000D01*
X72179605Y-98500000D01*
X72965565Y-99285960D01*
X73205656Y-99218980D01*
X73217179Y-99194473D01*
X84674078Y-99194473D01*
X85380000Y-99900395D01*
X86085922Y-99194473D01*
X86032534Y-98965799D01*
X85802626Y-98859905D01*
X85556476Y-98800898D01*
X85303545Y-98791048D01*
X85053551Y-98830730D01*
X84816104Y-98918422D01*
X84727466Y-98965799D01*
X84674078Y-99194473D01*
X73217179Y-99194473D01*
X73322756Y-98969952D01*
X73389023Y-98702865D01*
X73401910Y-98427983D01*
X73360922Y-98155867D01*
X73267636Y-97896977D01*
X73205656Y-97781020D01*
X72965565Y-97714040D01*
X72179605Y-98500000D01*
X71820395Y-98500000D01*
X71034435Y-97714040D01*
X70794344Y-97781020D01*
X70677244Y-98030048D01*
X70610977Y-98297135D01*
X70598090Y-98572017D01*
X63792014Y-98572017D01*
X63455075Y-94559521D01*
X63507079Y-94095893D01*
X70858041Y-94095893D01*
X70898415Y-94315874D01*
X70980748Y-94523824D01*
X71101905Y-94711822D01*
X71257269Y-94872706D01*
X71440924Y-95000349D01*
X71443216Y-95001350D01*
X71281926Y-95106896D01*
X71122130Y-95263380D01*
X70995772Y-95447921D01*
X70907664Y-95653491D01*
X70861164Y-95872259D01*
X70858041Y-96095893D01*
X70898415Y-96315874D01*
X70980748Y-96523824D01*
X71101905Y-96711822D01*
X71257269Y-96872706D01*
X71440924Y-97000349D01*
X71645873Y-97089890D01*
X71782700Y-97119973D01*
X71655867Y-97139078D01*
X71396977Y-97232364D01*
X71281020Y-97294344D01*
X71214040Y-97534435D01*
X72000000Y-98320395D01*
X72785960Y-97534435D01*
X72718980Y-97294344D01*
X72469952Y-97177244D01*
X72229619Y-97117615D01*
X72308176Y-97103763D01*
X72516696Y-97022884D01*
X72705535Y-96903043D01*
X72867500Y-96748806D01*
X72996422Y-96566047D01*
X73087391Y-96361727D01*
X73136942Y-96143629D01*
X73140509Y-95888172D01*
X73097067Y-95668776D01*
X73011839Y-95461996D01*
X72888069Y-95275708D01*
X72730474Y-95117009D01*
X72705818Y-95100378D01*
X79834631Y-95100378D01*
X79876894Y-95330648D01*
X79963077Y-95548324D01*
X80089900Y-95745114D01*
X80252531Y-95913523D01*
X80444775Y-96047136D01*
X80659311Y-96140865D01*
X80887965Y-96191138D01*
X81122030Y-96196041D01*
X81352590Y-96155387D01*
X81570862Y-96070725D01*
X81736567Y-95965565D01*
X82244040Y-95965565D01*
X82311020Y-96205656D01*
X82560048Y-96322756D01*
X82827135Y-96389023D01*
X83102017Y-96401910D01*
X83374133Y-96360922D01*
X83633023Y-96267636D01*
X83748980Y-96205656D01*
X83815960Y-95965565D01*
X83030000Y-95179605D01*
X82244040Y-95965565D01*
X81736567Y-95965565D01*
X81768533Y-95945279D01*
X81938073Y-95783828D01*
X81957595Y-95756154D01*
X82064435Y-95785960D01*
X82850395Y-95000000D01*
X82064435Y-94214040D01*
X81960419Y-94243058D01*
X81959605Y-94241833D01*
X81794639Y-94075711D01*
X81733445Y-94034435D01*
X82244040Y-94034435D01*
X83030000Y-94820395D01*
X83815960Y-94034435D01*
X83748980Y-93794344D01*
X83499952Y-93677244D01*
X83232865Y-93610977D01*
X82957983Y-93598090D01*
X82685867Y-93639078D01*
X82426977Y-93732364D01*
X82311020Y-93794344D01*
X82244040Y-94034435D01*
X81733445Y-94034435D01*
X81600547Y-93944795D01*
X81384724Y-93854071D01*
X81155390Y-93806995D01*
X80921279Y-93805361D01*
X80691310Y-93849230D01*
X80474241Y-93936931D01*
X80278341Y-94065125D01*
X80111071Y-94228927D01*
X79978804Y-94422100D01*
X79886575Y-94637284D01*
X79837900Y-94866285D01*
X79834631Y-95100378D01*
X72705818Y-95100378D01*
X72554943Y-94998612D01*
X72705535Y-94903043D01*
X72867500Y-94748806D01*
X72996422Y-94566047D01*
X73087391Y-94361727D01*
X73136942Y-94143629D01*
X73140509Y-93888172D01*
X73097067Y-93668776D01*
X73011839Y-93461996D01*
X72888069Y-93275708D01*
X72730474Y-93117009D01*
X72545055Y-92991942D01*
X72338875Y-92905272D01*
X72119787Y-92860300D01*
X71896137Y-92858738D01*
X71676443Y-92900647D01*
X71469073Y-92984430D01*
X71281926Y-93106896D01*
X71122130Y-93263380D01*
X70995772Y-93447921D01*
X70907664Y-93653491D01*
X70861164Y-93872259D01*
X70858041Y-94095893D01*
X63507079Y-94095893D01*
X63786995Y-91600378D01*
X70804631Y-91600378D01*
X70846894Y-91830648D01*
X70933077Y-92048324D01*
X71059900Y-92245114D01*
X71222531Y-92413523D01*
X71414775Y-92547136D01*
X71629311Y-92640865D01*
X71857965Y-92691138D01*
X72092030Y-92696041D01*
X72322590Y-92655387D01*
X72540862Y-92570725D01*
X72738533Y-92445279D01*
X72908073Y-92283828D01*
X73043025Y-92092521D01*
X73138249Y-91878645D01*
X73190117Y-91650347D01*
X73193851Y-91382942D01*
X73148377Y-91153284D01*
X73059163Y-90936833D01*
X72929605Y-90741833D01*
X72764639Y-90575711D01*
X72570547Y-90444795D01*
X72354724Y-90354071D01*
X72125390Y-90306995D01*
X71891279Y-90305361D01*
X71661310Y-90349230D01*
X71444241Y-90436931D01*
X71248341Y-90565125D01*
X71081071Y-90728927D01*
X70948804Y-90922100D01*
X70856575Y-91137284D01*
X70807900Y-91366285D01*
X70804631Y-91600378D01*
X63786995Y-91600378D01*
X63941873Y-90219609D01*
X68109997Y-90219609D01*
X68296073Y-90560766D01*
X68713409Y-90776513D01*
X69164815Y-90906696D01*
X69632946Y-90946313D01*
X70099811Y-90893842D01*
X70547468Y-90751297D01*
X70903927Y-90560766D01*
X71090003Y-90219609D01*
X69600000Y-88729605D01*
X68109997Y-90219609D01*
X63941873Y-90219609D01*
X64125455Y-88582946D01*
X67203687Y-88582946D01*
X67256158Y-89049811D01*
X67398703Y-89497468D01*
X67589234Y-89853927D01*
X67930391Y-90040003D01*
X69420395Y-88550000D01*
X69779605Y-88550000D01*
X71269609Y-90040003D01*
X71610766Y-89853927D01*
X71826513Y-89436591D01*
X71956696Y-88985185D01*
X71996313Y-88517054D01*
X71943842Y-88050189D01*
X71801297Y-87602532D01*
X71610766Y-87246073D01*
X71269609Y-87059997D01*
X69779605Y-88550000D01*
X69420395Y-88550000D01*
X67930391Y-87059997D01*
X67589234Y-87246073D01*
X67373487Y-87663409D01*
X67243304Y-88114815D01*
X67203687Y-88582946D01*
X64125455Y-88582946D01*
X64141399Y-88440802D01*
X64636390Y-86880391D01*
X68109997Y-86880391D01*
X69600000Y-88370395D01*
X71090003Y-86880391D01*
X70903927Y-86539234D01*
X70486591Y-86323487D01*
X70035185Y-86193304D01*
X69567054Y-86153687D01*
X69100189Y-86206158D01*
X68652532Y-86348703D01*
X68296073Y-86539234D01*
X68109997Y-86880391D01*
X64636390Y-86880391D01*
X66003118Y-82571921D01*
X66619899Y-81450000D01*
X68376111Y-81450000D01*
X68376111Y-83150000D01*
X68381594Y-83218763D01*
X68417712Y-83335391D01*
X68484892Y-83437340D01*
X68577814Y-83516537D01*
X68689121Y-83566711D01*
X68810000Y-83583889D01*
X70010000Y-83583889D01*
X70078763Y-83578406D01*
X70195391Y-83542288D01*
X70297340Y-83475108D01*
X70376537Y-83382186D01*
X70426711Y-83270879D01*
X70443889Y-83150000D01*
X70443889Y-82681887D01*
X70450175Y-82745995D01*
X70505369Y-82928806D01*
X70595020Y-83097415D01*
X70715713Y-83245400D01*
X70862852Y-83367124D01*
X71030831Y-83457950D01*
X71213253Y-83514419D01*
X71403169Y-83534380D01*
X71593345Y-83517073D01*
X71776538Y-83463156D01*
X71945769Y-83374684D01*
X72094593Y-83255027D01*
X72217341Y-83108742D01*
X72309337Y-82941400D01*
X72367078Y-82759377D01*
X72388365Y-82569605D01*
X72388460Y-82555944D01*
X72388460Y-82044056D01*
X72431540Y-82044056D01*
X72431540Y-82555944D01*
X72450175Y-82745995D01*
X72505369Y-82928806D01*
X72595020Y-83097415D01*
X72715713Y-83245400D01*
X72862852Y-83367124D01*
X73030831Y-83457950D01*
X73213253Y-83514419D01*
X73403169Y-83534380D01*
X73593345Y-83517073D01*
X73776538Y-83463156D01*
X73945769Y-83374684D01*
X74094593Y-83255027D01*
X74217341Y-83108742D01*
X74262581Y-83026449D01*
X74287348Y-83093705D01*
X74414991Y-83302276D01*
X74580872Y-83481938D01*
X74778616Y-83625786D01*
X75000623Y-83728292D01*
X75092391Y-83743462D01*
X75283000Y-83618731D01*
X75283000Y-82427000D01*
X75537000Y-82427000D01*
X75537000Y-83618731D01*
X75727609Y-83743462D01*
X75819377Y-83728292D01*
X76041384Y-83625786D01*
X76239128Y-83481938D01*
X76405009Y-83302276D01*
X76410000Y-83294121D01*
X76414991Y-83302276D01*
X76580872Y-83481938D01*
X76778616Y-83625786D01*
X77000623Y-83728292D01*
X77092391Y-83743462D01*
X77283000Y-83618731D01*
X77283000Y-82427000D01*
X77537000Y-82427000D01*
X77537000Y-83618731D01*
X77727609Y-83743462D01*
X77819377Y-83728292D01*
X78041384Y-83625786D01*
X78239128Y-83481938D01*
X78405009Y-83302276D01*
X78532652Y-83093705D01*
X78617152Y-82864239D01*
X78655262Y-82622697D01*
X78550011Y-82496107D01*
X79885498Y-82496107D01*
X79925962Y-82716578D01*
X80008479Y-82924991D01*
X80129905Y-83113407D01*
X80285615Y-83274650D01*
X80468236Y-83401574D01*
X80310327Y-83504907D01*
X80150175Y-83661739D01*
X80023535Y-83846691D01*
X79935232Y-84052719D01*
X79888628Y-84271975D01*
X79885498Y-84496107D01*
X79925962Y-84716578D01*
X80008479Y-84924991D01*
X80129905Y-85113407D01*
X80285615Y-85274650D01*
X80468236Y-85401574D01*
X80310327Y-85504907D01*
X80150175Y-85661739D01*
X80023535Y-85846691D01*
X79935232Y-86052719D01*
X79888628Y-86271975D01*
X79885498Y-86496107D01*
X79925962Y-86716578D01*
X80008479Y-86924991D01*
X80129905Y-87113407D01*
X80285615Y-87274650D01*
X80468236Y-87401574D01*
X80310327Y-87504907D01*
X80150175Y-87661739D01*
X80023535Y-87846691D01*
X79935232Y-88052719D01*
X79888628Y-88271975D01*
X79885498Y-88496107D01*
X79925962Y-88716578D01*
X80008479Y-88924991D01*
X80129905Y-89113407D01*
X80285615Y-89274650D01*
X80468236Y-89401574D01*
X80310327Y-89504907D01*
X80150175Y-89661739D01*
X80023535Y-89846691D01*
X79935232Y-90052719D01*
X79888628Y-90271975D01*
X79885498Y-90496107D01*
X79925962Y-90716578D01*
X80008479Y-90924991D01*
X80129905Y-91113407D01*
X80285615Y-91274650D01*
X80469679Y-91402577D01*
X80675085Y-91492317D01*
X80894009Y-91540451D01*
X81118114Y-91545145D01*
X81338862Y-91506221D01*
X81547846Y-91425162D01*
X81737106Y-91305054D01*
X81899432Y-91150473D01*
X82028641Y-90967307D01*
X82119813Y-90762532D01*
X82169473Y-90543949D01*
X82173049Y-90287923D01*
X82129510Y-90068038D01*
X82044092Y-89860798D01*
X81920047Y-89674095D01*
X81762101Y-89515042D01*
X81589581Y-89398676D01*
X81737106Y-89305054D01*
X81899432Y-89150473D01*
X82028641Y-88967307D01*
X82119813Y-88762532D01*
X82169473Y-88543949D01*
X82173049Y-88287923D01*
X82129510Y-88068038D01*
X82044092Y-87860798D01*
X81920047Y-87674095D01*
X81762101Y-87515042D01*
X81589581Y-87398676D01*
X81737106Y-87305054D01*
X81899432Y-87150473D01*
X82028641Y-86967307D01*
X82119813Y-86762532D01*
X82169473Y-86543949D01*
X82173049Y-86287923D01*
X82129510Y-86068038D01*
X82044092Y-85860798D01*
X81920047Y-85674095D01*
X81762101Y-85515042D01*
X81589581Y-85398676D01*
X81737106Y-85305054D01*
X81899432Y-85150473D01*
X82028641Y-84967307D01*
X82119813Y-84762532D01*
X82169473Y-84543949D01*
X82173049Y-84287923D01*
X82129510Y-84068038D01*
X82044092Y-83860798D01*
X81920047Y-83674095D01*
X81762101Y-83515042D01*
X81589581Y-83398676D01*
X81737106Y-83305054D01*
X81899432Y-83150473D01*
X82028641Y-82967307D01*
X82119813Y-82762532D01*
X82169473Y-82543949D01*
X82173049Y-82287923D01*
X82129510Y-82068038D01*
X82044092Y-81860798D01*
X81920047Y-81674095D01*
X81762101Y-81515042D01*
X81576269Y-81389697D01*
X81369630Y-81302834D01*
X81150054Y-81257762D01*
X80925906Y-81256197D01*
X80705722Y-81298199D01*
X80497891Y-81382169D01*
X80310327Y-81504907D01*
X80150175Y-81661739D01*
X80023535Y-81846691D01*
X79935232Y-82052719D01*
X79888628Y-82271975D01*
X79885498Y-82496107D01*
X78550011Y-82496107D01*
X78492553Y-82427000D01*
X77537000Y-82427000D01*
X77283000Y-82427000D01*
X75537000Y-82427000D01*
X75283000Y-82427000D01*
X75263000Y-82427000D01*
X75263000Y-82173000D01*
X75283000Y-82173000D01*
X75283000Y-80981269D01*
X75537000Y-80981269D01*
X75537000Y-82173000D01*
X77283000Y-82173000D01*
X77283000Y-80981269D01*
X77537000Y-80981269D01*
X77537000Y-82173000D01*
X78492553Y-82173000D01*
X78655262Y-81977303D01*
X78617152Y-81735761D01*
X78532652Y-81506295D01*
X78405009Y-81297724D01*
X78239128Y-81118062D01*
X78041384Y-80974214D01*
X77819377Y-80871708D01*
X77727609Y-80856538D01*
X77537000Y-80981269D01*
X77283000Y-80981269D01*
X77092391Y-80856538D01*
X77000623Y-80871708D01*
X76778616Y-80974214D01*
X76580872Y-81118062D01*
X76414991Y-81297724D01*
X76410000Y-81305879D01*
X76405009Y-81297724D01*
X76239128Y-81118062D01*
X76041384Y-80974214D01*
X75819377Y-80871708D01*
X75727609Y-80856538D01*
X75537000Y-80981269D01*
X75283000Y-80981269D01*
X75092391Y-80856538D01*
X75000623Y-80871708D01*
X74778616Y-80974214D01*
X74580872Y-81118062D01*
X74414991Y-81297724D01*
X74287348Y-81506295D01*
X74262635Y-81573404D01*
X74224980Y-81502585D01*
X74104287Y-81354600D01*
X73957148Y-81232876D01*
X73789169Y-81142050D01*
X73606747Y-81085581D01*
X73416831Y-81065620D01*
X73226655Y-81082927D01*
X73043462Y-81136844D01*
X72874231Y-81225316D01*
X72725407Y-81344973D01*
X72602659Y-81491258D01*
X72510663Y-81658600D01*
X72452922Y-81840623D01*
X72431635Y-82030395D01*
X72431540Y-82044056D01*
X72388460Y-82044056D01*
X72369825Y-81854005D01*
X72314631Y-81671194D01*
X72224980Y-81502585D01*
X72104287Y-81354600D01*
X71957148Y-81232876D01*
X71789169Y-81142050D01*
X71606747Y-81085581D01*
X71416831Y-81065620D01*
X71226655Y-81082927D01*
X71043462Y-81136844D01*
X70874231Y-81225316D01*
X70725407Y-81344973D01*
X70602659Y-81491258D01*
X70510663Y-81658600D01*
X70452922Y-81840623D01*
X70443889Y-81921152D01*
X70443889Y-81450000D01*
X70438406Y-81381237D01*
X70402288Y-81264609D01*
X70335108Y-81162660D01*
X70242186Y-81083463D01*
X70130879Y-81033289D01*
X70010000Y-81016111D01*
X68810000Y-81016111D01*
X68741237Y-81021594D01*
X68624609Y-81057712D01*
X68522660Y-81124892D01*
X68443463Y-81217814D01*
X68393289Y-81329121D01*
X68376111Y-81450000D01*
X66619899Y-81450000D01*
X68969319Y-77176421D01*
X70655786Y-75166568D01*
X73016396Y-75166568D01*
X73086527Y-75548680D01*
X73229541Y-75909892D01*
X73439992Y-76236447D01*
X73709862Y-76515907D01*
X74028874Y-76737626D01*
X74384875Y-76893159D01*
X74764307Y-76976582D01*
X75152716Y-76984718D01*
X75535308Y-76917257D01*
X75897510Y-76776768D01*
X76225526Y-76568602D01*
X76506863Y-76300689D01*
X76730804Y-75983233D01*
X76888818Y-75628326D01*
X76974889Y-75249486D01*
X76976046Y-75166568D01*
X113016396Y-75166568D01*
X113086527Y-75548680D01*
X113229541Y-75909892D01*
X113439992Y-76236447D01*
X113709862Y-76515907D01*
X114028874Y-76737626D01*
X114384875Y-76893159D01*
X114764307Y-76976582D01*
X115152716Y-76984718D01*
X115535308Y-76917257D01*
X115897510Y-76776768D01*
X116225526Y-76568602D01*
X116506863Y-76300689D01*
X116730804Y-75983233D01*
X116888818Y-75628326D01*
X116974889Y-75249486D01*
X116981085Y-74805753D01*
X116905626Y-74424658D01*
X116757582Y-74065477D01*
X116542593Y-73741892D01*
X116268847Y-73466228D01*
X115946770Y-73248985D01*
X115588632Y-73098437D01*
X115208073Y-73020320D01*
X114819588Y-73017607D01*
X114437975Y-73090404D01*
X114077770Y-73235936D01*
X113752692Y-73448662D01*
X113475123Y-73720477D01*
X113255637Y-74041028D01*
X113102593Y-74398107D01*
X113021820Y-74778112D01*
X113016396Y-75166568D01*
X76976046Y-75166568D01*
X76981085Y-74805753D01*
X76905626Y-74424658D01*
X76757582Y-74065477D01*
X76542593Y-73741892D01*
X76268847Y-73466228D01*
X75946770Y-73248985D01*
X75588632Y-73098437D01*
X75208073Y-73020320D01*
X74819588Y-73017607D01*
X74437975Y-73090404D01*
X74077770Y-73235936D01*
X73752692Y-73448662D01*
X73475123Y-73720477D01*
X73255637Y-74041028D01*
X73102593Y-74398107D01*
X73021820Y-74778112D01*
X73016396Y-75166568D01*
X70655786Y-75166568D01*
X72927021Y-72459816D01*
X77725475Y-68601759D01*
X83181911Y-65749204D01*
X89088494Y-64010802D01*
X95220245Y-63452769D01*
X101343606Y-64096360D01*
M02*
