G04 #@! TF.FileFunction,Soldermask,Bot*
%FSLAX46Y46*%
G04 Gerber Fmt 4.6, Leading zero omitted, Abs format (unit mm)*
G04 Created by KiCad (PCBNEW 4.0.5) date Sunday, 26 February 2017 'PMt' 14:34:23*
%MOMM*%
%LPD*%
G01*
G04 APERTURE LIST*
%ADD10C,0.100000*%
%ADD11R,2.800000X2.000000*%
%ADD12O,2.800000X2.000000*%
%ADD13R,1.600000X2.100000*%
%ADD14O,1.600000X2.100000*%
%ADD15C,3.600000*%
%ADD16R,1.700000X1.700000*%
%ADD17C,1.700000*%
%ADD18C,1.924000*%
%ADD19R,1.800000X1.800000*%
%ADD20C,1.800000*%
%ADD21C,2.899360*%
%ADD22R,2.000000X2.800000*%
%ADD23O,2.000000X2.800000*%
%ADD24C,3.900000*%
G04 APERTURE END LIST*
D10*
D11*
X98810000Y-112145000D03*
D12*
X91190000Y-104525000D03*
X98810000Y-109605000D03*
X91190000Y-107065000D03*
X98810000Y-107065000D03*
X91190000Y-109605000D03*
X98810000Y-104525000D03*
X91190000Y-112145000D03*
D13*
X74775000Y-107700000D03*
D14*
X72775000Y-107700000D03*
X70775000Y-107700000D03*
D15*
X75000000Y-115000000D03*
X115000000Y-115000000D03*
X115000000Y-75000000D03*
D16*
X105160000Y-100080000D03*
D17*
X102660000Y-100080000D03*
D18*
X81030000Y-95000000D03*
X83030000Y-95000000D03*
X85030000Y-95000000D03*
X87030000Y-95000000D03*
X89030000Y-95000000D03*
X91030000Y-95000000D03*
X93030000Y-95000000D03*
X95030000Y-95000000D03*
X97030000Y-95000000D03*
X99030000Y-95000000D03*
X101030000Y-95000000D03*
X103030000Y-95000000D03*
X105030000Y-95000000D03*
X107030000Y-95000000D03*
X109030000Y-95000000D03*
X81030000Y-90400000D03*
X81030000Y-88400000D03*
X81030000Y-86400000D03*
X81030000Y-84400000D03*
X81030000Y-82400000D03*
D19*
X92460000Y-100080000D03*
D20*
X97460000Y-100080000D03*
D16*
X87380000Y-100080000D03*
D17*
X85380000Y-100080000D03*
D19*
X92460000Y-117225000D03*
D20*
X97460000Y-117225000D03*
D13*
X69410000Y-82300000D03*
D14*
X71410000Y-82300000D03*
X73410000Y-82300000D03*
X75410000Y-82300000D03*
X77410000Y-82300000D03*
D21*
X104525000Y-112820640D03*
X107024360Y-117860000D03*
X102025640Y-117860000D03*
X85475000Y-112820640D03*
X87974360Y-117860000D03*
X82975640Y-117860000D03*
D22*
X117860000Y-98810000D03*
D23*
X110240000Y-106430000D03*
X115320000Y-98810000D03*
X112780000Y-106430000D03*
X112780000Y-98810000D03*
X115320000Y-106430000D03*
X110240000Y-98810000D03*
X117860000Y-106430000D03*
D16*
X114645000Y-93730000D03*
D17*
X112145000Y-93730000D03*
D15*
X75000000Y-75000000D03*
D18*
X72000000Y-91500000D03*
X72000000Y-94000000D03*
X72000000Y-96000000D03*
X72000000Y-98500000D03*
D24*
X69600000Y-88550000D03*
X69600000Y-101450000D03*
M02*
