G04 #@! TF.FileFunction,Legend,Bot*
%FSLAX46Y46*%
G04 Gerber Fmt 4.6, Leading zero omitted, Abs format (unit mm)*
G04 Created by KiCad (PCBNEW 4.0.5) date Sunday, 26 February 2017 'PMt' 14:34:23*
%MOMM*%
%LPD*%
G01*
G04 APERTURE LIST*
%ADD10C,0.100000*%
%ADD11C,0.300000*%
G04 APERTURE END LIST*
D10*
D11*
X114857145Y-79803571D02*
X114857145Y-78303571D01*
X114214288Y-79803571D02*
X114214288Y-79017857D01*
X114285717Y-78875000D01*
X114428574Y-78803571D01*
X114642859Y-78803571D01*
X114785717Y-78875000D01*
X114857145Y-78946429D01*
X113714288Y-78803571D02*
X113142859Y-78803571D01*
X113500002Y-78303571D02*
X113500002Y-79589286D01*
X113428574Y-79732143D01*
X113285716Y-79803571D01*
X113142859Y-79803571D01*
X112857145Y-78803571D02*
X112285716Y-78803571D01*
X112642859Y-78303571D02*
X112642859Y-79589286D01*
X112571431Y-79732143D01*
X112428573Y-79803571D01*
X112285716Y-79803571D01*
X111785716Y-78803571D02*
X111785716Y-80303571D01*
X111785716Y-78875000D02*
X111642859Y-78803571D01*
X111357145Y-78803571D01*
X111214288Y-78875000D01*
X111142859Y-78946429D01*
X111071430Y-79089286D01*
X111071430Y-79517857D01*
X111142859Y-79660714D01*
X111214288Y-79732143D01*
X111357145Y-79803571D01*
X111642859Y-79803571D01*
X111785716Y-79732143D01*
X110500002Y-79732143D02*
X110357145Y-79803571D01*
X110071430Y-79803571D01*
X109928573Y-79732143D01*
X109857145Y-79589286D01*
X109857145Y-79517857D01*
X109928573Y-79375000D01*
X110071430Y-79303571D01*
X110285716Y-79303571D01*
X110428573Y-79232143D01*
X110500002Y-79089286D01*
X110500002Y-79017857D01*
X110428573Y-78875000D01*
X110285716Y-78803571D01*
X110071430Y-78803571D01*
X109928573Y-78875000D01*
X109214287Y-79660714D02*
X109142859Y-79732143D01*
X109214287Y-79803571D01*
X109285716Y-79732143D01*
X109214287Y-79660714D01*
X109214287Y-79803571D01*
X109214287Y-78875000D02*
X109142859Y-78946429D01*
X109214287Y-79017857D01*
X109285716Y-78946429D01*
X109214287Y-78875000D01*
X109214287Y-79017857D01*
X107428573Y-78232143D02*
X108714287Y-80160714D01*
X105857144Y-78232143D02*
X107142858Y-80160714D01*
X104714286Y-78803571D02*
X104714286Y-80017857D01*
X104785715Y-80160714D01*
X104857143Y-80232143D01*
X105000000Y-80303571D01*
X105214286Y-80303571D01*
X105357143Y-80232143D01*
X104714286Y-79732143D02*
X104857143Y-79803571D01*
X105142857Y-79803571D01*
X105285715Y-79732143D01*
X105357143Y-79660714D01*
X105428572Y-79517857D01*
X105428572Y-79089286D01*
X105357143Y-78946429D01*
X105285715Y-78875000D01*
X105142857Y-78803571D01*
X104857143Y-78803571D01*
X104714286Y-78875000D01*
X104000000Y-79803571D02*
X104000000Y-78803571D01*
X104000000Y-78303571D02*
X104071429Y-78375000D01*
X104000000Y-78446429D01*
X103928572Y-78375000D01*
X104000000Y-78303571D01*
X104000000Y-78446429D01*
X103500000Y-78803571D02*
X102928571Y-78803571D01*
X103285714Y-78303571D02*
X103285714Y-79589286D01*
X103214286Y-79732143D01*
X103071428Y-79803571D01*
X102928571Y-79803571D01*
X102428571Y-79803571D02*
X102428571Y-78303571D01*
X101785714Y-79803571D02*
X101785714Y-79017857D01*
X101857143Y-78875000D01*
X102000000Y-78803571D01*
X102214285Y-78803571D01*
X102357143Y-78875000D01*
X102428571Y-78946429D01*
X100428571Y-78803571D02*
X100428571Y-79803571D01*
X101071428Y-78803571D02*
X101071428Y-79589286D01*
X101000000Y-79732143D01*
X100857142Y-79803571D01*
X100642857Y-79803571D01*
X100500000Y-79732143D01*
X100428571Y-79660714D01*
X99714285Y-79803571D02*
X99714285Y-78303571D01*
X99714285Y-78875000D02*
X99571428Y-78803571D01*
X99285714Y-78803571D01*
X99142857Y-78875000D01*
X99071428Y-78946429D01*
X98999999Y-79089286D01*
X98999999Y-79517857D01*
X99071428Y-79660714D01*
X99142857Y-79732143D01*
X99285714Y-79803571D01*
X99571428Y-79803571D01*
X99714285Y-79732143D01*
X98357142Y-79660714D02*
X98285714Y-79732143D01*
X98357142Y-79803571D01*
X98428571Y-79732143D01*
X98357142Y-79660714D01*
X98357142Y-79803571D01*
X96999999Y-79732143D02*
X97142856Y-79803571D01*
X97428570Y-79803571D01*
X97571428Y-79732143D01*
X97642856Y-79660714D01*
X97714285Y-79517857D01*
X97714285Y-79089286D01*
X97642856Y-78946429D01*
X97571428Y-78875000D01*
X97428570Y-78803571D01*
X97142856Y-78803571D01*
X96999999Y-78875000D01*
X96142856Y-79803571D02*
X96285714Y-79732143D01*
X96357142Y-79660714D01*
X96428571Y-79517857D01*
X96428571Y-79089286D01*
X96357142Y-78946429D01*
X96285714Y-78875000D01*
X96142856Y-78803571D01*
X95928571Y-78803571D01*
X95785714Y-78875000D01*
X95714285Y-78946429D01*
X95642856Y-79089286D01*
X95642856Y-79517857D01*
X95714285Y-79660714D01*
X95785714Y-79732143D01*
X95928571Y-79803571D01*
X96142856Y-79803571D01*
X94999999Y-79803571D02*
X94999999Y-78803571D01*
X94999999Y-78946429D02*
X94928571Y-78875000D01*
X94785713Y-78803571D01*
X94571428Y-78803571D01*
X94428571Y-78875000D01*
X94357142Y-79017857D01*
X94357142Y-79803571D01*
X94357142Y-79017857D02*
X94285713Y-78875000D01*
X94142856Y-78803571D01*
X93928571Y-78803571D01*
X93785713Y-78875000D01*
X93714285Y-79017857D01*
X93714285Y-79803571D01*
X91928571Y-78232143D02*
X93214285Y-80160714D01*
X91642856Y-78803571D02*
X91071427Y-78803571D01*
X91428570Y-78303571D02*
X91428570Y-79589286D01*
X91357142Y-79732143D01*
X91214284Y-79803571D01*
X91071427Y-79803571D01*
X90571427Y-79803571D02*
X90571427Y-78303571D01*
X89928570Y-79803571D02*
X89928570Y-79017857D01*
X89999999Y-78875000D01*
X90142856Y-78803571D01*
X90357141Y-78803571D01*
X90499999Y-78875000D01*
X90571427Y-78946429D01*
X89428570Y-78803571D02*
X88857141Y-78803571D01*
X89214284Y-78303571D02*
X89214284Y-79589286D01*
X89142856Y-79732143D01*
X88999998Y-79803571D01*
X88857141Y-79803571D01*
X87285713Y-78232143D02*
X88571427Y-80160714D01*
X86285712Y-79017857D02*
X86071426Y-79089286D01*
X85999998Y-79160714D01*
X85928569Y-79303571D01*
X85928569Y-79517857D01*
X85999998Y-79660714D01*
X86071426Y-79732143D01*
X86214284Y-79803571D01*
X86785712Y-79803571D01*
X86785712Y-78303571D01*
X86285712Y-78303571D01*
X86142855Y-78375000D01*
X86071426Y-78446429D01*
X85999998Y-78589286D01*
X85999998Y-78732143D01*
X86071426Y-78875000D01*
X86142855Y-78946429D01*
X86285712Y-79017857D01*
X86785712Y-79017857D01*
X85499998Y-78303571D02*
X84642855Y-78303571D01*
X85071426Y-79803571D02*
X85071426Y-78303571D01*
X84142855Y-79232143D02*
X82999998Y-79232143D01*
X82285712Y-79803571D02*
X82285712Y-78303571D01*
X81785712Y-79375000D01*
X81285712Y-78303571D01*
X81285712Y-79803571D01*
X80357140Y-79803571D02*
X80499998Y-79732143D01*
X80571426Y-79660714D01*
X80642855Y-79517857D01*
X80642855Y-79089286D01*
X80571426Y-78946429D01*
X80499998Y-78875000D01*
X80357140Y-78803571D01*
X80142855Y-78803571D01*
X79999998Y-78875000D01*
X79928569Y-78946429D01*
X79857140Y-79089286D01*
X79857140Y-79517857D01*
X79928569Y-79660714D01*
X79999998Y-79732143D01*
X80142855Y-79803571D01*
X80357140Y-79803571D01*
X78571426Y-79803571D02*
X78571426Y-78303571D01*
X78571426Y-79732143D02*
X78714283Y-79803571D01*
X78999997Y-79803571D01*
X79142855Y-79732143D01*
X79214283Y-79660714D01*
X79285712Y-79517857D01*
X79285712Y-79089286D01*
X79214283Y-78946429D01*
X79142855Y-78875000D01*
X78999997Y-78803571D01*
X78714283Y-78803571D01*
X78571426Y-78875000D01*
X77214283Y-78803571D02*
X77214283Y-79803571D01*
X77857140Y-78803571D02*
X77857140Y-79589286D01*
X77785712Y-79732143D01*
X77642854Y-79803571D01*
X77428569Y-79803571D01*
X77285712Y-79732143D01*
X77214283Y-79660714D01*
X76285711Y-79803571D02*
X76428569Y-79732143D01*
X76499997Y-79589286D01*
X76499997Y-78303571D01*
X75142855Y-79732143D02*
X75285712Y-79803571D01*
X75571426Y-79803571D01*
X75714283Y-79732143D01*
X75785712Y-79589286D01*
X75785712Y-79017857D01*
X75714283Y-78875000D01*
X75571426Y-78803571D01*
X75285712Y-78803571D01*
X75142855Y-78875000D01*
X75071426Y-79017857D01*
X75071426Y-79160714D01*
X75785712Y-79303571D01*
X94999999Y-67903571D02*
X94071428Y-67903571D01*
X94571428Y-68475000D01*
X94357142Y-68475000D01*
X94214285Y-68546429D01*
X94142856Y-68617857D01*
X94071428Y-68760714D01*
X94071428Y-69117857D01*
X94142856Y-69260714D01*
X94214285Y-69332143D01*
X94357142Y-69403571D01*
X94785714Y-69403571D01*
X94928571Y-69332143D01*
X94999999Y-69260714D01*
X92642857Y-69403571D02*
X93500000Y-69403571D01*
X93071428Y-69403571D02*
X93071428Y-67903571D01*
X93214285Y-68117857D01*
X93357143Y-68260714D01*
X93500000Y-68332143D01*
X92000000Y-69260714D02*
X91928572Y-69332143D01*
X92000000Y-69403571D01*
X92071429Y-69332143D01*
X92000000Y-69260714D01*
X92000000Y-69403571D01*
X90642857Y-67903571D02*
X90928571Y-67903571D01*
X91071428Y-67975000D01*
X91142857Y-68046429D01*
X91285714Y-68260714D01*
X91357143Y-68546429D01*
X91357143Y-69117857D01*
X91285714Y-69260714D01*
X91214286Y-69332143D01*
X91071428Y-69403571D01*
X90785714Y-69403571D01*
X90642857Y-69332143D01*
X90571428Y-69260714D01*
X90500000Y-69117857D01*
X90500000Y-68760714D01*
X90571428Y-68617857D01*
X90642857Y-68546429D01*
X90785714Y-68475000D01*
X91071428Y-68475000D01*
X91214286Y-68546429D01*
X91285714Y-68617857D01*
X91357143Y-68760714D01*
X89928572Y-68046429D02*
X89857143Y-67975000D01*
X89714286Y-67903571D01*
X89357143Y-67903571D01*
X89214286Y-67975000D01*
X89142857Y-68046429D01*
X89071429Y-68189286D01*
X89071429Y-68332143D01*
X89142857Y-68546429D01*
X90000000Y-69403571D01*
X89071429Y-69403571D01*
X88428572Y-69403571D02*
X88428572Y-68403571D01*
X88428572Y-68546429D02*
X88357144Y-68475000D01*
X88214286Y-68403571D01*
X88000001Y-68403571D01*
X87857144Y-68475000D01*
X87785715Y-68617857D01*
X87785715Y-69403571D01*
X87785715Y-68617857D02*
X87714286Y-68475000D01*
X87571429Y-68403571D01*
X87357144Y-68403571D01*
X87214286Y-68475000D01*
X87142858Y-68617857D01*
X87142858Y-69403571D01*
X86428572Y-69403571D02*
X86428572Y-68403571D01*
X86428572Y-68546429D02*
X86357144Y-68475000D01*
X86214286Y-68403571D01*
X86000001Y-68403571D01*
X85857144Y-68475000D01*
X85785715Y-68617857D01*
X85785715Y-69403571D01*
X85785715Y-68617857D02*
X85714286Y-68475000D01*
X85571429Y-68403571D01*
X85357144Y-68403571D01*
X85214286Y-68475000D01*
X85142858Y-68617857D01*
X85142858Y-69403571D01*
X94928571Y-70596429D02*
X94857142Y-70525000D01*
X94714285Y-70453571D01*
X94357142Y-70453571D01*
X94214285Y-70525000D01*
X94142856Y-70596429D01*
X94071428Y-70739286D01*
X94071428Y-70882143D01*
X94142856Y-71096429D01*
X94999999Y-71953571D01*
X94071428Y-71953571D01*
X93214285Y-71096429D02*
X93357143Y-71025000D01*
X93428571Y-70953571D01*
X93500000Y-70810714D01*
X93500000Y-70739286D01*
X93428571Y-70596429D01*
X93357143Y-70525000D01*
X93214285Y-70453571D01*
X92928571Y-70453571D01*
X92785714Y-70525000D01*
X92714285Y-70596429D01*
X92642857Y-70739286D01*
X92642857Y-70810714D01*
X92714285Y-70953571D01*
X92785714Y-71025000D01*
X92928571Y-71096429D01*
X93214285Y-71096429D01*
X93357143Y-71167857D01*
X93428571Y-71239286D01*
X93500000Y-71382143D01*
X93500000Y-71667857D01*
X93428571Y-71810714D01*
X93357143Y-71882143D01*
X93214285Y-71953571D01*
X92928571Y-71953571D01*
X92785714Y-71882143D01*
X92714285Y-71810714D01*
X92642857Y-71667857D01*
X92642857Y-71382143D01*
X92714285Y-71239286D01*
X92785714Y-71167857D01*
X92928571Y-71096429D01*
X92000000Y-71810714D02*
X91928572Y-71882143D01*
X92000000Y-71953571D01*
X92071429Y-71882143D01*
X92000000Y-71810714D01*
X92000000Y-71953571D01*
X91357143Y-70596429D02*
X91285714Y-70525000D01*
X91142857Y-70453571D01*
X90785714Y-70453571D01*
X90642857Y-70525000D01*
X90571428Y-70596429D01*
X90500000Y-70739286D01*
X90500000Y-70882143D01*
X90571428Y-71096429D01*
X91428571Y-71953571D01*
X90500000Y-71953571D01*
X89642857Y-71096429D02*
X89785715Y-71025000D01*
X89857143Y-70953571D01*
X89928572Y-70810714D01*
X89928572Y-70739286D01*
X89857143Y-70596429D01*
X89785715Y-70525000D01*
X89642857Y-70453571D01*
X89357143Y-70453571D01*
X89214286Y-70525000D01*
X89142857Y-70596429D01*
X89071429Y-70739286D01*
X89071429Y-70810714D01*
X89142857Y-70953571D01*
X89214286Y-71025000D01*
X89357143Y-71096429D01*
X89642857Y-71096429D01*
X89785715Y-71167857D01*
X89857143Y-71239286D01*
X89928572Y-71382143D01*
X89928572Y-71667857D01*
X89857143Y-71810714D01*
X89785715Y-71882143D01*
X89642857Y-71953571D01*
X89357143Y-71953571D01*
X89214286Y-71882143D01*
X89142857Y-71810714D01*
X89071429Y-71667857D01*
X89071429Y-71382143D01*
X89142857Y-71239286D01*
X89214286Y-71167857D01*
X89357143Y-71096429D01*
X88428572Y-71953571D02*
X88428572Y-70953571D01*
X88428572Y-71096429D02*
X88357144Y-71025000D01*
X88214286Y-70953571D01*
X88000001Y-70953571D01*
X87857144Y-71025000D01*
X87785715Y-71167857D01*
X87785715Y-71953571D01*
X87785715Y-71167857D02*
X87714286Y-71025000D01*
X87571429Y-70953571D01*
X87357144Y-70953571D01*
X87214286Y-71025000D01*
X87142858Y-71167857D01*
X87142858Y-71953571D01*
X86428572Y-71953571D02*
X86428572Y-70953571D01*
X86428572Y-71096429D02*
X86357144Y-71025000D01*
X86214286Y-70953571D01*
X86000001Y-70953571D01*
X85857144Y-71025000D01*
X85785715Y-71167857D01*
X85785715Y-71953571D01*
X85785715Y-71167857D02*
X85714286Y-71025000D01*
X85571429Y-70953571D01*
X85357144Y-70953571D01*
X85214286Y-71025000D01*
X85142858Y-71167857D01*
X85142858Y-71953571D01*
X103892857Y-69403571D02*
X104392857Y-68689286D01*
X104750000Y-69403571D02*
X104750000Y-67903571D01*
X104178572Y-67903571D01*
X104035714Y-67975000D01*
X103964286Y-68046429D01*
X103892857Y-68189286D01*
X103892857Y-68403571D01*
X103964286Y-68546429D01*
X104035714Y-68617857D01*
X104178572Y-68689286D01*
X104750000Y-68689286D01*
X102607143Y-69403571D02*
X102607143Y-68617857D01*
X102678572Y-68475000D01*
X102821429Y-68403571D01*
X103107143Y-68403571D01*
X103250000Y-68475000D01*
X102607143Y-69332143D02*
X102750000Y-69403571D01*
X103107143Y-69403571D01*
X103250000Y-69332143D01*
X103321429Y-69189286D01*
X103321429Y-69046429D01*
X103250000Y-68903571D01*
X103107143Y-68832143D01*
X102750000Y-68832143D01*
X102607143Y-68760714D01*
X101250000Y-69403571D02*
X101250000Y-67903571D01*
X101250000Y-69332143D02*
X101392857Y-69403571D01*
X101678571Y-69403571D01*
X101821429Y-69332143D01*
X101892857Y-69260714D01*
X101964286Y-69117857D01*
X101964286Y-68689286D01*
X101892857Y-68546429D01*
X101821429Y-68475000D01*
X101678571Y-68403571D01*
X101392857Y-68403571D01*
X101250000Y-68475000D01*
X100535714Y-69403571D02*
X100535714Y-68403571D01*
X100535714Y-67903571D02*
X100607143Y-67975000D01*
X100535714Y-68046429D01*
X100464286Y-67975000D01*
X100535714Y-67903571D01*
X100535714Y-68046429D01*
X99178571Y-68403571D02*
X99178571Y-69403571D01*
X99821428Y-68403571D02*
X99821428Y-69189286D01*
X99750000Y-69332143D01*
X99607142Y-69403571D01*
X99392857Y-69403571D01*
X99250000Y-69332143D01*
X99178571Y-69260714D01*
X98535714Y-69332143D02*
X98392857Y-69403571D01*
X98107142Y-69403571D01*
X97964285Y-69332143D01*
X97892857Y-69189286D01*
X97892857Y-69117857D01*
X97964285Y-68975000D01*
X98107142Y-68903571D01*
X98321428Y-68903571D01*
X98464285Y-68832143D01*
X98535714Y-68689286D01*
X98535714Y-68617857D01*
X98464285Y-68475000D01*
X98321428Y-68403571D01*
X98107142Y-68403571D01*
X97964285Y-68475000D01*
X97249999Y-69260714D02*
X97178571Y-69332143D01*
X97249999Y-69403571D01*
X97321428Y-69332143D01*
X97249999Y-69260714D01*
X97249999Y-69403571D01*
X97249999Y-68475000D02*
X97178571Y-68546429D01*
X97249999Y-68617857D01*
X97321428Y-68546429D01*
X97249999Y-68475000D01*
X97249999Y-68617857D01*
X104107143Y-71953571D02*
X104107143Y-70453571D01*
X104107143Y-71167857D02*
X103250000Y-71167857D01*
X103250000Y-71953571D02*
X103250000Y-70453571D01*
X102321428Y-71953571D02*
X102464286Y-71882143D01*
X102535714Y-71810714D01*
X102607143Y-71667857D01*
X102607143Y-71239286D01*
X102535714Y-71096429D01*
X102464286Y-71025000D01*
X102321428Y-70953571D01*
X102107143Y-70953571D01*
X101964286Y-71025000D01*
X101892857Y-71096429D01*
X101821428Y-71239286D01*
X101821428Y-71667857D01*
X101892857Y-71810714D01*
X101964286Y-71882143D01*
X102107143Y-71953571D01*
X102321428Y-71953571D01*
X100964285Y-71953571D02*
X101107143Y-71882143D01*
X101178571Y-71739286D01*
X101178571Y-70453571D01*
X99821429Y-71882143D02*
X99964286Y-71953571D01*
X100250000Y-71953571D01*
X100392857Y-71882143D01*
X100464286Y-71739286D01*
X100464286Y-71167857D01*
X100392857Y-71025000D01*
X100250000Y-70953571D01*
X99964286Y-70953571D01*
X99821429Y-71025000D01*
X99750000Y-71167857D01*
X99750000Y-71310714D01*
X100464286Y-71453571D01*
X99178572Y-71882143D02*
X99035715Y-71953571D01*
X98750000Y-71953571D01*
X98607143Y-71882143D01*
X98535715Y-71739286D01*
X98535715Y-71667857D01*
X98607143Y-71525000D01*
X98750000Y-71453571D01*
X98964286Y-71453571D01*
X99107143Y-71382143D01*
X99178572Y-71239286D01*
X99178572Y-71167857D01*
X99107143Y-71025000D01*
X98964286Y-70953571D01*
X98750000Y-70953571D01*
X98607143Y-71025000D01*
X97892857Y-71810714D02*
X97821429Y-71882143D01*
X97892857Y-71953571D01*
X97964286Y-71882143D01*
X97892857Y-71810714D01*
X97892857Y-71953571D01*
X97892857Y-71025000D02*
X97821429Y-71096429D01*
X97892857Y-71167857D01*
X97964286Y-71096429D01*
X97892857Y-71025000D01*
X97892857Y-71167857D01*
M02*
