M48
INCH,TZ
T1C0.013
T2C0.028
T3C0.030
T4C0.031
T5C0.035
T6C0.047
T7C0.091
T8C0.126
%
G90
G05
T1
X37802Y-41002
T2
X27327Y-32402
X27864Y-42402
X28114Y-32402
X28652Y-42402
X28902Y-32402
X29439Y-42402
X29689Y-32402
X30476Y-32402
T3
X28346Y-36024
X28346Y-37008
X28346Y-37795
X28346Y-38780
X31902Y-32441
X31902Y-33228
X31902Y-34016
X31902Y-34803
X31902Y-35591
X31902Y-37402
X32689Y-37402
X33476Y-37402
X34264Y-37402
X35051Y-37402
X35839Y-37402
X36626Y-37402
X37413Y-37402
X38201Y-37402
X38988Y-37402
X39776Y-37402
X40563Y-37402
X41350Y-37402
X42138Y-37402
X42925Y-37402
T4
X33614Y-39402
X34402Y-39402
X35902Y-41152
X35902Y-42152
X35902Y-43152
X35902Y-44152
X38902Y-41152
X38902Y-42152
X38902Y-43152
X38902Y-44152
X40417Y-39402
X41402Y-39402
X43402Y-38902
X43402Y-41902
X44152Y-36902
X44402Y-38902
X44402Y-41902
X45136Y-36902
X45402Y-38902
X45402Y-41902
X46402Y-38902
X46402Y-41902
T5
X36402Y-39402
X36402Y-46152
X38370Y-39402
X38370Y-46152
T6
X32668Y-46402
X33652Y-44418
X34636Y-46402
X40168Y-46402
X41152Y-44418
X42136Y-46402
T7
X27402Y-34862
X27402Y-39941
T8
X29528Y-29528
X29528Y-45276
X45276Y-29528
X45276Y-45276
T0
M30
