G04 #@! TF.FileFunction,Copper,L1,Top,Signal*
%FSLAX46Y46*%
G04 Gerber Fmt 4.6, Leading zero omitted, Abs format (unit mm)*
G04 Created by KiCad (PCBNEW 4.0.5) date Sunday, 26 February 2017 'PMt' 14:34:23*
%MOMM*%
%LPD*%
G01*
G04 APERTURE LIST*
%ADD10C,0.100000*%
%ADD11R,2.400000X1.600000*%
%ADD12O,2.400000X1.600000*%
%ADD13R,1.200000X1.700000*%
%ADD14O,1.200000X1.700000*%
%ADD15R,1.300000X1.300000*%
%ADD16C,1.300000*%
%ADD17C,1.524000*%
%ADD18R,1.400000X1.400000*%
%ADD19C,1.400000*%
%ADD20C,2.499360*%
%ADD21R,1.600000X2.400000*%
%ADD22O,1.600000X2.400000*%
%ADD23C,3.500000*%
%ADD24C,0.685800*%
%ADD25C,0.457200*%
%ADD26C,0.304800*%
%ADD27C,0.254000*%
G04 APERTURE END LIST*
D10*
D11*
X98810000Y-112145000D03*
D12*
X91190000Y-104525000D03*
X98810000Y-109605000D03*
X91190000Y-107065000D03*
X98810000Y-107065000D03*
X91190000Y-109605000D03*
X98810000Y-104525000D03*
X91190000Y-112145000D03*
D13*
X74775000Y-107700000D03*
D14*
X72775000Y-107700000D03*
X70775000Y-107700000D03*
D15*
X105160000Y-100080000D03*
D16*
X102660000Y-100080000D03*
D17*
X81030000Y-95000000D03*
X83030000Y-95000000D03*
X85030000Y-95000000D03*
X87030000Y-95000000D03*
X89030000Y-95000000D03*
X91030000Y-95000000D03*
X93030000Y-95000000D03*
X95030000Y-95000000D03*
X97030000Y-95000000D03*
X99030000Y-95000000D03*
X101030000Y-95000000D03*
X103030000Y-95000000D03*
X105030000Y-95000000D03*
X107030000Y-95000000D03*
X109030000Y-95000000D03*
X81030000Y-90400000D03*
X81030000Y-88400000D03*
X81030000Y-86400000D03*
X81030000Y-84400000D03*
X81030000Y-82400000D03*
D18*
X92460000Y-100080000D03*
D19*
X97460000Y-100080000D03*
D15*
X87380000Y-100080000D03*
D16*
X85380000Y-100080000D03*
D18*
X92460000Y-117225000D03*
D19*
X97460000Y-117225000D03*
D13*
X69410000Y-82300000D03*
D14*
X71410000Y-82300000D03*
X73410000Y-82300000D03*
X75410000Y-82300000D03*
X77410000Y-82300000D03*
D20*
X104525000Y-112820640D03*
X107024360Y-117860000D03*
X102025640Y-117860000D03*
X85475000Y-112820640D03*
X87974360Y-117860000D03*
X82975640Y-117860000D03*
D21*
X117860000Y-98810000D03*
D22*
X110240000Y-106430000D03*
X115320000Y-98810000D03*
X112780000Y-106430000D03*
X112780000Y-98810000D03*
X115320000Y-106430000D03*
X110240000Y-98810000D03*
X117860000Y-106430000D03*
D15*
X114645000Y-93730000D03*
D16*
X112145000Y-93730000D03*
D17*
X72000000Y-91500000D03*
X72000000Y-94000000D03*
X72000000Y-96000000D03*
X72000000Y-98500000D03*
D23*
X69600000Y-88550000D03*
X69600000Y-101450000D03*
D24*
X96016000Y-104144000D03*
D25*
X112780000Y-98810000D02*
X112780000Y-99210000D01*
X115320000Y-98810000D02*
X115320000Y-97152800D01*
X114645000Y-96477800D02*
X114645000Y-93730000D01*
X115320000Y-97152800D02*
X114645000Y-96477800D01*
X110240000Y-98810000D02*
X110240000Y-98410000D01*
X110240000Y-98410000D02*
X112145000Y-96505000D01*
X112145000Y-96505000D02*
X112145000Y-95635000D01*
X112145000Y-93730000D02*
X112145000Y-95635000D01*
D26*
X110240000Y-99045000D02*
X110240000Y-99445000D01*
D25*
X102620000Y-102580000D02*
X102660000Y-102540000D01*
X102660000Y-102540000D02*
X102660000Y-100080000D01*
X98175000Y-103890000D02*
X98810000Y-104525000D01*
X98175000Y-103255000D02*
X98175000Y-103890000D01*
X97460000Y-102540000D02*
X98175000Y-103255000D01*
X97460000Y-100080000D02*
X97460000Y-102540000D01*
X104485000Y-104525000D02*
X102620000Y-104525000D01*
X102620000Y-104525000D02*
X98810000Y-104525000D01*
X102620000Y-102580000D02*
X102620000Y-104525000D01*
X110240000Y-106430000D02*
X110240000Y-104772800D01*
X110240000Y-104772800D02*
X109992200Y-104525000D01*
X109992200Y-104525000D02*
X104485000Y-104525000D01*
D26*
X98410000Y-104525000D02*
X98810000Y-104525000D01*
X99210000Y-104525000D02*
X98810000Y-104525000D01*
X104525000Y-112820640D02*
X102660640Y-112820640D01*
X102660640Y-112820640D02*
X101985000Y-112145000D01*
X100715000Y-109605000D02*
X98810000Y-109605000D01*
X101985000Y-112145000D02*
X101985000Y-110875000D01*
X101985000Y-110875000D02*
X100715000Y-109605000D01*
X76908163Y-107651641D02*
X75950000Y-106693478D01*
X70775000Y-106545200D02*
X70927410Y-106392790D01*
X75649312Y-106392790D02*
X75950000Y-106693478D01*
X70775000Y-107700000D02*
X70775000Y-106545200D01*
X70927410Y-106392790D02*
X75649312Y-106392790D01*
X76908163Y-107651641D02*
X75649312Y-106392790D01*
X77855000Y-107651641D02*
X84680080Y-114476721D01*
X77855000Y-107651641D02*
X76908163Y-107651641D01*
X98810000Y-112145000D02*
X100715000Y-112145000D01*
X100715000Y-112145000D02*
X106430000Y-117860000D01*
X106430000Y-117860000D02*
X107024360Y-117860000D01*
X87380000Y-113415000D02*
X87380000Y-111308879D01*
X97305200Y-112145000D02*
X98810000Y-112145000D01*
X84680080Y-114476721D02*
X86318279Y-114476721D01*
X86318279Y-114476721D02*
X87380000Y-113415000D01*
X93558790Y-108398590D02*
X97305200Y-112145000D01*
X87380000Y-111308879D02*
X90290289Y-108398590D01*
X90290289Y-108398590D02*
X93558790Y-108398590D01*
X91190000Y-107065000D02*
X90790000Y-107065000D01*
X90790000Y-107065000D02*
X86724679Y-111130321D01*
X86724679Y-111130321D02*
X86724679Y-111570961D01*
X85475000Y-112820640D02*
X86724679Y-111570961D01*
X74775000Y-107700000D02*
X75679800Y-107700000D01*
X76314800Y-108335000D02*
X77748081Y-108335000D01*
X75679800Y-107700000D02*
X76314800Y-108335000D01*
X77748081Y-108335000D02*
X84448613Y-115035532D01*
X84448613Y-115035532D02*
X86988828Y-115035532D01*
X86988828Y-115035532D02*
X87974360Y-114050000D01*
X87974360Y-114050000D02*
X87974360Y-111550640D01*
X87974360Y-111550640D02*
X89920000Y-109605000D01*
X89920000Y-109605000D02*
X91190000Y-109605000D01*
X87974360Y-114050000D02*
X87974360Y-117860000D01*
X98810000Y-107065000D02*
X98410000Y-107065000D01*
X95635000Y-102620000D02*
X95635000Y-97540000D01*
X98410000Y-107065000D02*
X97019302Y-105674302D01*
X97019302Y-105674302D02*
X97019302Y-104004302D01*
X95635000Y-97540000D02*
X96905000Y-96270000D01*
X97019302Y-104004302D02*
X95635000Y-102620000D01*
X96905000Y-96270000D02*
X97760000Y-96270000D01*
X97760000Y-96270000D02*
X98268001Y-95761999D01*
X98268001Y-95761999D02*
X99030000Y-95000000D01*
X91190000Y-104525000D02*
X95635000Y-104525000D01*
X95635000Y-104525000D02*
X96016000Y-104144000D01*
X91590000Y-104525000D02*
X91190000Y-104525000D01*
X71640597Y-87636459D02*
X71607834Y-87584318D01*
X71367576Y-85908241D02*
X71435400Y-85900600D01*
X72000000Y-94000000D02*
X73219201Y-92780799D01*
X73219201Y-92780799D02*
X73219201Y-90914783D01*
X72100416Y-86682752D02*
X72064103Y-86624960D01*
X71640597Y-87233940D02*
X71684141Y-87190396D01*
X71435400Y-85900600D02*
X71825800Y-85900600D01*
X72064103Y-86624960D02*
X72015840Y-86576697D01*
X72123706Y-87953806D02*
X72103367Y-87895681D01*
X73219201Y-90914783D02*
X73212435Y-90908017D01*
X73212435Y-90908017D02*
X73212435Y-90117565D01*
X72027060Y-87070403D02*
X72070604Y-87026859D01*
X71794407Y-87733105D02*
X71736282Y-87712766D01*
X73212435Y-90117565D02*
X72130600Y-89035730D01*
X71893625Y-85892958D02*
X71958048Y-85870415D01*
X72122959Y-85663624D02*
X72130600Y-85595800D01*
X72130600Y-89035730D02*
X72130600Y-88015000D01*
X71794407Y-87137294D02*
X71916794Y-87123505D01*
X72130600Y-88015000D02*
X72123706Y-87953806D01*
X71736282Y-87157633D02*
X71794407Y-87137294D01*
X71958048Y-85870415D02*
X72015840Y-85834102D01*
X72064103Y-85785839D02*
X72100416Y-85728047D01*
X72103367Y-87895681D02*
X72070604Y-87843540D01*
X72130600Y-85595800D02*
X72130600Y-84470600D01*
X71825800Y-86510200D02*
X71435400Y-86510200D01*
X71736282Y-87712766D02*
X71684141Y-87680003D01*
X71245361Y-86443702D02*
X71197098Y-86395439D01*
X72130600Y-86855400D02*
X72130600Y-86815000D01*
X71684141Y-87680003D02*
X71640597Y-87636459D01*
X72103367Y-86974718D02*
X72123706Y-86916593D01*
X72070604Y-87843540D02*
X72027060Y-87799996D01*
X72027060Y-87799996D02*
X71974919Y-87767233D01*
X72123706Y-86916593D02*
X72130600Y-86855400D01*
X71684141Y-87190396D02*
X71736282Y-87157633D01*
X71974919Y-87767233D02*
X71916794Y-87746894D01*
X71607834Y-87286081D02*
X71640597Y-87233940D01*
X71916794Y-87746894D02*
X71794407Y-87733105D01*
X71580600Y-87465000D02*
X71580600Y-87405400D01*
X71893625Y-86517841D02*
X71825800Y-86510200D01*
X71607834Y-87584318D02*
X71587495Y-87526193D01*
X71587495Y-87526193D02*
X71580600Y-87465000D01*
X72015840Y-85834102D02*
X72064103Y-85785839D01*
X72015840Y-86576697D02*
X71958048Y-86540384D01*
X71580600Y-87405400D02*
X71587495Y-87344206D01*
X72100416Y-85728047D02*
X72122959Y-85663624D01*
X71160785Y-86073152D02*
X71197098Y-86015360D01*
X71587495Y-87344206D02*
X71607834Y-87286081D01*
X71916794Y-87123505D02*
X71974919Y-87103166D01*
X71974919Y-87103166D02*
X72027060Y-87070403D01*
X72070604Y-87026859D02*
X72103367Y-86974718D01*
X72130600Y-86815000D02*
X72122959Y-86747175D01*
X71958048Y-86540384D02*
X71893625Y-86517841D01*
X72122959Y-86747175D02*
X72100416Y-86682752D01*
X71825800Y-85900600D02*
X71893625Y-85892958D01*
X71138242Y-86137575D02*
X71160785Y-86073152D01*
X71435400Y-86510200D02*
X71367576Y-86502558D01*
X71367576Y-86502558D02*
X71303153Y-86480015D01*
X71303153Y-86480015D02*
X71245361Y-86443702D01*
X71197098Y-86395439D02*
X71160785Y-86337647D01*
X71160785Y-86337647D02*
X71138242Y-86273224D01*
X71138242Y-86273224D02*
X71130600Y-86205400D01*
X71130600Y-86205400D02*
X71138242Y-86137575D01*
X71303153Y-85930784D02*
X71367576Y-85908241D01*
X71197098Y-86015360D02*
X71245361Y-85967097D01*
X71245361Y-85967097D02*
X71303153Y-85930784D01*
X72130600Y-84470600D02*
X71410000Y-83750000D01*
X71410000Y-83750000D02*
X71410000Y-82300000D01*
X73410000Y-82300000D02*
X73410000Y-83750000D01*
X73410000Y-83750000D02*
X72689400Y-84470600D01*
X73777992Y-90683325D02*
X73777992Y-94222008D01*
X72689400Y-84470600D02*
X72689400Y-88804270D01*
X72689400Y-88804270D02*
X73771233Y-89886103D01*
X73771233Y-89886103D02*
X73771233Y-90676566D01*
X73604869Y-94395131D02*
X72000000Y-96000000D01*
X73771233Y-90676566D02*
X73777992Y-90683325D01*
X73777992Y-94222008D02*
X73604869Y-94395131D01*
D27*
G36*
X101343606Y-64096360D02*
X107225342Y-65917061D01*
X112641418Y-68845523D01*
X117385538Y-72770200D01*
X121276999Y-77541603D01*
X124167578Y-82977992D01*
X125947173Y-88872295D01*
X126548000Y-95000000D01*
X126535700Y-95880872D01*
X125764012Y-101989412D01*
X123820532Y-107831728D01*
X120779287Y-113185287D01*
X116756117Y-117846174D01*
X111904264Y-121636857D01*
X106408532Y-124412951D01*
X100478253Y-126068715D01*
X94339309Y-126541081D01*
X88225530Y-125812057D01*
X82369789Y-123909411D01*
X76995128Y-120905615D01*
X73582668Y-118001383D01*
X81291950Y-118001383D01*
X81351477Y-118325721D01*
X81472868Y-118632320D01*
X81651499Y-118909501D01*
X81880566Y-119146707D01*
X82151345Y-119334903D01*
X82453520Y-119466920D01*
X82775583Y-119537730D01*
X83105266Y-119544636D01*
X83430011Y-119487375D01*
X83737450Y-119368127D01*
X84015871Y-119191436D01*
X84254671Y-118964030D01*
X84444753Y-118694572D01*
X84578876Y-118393326D01*
X84651933Y-118071765D01*
X84657192Y-117695122D01*
X84593142Y-117371647D01*
X84467482Y-117066773D01*
X84284999Y-116792113D01*
X84052642Y-116558128D01*
X83779262Y-116373732D01*
X83475273Y-116245946D01*
X83152253Y-116179640D01*
X82822506Y-116177338D01*
X82498591Y-116239128D01*
X82192848Y-116362656D01*
X81916920Y-116543218D01*
X81681319Y-116773936D01*
X81495018Y-117046021D01*
X81365114Y-117349111D01*
X81296554Y-117671660D01*
X81291950Y-118001383D01*
X73582668Y-118001383D01*
X72306268Y-116915082D01*
X70920413Y-115166568D01*
X73016396Y-115166568D01*
X73086527Y-115548680D01*
X73229541Y-115909892D01*
X73439992Y-116236447D01*
X73709862Y-116515907D01*
X74028874Y-116737626D01*
X74384875Y-116893159D01*
X74764307Y-116976582D01*
X75152716Y-116984718D01*
X75535308Y-116917257D01*
X75897510Y-116776768D01*
X76225526Y-116568602D01*
X76506863Y-116300689D01*
X76730804Y-115983233D01*
X76888818Y-115628326D01*
X76974889Y-115249486D01*
X76981085Y-114805753D01*
X76905626Y-114424658D01*
X76757582Y-114065477D01*
X76542593Y-113741892D01*
X76268847Y-113466228D01*
X75946770Y-113248985D01*
X75588632Y-113098437D01*
X75208073Y-113020320D01*
X74819588Y-113017607D01*
X74437975Y-113090404D01*
X74077770Y-113235936D01*
X73752692Y-113448662D01*
X73475123Y-113720477D01*
X73255637Y-114041028D01*
X73102593Y-114398107D01*
X73021820Y-114778112D01*
X73016396Y-115166568D01*
X70920413Y-115166568D01*
X68481805Y-112089811D01*
X66094205Y-107444044D01*
X69794000Y-107444044D01*
X69794000Y-107955956D01*
X69812683Y-108146500D01*
X69868020Y-108329786D01*
X69957904Y-108498833D01*
X70078911Y-108647202D01*
X70226432Y-108769242D01*
X70394847Y-108860304D01*
X70577743Y-108916919D01*
X70768151Y-108936932D01*
X70958821Y-108919580D01*
X71142489Y-108865523D01*
X71312160Y-108776822D01*
X71461370Y-108656854D01*
X71584436Y-108510189D01*
X71676672Y-108342413D01*
X71734563Y-108159917D01*
X71749829Y-108023813D01*
X71762850Y-108156613D01*
X71821053Y-108349390D01*
X71915592Y-108527191D01*
X72042865Y-108683244D01*
X72198025Y-108811603D01*
X72375161Y-108907380D01*
X72567528Y-108966928D01*
X72767797Y-108987977D01*
X72968340Y-108969726D01*
X73161519Y-108912870D01*
X73339976Y-108819575D01*
X73496913Y-108693395D01*
X73626352Y-108539135D01*
X73723364Y-108362671D01*
X73784253Y-108170725D01*
X73792157Y-108100257D01*
X73792157Y-108550000D01*
X73796995Y-108610673D01*
X73828864Y-108713580D01*
X73888140Y-108803535D01*
X73970130Y-108873415D01*
X74068342Y-108917686D01*
X74175000Y-108932843D01*
X75375000Y-108932843D01*
X75435673Y-108928005D01*
X75538580Y-108896136D01*
X75628535Y-108836860D01*
X75698415Y-108754870D01*
X75742686Y-108656658D01*
X75757843Y-108550000D01*
X75757843Y-108532384D01*
X75937630Y-108712171D01*
X75975666Y-108743414D01*
X76013447Y-108775116D01*
X76015909Y-108776470D01*
X76018073Y-108778247D01*
X76061464Y-108801514D01*
X76104671Y-108825267D01*
X76107344Y-108826115D01*
X76109817Y-108827441D01*
X76156958Y-108841853D01*
X76203900Y-108856744D01*
X76206686Y-108857057D01*
X76209370Y-108857877D01*
X76258416Y-108862859D01*
X76307353Y-108868348D01*
X76312832Y-108868386D01*
X76312938Y-108868397D01*
X76313037Y-108868388D01*
X76314800Y-108868400D01*
X77527139Y-108868400D01*
X84071442Y-115412703D01*
X84109526Y-115443985D01*
X84147260Y-115475648D01*
X84149719Y-115477000D01*
X84151885Y-115478779D01*
X84195263Y-115502038D01*
X84238484Y-115525799D01*
X84241161Y-115526648D01*
X84243630Y-115527972D01*
X84290684Y-115542358D01*
X84337713Y-115557276D01*
X84340505Y-115557589D01*
X84343183Y-115558408D01*
X84392179Y-115563385D01*
X84441166Y-115568880D01*
X84446645Y-115568918D01*
X84446751Y-115568929D01*
X84446850Y-115568920D01*
X84448613Y-115568932D01*
X86988828Y-115568932D01*
X87037819Y-115564128D01*
X87086948Y-115559830D01*
X87089645Y-115559046D01*
X87092433Y-115558773D01*
X87139553Y-115544547D01*
X87186915Y-115530787D01*
X87189407Y-115529495D01*
X87192091Y-115528685D01*
X87235566Y-115505569D01*
X87279339Y-115482879D01*
X87281533Y-115481127D01*
X87284007Y-115479812D01*
X87322169Y-115448688D01*
X87360696Y-115417932D01*
X87364601Y-115414081D01*
X87364680Y-115414017D01*
X87364740Y-115413944D01*
X87365999Y-115412703D01*
X87440960Y-115337742D01*
X87440960Y-116316687D01*
X87215217Y-116407893D01*
X86947626Y-116583000D01*
X86719143Y-116806748D01*
X86538470Y-117070613D01*
X86412490Y-117364546D01*
X86346002Y-117677350D01*
X86341537Y-117997112D01*
X86399265Y-118311651D01*
X86516989Y-118608987D01*
X86690223Y-118877794D01*
X86912370Y-119107834D01*
X87174968Y-119290344D01*
X87468014Y-119418373D01*
X87780347Y-119487043D01*
X88100069Y-119493741D01*
X88415004Y-119438209D01*
X88713154Y-119322564D01*
X88983164Y-119151211D01*
X89214749Y-118930675D01*
X89399088Y-118669358D01*
X89529160Y-118377213D01*
X89600009Y-118065367D01*
X89605110Y-117700104D01*
X89567617Y-117510750D01*
X91125000Y-117510750D01*
X91125000Y-117987542D01*
X91149403Y-118110223D01*
X91197270Y-118225785D01*
X91266763Y-118329789D01*
X91355211Y-118418237D01*
X91459215Y-118487730D01*
X91574777Y-118535597D01*
X91697458Y-118560000D01*
X92174250Y-118560000D01*
X92333000Y-118401250D01*
X92333000Y-117352000D01*
X92587000Y-117352000D01*
X92587000Y-118401250D01*
X92745750Y-118560000D01*
X93222542Y-118560000D01*
X93345223Y-118535597D01*
X93460785Y-118487730D01*
X93564789Y-118418237D01*
X93653237Y-118329789D01*
X93722730Y-118225785D01*
X93770597Y-118110223D01*
X93795000Y-117987542D01*
X93795000Y-117510750D01*
X93636250Y-117352000D01*
X92587000Y-117352000D01*
X92333000Y-117352000D01*
X91283750Y-117352000D01*
X91125000Y-117510750D01*
X89567617Y-117510750D01*
X89542995Y-117386401D01*
X89515695Y-117320165D01*
X96326713Y-117320165D01*
X96366780Y-117538476D01*
X96448488Y-117744847D01*
X96568724Y-117931416D01*
X96722909Y-118091079D01*
X96905169Y-118217753D01*
X97108562Y-118306614D01*
X97325342Y-118354276D01*
X97547251Y-118358924D01*
X97765836Y-118320382D01*
X97972772Y-118240116D01*
X98160177Y-118121186D01*
X98285982Y-118001383D01*
X100341950Y-118001383D01*
X100401477Y-118325721D01*
X100522868Y-118632320D01*
X100701499Y-118909501D01*
X100930566Y-119146707D01*
X101201345Y-119334903D01*
X101503520Y-119466920D01*
X101825583Y-119537730D01*
X102155266Y-119544636D01*
X102480011Y-119487375D01*
X102787450Y-119368127D01*
X103065871Y-119191436D01*
X103304671Y-118964030D01*
X103494753Y-118694572D01*
X103628876Y-118393326D01*
X103701933Y-118071765D01*
X103707192Y-117695122D01*
X103643142Y-117371647D01*
X103517482Y-117066773D01*
X103334999Y-116792113D01*
X103102642Y-116558128D01*
X102829262Y-116373732D01*
X102525273Y-116245946D01*
X102202253Y-116179640D01*
X101872506Y-116177338D01*
X101548591Y-116239128D01*
X101242848Y-116362656D01*
X100966920Y-116543218D01*
X100731319Y-116773936D01*
X100545018Y-117046021D01*
X100415114Y-117349111D01*
X100346554Y-117671660D01*
X100341950Y-118001383D01*
X98285982Y-118001383D01*
X98320912Y-117968120D01*
X98448856Y-117786748D01*
X98539134Y-117583980D01*
X98588308Y-117367538D01*
X98591848Y-117114021D01*
X98548736Y-116896291D01*
X98464155Y-116691081D01*
X98341326Y-116506208D01*
X98184927Y-116348714D01*
X98000916Y-116224597D01*
X97796302Y-116138585D01*
X97578878Y-116093954D01*
X97356926Y-116092405D01*
X97138900Y-116133995D01*
X96933105Y-116217142D01*
X96747379Y-116338678D01*
X96588796Y-116493973D01*
X96463397Y-116677113D01*
X96375959Y-116881122D01*
X96329812Y-117098229D01*
X96326713Y-117320165D01*
X89515695Y-117320165D01*
X89421131Y-117090738D01*
X89244161Y-116824376D01*
X89018824Y-116597460D01*
X88818676Y-116462458D01*
X91125000Y-116462458D01*
X91125000Y-116939250D01*
X91283750Y-117098000D01*
X92333000Y-117098000D01*
X92333000Y-116048750D01*
X92587000Y-116048750D01*
X92587000Y-117098000D01*
X93636250Y-117098000D01*
X93795000Y-116939250D01*
X93795000Y-116462458D01*
X93770597Y-116339777D01*
X93722730Y-116224215D01*
X93653237Y-116120211D01*
X93564789Y-116031763D01*
X93460785Y-115962270D01*
X93345223Y-115914403D01*
X93222542Y-115890000D01*
X92745750Y-115890000D01*
X92587000Y-116048750D01*
X92333000Y-116048750D01*
X92174250Y-115890000D01*
X91697458Y-115890000D01*
X91574777Y-115914403D01*
X91459215Y-115962270D01*
X91355211Y-116031763D01*
X91266763Y-116120211D01*
X91197270Y-116224215D01*
X91149403Y-116339777D01*
X91125000Y-116462458D01*
X88818676Y-116462458D01*
X88753704Y-116418634D01*
X88507760Y-116315250D01*
X88507760Y-112494039D01*
X89398096Y-112494039D01*
X89415633Y-112576818D01*
X89526285Y-112836646D01*
X89685500Y-113069895D01*
X89887161Y-113267601D01*
X90123517Y-113422166D01*
X90385486Y-113527650D01*
X90663000Y-113580000D01*
X91063000Y-113580000D01*
X91063000Y-112272000D01*
X91317000Y-112272000D01*
X91317000Y-113580000D01*
X91717000Y-113580000D01*
X91994514Y-113527650D01*
X92256483Y-113422166D01*
X92492839Y-113267601D01*
X92694500Y-113069895D01*
X92853715Y-112836646D01*
X92964367Y-112576818D01*
X92981904Y-112494039D01*
X92859915Y-112272000D01*
X91317000Y-112272000D01*
X91063000Y-112272000D01*
X89520085Y-112272000D01*
X89398096Y-112494039D01*
X88507760Y-112494039D01*
X88507760Y-111771582D01*
X89898215Y-110381126D01*
X89938558Y-110431302D01*
X90115124Y-110579459D01*
X90317105Y-110690499D01*
X90484643Y-110743645D01*
X90385486Y-110762350D01*
X90123517Y-110867834D01*
X89887161Y-111022399D01*
X89685500Y-111220105D01*
X89526285Y-111453354D01*
X89415633Y-111713182D01*
X89398096Y-111795961D01*
X89520085Y-112018000D01*
X91063000Y-112018000D01*
X91063000Y-111998000D01*
X91317000Y-111998000D01*
X91317000Y-112018000D01*
X92859915Y-112018000D01*
X92981904Y-111795961D01*
X92964367Y-111713182D01*
X92853715Y-111453354D01*
X92694500Y-111220105D01*
X92492839Y-111022399D01*
X92256483Y-110867834D01*
X91994514Y-110762350D01*
X91893802Y-110743352D01*
X92047694Y-110696889D01*
X92251205Y-110588680D01*
X92429823Y-110443003D01*
X92576743Y-110265407D01*
X92686370Y-110062656D01*
X92754528Y-109842473D01*
X92778621Y-109613245D01*
X92757731Y-109383703D01*
X92692654Y-109162590D01*
X92585869Y-108958328D01*
X92564693Y-108931990D01*
X93337848Y-108931990D01*
X96928029Y-112522171D01*
X96966091Y-112553434D01*
X97003847Y-112585116D01*
X97006309Y-112586469D01*
X97008473Y-112588247D01*
X97051864Y-112611514D01*
X97095071Y-112635267D01*
X97097744Y-112636115D01*
X97100217Y-112637441D01*
X97147358Y-112651853D01*
X97194300Y-112666744D01*
X97197086Y-112667057D01*
X97199770Y-112667877D01*
X97227157Y-112670659D01*
X97227157Y-112945000D01*
X97231995Y-113005673D01*
X97263864Y-113108580D01*
X97323140Y-113198535D01*
X97405130Y-113268415D01*
X97503342Y-113312686D01*
X97610000Y-113327843D01*
X100010000Y-113327843D01*
X100070673Y-113323005D01*
X100173580Y-113291136D01*
X100263535Y-113231860D01*
X100333415Y-113149870D01*
X100377686Y-113051658D01*
X100392843Y-112945000D01*
X100392843Y-112678400D01*
X100494058Y-112678400D01*
X105413007Y-117597348D01*
X105396002Y-117677350D01*
X105391537Y-117997112D01*
X105449265Y-118311651D01*
X105566989Y-118608987D01*
X105740223Y-118877794D01*
X105962370Y-119107834D01*
X106224968Y-119290344D01*
X106518014Y-119418373D01*
X106830347Y-119487043D01*
X107150069Y-119493741D01*
X107465004Y-119438209D01*
X107763154Y-119322564D01*
X108033164Y-119151211D01*
X108264749Y-118930675D01*
X108449088Y-118669358D01*
X108579160Y-118377213D01*
X108650009Y-118065367D01*
X108655110Y-117700104D01*
X108592995Y-117386401D01*
X108471131Y-117090738D01*
X108294161Y-116824376D01*
X108068824Y-116597460D01*
X107803704Y-116418634D01*
X107508898Y-116294710D01*
X107195637Y-116230406D01*
X106875852Y-116228174D01*
X106561724Y-116288097D01*
X106265217Y-116407893D01*
X105997626Y-116583000D01*
X105952011Y-116627670D01*
X104490910Y-115166568D01*
X113016396Y-115166568D01*
X113086527Y-115548680D01*
X113229541Y-115909892D01*
X113439992Y-116236447D01*
X113709862Y-116515907D01*
X114028874Y-116737626D01*
X114384875Y-116893159D01*
X114764307Y-116976582D01*
X115152716Y-116984718D01*
X115535308Y-116917257D01*
X115897510Y-116776768D01*
X116225526Y-116568602D01*
X116506863Y-116300689D01*
X116730804Y-115983233D01*
X116888818Y-115628326D01*
X116974889Y-115249486D01*
X116981085Y-114805753D01*
X116905626Y-114424658D01*
X116757582Y-114065477D01*
X116542593Y-113741892D01*
X116268847Y-113466228D01*
X115946770Y-113248985D01*
X115588632Y-113098437D01*
X115208073Y-113020320D01*
X114819588Y-113017607D01*
X114437975Y-113090404D01*
X114077770Y-113235936D01*
X113752692Y-113448662D01*
X113475123Y-113720477D01*
X113255637Y-114041028D01*
X113102593Y-114398107D01*
X113021820Y-114778112D01*
X113016396Y-115166568D01*
X104490910Y-115166568D01*
X102678382Y-113354040D01*
X102982272Y-113354040D01*
X103067629Y-113569627D01*
X103240863Y-113838434D01*
X103463010Y-114068474D01*
X103725608Y-114250984D01*
X104018654Y-114379013D01*
X104330987Y-114447683D01*
X104650709Y-114454381D01*
X104965644Y-114398849D01*
X105263794Y-114283204D01*
X105533804Y-114111851D01*
X105765389Y-113891315D01*
X105949728Y-113629998D01*
X106079800Y-113337853D01*
X106150649Y-113026007D01*
X106155750Y-112660744D01*
X106093635Y-112347041D01*
X105971771Y-112051378D01*
X105794801Y-111785016D01*
X105569464Y-111558100D01*
X105304344Y-111379274D01*
X105009538Y-111255350D01*
X104696277Y-111191046D01*
X104376492Y-111188814D01*
X104062364Y-111248737D01*
X103765857Y-111368533D01*
X103498266Y-111543640D01*
X103269783Y-111767388D01*
X103089110Y-112031253D01*
X102979394Y-112287240D01*
X102881582Y-112287240D01*
X102518400Y-111924058D01*
X102518400Y-110875000D01*
X102513592Y-110825964D01*
X102509298Y-110776880D01*
X102508514Y-110774183D01*
X102508241Y-110771395D01*
X102494019Y-110724289D01*
X102480255Y-110676912D01*
X102478963Y-110674419D01*
X102478153Y-110671737D01*
X102455046Y-110628280D01*
X102432347Y-110584489D01*
X102430595Y-110582295D01*
X102429280Y-110579821D01*
X102398156Y-110541659D01*
X102367400Y-110503132D01*
X102363549Y-110499227D01*
X102363485Y-110499148D01*
X102363412Y-110499088D01*
X102362171Y-110497829D01*
X101092171Y-109227829D01*
X101054109Y-109196566D01*
X101016353Y-109164884D01*
X101013891Y-109163531D01*
X101011727Y-109161753D01*
X100968371Y-109138506D01*
X100925129Y-109114733D01*
X100922452Y-109113884D01*
X100919983Y-109112560D01*
X100872929Y-109098174D01*
X100825900Y-109083256D01*
X100823108Y-109082943D01*
X100820430Y-109082124D01*
X100771434Y-109077147D01*
X100722447Y-109071652D01*
X100716968Y-109071614D01*
X100716862Y-109071603D01*
X100716763Y-109071612D01*
X100715000Y-109071600D01*
X100265086Y-109071600D01*
X100205869Y-108958328D01*
X100061442Y-108778698D01*
X99884876Y-108630541D01*
X99682895Y-108519501D01*
X99463194Y-108449808D01*
X99234139Y-108424115D01*
X99217650Y-108424000D01*
X98402350Y-108424000D01*
X98172959Y-108446492D01*
X97952306Y-108513111D01*
X97748795Y-108621320D01*
X97570177Y-108766997D01*
X97423257Y-108944593D01*
X97313630Y-109147344D01*
X97245472Y-109367527D01*
X97221379Y-109596755D01*
X97242269Y-109826297D01*
X97307346Y-110047410D01*
X97414131Y-110251672D01*
X97558558Y-110431302D01*
X97735124Y-110579459D01*
X97937105Y-110690499D01*
X98156806Y-110760192D01*
X98385861Y-110785885D01*
X98402350Y-110786000D01*
X99217650Y-110786000D01*
X99447041Y-110763508D01*
X99667694Y-110696889D01*
X99871205Y-110588680D01*
X100049823Y-110443003D01*
X100196743Y-110265407D01*
X100265415Y-110138400D01*
X100494058Y-110138400D01*
X101451600Y-111095942D01*
X101451600Y-112127258D01*
X101092171Y-111767829D01*
X101054109Y-111736566D01*
X101016353Y-111704884D01*
X101013891Y-111703531D01*
X101011727Y-111701753D01*
X100968371Y-111678506D01*
X100925129Y-111654733D01*
X100922452Y-111653884D01*
X100919983Y-111652560D01*
X100872929Y-111638174D01*
X100825900Y-111623256D01*
X100823108Y-111622943D01*
X100820430Y-111622124D01*
X100771434Y-111617147D01*
X100722447Y-111611652D01*
X100716968Y-111611614D01*
X100716862Y-111611603D01*
X100716763Y-111611612D01*
X100715000Y-111611600D01*
X100392843Y-111611600D01*
X100392843Y-111345000D01*
X100388005Y-111284327D01*
X100356136Y-111181420D01*
X100296860Y-111091465D01*
X100214870Y-111021585D01*
X100116658Y-110977314D01*
X100010000Y-110962157D01*
X97610000Y-110962157D01*
X97549327Y-110966995D01*
X97446420Y-110998864D01*
X97356465Y-111058140D01*
X97286585Y-111140130D01*
X97242314Y-111238342D01*
X97231187Y-111316645D01*
X93935961Y-108021419D01*
X93897899Y-107990156D01*
X93860143Y-107958474D01*
X93857681Y-107957121D01*
X93855517Y-107955343D01*
X93812161Y-107932096D01*
X93768919Y-107908323D01*
X93766242Y-107907474D01*
X93763773Y-107906150D01*
X93716719Y-107891764D01*
X93669690Y-107876846D01*
X93666898Y-107876533D01*
X93664220Y-107875714D01*
X93615224Y-107870737D01*
X93566237Y-107865242D01*
X93560758Y-107865204D01*
X93560652Y-107865193D01*
X93560553Y-107865202D01*
X93558790Y-107865190D01*
X92461105Y-107865190D01*
X92576743Y-107725407D01*
X92686370Y-107522656D01*
X92754528Y-107302473D01*
X92778621Y-107073245D01*
X92757731Y-106843703D01*
X92692654Y-106622590D01*
X92585869Y-106418328D01*
X92441442Y-106238698D01*
X92264876Y-106090541D01*
X92062895Y-105979501D01*
X91843194Y-105909808D01*
X91614139Y-105884115D01*
X91597650Y-105884000D01*
X90782350Y-105884000D01*
X90552959Y-105906492D01*
X90332306Y-105973111D01*
X90128795Y-106081320D01*
X89950177Y-106226997D01*
X89803257Y-106404593D01*
X89693630Y-106607344D01*
X89625472Y-106827527D01*
X89601379Y-107056755D01*
X89622269Y-107286297D01*
X89665949Y-107434709D01*
X86347508Y-110753150D01*
X86316245Y-110791212D01*
X86284563Y-110828968D01*
X86283210Y-110831430D01*
X86281432Y-110833594D01*
X86258185Y-110876950D01*
X86234412Y-110920192D01*
X86233563Y-110922869D01*
X86232239Y-110925338D01*
X86217853Y-110972392D01*
X86202935Y-111019421D01*
X86202622Y-111022213D01*
X86201803Y-111024891D01*
X86196826Y-111073887D01*
X86191331Y-111122874D01*
X86191293Y-111128353D01*
X86191282Y-111128459D01*
X86191291Y-111128558D01*
X86191279Y-111130321D01*
X86191279Y-111350019D01*
X86189346Y-111351952D01*
X85959538Y-111255350D01*
X85646277Y-111191046D01*
X85326492Y-111188814D01*
X85012364Y-111248737D01*
X84715857Y-111368533D01*
X84448266Y-111543640D01*
X84219783Y-111767388D01*
X84039110Y-112031253D01*
X83913130Y-112325186D01*
X83846642Y-112637990D01*
X83843186Y-112885485D01*
X78232171Y-107274470D01*
X78194109Y-107243207D01*
X78156353Y-107211525D01*
X78153891Y-107210172D01*
X78151727Y-107208394D01*
X78108371Y-107185147D01*
X78065129Y-107161374D01*
X78062452Y-107160525D01*
X78059983Y-107159201D01*
X78012929Y-107144815D01*
X77965900Y-107129897D01*
X77963108Y-107129584D01*
X77960430Y-107128765D01*
X77911434Y-107123788D01*
X77862447Y-107118293D01*
X77856968Y-107118255D01*
X77856862Y-107118244D01*
X77856763Y-107118253D01*
X77855000Y-107118241D01*
X77129105Y-107118241D01*
X76026483Y-106015619D01*
X75988421Y-105984356D01*
X75950665Y-105952674D01*
X75948203Y-105951321D01*
X75946039Y-105949543D01*
X75902683Y-105926296D01*
X75859441Y-105902523D01*
X75856764Y-105901674D01*
X75854295Y-105900350D01*
X75807241Y-105885964D01*
X75760212Y-105871046D01*
X75757420Y-105870733D01*
X75754742Y-105869914D01*
X75705746Y-105864937D01*
X75656759Y-105859442D01*
X75651280Y-105859404D01*
X75651174Y-105859393D01*
X75651075Y-105859402D01*
X75649312Y-105859390D01*
X70927410Y-105859390D01*
X70878374Y-105864198D01*
X70829290Y-105868492D01*
X70826593Y-105869276D01*
X70823805Y-105869549D01*
X70776699Y-105883771D01*
X70729322Y-105897535D01*
X70726829Y-105898827D01*
X70724147Y-105899637D01*
X70680690Y-105922744D01*
X70636899Y-105945443D01*
X70634705Y-105947195D01*
X70632231Y-105948510D01*
X70594069Y-105979634D01*
X70555542Y-106010390D01*
X70551637Y-106014241D01*
X70551558Y-106014305D01*
X70551498Y-106014378D01*
X70550239Y-106015619D01*
X70397829Y-106168029D01*
X70366566Y-106206091D01*
X70334884Y-106243847D01*
X70333531Y-106246309D01*
X70331753Y-106248473D01*
X70308506Y-106291829D01*
X70284733Y-106335071D01*
X70283884Y-106337748D01*
X70282560Y-106340217D01*
X70268174Y-106387271D01*
X70253256Y-106434300D01*
X70252943Y-106437092D01*
X70252124Y-106439770D01*
X70247147Y-106488766D01*
X70241652Y-106537753D01*
X70241614Y-106543232D01*
X70241603Y-106543338D01*
X70241612Y-106543437D01*
X70241600Y-106545200D01*
X70241600Y-106621212D01*
X70237840Y-106623178D01*
X70088630Y-106743146D01*
X69965564Y-106889811D01*
X69873328Y-107057587D01*
X69815437Y-107240083D01*
X69794096Y-107430347D01*
X69794000Y-107444044D01*
X66094205Y-107444044D01*
X65667411Y-106613593D01*
X64239379Y-101633452D01*
X67415332Y-101633452D01*
X67492571Y-102054295D01*
X67650082Y-102452122D01*
X67881864Y-102811778D01*
X68179090Y-103119564D01*
X68530437Y-103363757D01*
X68922524Y-103535055D01*
X69340416Y-103626935D01*
X69768195Y-103635896D01*
X70189568Y-103561596D01*
X70588485Y-103406867D01*
X70949750Y-103177601D01*
X71259603Y-102882531D01*
X71506243Y-102532897D01*
X71680275Y-102142015D01*
X71775070Y-101724775D01*
X71781894Y-101236063D01*
X71698786Y-100816339D01*
X71535736Y-100420751D01*
X71369777Y-100170961D01*
X84296778Y-100170961D01*
X84335076Y-100379627D01*
X84413174Y-100576881D01*
X84528099Y-100755209D01*
X84675472Y-100907818D01*
X84849680Y-101028896D01*
X85044088Y-101113831D01*
X85251291Y-101159387D01*
X85463396Y-101163830D01*
X85672325Y-101126990D01*
X85870119Y-101050271D01*
X86049245Y-100936594D01*
X86111804Y-100877020D01*
X86119403Y-100915223D01*
X86167270Y-101030785D01*
X86236763Y-101134789D01*
X86325211Y-101223237D01*
X86429215Y-101292730D01*
X86544777Y-101340597D01*
X86667458Y-101365000D01*
X87094250Y-101365000D01*
X87253000Y-101206250D01*
X87253000Y-100207000D01*
X87507000Y-100207000D01*
X87507000Y-101206250D01*
X87665750Y-101365000D01*
X88092542Y-101365000D01*
X88215223Y-101340597D01*
X88330785Y-101292730D01*
X88434789Y-101223237D01*
X88523237Y-101134789D01*
X88592730Y-101030785D01*
X88640597Y-100915223D01*
X88665000Y-100792542D01*
X88665000Y-100365750D01*
X88506250Y-100207000D01*
X87507000Y-100207000D01*
X87253000Y-100207000D01*
X87233000Y-100207000D01*
X87233000Y-99953000D01*
X87253000Y-99953000D01*
X87253000Y-98953750D01*
X87507000Y-98953750D01*
X87507000Y-99953000D01*
X88506250Y-99953000D01*
X88665000Y-99794250D01*
X88665000Y-99380000D01*
X91326111Y-99380000D01*
X91326111Y-100780000D01*
X91331594Y-100848763D01*
X91367712Y-100965391D01*
X91434892Y-101067340D01*
X91527814Y-101146537D01*
X91639121Y-101196711D01*
X91760000Y-101213889D01*
X93160000Y-101213889D01*
X93228763Y-101208406D01*
X93345391Y-101172288D01*
X93447340Y-101105108D01*
X93526537Y-101012186D01*
X93576711Y-100900879D01*
X93593889Y-100780000D01*
X93593889Y-99380000D01*
X93588406Y-99311237D01*
X93552288Y-99194609D01*
X93485108Y-99092660D01*
X93392186Y-99013463D01*
X93280879Y-98963289D01*
X93160000Y-98946111D01*
X91760000Y-98946111D01*
X91691237Y-98951594D01*
X91574609Y-98987712D01*
X91472660Y-99054892D01*
X91393463Y-99147814D01*
X91343289Y-99259121D01*
X91326111Y-99380000D01*
X88665000Y-99380000D01*
X88665000Y-99367458D01*
X88640597Y-99244777D01*
X88592730Y-99129215D01*
X88523237Y-99025211D01*
X88434789Y-98936763D01*
X88330785Y-98867270D01*
X88215223Y-98819403D01*
X88092542Y-98795000D01*
X87665750Y-98795000D01*
X87507000Y-98953750D01*
X87253000Y-98953750D01*
X87094250Y-98795000D01*
X86667458Y-98795000D01*
X86544777Y-98819403D01*
X86429215Y-98867270D01*
X86325211Y-98936763D01*
X86236763Y-99025211D01*
X86167270Y-99129215D01*
X86119403Y-99244777D01*
X86112032Y-99281831D01*
X86072902Y-99242426D01*
X85897020Y-99123792D01*
X85701445Y-99041580D01*
X85493626Y-98998921D01*
X85281479Y-98997440D01*
X85073085Y-99037193D01*
X84876381Y-99116667D01*
X84698860Y-99232833D01*
X84547284Y-99381268D01*
X84427425Y-99556317D01*
X84343849Y-99751314D01*
X84299740Y-99958829D01*
X84296778Y-100170961D01*
X71369777Y-100170961D01*
X71298955Y-100064366D01*
X70997461Y-99760760D01*
X70642738Y-99521496D01*
X70248298Y-99355689D01*
X69829164Y-99269653D01*
X69401301Y-99266666D01*
X68981007Y-99346841D01*
X68584290Y-99507125D01*
X68226261Y-99741413D01*
X67920557Y-100040780D01*
X67678823Y-100393824D01*
X67510266Y-100787097D01*
X67421306Y-101205620D01*
X67415332Y-101633452D01*
X64239379Y-101633452D01*
X63970287Y-100695018D01*
X63794396Y-98600378D01*
X70804631Y-98600378D01*
X70846894Y-98830648D01*
X70933077Y-99048324D01*
X71059900Y-99245114D01*
X71222531Y-99413523D01*
X71414775Y-99547136D01*
X71629311Y-99640865D01*
X71857965Y-99691138D01*
X72092030Y-99696041D01*
X72322590Y-99655387D01*
X72540862Y-99570725D01*
X72738533Y-99445279D01*
X72908073Y-99283828D01*
X73043025Y-99092521D01*
X73138249Y-98878645D01*
X73190117Y-98650347D01*
X73193851Y-98382942D01*
X73148377Y-98153284D01*
X73059163Y-97936833D01*
X72929605Y-97741833D01*
X72764639Y-97575711D01*
X72570547Y-97444795D01*
X72354724Y-97354071D01*
X72125390Y-97306995D01*
X71891279Y-97305361D01*
X71661310Y-97349230D01*
X71444241Y-97436931D01*
X71248341Y-97565125D01*
X71081071Y-97728927D01*
X70948804Y-97922100D01*
X70856575Y-98137284D01*
X70807900Y-98366285D01*
X70804631Y-98600378D01*
X63794396Y-98600378D01*
X63455075Y-94559521D01*
X63790177Y-91572017D01*
X70598090Y-91572017D01*
X70639078Y-91844133D01*
X70732364Y-92103023D01*
X70794344Y-92218980D01*
X71034435Y-92285960D01*
X71820395Y-91500000D01*
X71034435Y-90714040D01*
X70794344Y-90781020D01*
X70677244Y-91030048D01*
X70610977Y-91297135D01*
X70598090Y-91572017D01*
X63790177Y-91572017D01*
X64108573Y-88733452D01*
X67415332Y-88733452D01*
X67492571Y-89154295D01*
X67650082Y-89552122D01*
X67881864Y-89911778D01*
X68179090Y-90219564D01*
X68530437Y-90463757D01*
X68922524Y-90635055D01*
X69340416Y-90726935D01*
X69768195Y-90735896D01*
X70189568Y-90661596D01*
X70588485Y-90506867D01*
X70949750Y-90277601D01*
X71259603Y-89982531D01*
X71506243Y-89632897D01*
X71662794Y-89281279D01*
X71662848Y-89281381D01*
X71685384Y-89324857D01*
X71687123Y-89327035D01*
X71688435Y-89329503D01*
X71719455Y-89367538D01*
X71750021Y-89405827D01*
X71753853Y-89409713D01*
X71753917Y-89409792D01*
X71753990Y-89409852D01*
X71755225Y-89411105D01*
X72566998Y-90222878D01*
X72469952Y-90177244D01*
X72202865Y-90110977D01*
X71927983Y-90098090D01*
X71655867Y-90139078D01*
X71396977Y-90232364D01*
X71281020Y-90294344D01*
X71214040Y-90534435D01*
X72000000Y-91320395D01*
X72014143Y-91306253D01*
X72193748Y-91485858D01*
X72179605Y-91500000D01*
X72193748Y-91514143D01*
X72014143Y-91693748D01*
X72000000Y-91679605D01*
X71214040Y-92465565D01*
X71281020Y-92705656D01*
X71530048Y-92822756D01*
X71771161Y-92882579D01*
X71676443Y-92900647D01*
X71469073Y-92984430D01*
X71281926Y-93106896D01*
X71122130Y-93263380D01*
X70995772Y-93447921D01*
X70907664Y-93653491D01*
X70861164Y-93872259D01*
X70858041Y-94095893D01*
X70898415Y-94315874D01*
X70980748Y-94523824D01*
X71101905Y-94711822D01*
X71257269Y-94872706D01*
X71440924Y-95000349D01*
X71443216Y-95001350D01*
X71281926Y-95106896D01*
X71122130Y-95263380D01*
X70995772Y-95447921D01*
X70907664Y-95653491D01*
X70861164Y-95872259D01*
X70858041Y-96095893D01*
X70898415Y-96315874D01*
X70980748Y-96523824D01*
X71101905Y-96711822D01*
X71257269Y-96872706D01*
X71440924Y-97000349D01*
X71645873Y-97089890D01*
X71864312Y-97137917D01*
X72087918Y-97142601D01*
X72308176Y-97103763D01*
X72516696Y-97022884D01*
X72705535Y-96903043D01*
X72867500Y-96748806D01*
X72996422Y-96566047D01*
X73087391Y-96361727D01*
X73136942Y-96143629D01*
X73139428Y-95965565D01*
X80244040Y-95965565D01*
X80311020Y-96205656D01*
X80560048Y-96322756D01*
X80827135Y-96389023D01*
X81102017Y-96401910D01*
X81374133Y-96360922D01*
X81633023Y-96267636D01*
X81748980Y-96205656D01*
X81815960Y-95965565D01*
X81030000Y-95179605D01*
X80244040Y-95965565D01*
X73139428Y-95965565D01*
X73140509Y-95888172D01*
X73097067Y-95668776D01*
X73092662Y-95658088D01*
X73678732Y-95072017D01*
X79628090Y-95072017D01*
X79669078Y-95344133D01*
X79762364Y-95603023D01*
X79824344Y-95718980D01*
X80064435Y-95785960D01*
X80850395Y-95000000D01*
X81209605Y-95000000D01*
X81995565Y-95785960D01*
X82100953Y-95756559D01*
X82252531Y-95913523D01*
X82444775Y-96047136D01*
X82659311Y-96140865D01*
X82887965Y-96191138D01*
X83122030Y-96196041D01*
X83352590Y-96155387D01*
X83570862Y-96070725D01*
X83768533Y-95945279D01*
X83938073Y-95783828D01*
X84062037Y-95608097D01*
X84129905Y-95713407D01*
X84285615Y-95874650D01*
X84469679Y-96002577D01*
X84675085Y-96092317D01*
X84894009Y-96140451D01*
X85118114Y-96145145D01*
X85338862Y-96106221D01*
X85547846Y-96025162D01*
X85737106Y-95905054D01*
X85899432Y-95750473D01*
X86028641Y-95567307D01*
X86031546Y-95560783D01*
X86129905Y-95713407D01*
X86285615Y-95874650D01*
X86469679Y-96002577D01*
X86675085Y-96092317D01*
X86894009Y-96140451D01*
X87118114Y-96145145D01*
X87338862Y-96106221D01*
X87547846Y-96025162D01*
X87737106Y-95905054D01*
X87899432Y-95750473D01*
X88028641Y-95567307D01*
X88031546Y-95560783D01*
X88129905Y-95713407D01*
X88285615Y-95874650D01*
X88469679Y-96002577D01*
X88675085Y-96092317D01*
X88894009Y-96140451D01*
X89118114Y-96145145D01*
X89338862Y-96106221D01*
X89547846Y-96025162D01*
X89737106Y-95905054D01*
X89899432Y-95750473D01*
X90028641Y-95567307D01*
X90031546Y-95560783D01*
X90129905Y-95713407D01*
X90285615Y-95874650D01*
X90469679Y-96002577D01*
X90675085Y-96092317D01*
X90894009Y-96140451D01*
X91118114Y-96145145D01*
X91338862Y-96106221D01*
X91547846Y-96025162D01*
X91737106Y-95905054D01*
X91899432Y-95750473D01*
X92028641Y-95567307D01*
X92031546Y-95560783D01*
X92129905Y-95713407D01*
X92285615Y-95874650D01*
X92469679Y-96002577D01*
X92675085Y-96092317D01*
X92894009Y-96140451D01*
X93118114Y-96145145D01*
X93338862Y-96106221D01*
X93547846Y-96025162D01*
X93737106Y-95905054D01*
X93899432Y-95750473D01*
X94028641Y-95567307D01*
X94031546Y-95560783D01*
X94129905Y-95713407D01*
X94285615Y-95874650D01*
X94469679Y-96002577D01*
X94675085Y-96092317D01*
X94894009Y-96140451D01*
X95118114Y-96145145D01*
X95338862Y-96106221D01*
X95547846Y-96025162D01*
X95737106Y-95905054D01*
X95899432Y-95750473D01*
X96000772Y-95606814D01*
X96089900Y-95745114D01*
X96252531Y-95913523D01*
X96402738Y-96017920D01*
X95257829Y-97162829D01*
X95226566Y-97200891D01*
X95194884Y-97238647D01*
X95193531Y-97241109D01*
X95191753Y-97243273D01*
X95168506Y-97286629D01*
X95144733Y-97329871D01*
X95143884Y-97332548D01*
X95142560Y-97335017D01*
X95128174Y-97382071D01*
X95113256Y-97429100D01*
X95112943Y-97431892D01*
X95112124Y-97434570D01*
X95107147Y-97483566D01*
X95101652Y-97532553D01*
X95101614Y-97538032D01*
X95101603Y-97538138D01*
X95101612Y-97538237D01*
X95101600Y-97540000D01*
X95101600Y-102620000D01*
X95106404Y-102668991D01*
X95110702Y-102718120D01*
X95111486Y-102720817D01*
X95111759Y-102723605D01*
X95125985Y-102770725D01*
X95139745Y-102818087D01*
X95141037Y-102820579D01*
X95141847Y-102823263D01*
X95164963Y-102866738D01*
X95187653Y-102910511D01*
X95189405Y-102912705D01*
X95190720Y-102915179D01*
X95221844Y-102953341D01*
X95252600Y-102991868D01*
X95256451Y-102995773D01*
X95256515Y-102995852D01*
X95256588Y-102995912D01*
X95257829Y-102997171D01*
X95736712Y-103476054D01*
X95678997Y-103499373D01*
X95560207Y-103577107D01*
X95458777Y-103676434D01*
X95378572Y-103793571D01*
X95322646Y-103924055D01*
X95308289Y-103991600D01*
X92645086Y-103991600D01*
X92585869Y-103878328D01*
X92441442Y-103698698D01*
X92264876Y-103550541D01*
X92062895Y-103439501D01*
X91843194Y-103369808D01*
X91614139Y-103344115D01*
X91597650Y-103344000D01*
X90782350Y-103344000D01*
X90552959Y-103366492D01*
X90332306Y-103433111D01*
X90128795Y-103541320D01*
X89950177Y-103686997D01*
X89803257Y-103864593D01*
X89693630Y-104067344D01*
X89625472Y-104287527D01*
X89601379Y-104516755D01*
X89622269Y-104746297D01*
X89687346Y-104967410D01*
X89794131Y-105171672D01*
X89938558Y-105351302D01*
X90115124Y-105499459D01*
X90317105Y-105610499D01*
X90536806Y-105680192D01*
X90765861Y-105705885D01*
X90782350Y-105706000D01*
X91597650Y-105706000D01*
X91827041Y-105683508D01*
X92047694Y-105616889D01*
X92251205Y-105508680D01*
X92429823Y-105363003D01*
X92576743Y-105185407D01*
X92645415Y-105058400D01*
X95635000Y-105058400D01*
X95683991Y-105053596D01*
X95733120Y-105049298D01*
X95735817Y-105048514D01*
X95738605Y-105048241D01*
X95785725Y-105034015D01*
X95833087Y-105020255D01*
X95835579Y-105018963D01*
X95838263Y-105018153D01*
X95881738Y-104995037D01*
X95925511Y-104972347D01*
X95927705Y-104970595D01*
X95930179Y-104969280D01*
X95968341Y-104938156D01*
X96006868Y-104907400D01*
X96010773Y-104903549D01*
X96010852Y-104903485D01*
X96010912Y-104903412D01*
X96012171Y-104902171D01*
X96045631Y-104868711D01*
X96071806Y-104869259D01*
X96211613Y-104844607D01*
X96343970Y-104793270D01*
X96463834Y-104717201D01*
X96485902Y-104696186D01*
X96485902Y-105674302D01*
X96490706Y-105723293D01*
X96495004Y-105772422D01*
X96495788Y-105775119D01*
X96496061Y-105777907D01*
X96510287Y-105825027D01*
X96524047Y-105872389D01*
X96525339Y-105874881D01*
X96526149Y-105877565D01*
X96549265Y-105921040D01*
X96571955Y-105964813D01*
X96573707Y-105967007D01*
X96575022Y-105969481D01*
X96606146Y-106007643D01*
X96636902Y-106046170D01*
X96640753Y-106050075D01*
X96640817Y-106050154D01*
X96640890Y-106050214D01*
X96642131Y-106051473D01*
X97286298Y-106695640D01*
X97245472Y-106827527D01*
X97221379Y-107056755D01*
X97242269Y-107286297D01*
X97307346Y-107507410D01*
X97414131Y-107711672D01*
X97558558Y-107891302D01*
X97735124Y-108039459D01*
X97937105Y-108150499D01*
X98156806Y-108220192D01*
X98385861Y-108245885D01*
X98402350Y-108246000D01*
X99217650Y-108246000D01*
X99447041Y-108223508D01*
X99667694Y-108156889D01*
X99871205Y-108048680D01*
X100049823Y-107903003D01*
X100196743Y-107725407D01*
X100306370Y-107522656D01*
X100374528Y-107302473D01*
X100398621Y-107073245D01*
X100377731Y-106843703D01*
X100312654Y-106622590D01*
X100205869Y-106418328D01*
X100061442Y-106238698D01*
X99884876Y-106090541D01*
X99682895Y-105979501D01*
X99463194Y-105909808D01*
X99234139Y-105884115D01*
X99217650Y-105884000D01*
X98402350Y-105884000D01*
X98172959Y-105906492D01*
X98044591Y-105945249D01*
X97552702Y-105453360D01*
X97552702Y-105412593D01*
X97706178Y-105541375D01*
X97916846Y-105657191D01*
X98145998Y-105729882D01*
X98384905Y-105756680D01*
X98402104Y-105756800D01*
X99217896Y-105756800D01*
X99457154Y-105733341D01*
X99687298Y-105663856D01*
X99899564Y-105550992D01*
X100085864Y-105399049D01*
X100239104Y-105213814D01*
X100254467Y-105185400D01*
X109341752Y-105185400D01*
X109223625Y-105326178D01*
X109107809Y-105536846D01*
X109035118Y-105765998D01*
X109008320Y-106004905D01*
X109008200Y-106022104D01*
X109008200Y-106837896D01*
X109031659Y-107077154D01*
X109101144Y-107307298D01*
X109214008Y-107519564D01*
X109365951Y-107705864D01*
X109551186Y-107859104D01*
X109762658Y-107973447D01*
X109992312Y-108044537D01*
X110231400Y-108069666D01*
X110470816Y-108047877D01*
X110701440Y-107980001D01*
X110914488Y-107868622D01*
X111101845Y-107717983D01*
X111256375Y-107533822D01*
X111372191Y-107323154D01*
X111444882Y-107094002D01*
X111471680Y-106855095D01*
X111471800Y-106837896D01*
X111471800Y-106022350D01*
X111599000Y-106022350D01*
X111599000Y-106837650D01*
X111621492Y-107067041D01*
X111688111Y-107287694D01*
X111796320Y-107491205D01*
X111941997Y-107669823D01*
X112119593Y-107816743D01*
X112322344Y-107926370D01*
X112542527Y-107994528D01*
X112771755Y-108018621D01*
X113001297Y-107997731D01*
X113222410Y-107932654D01*
X113426672Y-107825869D01*
X113606302Y-107681442D01*
X113754459Y-107504876D01*
X113865499Y-107302895D01*
X113935192Y-107083194D01*
X113960885Y-106854139D01*
X113961000Y-106837650D01*
X113961000Y-106022350D01*
X114139000Y-106022350D01*
X114139000Y-106837650D01*
X114161492Y-107067041D01*
X114228111Y-107287694D01*
X114336320Y-107491205D01*
X114481997Y-107669823D01*
X114659593Y-107816743D01*
X114862344Y-107926370D01*
X115082527Y-107994528D01*
X115311755Y-108018621D01*
X115541297Y-107997731D01*
X115762410Y-107932654D01*
X115966672Y-107825869D01*
X116146302Y-107681442D01*
X116294459Y-107504876D01*
X116405499Y-107302895D01*
X116458645Y-107135357D01*
X116477350Y-107234514D01*
X116582834Y-107496483D01*
X116737399Y-107732839D01*
X116935105Y-107934500D01*
X117168354Y-108093715D01*
X117428182Y-108204367D01*
X117510961Y-108221904D01*
X117733000Y-108099915D01*
X117733000Y-106557000D01*
X117987000Y-106557000D01*
X117987000Y-108099915D01*
X118209039Y-108221904D01*
X118291818Y-108204367D01*
X118551646Y-108093715D01*
X118784895Y-107934500D01*
X118982601Y-107732839D01*
X119137166Y-107496483D01*
X119242650Y-107234514D01*
X119295000Y-106957000D01*
X119295000Y-106557000D01*
X117987000Y-106557000D01*
X117733000Y-106557000D01*
X117713000Y-106557000D01*
X117713000Y-106303000D01*
X117733000Y-106303000D01*
X117733000Y-104760085D01*
X117987000Y-104760085D01*
X117987000Y-106303000D01*
X119295000Y-106303000D01*
X119295000Y-105903000D01*
X119242650Y-105625486D01*
X119137166Y-105363517D01*
X118982601Y-105127161D01*
X118784895Y-104925500D01*
X118551646Y-104766285D01*
X118291818Y-104655633D01*
X118209039Y-104638096D01*
X117987000Y-104760085D01*
X117733000Y-104760085D01*
X117510961Y-104638096D01*
X117428182Y-104655633D01*
X117168354Y-104766285D01*
X116935105Y-104925500D01*
X116737399Y-105127161D01*
X116582834Y-105363517D01*
X116477350Y-105625486D01*
X116458352Y-105726198D01*
X116411889Y-105572306D01*
X116303680Y-105368795D01*
X116158003Y-105190177D01*
X115980407Y-105043257D01*
X115777656Y-104933630D01*
X115557473Y-104865472D01*
X115328245Y-104841379D01*
X115098703Y-104862269D01*
X114877590Y-104927346D01*
X114673328Y-105034131D01*
X114493698Y-105178558D01*
X114345541Y-105355124D01*
X114234501Y-105557105D01*
X114164808Y-105776806D01*
X114139115Y-106005861D01*
X114139000Y-106022350D01*
X113961000Y-106022350D01*
X113938508Y-105792959D01*
X113871889Y-105572306D01*
X113763680Y-105368795D01*
X113618003Y-105190177D01*
X113440407Y-105043257D01*
X113237656Y-104933630D01*
X113017473Y-104865472D01*
X112788245Y-104841379D01*
X112558703Y-104862269D01*
X112337590Y-104927346D01*
X112133328Y-105034131D01*
X111953698Y-105178558D01*
X111805541Y-105355124D01*
X111694501Y-105557105D01*
X111624808Y-105776806D01*
X111599115Y-106005861D01*
X111599000Y-106022350D01*
X111471800Y-106022350D01*
X111471800Y-106022104D01*
X111448341Y-105782846D01*
X111378856Y-105552702D01*
X111265992Y-105340436D01*
X111114049Y-105154136D01*
X110928814Y-105000896D01*
X110900400Y-104985533D01*
X110900400Y-104772800D01*
X110894445Y-104712069D01*
X110889130Y-104651318D01*
X110888162Y-104647986D01*
X110887823Y-104644528D01*
X110870190Y-104586124D01*
X110853172Y-104527548D01*
X110851573Y-104524463D01*
X110850570Y-104521141D01*
X110821945Y-104467304D01*
X110793858Y-104413120D01*
X110791691Y-104410405D01*
X110790061Y-104407340D01*
X110751518Y-104360082D01*
X110713448Y-104312392D01*
X110708684Y-104307562D01*
X110708601Y-104307460D01*
X110708507Y-104307382D01*
X110706973Y-104305827D01*
X110459173Y-104058027D01*
X110412058Y-104019326D01*
X110365304Y-103980095D01*
X110362262Y-103978423D01*
X110359578Y-103976218D01*
X110305820Y-103947393D01*
X110252359Y-103918003D01*
X110249048Y-103916953D01*
X110245988Y-103915312D01*
X110187679Y-103897485D01*
X110129505Y-103879031D01*
X110126052Y-103878644D01*
X110122733Y-103877629D01*
X110062078Y-103871468D01*
X110001421Y-103864664D01*
X109994633Y-103864617D01*
X109994506Y-103864604D01*
X109994388Y-103864615D01*
X109992200Y-103864600D01*
X103280400Y-103864600D01*
X103280400Y-102758750D01*
X103287511Y-102735491D01*
X103305969Y-102677305D01*
X103306357Y-102673850D01*
X103307371Y-102670532D01*
X103313532Y-102609883D01*
X103320336Y-102549221D01*
X103320383Y-102542433D01*
X103320396Y-102542306D01*
X103320385Y-102542188D01*
X103320400Y-102540000D01*
X103320400Y-100942207D01*
X103329245Y-100936594D01*
X103482879Y-100790290D01*
X103605171Y-100616932D01*
X103691460Y-100423121D01*
X103738462Y-100216241D01*
X103741846Y-99973924D01*
X103700639Y-99765813D01*
X103619794Y-99569668D01*
X103526999Y-99430000D01*
X104076111Y-99430000D01*
X104076111Y-100730000D01*
X104081594Y-100798763D01*
X104117712Y-100915391D01*
X104184892Y-101017340D01*
X104277814Y-101096537D01*
X104389121Y-101146711D01*
X104510000Y-101163889D01*
X105810000Y-101163889D01*
X105878763Y-101158406D01*
X105995391Y-101122288D01*
X106097340Y-101055108D01*
X106176537Y-100962186D01*
X106226711Y-100850879D01*
X106243889Y-100730000D01*
X106243889Y-99430000D01*
X106238406Y-99361237D01*
X106202288Y-99244609D01*
X106135108Y-99142660D01*
X106042186Y-99063463D01*
X105930879Y-99013289D01*
X105810000Y-98996111D01*
X104510000Y-98996111D01*
X104441237Y-99001594D01*
X104324609Y-99037712D01*
X104222660Y-99104892D01*
X104143463Y-99197814D01*
X104093289Y-99309121D01*
X104076111Y-99430000D01*
X103526999Y-99430000D01*
X103502391Y-99392963D01*
X103352902Y-99242426D01*
X103177020Y-99123792D01*
X102981445Y-99041580D01*
X102773626Y-98998921D01*
X102561479Y-98997440D01*
X102353085Y-99037193D01*
X102156381Y-99116667D01*
X101978860Y-99232833D01*
X101827284Y-99381268D01*
X101707425Y-99556317D01*
X101623849Y-99751314D01*
X101579740Y-99958829D01*
X101576778Y-100170961D01*
X101615076Y-100379627D01*
X101693174Y-100576881D01*
X101808099Y-100755209D01*
X101955472Y-100907818D01*
X101999600Y-100938488D01*
X101999600Y-102361249D01*
X101992485Y-102384521D01*
X101974031Y-102442695D01*
X101973644Y-102446148D01*
X101972629Y-102449467D01*
X101966468Y-102510122D01*
X101959664Y-102570779D01*
X101959617Y-102577567D01*
X101959604Y-102577694D01*
X101959615Y-102577812D01*
X101959600Y-102580000D01*
X101959600Y-103864600D01*
X100255987Y-103864600D01*
X100248622Y-103850512D01*
X100097983Y-103663155D01*
X99913822Y-103508625D01*
X99703154Y-103392809D01*
X99474002Y-103320118D01*
X99235095Y-103293320D01*
X99217896Y-103293200D01*
X98835400Y-103293200D01*
X98835400Y-103255000D01*
X98829449Y-103194311D01*
X98824131Y-103133519D01*
X98823162Y-103130183D01*
X98822823Y-103126728D01*
X98805194Y-103068340D01*
X98788172Y-103009749D01*
X98786574Y-103006666D01*
X98785570Y-103003341D01*
X98756956Y-102949525D01*
X98728859Y-102895320D01*
X98726689Y-102892601D01*
X98725061Y-102889540D01*
X98686565Y-102842340D01*
X98648449Y-102794592D01*
X98643679Y-102789756D01*
X98643601Y-102789660D01*
X98643512Y-102789586D01*
X98641974Y-102788027D01*
X98120400Y-102266454D01*
X98120400Y-101001429D01*
X98160177Y-100976186D01*
X98320912Y-100823120D01*
X98448856Y-100641748D01*
X98539134Y-100438980D01*
X98588308Y-100222538D01*
X98591848Y-99969021D01*
X98548736Y-99751291D01*
X98464155Y-99546081D01*
X98341326Y-99361208D01*
X98184927Y-99203714D01*
X98000916Y-99079597D01*
X97796302Y-98993585D01*
X97578878Y-98948954D01*
X97356926Y-98947405D01*
X97138900Y-98988995D01*
X96933105Y-99072142D01*
X96747379Y-99193678D01*
X96588796Y-99348973D01*
X96463397Y-99532113D01*
X96375959Y-99736122D01*
X96329812Y-99953229D01*
X96326713Y-100175165D01*
X96366780Y-100393476D01*
X96448488Y-100599847D01*
X96568724Y-100786416D01*
X96722909Y-100946079D01*
X96799600Y-100999381D01*
X96799600Y-102540000D01*
X96805555Y-102600734D01*
X96810870Y-102661482D01*
X96811838Y-102664814D01*
X96812177Y-102668272D01*
X96829810Y-102726676D01*
X96846828Y-102785252D01*
X96848427Y-102788337D01*
X96849430Y-102791659D01*
X96878055Y-102845496D01*
X96906142Y-102899680D01*
X96908309Y-102902395D01*
X96909939Y-102905460D01*
X96948482Y-102952718D01*
X96986552Y-103000408D01*
X96991316Y-103005238D01*
X96991399Y-103005340D01*
X96991493Y-103005418D01*
X96993027Y-103006973D01*
X97514600Y-103528547D01*
X97514600Y-103674566D01*
X97472620Y-103725311D01*
X97466649Y-103713792D01*
X97464899Y-103711600D01*
X97463582Y-103709123D01*
X97432440Y-103670939D01*
X97401702Y-103632434D01*
X97397851Y-103628529D01*
X97397787Y-103628450D01*
X97397714Y-103628390D01*
X97396473Y-103627131D01*
X96168400Y-102399058D01*
X96168400Y-98402104D01*
X109008200Y-98402104D01*
X109008200Y-99217896D01*
X109031659Y-99457154D01*
X109101144Y-99687298D01*
X109214008Y-99899564D01*
X109365951Y-100085864D01*
X109551186Y-100239104D01*
X109762658Y-100353447D01*
X109992312Y-100424537D01*
X110231400Y-100449666D01*
X110470816Y-100427877D01*
X110701440Y-100360001D01*
X110914488Y-100248622D01*
X111101845Y-100097983D01*
X111256375Y-99913822D01*
X111372191Y-99703154D01*
X111444882Y-99474002D01*
X111471680Y-99235095D01*
X111471800Y-99217896D01*
X111471800Y-98402104D01*
X111448341Y-98162846D01*
X111442024Y-98141922D01*
X111638846Y-97945100D01*
X111575118Y-98145998D01*
X111548320Y-98384905D01*
X111548200Y-98402104D01*
X111548200Y-99217896D01*
X111571659Y-99457154D01*
X111641144Y-99687298D01*
X111754008Y-99899564D01*
X111905951Y-100085864D01*
X112091186Y-100239104D01*
X112302658Y-100353447D01*
X112532312Y-100424537D01*
X112771400Y-100449666D01*
X113010816Y-100427877D01*
X113241440Y-100360001D01*
X113454488Y-100248622D01*
X113641845Y-100097983D01*
X113796375Y-99913822D01*
X113912191Y-99703154D01*
X113984882Y-99474002D01*
X114011680Y-99235095D01*
X114011800Y-99217896D01*
X114011800Y-98402104D01*
X113988341Y-98162846D01*
X113918856Y-97932702D01*
X113805992Y-97720436D01*
X113654049Y-97534136D01*
X113468814Y-97380896D01*
X113257342Y-97266553D01*
X113027688Y-97195463D01*
X112788600Y-97170334D01*
X112549184Y-97192123D01*
X112326194Y-97257752D01*
X112611973Y-96971973D01*
X112650674Y-96924858D01*
X112689905Y-96878104D01*
X112691577Y-96875062D01*
X112693782Y-96872378D01*
X112722607Y-96818620D01*
X112751997Y-96765159D01*
X112753047Y-96761848D01*
X112754688Y-96758788D01*
X112772515Y-96700479D01*
X112790969Y-96642305D01*
X112791356Y-96638852D01*
X112792371Y-96635533D01*
X112798532Y-96574878D01*
X112805336Y-96514221D01*
X112805383Y-96507433D01*
X112805396Y-96507306D01*
X112805385Y-96507188D01*
X112805400Y-96505000D01*
X112805400Y-94592207D01*
X112814245Y-94586594D01*
X112967879Y-94440290D01*
X113090171Y-94266932D01*
X113176460Y-94073121D01*
X113223462Y-93866241D01*
X113226846Y-93623924D01*
X113185639Y-93415813D01*
X113104794Y-93219668D01*
X113011999Y-93080000D01*
X113561111Y-93080000D01*
X113561111Y-94380000D01*
X113566594Y-94448763D01*
X113602712Y-94565391D01*
X113669892Y-94667340D01*
X113762814Y-94746537D01*
X113874121Y-94796711D01*
X113984600Y-94812411D01*
X113984600Y-96477800D01*
X113990555Y-96538534D01*
X113995870Y-96599282D01*
X113996838Y-96602614D01*
X113997177Y-96606072D01*
X114014810Y-96664476D01*
X114031828Y-96723052D01*
X114033427Y-96726137D01*
X114034430Y-96729459D01*
X114063055Y-96783296D01*
X114091142Y-96837480D01*
X114093309Y-96840195D01*
X114094939Y-96843260D01*
X114133482Y-96890518D01*
X114171552Y-96938208D01*
X114176316Y-96943038D01*
X114176399Y-96943140D01*
X114176493Y-96943218D01*
X114178027Y-96944773D01*
X114622852Y-97389598D01*
X114458155Y-97522017D01*
X114303625Y-97706178D01*
X114187809Y-97916846D01*
X114115118Y-98145998D01*
X114088320Y-98384905D01*
X114088200Y-98402104D01*
X114088200Y-99217896D01*
X114111659Y-99457154D01*
X114181144Y-99687298D01*
X114294008Y-99899564D01*
X114445951Y-100085864D01*
X114631186Y-100239104D01*
X114842658Y-100353447D01*
X115072312Y-100424537D01*
X115311400Y-100449666D01*
X115550816Y-100427877D01*
X115781440Y-100360001D01*
X115994488Y-100248622D01*
X116181845Y-100097983D01*
X116336375Y-99913822D01*
X116452191Y-99703154D01*
X116524882Y-99474002D01*
X116551680Y-99235095D01*
X116551800Y-99217896D01*
X116551800Y-98402104D01*
X116528341Y-98162846D01*
X116458856Y-97932702D01*
X116345992Y-97720436D01*
X116255923Y-97610000D01*
X116677157Y-97610000D01*
X116677157Y-100010000D01*
X116681995Y-100070673D01*
X116713864Y-100173580D01*
X116773140Y-100263535D01*
X116855130Y-100333415D01*
X116953342Y-100377686D01*
X117060000Y-100392843D01*
X118660000Y-100392843D01*
X118720673Y-100388005D01*
X118823580Y-100356136D01*
X118913535Y-100296860D01*
X118983415Y-100214870D01*
X119027686Y-100116658D01*
X119042843Y-100010000D01*
X119042843Y-97610000D01*
X119038005Y-97549327D01*
X119006136Y-97446420D01*
X118946860Y-97356465D01*
X118864870Y-97286585D01*
X118766658Y-97242314D01*
X118660000Y-97227157D01*
X117060000Y-97227157D01*
X116999327Y-97231995D01*
X116896420Y-97263864D01*
X116806465Y-97323140D01*
X116736585Y-97405130D01*
X116692314Y-97503342D01*
X116677157Y-97610000D01*
X116255923Y-97610000D01*
X116194049Y-97534136D01*
X116008814Y-97380896D01*
X115980400Y-97365533D01*
X115980400Y-97152800D01*
X115974445Y-97092069D01*
X115969130Y-97031318D01*
X115968162Y-97027986D01*
X115967823Y-97024528D01*
X115950190Y-96966124D01*
X115933172Y-96907548D01*
X115931573Y-96904463D01*
X115930570Y-96901141D01*
X115901945Y-96847304D01*
X115873858Y-96793120D01*
X115871691Y-96790405D01*
X115870061Y-96787340D01*
X115831518Y-96740082D01*
X115793448Y-96692392D01*
X115788684Y-96687562D01*
X115788601Y-96687460D01*
X115788507Y-96687382D01*
X115786973Y-96685827D01*
X115305400Y-96204254D01*
X115305400Y-94813060D01*
X115363763Y-94808406D01*
X115480391Y-94772288D01*
X115582340Y-94705108D01*
X115661537Y-94612186D01*
X115711711Y-94500879D01*
X115728889Y-94380000D01*
X115728889Y-93080000D01*
X115723406Y-93011237D01*
X115687288Y-92894609D01*
X115620108Y-92792660D01*
X115527186Y-92713463D01*
X115415879Y-92663289D01*
X115295000Y-92646111D01*
X113995000Y-92646111D01*
X113926237Y-92651594D01*
X113809609Y-92687712D01*
X113707660Y-92754892D01*
X113628463Y-92847814D01*
X113578289Y-92959121D01*
X113561111Y-93080000D01*
X113011999Y-93080000D01*
X112987391Y-93042963D01*
X112837902Y-92892426D01*
X112662020Y-92773792D01*
X112466445Y-92691580D01*
X112258626Y-92648921D01*
X112046479Y-92647440D01*
X111838085Y-92687193D01*
X111641381Y-92766667D01*
X111463860Y-92882833D01*
X111312284Y-93031268D01*
X111192425Y-93206317D01*
X111108849Y-93401314D01*
X111064740Y-93608829D01*
X111061778Y-93820961D01*
X111100076Y-94029627D01*
X111178174Y-94226881D01*
X111293099Y-94405209D01*
X111440472Y-94557818D01*
X111484600Y-94588488D01*
X111484600Y-96231454D01*
X110512813Y-97203241D01*
X110487688Y-97195463D01*
X110248600Y-97170334D01*
X110009184Y-97192123D01*
X109778560Y-97259999D01*
X109565512Y-97371378D01*
X109378155Y-97522017D01*
X109223625Y-97706178D01*
X109107809Y-97916846D01*
X109035118Y-98145998D01*
X109008320Y-98384905D01*
X109008200Y-98402104D01*
X96168400Y-98402104D01*
X96168400Y-97760942D01*
X97125942Y-96803400D01*
X97760000Y-96803400D01*
X97808991Y-96798596D01*
X97858120Y-96794298D01*
X97860817Y-96793514D01*
X97863605Y-96793241D01*
X97910725Y-96779015D01*
X97958087Y-96765255D01*
X97960579Y-96763963D01*
X97963263Y-96763153D01*
X98006738Y-96740037D01*
X98050511Y-96717347D01*
X98052705Y-96715595D01*
X98055179Y-96714280D01*
X98093341Y-96683156D01*
X98131868Y-96652400D01*
X98135773Y-96648549D01*
X98135852Y-96648485D01*
X98135912Y-96648412D01*
X98137171Y-96647171D01*
X98688972Y-96095370D01*
X98894009Y-96140451D01*
X99118114Y-96145145D01*
X99338862Y-96106221D01*
X99547846Y-96025162D01*
X99737106Y-95905054D01*
X99899432Y-95750473D01*
X100028641Y-95567307D01*
X100031546Y-95560783D01*
X100129905Y-95713407D01*
X100285615Y-95874650D01*
X100469679Y-96002577D01*
X100675085Y-96092317D01*
X100894009Y-96140451D01*
X101118114Y-96145145D01*
X101338862Y-96106221D01*
X101547846Y-96025162D01*
X101737106Y-95905054D01*
X101899432Y-95750473D01*
X102028641Y-95567307D01*
X102031546Y-95560783D01*
X102129905Y-95713407D01*
X102285615Y-95874650D01*
X102469679Y-96002577D01*
X102675085Y-96092317D01*
X102894009Y-96140451D01*
X103118114Y-96145145D01*
X103338862Y-96106221D01*
X103547846Y-96025162D01*
X103737106Y-95905054D01*
X103899432Y-95750473D01*
X104028641Y-95567307D01*
X104031546Y-95560783D01*
X104129905Y-95713407D01*
X104285615Y-95874650D01*
X104469679Y-96002577D01*
X104675085Y-96092317D01*
X104894009Y-96140451D01*
X105118114Y-96145145D01*
X105338862Y-96106221D01*
X105547846Y-96025162D01*
X105737106Y-95905054D01*
X105899432Y-95750473D01*
X106028641Y-95567307D01*
X106031546Y-95560783D01*
X106129905Y-95713407D01*
X106285615Y-95874650D01*
X106469679Y-96002577D01*
X106675085Y-96092317D01*
X106894009Y-96140451D01*
X107118114Y-96145145D01*
X107338862Y-96106221D01*
X107547846Y-96025162D01*
X107737106Y-95905054D01*
X107899432Y-95750473D01*
X108028641Y-95567307D01*
X108031546Y-95560783D01*
X108129905Y-95713407D01*
X108285615Y-95874650D01*
X108469679Y-96002577D01*
X108675085Y-96092317D01*
X108894009Y-96140451D01*
X109118114Y-96145145D01*
X109338862Y-96106221D01*
X109547846Y-96025162D01*
X109737106Y-95905054D01*
X109899432Y-95750473D01*
X110028641Y-95567307D01*
X110119813Y-95362532D01*
X110169473Y-95143949D01*
X110173049Y-94887923D01*
X110129510Y-94668038D01*
X110044092Y-94460798D01*
X109920047Y-94274095D01*
X109762101Y-94115042D01*
X109576269Y-93989697D01*
X109369630Y-93902834D01*
X109150054Y-93857762D01*
X108925906Y-93856197D01*
X108705722Y-93898199D01*
X108497891Y-93982169D01*
X108310327Y-94104907D01*
X108150175Y-94261739D01*
X108029211Y-94438401D01*
X107920047Y-94274095D01*
X107762101Y-94115042D01*
X107576269Y-93989697D01*
X107369630Y-93902834D01*
X107150054Y-93857762D01*
X106925906Y-93856197D01*
X106705722Y-93898199D01*
X106497891Y-93982169D01*
X106310327Y-94104907D01*
X106150175Y-94261739D01*
X106029211Y-94438401D01*
X105920047Y-94274095D01*
X105762101Y-94115042D01*
X105576269Y-93989697D01*
X105369630Y-93902834D01*
X105150054Y-93857762D01*
X104925906Y-93856197D01*
X104705722Y-93898199D01*
X104497891Y-93982169D01*
X104310327Y-94104907D01*
X104150175Y-94261739D01*
X104029211Y-94438401D01*
X103920047Y-94274095D01*
X103762101Y-94115042D01*
X103576269Y-93989697D01*
X103369630Y-93902834D01*
X103150054Y-93857762D01*
X102925906Y-93856197D01*
X102705722Y-93898199D01*
X102497891Y-93982169D01*
X102310327Y-94104907D01*
X102150175Y-94261739D01*
X102029211Y-94438401D01*
X101920047Y-94274095D01*
X101762101Y-94115042D01*
X101576269Y-93989697D01*
X101369630Y-93902834D01*
X101150054Y-93857762D01*
X100925906Y-93856197D01*
X100705722Y-93898199D01*
X100497891Y-93982169D01*
X100310327Y-94104907D01*
X100150175Y-94261739D01*
X100029211Y-94438401D01*
X99920047Y-94274095D01*
X99762101Y-94115042D01*
X99576269Y-93989697D01*
X99369630Y-93902834D01*
X99150054Y-93857762D01*
X98925906Y-93856197D01*
X98705722Y-93898199D01*
X98497891Y-93982169D01*
X98310327Y-94104907D01*
X98150175Y-94261739D01*
X98060167Y-94393191D01*
X97959605Y-94241833D01*
X97794639Y-94075711D01*
X97600547Y-93944795D01*
X97384724Y-93854071D01*
X97155390Y-93806995D01*
X96921279Y-93805361D01*
X96691310Y-93849230D01*
X96474241Y-93936931D01*
X96278341Y-94065125D01*
X96111071Y-94228927D01*
X95998890Y-94392764D01*
X95920047Y-94274095D01*
X95762101Y-94115042D01*
X95576269Y-93989697D01*
X95369630Y-93902834D01*
X95150054Y-93857762D01*
X94925906Y-93856197D01*
X94705722Y-93898199D01*
X94497891Y-93982169D01*
X94310327Y-94104907D01*
X94150175Y-94261739D01*
X94029211Y-94438401D01*
X93920047Y-94274095D01*
X93762101Y-94115042D01*
X93576269Y-93989697D01*
X93369630Y-93902834D01*
X93150054Y-93857762D01*
X92925906Y-93856197D01*
X92705722Y-93898199D01*
X92497891Y-93982169D01*
X92310327Y-94104907D01*
X92150175Y-94261739D01*
X92029211Y-94438401D01*
X91920047Y-94274095D01*
X91762101Y-94115042D01*
X91576269Y-93989697D01*
X91369630Y-93902834D01*
X91150054Y-93857762D01*
X90925906Y-93856197D01*
X90705722Y-93898199D01*
X90497891Y-93982169D01*
X90310327Y-94104907D01*
X90150175Y-94261739D01*
X90029211Y-94438401D01*
X89920047Y-94274095D01*
X89762101Y-94115042D01*
X89576269Y-93989697D01*
X89369630Y-93902834D01*
X89150054Y-93857762D01*
X88925906Y-93856197D01*
X88705722Y-93898199D01*
X88497891Y-93982169D01*
X88310327Y-94104907D01*
X88150175Y-94261739D01*
X88029211Y-94438401D01*
X87920047Y-94274095D01*
X87762101Y-94115042D01*
X87576269Y-93989697D01*
X87369630Y-93902834D01*
X87150054Y-93857762D01*
X86925906Y-93856197D01*
X86705722Y-93898199D01*
X86497891Y-93982169D01*
X86310327Y-94104907D01*
X86150175Y-94261739D01*
X86029211Y-94438401D01*
X85920047Y-94274095D01*
X85762101Y-94115042D01*
X85576269Y-93989697D01*
X85369630Y-93902834D01*
X85150054Y-93857762D01*
X84925906Y-93856197D01*
X84705722Y-93898199D01*
X84497891Y-93982169D01*
X84310327Y-94104907D01*
X84150175Y-94261739D01*
X84060167Y-94393191D01*
X83959605Y-94241833D01*
X83794639Y-94075711D01*
X83600547Y-93944795D01*
X83384724Y-93854071D01*
X83155390Y-93806995D01*
X82921279Y-93805361D01*
X82691310Y-93849230D01*
X82474241Y-93936931D01*
X82278341Y-94065125D01*
X82111071Y-94228927D01*
X82101104Y-94243483D01*
X81995565Y-94214040D01*
X81209605Y-95000000D01*
X80850395Y-95000000D01*
X80064435Y-94214040D01*
X79824344Y-94281020D01*
X79707244Y-94530048D01*
X79640977Y-94797135D01*
X79628090Y-95072017D01*
X73678732Y-95072017D01*
X73980173Y-94770576D01*
X73980244Y-94770506D01*
X74153367Y-94597383D01*
X74184501Y-94559479D01*
X74216012Y-94521926D01*
X74217358Y-94519478D01*
X74219128Y-94517323D01*
X74242306Y-94474098D01*
X74265924Y-94431136D01*
X74266767Y-94428479D01*
X74268088Y-94426015D01*
X74282447Y-94379047D01*
X74297251Y-94332380D01*
X74297562Y-94329610D01*
X74298379Y-94326937D01*
X74303340Y-94278093D01*
X74308800Y-94229420D01*
X74308838Y-94223967D01*
X74308849Y-94223861D01*
X74308840Y-94223763D01*
X74308852Y-94222008D01*
X74308852Y-94034435D01*
X80244040Y-94034435D01*
X81030000Y-94820395D01*
X81815960Y-94034435D01*
X81748980Y-93794344D01*
X81499952Y-93677244D01*
X81232865Y-93610977D01*
X80957983Y-93598090D01*
X80685867Y-93639078D01*
X80426977Y-93732364D01*
X80311020Y-93794344D01*
X80244040Y-94034435D01*
X74308852Y-94034435D01*
X74308852Y-90683325D01*
X74304066Y-90634518D01*
X74302093Y-90611961D01*
X74302093Y-89886103D01*
X74297308Y-89837300D01*
X74293034Y-89788450D01*
X74292255Y-89785770D01*
X74291983Y-89782992D01*
X74277803Y-89736025D01*
X74264129Y-89688959D01*
X74262846Y-89686483D01*
X74262038Y-89683808D01*
X74238985Y-89640452D01*
X74216449Y-89596976D01*
X74214710Y-89594798D01*
X74213398Y-89592330D01*
X74182378Y-89554295D01*
X74151812Y-89516006D01*
X74147980Y-89512120D01*
X74147916Y-89512041D01*
X74147843Y-89511981D01*
X74146608Y-89510728D01*
X73220260Y-88584380D01*
X73220260Y-84690490D01*
X73785374Y-84125375D01*
X73816503Y-84087479D01*
X73848020Y-84049918D01*
X73849364Y-84047473D01*
X73851136Y-84045316D01*
X73874336Y-84002050D01*
X73897932Y-83959128D01*
X73898774Y-83956473D01*
X73900096Y-83954008D01*
X73914460Y-83907025D01*
X73929259Y-83860372D01*
X73929570Y-83857602D01*
X73930387Y-83854929D01*
X73935349Y-83806081D01*
X73940808Y-83757412D01*
X73940846Y-83751960D01*
X73940857Y-83751854D01*
X73940848Y-83751755D01*
X73940860Y-83750000D01*
X73940860Y-83377250D01*
X73945769Y-83374684D01*
X74094593Y-83255027D01*
X74217341Y-83108742D01*
X74309337Y-82941400D01*
X74367078Y-82759377D01*
X74383642Y-82611708D01*
X74397850Y-82756613D01*
X74456053Y-82949390D01*
X74550592Y-83127191D01*
X74677865Y-83283244D01*
X74833025Y-83411603D01*
X75010161Y-83507380D01*
X75202528Y-83566928D01*
X75402797Y-83587977D01*
X75603340Y-83569726D01*
X75796519Y-83512870D01*
X75974976Y-83419575D01*
X76131913Y-83293395D01*
X76261352Y-83139135D01*
X76358364Y-82962671D01*
X76410470Y-82798412D01*
X76456053Y-82949390D01*
X76550592Y-83127191D01*
X76677865Y-83283244D01*
X76833025Y-83411603D01*
X77010161Y-83507380D01*
X77202528Y-83566928D01*
X77402797Y-83587977D01*
X77603340Y-83569726D01*
X77796519Y-83512870D01*
X77974976Y-83419575D01*
X78131913Y-83293395D01*
X78261352Y-83139135D01*
X78358364Y-82962671D01*
X78419253Y-82770725D01*
X78441699Y-82570608D01*
X78441800Y-82556202D01*
X78441800Y-82496107D01*
X79885498Y-82496107D01*
X79925962Y-82716578D01*
X80008479Y-82924991D01*
X80129905Y-83113407D01*
X80285615Y-83274650D01*
X80468236Y-83401574D01*
X80310327Y-83504907D01*
X80150175Y-83661739D01*
X80023535Y-83846691D01*
X79935232Y-84052719D01*
X79888628Y-84271975D01*
X79885498Y-84496107D01*
X79925962Y-84716578D01*
X80008479Y-84924991D01*
X80129905Y-85113407D01*
X80285615Y-85274650D01*
X80468236Y-85401574D01*
X80310327Y-85504907D01*
X80150175Y-85661739D01*
X80023535Y-85846691D01*
X79935232Y-86052719D01*
X79888628Y-86271975D01*
X79885498Y-86496107D01*
X79925962Y-86716578D01*
X80008479Y-86924991D01*
X80129905Y-87113407D01*
X80285615Y-87274650D01*
X80468236Y-87401574D01*
X80310327Y-87504907D01*
X80150175Y-87661739D01*
X80023535Y-87846691D01*
X79935232Y-88052719D01*
X79888628Y-88271975D01*
X79885498Y-88496107D01*
X79925962Y-88716578D01*
X80008479Y-88924991D01*
X80129905Y-89113407D01*
X80285615Y-89274650D01*
X80468236Y-89401574D01*
X80310327Y-89504907D01*
X80150175Y-89661739D01*
X80023535Y-89846691D01*
X79935232Y-90052719D01*
X79888628Y-90271975D01*
X79885498Y-90496107D01*
X79925962Y-90716578D01*
X80008479Y-90924991D01*
X80129905Y-91113407D01*
X80285615Y-91274650D01*
X80469679Y-91402577D01*
X80675085Y-91492317D01*
X80894009Y-91540451D01*
X81118114Y-91545145D01*
X81338862Y-91506221D01*
X81547846Y-91425162D01*
X81737106Y-91305054D01*
X81899432Y-91150473D01*
X82028641Y-90967307D01*
X82119813Y-90762532D01*
X82169473Y-90543949D01*
X82173049Y-90287923D01*
X82129510Y-90068038D01*
X82044092Y-89860798D01*
X81920047Y-89674095D01*
X81762101Y-89515042D01*
X81589581Y-89398676D01*
X81737106Y-89305054D01*
X81899432Y-89150473D01*
X82028641Y-88967307D01*
X82119813Y-88762532D01*
X82169473Y-88543949D01*
X82173049Y-88287923D01*
X82129510Y-88068038D01*
X82044092Y-87860798D01*
X81920047Y-87674095D01*
X81762101Y-87515042D01*
X81589581Y-87398676D01*
X81737106Y-87305054D01*
X81899432Y-87150473D01*
X82028641Y-86967307D01*
X82119813Y-86762532D01*
X82169473Y-86543949D01*
X82173049Y-86287923D01*
X82129510Y-86068038D01*
X82044092Y-85860798D01*
X81920047Y-85674095D01*
X81762101Y-85515042D01*
X81589581Y-85398676D01*
X81737106Y-85305054D01*
X81899432Y-85150473D01*
X82028641Y-84967307D01*
X82119813Y-84762532D01*
X82169473Y-84543949D01*
X82173049Y-84287923D01*
X82129510Y-84068038D01*
X82044092Y-83860798D01*
X81920047Y-83674095D01*
X81762101Y-83515042D01*
X81589581Y-83398676D01*
X81737106Y-83305054D01*
X81899432Y-83150473D01*
X82028641Y-82967307D01*
X82119813Y-82762532D01*
X82169473Y-82543949D01*
X82173049Y-82287923D01*
X82129510Y-82068038D01*
X82044092Y-81860798D01*
X81920047Y-81674095D01*
X81762101Y-81515042D01*
X81576269Y-81389697D01*
X81369630Y-81302834D01*
X81150054Y-81257762D01*
X80925906Y-81256197D01*
X80705722Y-81298199D01*
X80497891Y-81382169D01*
X80310327Y-81504907D01*
X80150175Y-81661739D01*
X80023535Y-81846691D01*
X79935232Y-82052719D01*
X79888628Y-82271975D01*
X79885498Y-82496107D01*
X78441800Y-82496107D01*
X78441800Y-82043798D01*
X78422150Y-81843387D01*
X78363947Y-81650610D01*
X78269408Y-81472809D01*
X78142135Y-81316756D01*
X77986975Y-81188397D01*
X77809839Y-81092620D01*
X77617472Y-81033072D01*
X77417203Y-81012023D01*
X77216660Y-81030274D01*
X77023481Y-81087130D01*
X76845024Y-81180425D01*
X76688087Y-81306605D01*
X76558648Y-81460865D01*
X76461636Y-81637329D01*
X76409530Y-81801588D01*
X76363947Y-81650610D01*
X76269408Y-81472809D01*
X76142135Y-81316756D01*
X75986975Y-81188397D01*
X75809839Y-81092620D01*
X75617472Y-81033072D01*
X75417203Y-81012023D01*
X75216660Y-81030274D01*
X75023481Y-81087130D01*
X74845024Y-81180425D01*
X74688087Y-81306605D01*
X74558648Y-81460865D01*
X74461636Y-81637329D01*
X74400747Y-81829275D01*
X74382954Y-81987906D01*
X74369825Y-81854005D01*
X74314631Y-81671194D01*
X74224980Y-81502585D01*
X74104287Y-81354600D01*
X73957148Y-81232876D01*
X73789169Y-81142050D01*
X73606747Y-81085581D01*
X73416831Y-81065620D01*
X73226655Y-81082927D01*
X73043462Y-81136844D01*
X72874231Y-81225316D01*
X72725407Y-81344973D01*
X72602659Y-81491258D01*
X72510663Y-81658600D01*
X72452922Y-81840623D01*
X72431635Y-82030395D01*
X72431540Y-82044056D01*
X72431540Y-82555944D01*
X72450175Y-82745995D01*
X72505369Y-82928806D01*
X72595020Y-83097415D01*
X72715713Y-83245400D01*
X72862852Y-83367124D01*
X72879140Y-83375931D01*
X72879140Y-83530111D01*
X72410000Y-83999251D01*
X71940860Y-83530110D01*
X71940860Y-83377250D01*
X71945769Y-83374684D01*
X72094593Y-83255027D01*
X72217341Y-83108742D01*
X72309337Y-82941400D01*
X72367078Y-82759377D01*
X72388365Y-82569605D01*
X72388460Y-82555944D01*
X72388460Y-82044056D01*
X72369825Y-81854005D01*
X72314631Y-81671194D01*
X72224980Y-81502585D01*
X72104287Y-81354600D01*
X71957148Y-81232876D01*
X71789169Y-81142050D01*
X71606747Y-81085581D01*
X71416831Y-81065620D01*
X71226655Y-81082927D01*
X71043462Y-81136844D01*
X70874231Y-81225316D01*
X70725407Y-81344973D01*
X70645000Y-81440798D01*
X70645000Y-81387458D01*
X70620597Y-81264777D01*
X70572730Y-81149215D01*
X70503237Y-81045211D01*
X70414789Y-80956763D01*
X70310785Y-80887270D01*
X70195223Y-80839403D01*
X70072542Y-80815000D01*
X69695750Y-80815000D01*
X69537000Y-80973750D01*
X69537000Y-82173000D01*
X69557000Y-82173000D01*
X69557000Y-82427000D01*
X69537000Y-82427000D01*
X69537000Y-83626250D01*
X69695750Y-83785000D01*
X70072542Y-83785000D01*
X70195223Y-83760597D01*
X70310785Y-83712730D01*
X70414789Y-83643237D01*
X70503237Y-83554789D01*
X70572730Y-83450785D01*
X70620597Y-83335223D01*
X70645000Y-83212542D01*
X70645000Y-83158697D01*
X70715713Y-83245400D01*
X70862852Y-83367124D01*
X70879140Y-83375931D01*
X70879140Y-83750000D01*
X70883925Y-83798803D01*
X70888199Y-83847653D01*
X70888978Y-83850333D01*
X70889250Y-83853111D01*
X70903430Y-83900078D01*
X70917104Y-83947144D01*
X70918387Y-83949620D01*
X70919195Y-83952295D01*
X70942248Y-83995651D01*
X70964784Y-84039127D01*
X70966523Y-84041305D01*
X70967835Y-84043773D01*
X70998855Y-84081808D01*
X71029421Y-84120097D01*
X71033253Y-84123983D01*
X71033317Y-84124062D01*
X71033390Y-84124122D01*
X71034625Y-84125375D01*
X71599740Y-84690489D01*
X71599740Y-85369740D01*
X71435400Y-85369740D01*
X71409429Y-85372286D01*
X71383341Y-85372299D01*
X71375970Y-85373077D01*
X71308146Y-85380718D01*
X71304238Y-85381551D01*
X71300251Y-85381668D01*
X71253633Y-85392333D01*
X71206815Y-85402308D01*
X71203146Y-85403883D01*
X71199254Y-85404773D01*
X71192241Y-85407172D01*
X71127818Y-85429715D01*
X71124201Y-85431393D01*
X71120346Y-85432393D01*
X71077256Y-85453170D01*
X71033833Y-85473314D01*
X71030612Y-85475661D01*
X71027023Y-85477392D01*
X71020719Y-85481291D01*
X70962927Y-85517605D01*
X70959773Y-85520047D01*
X70956234Y-85521881D01*
X70918864Y-85551713D01*
X70880999Y-85581023D01*
X70878378Y-85584032D01*
X70875264Y-85586518D01*
X70869986Y-85591722D01*
X70821723Y-85639985D01*
X70819190Y-85643069D01*
X70816150Y-85645643D01*
X70786335Y-85683067D01*
X70755962Y-85720045D01*
X70754079Y-85723556D01*
X70751593Y-85726677D01*
X70747606Y-85732926D01*
X70711293Y-85790718D01*
X70709512Y-85794284D01*
X70707120Y-85797471D01*
X70686380Y-85840593D01*
X70664995Y-85883404D01*
X70663940Y-85887247D01*
X70662213Y-85890839D01*
X70659716Y-85897817D01*
X70637173Y-85962240D01*
X70636228Y-85966121D01*
X70634606Y-85969759D01*
X70623986Y-86016391D01*
X70612660Y-86062904D01*
X70612487Y-86066887D01*
X70611601Y-86070778D01*
X70610720Y-86078138D01*
X70603078Y-86145963D01*
X70603020Y-86149950D01*
X70602248Y-86153861D01*
X70602272Y-86201701D01*
X70601580Y-86249557D01*
X70602298Y-86253480D01*
X70602300Y-86257467D01*
X70603078Y-86264838D01*
X70610720Y-86332662D01*
X70611552Y-86336565D01*
X70611669Y-86340549D01*
X70622331Y-86387157D01*
X70632311Y-86433993D01*
X70633885Y-86437661D01*
X70634774Y-86441546D01*
X70637173Y-86448559D01*
X70659716Y-86512982D01*
X70661394Y-86516599D01*
X70662394Y-86520454D01*
X70683171Y-86563544D01*
X70703315Y-86606967D01*
X70705662Y-86610188D01*
X70707393Y-86613777D01*
X70711293Y-86620081D01*
X70747606Y-86677873D01*
X70750048Y-86681027D01*
X70751882Y-86684566D01*
X70770127Y-86707421D01*
X70642738Y-86621496D01*
X70248298Y-86455689D01*
X69829164Y-86369653D01*
X69401301Y-86366666D01*
X68981007Y-86446841D01*
X68584290Y-86607125D01*
X68226261Y-86841413D01*
X67920557Y-87140780D01*
X67678823Y-87493824D01*
X67510266Y-87887097D01*
X67421306Y-88305620D01*
X67415332Y-88733452D01*
X64108573Y-88733452D01*
X64141399Y-88440802D01*
X65998731Y-82585750D01*
X68175000Y-82585750D01*
X68175000Y-83212542D01*
X68199403Y-83335223D01*
X68247270Y-83450785D01*
X68316763Y-83554789D01*
X68405211Y-83643237D01*
X68509215Y-83712730D01*
X68624777Y-83760597D01*
X68747458Y-83785000D01*
X69124250Y-83785000D01*
X69283000Y-83626250D01*
X69283000Y-82427000D01*
X68333750Y-82427000D01*
X68175000Y-82585750D01*
X65998731Y-82585750D01*
X66003118Y-82571921D01*
X66654281Y-81387458D01*
X68175000Y-81387458D01*
X68175000Y-82014250D01*
X68333750Y-82173000D01*
X69283000Y-82173000D01*
X69283000Y-80973750D01*
X69124250Y-80815000D01*
X68747458Y-80815000D01*
X68624777Y-80839403D01*
X68509215Y-80887270D01*
X68405211Y-80956763D01*
X68316763Y-81045211D01*
X68247270Y-81149215D01*
X68199403Y-81264777D01*
X68175000Y-81387458D01*
X66654281Y-81387458D01*
X68969319Y-77176421D01*
X70655786Y-75166568D01*
X73016396Y-75166568D01*
X73086527Y-75548680D01*
X73229541Y-75909892D01*
X73439992Y-76236447D01*
X73709862Y-76515907D01*
X74028874Y-76737626D01*
X74384875Y-76893159D01*
X74764307Y-76976582D01*
X75152716Y-76984718D01*
X75535308Y-76917257D01*
X75897510Y-76776768D01*
X76225526Y-76568602D01*
X76506863Y-76300689D01*
X76730804Y-75983233D01*
X76888818Y-75628326D01*
X76974889Y-75249486D01*
X76976046Y-75166568D01*
X113016396Y-75166568D01*
X113086527Y-75548680D01*
X113229541Y-75909892D01*
X113439992Y-76236447D01*
X113709862Y-76515907D01*
X114028874Y-76737626D01*
X114384875Y-76893159D01*
X114764307Y-76976582D01*
X115152716Y-76984718D01*
X115535308Y-76917257D01*
X115897510Y-76776768D01*
X116225526Y-76568602D01*
X116506863Y-76300689D01*
X116730804Y-75983233D01*
X116888818Y-75628326D01*
X116974889Y-75249486D01*
X116981085Y-74805753D01*
X116905626Y-74424658D01*
X116757582Y-74065477D01*
X116542593Y-73741892D01*
X116268847Y-73466228D01*
X115946770Y-73248985D01*
X115588632Y-73098437D01*
X115208073Y-73020320D01*
X114819588Y-73017607D01*
X114437975Y-73090404D01*
X114077770Y-73235936D01*
X113752692Y-73448662D01*
X113475123Y-73720477D01*
X113255637Y-74041028D01*
X113102593Y-74398107D01*
X113021820Y-74778112D01*
X113016396Y-75166568D01*
X76976046Y-75166568D01*
X76981085Y-74805753D01*
X76905626Y-74424658D01*
X76757582Y-74065477D01*
X76542593Y-73741892D01*
X76268847Y-73466228D01*
X75946770Y-73248985D01*
X75588632Y-73098437D01*
X75208073Y-73020320D01*
X74819588Y-73017607D01*
X74437975Y-73090404D01*
X74077770Y-73235936D01*
X73752692Y-73448662D01*
X73475123Y-73720477D01*
X73255637Y-74041028D01*
X73102593Y-74398107D01*
X73021820Y-74778112D01*
X73016396Y-75166568D01*
X70655786Y-75166568D01*
X72927021Y-72459816D01*
X77725475Y-68601759D01*
X83181911Y-65749204D01*
X89088494Y-64010802D01*
X95220245Y-63452769D01*
X101343606Y-64096360D01*
X101343606Y-64096360D01*
G37*
X101343606Y-64096360D02*
X107225342Y-65917061D01*
X112641418Y-68845523D01*
X117385538Y-72770200D01*
X121276999Y-77541603D01*
X124167578Y-82977992D01*
X125947173Y-88872295D01*
X126548000Y-95000000D01*
X126535700Y-95880872D01*
X125764012Y-101989412D01*
X123820532Y-107831728D01*
X120779287Y-113185287D01*
X116756117Y-117846174D01*
X111904264Y-121636857D01*
X106408532Y-124412951D01*
X100478253Y-126068715D01*
X94339309Y-126541081D01*
X88225530Y-125812057D01*
X82369789Y-123909411D01*
X76995128Y-120905615D01*
X73582668Y-118001383D01*
X81291950Y-118001383D01*
X81351477Y-118325721D01*
X81472868Y-118632320D01*
X81651499Y-118909501D01*
X81880566Y-119146707D01*
X82151345Y-119334903D01*
X82453520Y-119466920D01*
X82775583Y-119537730D01*
X83105266Y-119544636D01*
X83430011Y-119487375D01*
X83737450Y-119368127D01*
X84015871Y-119191436D01*
X84254671Y-118964030D01*
X84444753Y-118694572D01*
X84578876Y-118393326D01*
X84651933Y-118071765D01*
X84657192Y-117695122D01*
X84593142Y-117371647D01*
X84467482Y-117066773D01*
X84284999Y-116792113D01*
X84052642Y-116558128D01*
X83779262Y-116373732D01*
X83475273Y-116245946D01*
X83152253Y-116179640D01*
X82822506Y-116177338D01*
X82498591Y-116239128D01*
X82192848Y-116362656D01*
X81916920Y-116543218D01*
X81681319Y-116773936D01*
X81495018Y-117046021D01*
X81365114Y-117349111D01*
X81296554Y-117671660D01*
X81291950Y-118001383D01*
X73582668Y-118001383D01*
X72306268Y-116915082D01*
X70920413Y-115166568D01*
X73016396Y-115166568D01*
X73086527Y-115548680D01*
X73229541Y-115909892D01*
X73439992Y-116236447D01*
X73709862Y-116515907D01*
X74028874Y-116737626D01*
X74384875Y-116893159D01*
X74764307Y-116976582D01*
X75152716Y-116984718D01*
X75535308Y-116917257D01*
X75897510Y-116776768D01*
X76225526Y-116568602D01*
X76506863Y-116300689D01*
X76730804Y-115983233D01*
X76888818Y-115628326D01*
X76974889Y-115249486D01*
X76981085Y-114805753D01*
X76905626Y-114424658D01*
X76757582Y-114065477D01*
X76542593Y-113741892D01*
X76268847Y-113466228D01*
X75946770Y-113248985D01*
X75588632Y-113098437D01*
X75208073Y-113020320D01*
X74819588Y-113017607D01*
X74437975Y-113090404D01*
X74077770Y-113235936D01*
X73752692Y-113448662D01*
X73475123Y-113720477D01*
X73255637Y-114041028D01*
X73102593Y-114398107D01*
X73021820Y-114778112D01*
X73016396Y-115166568D01*
X70920413Y-115166568D01*
X68481805Y-112089811D01*
X66094205Y-107444044D01*
X69794000Y-107444044D01*
X69794000Y-107955956D01*
X69812683Y-108146500D01*
X69868020Y-108329786D01*
X69957904Y-108498833D01*
X70078911Y-108647202D01*
X70226432Y-108769242D01*
X70394847Y-108860304D01*
X70577743Y-108916919D01*
X70768151Y-108936932D01*
X70958821Y-108919580D01*
X71142489Y-108865523D01*
X71312160Y-108776822D01*
X71461370Y-108656854D01*
X71584436Y-108510189D01*
X71676672Y-108342413D01*
X71734563Y-108159917D01*
X71749829Y-108023813D01*
X71762850Y-108156613D01*
X71821053Y-108349390D01*
X71915592Y-108527191D01*
X72042865Y-108683244D01*
X72198025Y-108811603D01*
X72375161Y-108907380D01*
X72567528Y-108966928D01*
X72767797Y-108987977D01*
X72968340Y-108969726D01*
X73161519Y-108912870D01*
X73339976Y-108819575D01*
X73496913Y-108693395D01*
X73626352Y-108539135D01*
X73723364Y-108362671D01*
X73784253Y-108170725D01*
X73792157Y-108100257D01*
X73792157Y-108550000D01*
X73796995Y-108610673D01*
X73828864Y-108713580D01*
X73888140Y-108803535D01*
X73970130Y-108873415D01*
X74068342Y-108917686D01*
X74175000Y-108932843D01*
X75375000Y-108932843D01*
X75435673Y-108928005D01*
X75538580Y-108896136D01*
X75628535Y-108836860D01*
X75698415Y-108754870D01*
X75742686Y-108656658D01*
X75757843Y-108550000D01*
X75757843Y-108532384D01*
X75937630Y-108712171D01*
X75975666Y-108743414D01*
X76013447Y-108775116D01*
X76015909Y-108776470D01*
X76018073Y-108778247D01*
X76061464Y-108801514D01*
X76104671Y-108825267D01*
X76107344Y-108826115D01*
X76109817Y-108827441D01*
X76156958Y-108841853D01*
X76203900Y-108856744D01*
X76206686Y-108857057D01*
X76209370Y-108857877D01*
X76258416Y-108862859D01*
X76307353Y-108868348D01*
X76312832Y-108868386D01*
X76312938Y-108868397D01*
X76313037Y-108868388D01*
X76314800Y-108868400D01*
X77527139Y-108868400D01*
X84071442Y-115412703D01*
X84109526Y-115443985D01*
X84147260Y-115475648D01*
X84149719Y-115477000D01*
X84151885Y-115478779D01*
X84195263Y-115502038D01*
X84238484Y-115525799D01*
X84241161Y-115526648D01*
X84243630Y-115527972D01*
X84290684Y-115542358D01*
X84337713Y-115557276D01*
X84340505Y-115557589D01*
X84343183Y-115558408D01*
X84392179Y-115563385D01*
X84441166Y-115568880D01*
X84446645Y-115568918D01*
X84446751Y-115568929D01*
X84446850Y-115568920D01*
X84448613Y-115568932D01*
X86988828Y-115568932D01*
X87037819Y-115564128D01*
X87086948Y-115559830D01*
X87089645Y-115559046D01*
X87092433Y-115558773D01*
X87139553Y-115544547D01*
X87186915Y-115530787D01*
X87189407Y-115529495D01*
X87192091Y-115528685D01*
X87235566Y-115505569D01*
X87279339Y-115482879D01*
X87281533Y-115481127D01*
X87284007Y-115479812D01*
X87322169Y-115448688D01*
X87360696Y-115417932D01*
X87364601Y-115414081D01*
X87364680Y-115414017D01*
X87364740Y-115413944D01*
X87365999Y-115412703D01*
X87440960Y-115337742D01*
X87440960Y-116316687D01*
X87215217Y-116407893D01*
X86947626Y-116583000D01*
X86719143Y-116806748D01*
X86538470Y-117070613D01*
X86412490Y-117364546D01*
X86346002Y-117677350D01*
X86341537Y-117997112D01*
X86399265Y-118311651D01*
X86516989Y-118608987D01*
X86690223Y-118877794D01*
X86912370Y-119107834D01*
X87174968Y-119290344D01*
X87468014Y-119418373D01*
X87780347Y-119487043D01*
X88100069Y-119493741D01*
X88415004Y-119438209D01*
X88713154Y-119322564D01*
X88983164Y-119151211D01*
X89214749Y-118930675D01*
X89399088Y-118669358D01*
X89529160Y-118377213D01*
X89600009Y-118065367D01*
X89605110Y-117700104D01*
X89567617Y-117510750D01*
X91125000Y-117510750D01*
X91125000Y-117987542D01*
X91149403Y-118110223D01*
X91197270Y-118225785D01*
X91266763Y-118329789D01*
X91355211Y-118418237D01*
X91459215Y-118487730D01*
X91574777Y-118535597D01*
X91697458Y-118560000D01*
X92174250Y-118560000D01*
X92333000Y-118401250D01*
X92333000Y-117352000D01*
X92587000Y-117352000D01*
X92587000Y-118401250D01*
X92745750Y-118560000D01*
X93222542Y-118560000D01*
X93345223Y-118535597D01*
X93460785Y-118487730D01*
X93564789Y-118418237D01*
X93653237Y-118329789D01*
X93722730Y-118225785D01*
X93770597Y-118110223D01*
X93795000Y-117987542D01*
X93795000Y-117510750D01*
X93636250Y-117352000D01*
X92587000Y-117352000D01*
X92333000Y-117352000D01*
X91283750Y-117352000D01*
X91125000Y-117510750D01*
X89567617Y-117510750D01*
X89542995Y-117386401D01*
X89515695Y-117320165D01*
X96326713Y-117320165D01*
X96366780Y-117538476D01*
X96448488Y-117744847D01*
X96568724Y-117931416D01*
X96722909Y-118091079D01*
X96905169Y-118217753D01*
X97108562Y-118306614D01*
X97325342Y-118354276D01*
X97547251Y-118358924D01*
X97765836Y-118320382D01*
X97972772Y-118240116D01*
X98160177Y-118121186D01*
X98285982Y-118001383D01*
X100341950Y-118001383D01*
X100401477Y-118325721D01*
X100522868Y-118632320D01*
X100701499Y-118909501D01*
X100930566Y-119146707D01*
X101201345Y-119334903D01*
X101503520Y-119466920D01*
X101825583Y-119537730D01*
X102155266Y-119544636D01*
X102480011Y-119487375D01*
X102787450Y-119368127D01*
X103065871Y-119191436D01*
X103304671Y-118964030D01*
X103494753Y-118694572D01*
X103628876Y-118393326D01*
X103701933Y-118071765D01*
X103707192Y-117695122D01*
X103643142Y-117371647D01*
X103517482Y-117066773D01*
X103334999Y-116792113D01*
X103102642Y-116558128D01*
X102829262Y-116373732D01*
X102525273Y-116245946D01*
X102202253Y-116179640D01*
X101872506Y-116177338D01*
X101548591Y-116239128D01*
X101242848Y-116362656D01*
X100966920Y-116543218D01*
X100731319Y-116773936D01*
X100545018Y-117046021D01*
X100415114Y-117349111D01*
X100346554Y-117671660D01*
X100341950Y-118001383D01*
X98285982Y-118001383D01*
X98320912Y-117968120D01*
X98448856Y-117786748D01*
X98539134Y-117583980D01*
X98588308Y-117367538D01*
X98591848Y-117114021D01*
X98548736Y-116896291D01*
X98464155Y-116691081D01*
X98341326Y-116506208D01*
X98184927Y-116348714D01*
X98000916Y-116224597D01*
X97796302Y-116138585D01*
X97578878Y-116093954D01*
X97356926Y-116092405D01*
X97138900Y-116133995D01*
X96933105Y-116217142D01*
X96747379Y-116338678D01*
X96588796Y-116493973D01*
X96463397Y-116677113D01*
X96375959Y-116881122D01*
X96329812Y-117098229D01*
X96326713Y-117320165D01*
X89515695Y-117320165D01*
X89421131Y-117090738D01*
X89244161Y-116824376D01*
X89018824Y-116597460D01*
X88818676Y-116462458D01*
X91125000Y-116462458D01*
X91125000Y-116939250D01*
X91283750Y-117098000D01*
X92333000Y-117098000D01*
X92333000Y-116048750D01*
X92587000Y-116048750D01*
X92587000Y-117098000D01*
X93636250Y-117098000D01*
X93795000Y-116939250D01*
X93795000Y-116462458D01*
X93770597Y-116339777D01*
X93722730Y-116224215D01*
X93653237Y-116120211D01*
X93564789Y-116031763D01*
X93460785Y-115962270D01*
X93345223Y-115914403D01*
X93222542Y-115890000D01*
X92745750Y-115890000D01*
X92587000Y-116048750D01*
X92333000Y-116048750D01*
X92174250Y-115890000D01*
X91697458Y-115890000D01*
X91574777Y-115914403D01*
X91459215Y-115962270D01*
X91355211Y-116031763D01*
X91266763Y-116120211D01*
X91197270Y-116224215D01*
X91149403Y-116339777D01*
X91125000Y-116462458D01*
X88818676Y-116462458D01*
X88753704Y-116418634D01*
X88507760Y-116315250D01*
X88507760Y-112494039D01*
X89398096Y-112494039D01*
X89415633Y-112576818D01*
X89526285Y-112836646D01*
X89685500Y-113069895D01*
X89887161Y-113267601D01*
X90123517Y-113422166D01*
X90385486Y-113527650D01*
X90663000Y-113580000D01*
X91063000Y-113580000D01*
X91063000Y-112272000D01*
X91317000Y-112272000D01*
X91317000Y-113580000D01*
X91717000Y-113580000D01*
X91994514Y-113527650D01*
X92256483Y-113422166D01*
X92492839Y-113267601D01*
X92694500Y-113069895D01*
X92853715Y-112836646D01*
X92964367Y-112576818D01*
X92981904Y-112494039D01*
X92859915Y-112272000D01*
X91317000Y-112272000D01*
X91063000Y-112272000D01*
X89520085Y-112272000D01*
X89398096Y-112494039D01*
X88507760Y-112494039D01*
X88507760Y-111771582D01*
X89898215Y-110381126D01*
X89938558Y-110431302D01*
X90115124Y-110579459D01*
X90317105Y-110690499D01*
X90484643Y-110743645D01*
X90385486Y-110762350D01*
X90123517Y-110867834D01*
X89887161Y-111022399D01*
X89685500Y-111220105D01*
X89526285Y-111453354D01*
X89415633Y-111713182D01*
X89398096Y-111795961D01*
X89520085Y-112018000D01*
X91063000Y-112018000D01*
X91063000Y-111998000D01*
X91317000Y-111998000D01*
X91317000Y-112018000D01*
X92859915Y-112018000D01*
X92981904Y-111795961D01*
X92964367Y-111713182D01*
X92853715Y-111453354D01*
X92694500Y-111220105D01*
X92492839Y-111022399D01*
X92256483Y-110867834D01*
X91994514Y-110762350D01*
X91893802Y-110743352D01*
X92047694Y-110696889D01*
X92251205Y-110588680D01*
X92429823Y-110443003D01*
X92576743Y-110265407D01*
X92686370Y-110062656D01*
X92754528Y-109842473D01*
X92778621Y-109613245D01*
X92757731Y-109383703D01*
X92692654Y-109162590D01*
X92585869Y-108958328D01*
X92564693Y-108931990D01*
X93337848Y-108931990D01*
X96928029Y-112522171D01*
X96966091Y-112553434D01*
X97003847Y-112585116D01*
X97006309Y-112586469D01*
X97008473Y-112588247D01*
X97051864Y-112611514D01*
X97095071Y-112635267D01*
X97097744Y-112636115D01*
X97100217Y-112637441D01*
X97147358Y-112651853D01*
X97194300Y-112666744D01*
X97197086Y-112667057D01*
X97199770Y-112667877D01*
X97227157Y-112670659D01*
X97227157Y-112945000D01*
X97231995Y-113005673D01*
X97263864Y-113108580D01*
X97323140Y-113198535D01*
X97405130Y-113268415D01*
X97503342Y-113312686D01*
X97610000Y-113327843D01*
X100010000Y-113327843D01*
X100070673Y-113323005D01*
X100173580Y-113291136D01*
X100263535Y-113231860D01*
X100333415Y-113149870D01*
X100377686Y-113051658D01*
X100392843Y-112945000D01*
X100392843Y-112678400D01*
X100494058Y-112678400D01*
X105413007Y-117597348D01*
X105396002Y-117677350D01*
X105391537Y-117997112D01*
X105449265Y-118311651D01*
X105566989Y-118608987D01*
X105740223Y-118877794D01*
X105962370Y-119107834D01*
X106224968Y-119290344D01*
X106518014Y-119418373D01*
X106830347Y-119487043D01*
X107150069Y-119493741D01*
X107465004Y-119438209D01*
X107763154Y-119322564D01*
X108033164Y-119151211D01*
X108264749Y-118930675D01*
X108449088Y-118669358D01*
X108579160Y-118377213D01*
X108650009Y-118065367D01*
X108655110Y-117700104D01*
X108592995Y-117386401D01*
X108471131Y-117090738D01*
X108294161Y-116824376D01*
X108068824Y-116597460D01*
X107803704Y-116418634D01*
X107508898Y-116294710D01*
X107195637Y-116230406D01*
X106875852Y-116228174D01*
X106561724Y-116288097D01*
X106265217Y-116407893D01*
X105997626Y-116583000D01*
X105952011Y-116627670D01*
X104490910Y-115166568D01*
X113016396Y-115166568D01*
X113086527Y-115548680D01*
X113229541Y-115909892D01*
X113439992Y-116236447D01*
X113709862Y-116515907D01*
X114028874Y-116737626D01*
X114384875Y-116893159D01*
X114764307Y-116976582D01*
X115152716Y-116984718D01*
X115535308Y-116917257D01*
X115897510Y-116776768D01*
X116225526Y-116568602D01*
X116506863Y-116300689D01*
X116730804Y-115983233D01*
X116888818Y-115628326D01*
X116974889Y-115249486D01*
X116981085Y-114805753D01*
X116905626Y-114424658D01*
X116757582Y-114065477D01*
X116542593Y-113741892D01*
X116268847Y-113466228D01*
X115946770Y-113248985D01*
X115588632Y-113098437D01*
X115208073Y-113020320D01*
X114819588Y-113017607D01*
X114437975Y-113090404D01*
X114077770Y-113235936D01*
X113752692Y-113448662D01*
X113475123Y-113720477D01*
X113255637Y-114041028D01*
X113102593Y-114398107D01*
X113021820Y-114778112D01*
X113016396Y-115166568D01*
X104490910Y-115166568D01*
X102678382Y-113354040D01*
X102982272Y-113354040D01*
X103067629Y-113569627D01*
X103240863Y-113838434D01*
X103463010Y-114068474D01*
X103725608Y-114250984D01*
X104018654Y-114379013D01*
X104330987Y-114447683D01*
X104650709Y-114454381D01*
X104965644Y-114398849D01*
X105263794Y-114283204D01*
X105533804Y-114111851D01*
X105765389Y-113891315D01*
X105949728Y-113629998D01*
X106079800Y-113337853D01*
X106150649Y-113026007D01*
X106155750Y-112660744D01*
X106093635Y-112347041D01*
X105971771Y-112051378D01*
X105794801Y-111785016D01*
X105569464Y-111558100D01*
X105304344Y-111379274D01*
X105009538Y-111255350D01*
X104696277Y-111191046D01*
X104376492Y-111188814D01*
X104062364Y-111248737D01*
X103765857Y-111368533D01*
X103498266Y-111543640D01*
X103269783Y-111767388D01*
X103089110Y-112031253D01*
X102979394Y-112287240D01*
X102881582Y-112287240D01*
X102518400Y-111924058D01*
X102518400Y-110875000D01*
X102513592Y-110825964D01*
X102509298Y-110776880D01*
X102508514Y-110774183D01*
X102508241Y-110771395D01*
X102494019Y-110724289D01*
X102480255Y-110676912D01*
X102478963Y-110674419D01*
X102478153Y-110671737D01*
X102455046Y-110628280D01*
X102432347Y-110584489D01*
X102430595Y-110582295D01*
X102429280Y-110579821D01*
X102398156Y-110541659D01*
X102367400Y-110503132D01*
X102363549Y-110499227D01*
X102363485Y-110499148D01*
X102363412Y-110499088D01*
X102362171Y-110497829D01*
X101092171Y-109227829D01*
X101054109Y-109196566D01*
X101016353Y-109164884D01*
X101013891Y-109163531D01*
X101011727Y-109161753D01*
X100968371Y-109138506D01*
X100925129Y-109114733D01*
X100922452Y-109113884D01*
X100919983Y-109112560D01*
X100872929Y-109098174D01*
X100825900Y-109083256D01*
X100823108Y-109082943D01*
X100820430Y-109082124D01*
X100771434Y-109077147D01*
X100722447Y-109071652D01*
X100716968Y-109071614D01*
X100716862Y-109071603D01*
X100716763Y-109071612D01*
X100715000Y-109071600D01*
X100265086Y-109071600D01*
X100205869Y-108958328D01*
X100061442Y-108778698D01*
X99884876Y-108630541D01*
X99682895Y-108519501D01*
X99463194Y-108449808D01*
X99234139Y-108424115D01*
X99217650Y-108424000D01*
X98402350Y-108424000D01*
X98172959Y-108446492D01*
X97952306Y-108513111D01*
X97748795Y-108621320D01*
X97570177Y-108766997D01*
X97423257Y-108944593D01*
X97313630Y-109147344D01*
X97245472Y-109367527D01*
X97221379Y-109596755D01*
X97242269Y-109826297D01*
X97307346Y-110047410D01*
X97414131Y-110251672D01*
X97558558Y-110431302D01*
X97735124Y-110579459D01*
X97937105Y-110690499D01*
X98156806Y-110760192D01*
X98385861Y-110785885D01*
X98402350Y-110786000D01*
X99217650Y-110786000D01*
X99447041Y-110763508D01*
X99667694Y-110696889D01*
X99871205Y-110588680D01*
X100049823Y-110443003D01*
X100196743Y-110265407D01*
X100265415Y-110138400D01*
X100494058Y-110138400D01*
X101451600Y-111095942D01*
X101451600Y-112127258D01*
X101092171Y-111767829D01*
X101054109Y-111736566D01*
X101016353Y-111704884D01*
X101013891Y-111703531D01*
X101011727Y-111701753D01*
X100968371Y-111678506D01*
X100925129Y-111654733D01*
X100922452Y-111653884D01*
X100919983Y-111652560D01*
X100872929Y-111638174D01*
X100825900Y-111623256D01*
X100823108Y-111622943D01*
X100820430Y-111622124D01*
X100771434Y-111617147D01*
X100722447Y-111611652D01*
X100716968Y-111611614D01*
X100716862Y-111611603D01*
X100716763Y-111611612D01*
X100715000Y-111611600D01*
X100392843Y-111611600D01*
X100392843Y-111345000D01*
X100388005Y-111284327D01*
X100356136Y-111181420D01*
X100296860Y-111091465D01*
X100214870Y-111021585D01*
X100116658Y-110977314D01*
X100010000Y-110962157D01*
X97610000Y-110962157D01*
X97549327Y-110966995D01*
X97446420Y-110998864D01*
X97356465Y-111058140D01*
X97286585Y-111140130D01*
X97242314Y-111238342D01*
X97231187Y-111316645D01*
X93935961Y-108021419D01*
X93897899Y-107990156D01*
X93860143Y-107958474D01*
X93857681Y-107957121D01*
X93855517Y-107955343D01*
X93812161Y-107932096D01*
X93768919Y-107908323D01*
X93766242Y-107907474D01*
X93763773Y-107906150D01*
X93716719Y-107891764D01*
X93669690Y-107876846D01*
X93666898Y-107876533D01*
X93664220Y-107875714D01*
X93615224Y-107870737D01*
X93566237Y-107865242D01*
X93560758Y-107865204D01*
X93560652Y-107865193D01*
X93560553Y-107865202D01*
X93558790Y-107865190D01*
X92461105Y-107865190D01*
X92576743Y-107725407D01*
X92686370Y-107522656D01*
X92754528Y-107302473D01*
X92778621Y-107073245D01*
X92757731Y-106843703D01*
X92692654Y-106622590D01*
X92585869Y-106418328D01*
X92441442Y-106238698D01*
X92264876Y-106090541D01*
X92062895Y-105979501D01*
X91843194Y-105909808D01*
X91614139Y-105884115D01*
X91597650Y-105884000D01*
X90782350Y-105884000D01*
X90552959Y-105906492D01*
X90332306Y-105973111D01*
X90128795Y-106081320D01*
X89950177Y-106226997D01*
X89803257Y-106404593D01*
X89693630Y-106607344D01*
X89625472Y-106827527D01*
X89601379Y-107056755D01*
X89622269Y-107286297D01*
X89665949Y-107434709D01*
X86347508Y-110753150D01*
X86316245Y-110791212D01*
X86284563Y-110828968D01*
X86283210Y-110831430D01*
X86281432Y-110833594D01*
X86258185Y-110876950D01*
X86234412Y-110920192D01*
X86233563Y-110922869D01*
X86232239Y-110925338D01*
X86217853Y-110972392D01*
X86202935Y-111019421D01*
X86202622Y-111022213D01*
X86201803Y-111024891D01*
X86196826Y-111073887D01*
X86191331Y-111122874D01*
X86191293Y-111128353D01*
X86191282Y-111128459D01*
X86191291Y-111128558D01*
X86191279Y-111130321D01*
X86191279Y-111350019D01*
X86189346Y-111351952D01*
X85959538Y-111255350D01*
X85646277Y-111191046D01*
X85326492Y-111188814D01*
X85012364Y-111248737D01*
X84715857Y-111368533D01*
X84448266Y-111543640D01*
X84219783Y-111767388D01*
X84039110Y-112031253D01*
X83913130Y-112325186D01*
X83846642Y-112637990D01*
X83843186Y-112885485D01*
X78232171Y-107274470D01*
X78194109Y-107243207D01*
X78156353Y-107211525D01*
X78153891Y-107210172D01*
X78151727Y-107208394D01*
X78108371Y-107185147D01*
X78065129Y-107161374D01*
X78062452Y-107160525D01*
X78059983Y-107159201D01*
X78012929Y-107144815D01*
X77965900Y-107129897D01*
X77963108Y-107129584D01*
X77960430Y-107128765D01*
X77911434Y-107123788D01*
X77862447Y-107118293D01*
X77856968Y-107118255D01*
X77856862Y-107118244D01*
X77856763Y-107118253D01*
X77855000Y-107118241D01*
X77129105Y-107118241D01*
X76026483Y-106015619D01*
X75988421Y-105984356D01*
X75950665Y-105952674D01*
X75948203Y-105951321D01*
X75946039Y-105949543D01*
X75902683Y-105926296D01*
X75859441Y-105902523D01*
X75856764Y-105901674D01*
X75854295Y-105900350D01*
X75807241Y-105885964D01*
X75760212Y-105871046D01*
X75757420Y-105870733D01*
X75754742Y-105869914D01*
X75705746Y-105864937D01*
X75656759Y-105859442D01*
X75651280Y-105859404D01*
X75651174Y-105859393D01*
X75651075Y-105859402D01*
X75649312Y-105859390D01*
X70927410Y-105859390D01*
X70878374Y-105864198D01*
X70829290Y-105868492D01*
X70826593Y-105869276D01*
X70823805Y-105869549D01*
X70776699Y-105883771D01*
X70729322Y-105897535D01*
X70726829Y-105898827D01*
X70724147Y-105899637D01*
X70680690Y-105922744D01*
X70636899Y-105945443D01*
X70634705Y-105947195D01*
X70632231Y-105948510D01*
X70594069Y-105979634D01*
X70555542Y-106010390D01*
X70551637Y-106014241D01*
X70551558Y-106014305D01*
X70551498Y-106014378D01*
X70550239Y-106015619D01*
X70397829Y-106168029D01*
X70366566Y-106206091D01*
X70334884Y-106243847D01*
X70333531Y-106246309D01*
X70331753Y-106248473D01*
X70308506Y-106291829D01*
X70284733Y-106335071D01*
X70283884Y-106337748D01*
X70282560Y-106340217D01*
X70268174Y-106387271D01*
X70253256Y-106434300D01*
X70252943Y-106437092D01*
X70252124Y-106439770D01*
X70247147Y-106488766D01*
X70241652Y-106537753D01*
X70241614Y-106543232D01*
X70241603Y-106543338D01*
X70241612Y-106543437D01*
X70241600Y-106545200D01*
X70241600Y-106621212D01*
X70237840Y-106623178D01*
X70088630Y-106743146D01*
X69965564Y-106889811D01*
X69873328Y-107057587D01*
X69815437Y-107240083D01*
X69794096Y-107430347D01*
X69794000Y-107444044D01*
X66094205Y-107444044D01*
X65667411Y-106613593D01*
X64239379Y-101633452D01*
X67415332Y-101633452D01*
X67492571Y-102054295D01*
X67650082Y-102452122D01*
X67881864Y-102811778D01*
X68179090Y-103119564D01*
X68530437Y-103363757D01*
X68922524Y-103535055D01*
X69340416Y-103626935D01*
X69768195Y-103635896D01*
X70189568Y-103561596D01*
X70588485Y-103406867D01*
X70949750Y-103177601D01*
X71259603Y-102882531D01*
X71506243Y-102532897D01*
X71680275Y-102142015D01*
X71775070Y-101724775D01*
X71781894Y-101236063D01*
X71698786Y-100816339D01*
X71535736Y-100420751D01*
X71369777Y-100170961D01*
X84296778Y-100170961D01*
X84335076Y-100379627D01*
X84413174Y-100576881D01*
X84528099Y-100755209D01*
X84675472Y-100907818D01*
X84849680Y-101028896D01*
X85044088Y-101113831D01*
X85251291Y-101159387D01*
X85463396Y-101163830D01*
X85672325Y-101126990D01*
X85870119Y-101050271D01*
X86049245Y-100936594D01*
X86111804Y-100877020D01*
X86119403Y-100915223D01*
X86167270Y-101030785D01*
X86236763Y-101134789D01*
X86325211Y-101223237D01*
X86429215Y-101292730D01*
X86544777Y-101340597D01*
X86667458Y-101365000D01*
X87094250Y-101365000D01*
X87253000Y-101206250D01*
X87253000Y-100207000D01*
X87507000Y-100207000D01*
X87507000Y-101206250D01*
X87665750Y-101365000D01*
X88092542Y-101365000D01*
X88215223Y-101340597D01*
X88330785Y-101292730D01*
X88434789Y-101223237D01*
X88523237Y-101134789D01*
X88592730Y-101030785D01*
X88640597Y-100915223D01*
X88665000Y-100792542D01*
X88665000Y-100365750D01*
X88506250Y-100207000D01*
X87507000Y-100207000D01*
X87253000Y-100207000D01*
X87233000Y-100207000D01*
X87233000Y-99953000D01*
X87253000Y-99953000D01*
X87253000Y-98953750D01*
X87507000Y-98953750D01*
X87507000Y-99953000D01*
X88506250Y-99953000D01*
X88665000Y-99794250D01*
X88665000Y-99380000D01*
X91326111Y-99380000D01*
X91326111Y-100780000D01*
X91331594Y-100848763D01*
X91367712Y-100965391D01*
X91434892Y-101067340D01*
X91527814Y-101146537D01*
X91639121Y-101196711D01*
X91760000Y-101213889D01*
X93160000Y-101213889D01*
X93228763Y-101208406D01*
X93345391Y-101172288D01*
X93447340Y-101105108D01*
X93526537Y-101012186D01*
X93576711Y-100900879D01*
X93593889Y-100780000D01*
X93593889Y-99380000D01*
X93588406Y-99311237D01*
X93552288Y-99194609D01*
X93485108Y-99092660D01*
X93392186Y-99013463D01*
X93280879Y-98963289D01*
X93160000Y-98946111D01*
X91760000Y-98946111D01*
X91691237Y-98951594D01*
X91574609Y-98987712D01*
X91472660Y-99054892D01*
X91393463Y-99147814D01*
X91343289Y-99259121D01*
X91326111Y-99380000D01*
X88665000Y-99380000D01*
X88665000Y-99367458D01*
X88640597Y-99244777D01*
X88592730Y-99129215D01*
X88523237Y-99025211D01*
X88434789Y-98936763D01*
X88330785Y-98867270D01*
X88215223Y-98819403D01*
X88092542Y-98795000D01*
X87665750Y-98795000D01*
X87507000Y-98953750D01*
X87253000Y-98953750D01*
X87094250Y-98795000D01*
X86667458Y-98795000D01*
X86544777Y-98819403D01*
X86429215Y-98867270D01*
X86325211Y-98936763D01*
X86236763Y-99025211D01*
X86167270Y-99129215D01*
X86119403Y-99244777D01*
X86112032Y-99281831D01*
X86072902Y-99242426D01*
X85897020Y-99123792D01*
X85701445Y-99041580D01*
X85493626Y-98998921D01*
X85281479Y-98997440D01*
X85073085Y-99037193D01*
X84876381Y-99116667D01*
X84698860Y-99232833D01*
X84547284Y-99381268D01*
X84427425Y-99556317D01*
X84343849Y-99751314D01*
X84299740Y-99958829D01*
X84296778Y-100170961D01*
X71369777Y-100170961D01*
X71298955Y-100064366D01*
X70997461Y-99760760D01*
X70642738Y-99521496D01*
X70248298Y-99355689D01*
X69829164Y-99269653D01*
X69401301Y-99266666D01*
X68981007Y-99346841D01*
X68584290Y-99507125D01*
X68226261Y-99741413D01*
X67920557Y-100040780D01*
X67678823Y-100393824D01*
X67510266Y-100787097D01*
X67421306Y-101205620D01*
X67415332Y-101633452D01*
X64239379Y-101633452D01*
X63970287Y-100695018D01*
X63794396Y-98600378D01*
X70804631Y-98600378D01*
X70846894Y-98830648D01*
X70933077Y-99048324D01*
X71059900Y-99245114D01*
X71222531Y-99413523D01*
X71414775Y-99547136D01*
X71629311Y-99640865D01*
X71857965Y-99691138D01*
X72092030Y-99696041D01*
X72322590Y-99655387D01*
X72540862Y-99570725D01*
X72738533Y-99445279D01*
X72908073Y-99283828D01*
X73043025Y-99092521D01*
X73138249Y-98878645D01*
X73190117Y-98650347D01*
X73193851Y-98382942D01*
X73148377Y-98153284D01*
X73059163Y-97936833D01*
X72929605Y-97741833D01*
X72764639Y-97575711D01*
X72570547Y-97444795D01*
X72354724Y-97354071D01*
X72125390Y-97306995D01*
X71891279Y-97305361D01*
X71661310Y-97349230D01*
X71444241Y-97436931D01*
X71248341Y-97565125D01*
X71081071Y-97728927D01*
X70948804Y-97922100D01*
X70856575Y-98137284D01*
X70807900Y-98366285D01*
X70804631Y-98600378D01*
X63794396Y-98600378D01*
X63455075Y-94559521D01*
X63790177Y-91572017D01*
X70598090Y-91572017D01*
X70639078Y-91844133D01*
X70732364Y-92103023D01*
X70794344Y-92218980D01*
X71034435Y-92285960D01*
X71820395Y-91500000D01*
X71034435Y-90714040D01*
X70794344Y-90781020D01*
X70677244Y-91030048D01*
X70610977Y-91297135D01*
X70598090Y-91572017D01*
X63790177Y-91572017D01*
X64108573Y-88733452D01*
X67415332Y-88733452D01*
X67492571Y-89154295D01*
X67650082Y-89552122D01*
X67881864Y-89911778D01*
X68179090Y-90219564D01*
X68530437Y-90463757D01*
X68922524Y-90635055D01*
X69340416Y-90726935D01*
X69768195Y-90735896D01*
X70189568Y-90661596D01*
X70588485Y-90506867D01*
X70949750Y-90277601D01*
X71259603Y-89982531D01*
X71506243Y-89632897D01*
X71662794Y-89281279D01*
X71662848Y-89281381D01*
X71685384Y-89324857D01*
X71687123Y-89327035D01*
X71688435Y-89329503D01*
X71719455Y-89367538D01*
X71750021Y-89405827D01*
X71753853Y-89409713D01*
X71753917Y-89409792D01*
X71753990Y-89409852D01*
X71755225Y-89411105D01*
X72566998Y-90222878D01*
X72469952Y-90177244D01*
X72202865Y-90110977D01*
X71927983Y-90098090D01*
X71655867Y-90139078D01*
X71396977Y-90232364D01*
X71281020Y-90294344D01*
X71214040Y-90534435D01*
X72000000Y-91320395D01*
X72014143Y-91306253D01*
X72193748Y-91485858D01*
X72179605Y-91500000D01*
X72193748Y-91514143D01*
X72014143Y-91693748D01*
X72000000Y-91679605D01*
X71214040Y-92465565D01*
X71281020Y-92705656D01*
X71530048Y-92822756D01*
X71771161Y-92882579D01*
X71676443Y-92900647D01*
X71469073Y-92984430D01*
X71281926Y-93106896D01*
X71122130Y-93263380D01*
X70995772Y-93447921D01*
X70907664Y-93653491D01*
X70861164Y-93872259D01*
X70858041Y-94095893D01*
X70898415Y-94315874D01*
X70980748Y-94523824D01*
X71101905Y-94711822D01*
X71257269Y-94872706D01*
X71440924Y-95000349D01*
X71443216Y-95001350D01*
X71281926Y-95106896D01*
X71122130Y-95263380D01*
X70995772Y-95447921D01*
X70907664Y-95653491D01*
X70861164Y-95872259D01*
X70858041Y-96095893D01*
X70898415Y-96315874D01*
X70980748Y-96523824D01*
X71101905Y-96711822D01*
X71257269Y-96872706D01*
X71440924Y-97000349D01*
X71645873Y-97089890D01*
X71864312Y-97137917D01*
X72087918Y-97142601D01*
X72308176Y-97103763D01*
X72516696Y-97022884D01*
X72705535Y-96903043D01*
X72867500Y-96748806D01*
X72996422Y-96566047D01*
X73087391Y-96361727D01*
X73136942Y-96143629D01*
X73139428Y-95965565D01*
X80244040Y-95965565D01*
X80311020Y-96205656D01*
X80560048Y-96322756D01*
X80827135Y-96389023D01*
X81102017Y-96401910D01*
X81374133Y-96360922D01*
X81633023Y-96267636D01*
X81748980Y-96205656D01*
X81815960Y-95965565D01*
X81030000Y-95179605D01*
X80244040Y-95965565D01*
X73139428Y-95965565D01*
X73140509Y-95888172D01*
X73097067Y-95668776D01*
X73092662Y-95658088D01*
X73678732Y-95072017D01*
X79628090Y-95072017D01*
X79669078Y-95344133D01*
X79762364Y-95603023D01*
X79824344Y-95718980D01*
X80064435Y-95785960D01*
X80850395Y-95000000D01*
X81209605Y-95000000D01*
X81995565Y-95785960D01*
X82100953Y-95756559D01*
X82252531Y-95913523D01*
X82444775Y-96047136D01*
X82659311Y-96140865D01*
X82887965Y-96191138D01*
X83122030Y-96196041D01*
X83352590Y-96155387D01*
X83570862Y-96070725D01*
X83768533Y-95945279D01*
X83938073Y-95783828D01*
X84062037Y-95608097D01*
X84129905Y-95713407D01*
X84285615Y-95874650D01*
X84469679Y-96002577D01*
X84675085Y-96092317D01*
X84894009Y-96140451D01*
X85118114Y-96145145D01*
X85338862Y-96106221D01*
X85547846Y-96025162D01*
X85737106Y-95905054D01*
X85899432Y-95750473D01*
X86028641Y-95567307D01*
X86031546Y-95560783D01*
X86129905Y-95713407D01*
X86285615Y-95874650D01*
X86469679Y-96002577D01*
X86675085Y-96092317D01*
X86894009Y-96140451D01*
X87118114Y-96145145D01*
X87338862Y-96106221D01*
X87547846Y-96025162D01*
X87737106Y-95905054D01*
X87899432Y-95750473D01*
X88028641Y-95567307D01*
X88031546Y-95560783D01*
X88129905Y-95713407D01*
X88285615Y-95874650D01*
X88469679Y-96002577D01*
X88675085Y-96092317D01*
X88894009Y-96140451D01*
X89118114Y-96145145D01*
X89338862Y-96106221D01*
X89547846Y-96025162D01*
X89737106Y-95905054D01*
X89899432Y-95750473D01*
X90028641Y-95567307D01*
X90031546Y-95560783D01*
X90129905Y-95713407D01*
X90285615Y-95874650D01*
X90469679Y-96002577D01*
X90675085Y-96092317D01*
X90894009Y-96140451D01*
X91118114Y-96145145D01*
X91338862Y-96106221D01*
X91547846Y-96025162D01*
X91737106Y-95905054D01*
X91899432Y-95750473D01*
X92028641Y-95567307D01*
X92031546Y-95560783D01*
X92129905Y-95713407D01*
X92285615Y-95874650D01*
X92469679Y-96002577D01*
X92675085Y-96092317D01*
X92894009Y-96140451D01*
X93118114Y-96145145D01*
X93338862Y-96106221D01*
X93547846Y-96025162D01*
X93737106Y-95905054D01*
X93899432Y-95750473D01*
X94028641Y-95567307D01*
X94031546Y-95560783D01*
X94129905Y-95713407D01*
X94285615Y-95874650D01*
X94469679Y-96002577D01*
X94675085Y-96092317D01*
X94894009Y-96140451D01*
X95118114Y-96145145D01*
X95338862Y-96106221D01*
X95547846Y-96025162D01*
X95737106Y-95905054D01*
X95899432Y-95750473D01*
X96000772Y-95606814D01*
X96089900Y-95745114D01*
X96252531Y-95913523D01*
X96402738Y-96017920D01*
X95257829Y-97162829D01*
X95226566Y-97200891D01*
X95194884Y-97238647D01*
X95193531Y-97241109D01*
X95191753Y-97243273D01*
X95168506Y-97286629D01*
X95144733Y-97329871D01*
X95143884Y-97332548D01*
X95142560Y-97335017D01*
X95128174Y-97382071D01*
X95113256Y-97429100D01*
X95112943Y-97431892D01*
X95112124Y-97434570D01*
X95107147Y-97483566D01*
X95101652Y-97532553D01*
X95101614Y-97538032D01*
X95101603Y-97538138D01*
X95101612Y-97538237D01*
X95101600Y-97540000D01*
X95101600Y-102620000D01*
X95106404Y-102668991D01*
X95110702Y-102718120D01*
X95111486Y-102720817D01*
X95111759Y-102723605D01*
X95125985Y-102770725D01*
X95139745Y-102818087D01*
X95141037Y-102820579D01*
X95141847Y-102823263D01*
X95164963Y-102866738D01*
X95187653Y-102910511D01*
X95189405Y-102912705D01*
X95190720Y-102915179D01*
X95221844Y-102953341D01*
X95252600Y-102991868D01*
X95256451Y-102995773D01*
X95256515Y-102995852D01*
X95256588Y-102995912D01*
X95257829Y-102997171D01*
X95736712Y-103476054D01*
X95678997Y-103499373D01*
X95560207Y-103577107D01*
X95458777Y-103676434D01*
X95378572Y-103793571D01*
X95322646Y-103924055D01*
X95308289Y-103991600D01*
X92645086Y-103991600D01*
X92585869Y-103878328D01*
X92441442Y-103698698D01*
X92264876Y-103550541D01*
X92062895Y-103439501D01*
X91843194Y-103369808D01*
X91614139Y-103344115D01*
X91597650Y-103344000D01*
X90782350Y-103344000D01*
X90552959Y-103366492D01*
X90332306Y-103433111D01*
X90128795Y-103541320D01*
X89950177Y-103686997D01*
X89803257Y-103864593D01*
X89693630Y-104067344D01*
X89625472Y-104287527D01*
X89601379Y-104516755D01*
X89622269Y-104746297D01*
X89687346Y-104967410D01*
X89794131Y-105171672D01*
X89938558Y-105351302D01*
X90115124Y-105499459D01*
X90317105Y-105610499D01*
X90536806Y-105680192D01*
X90765861Y-105705885D01*
X90782350Y-105706000D01*
X91597650Y-105706000D01*
X91827041Y-105683508D01*
X92047694Y-105616889D01*
X92251205Y-105508680D01*
X92429823Y-105363003D01*
X92576743Y-105185407D01*
X92645415Y-105058400D01*
X95635000Y-105058400D01*
X95683991Y-105053596D01*
X95733120Y-105049298D01*
X95735817Y-105048514D01*
X95738605Y-105048241D01*
X95785725Y-105034015D01*
X95833087Y-105020255D01*
X95835579Y-105018963D01*
X95838263Y-105018153D01*
X95881738Y-104995037D01*
X95925511Y-104972347D01*
X95927705Y-104970595D01*
X95930179Y-104969280D01*
X95968341Y-104938156D01*
X96006868Y-104907400D01*
X96010773Y-104903549D01*
X96010852Y-104903485D01*
X96010912Y-104903412D01*
X96012171Y-104902171D01*
X96045631Y-104868711D01*
X96071806Y-104869259D01*
X96211613Y-104844607D01*
X96343970Y-104793270D01*
X96463834Y-104717201D01*
X96485902Y-104696186D01*
X96485902Y-105674302D01*
X96490706Y-105723293D01*
X96495004Y-105772422D01*
X96495788Y-105775119D01*
X96496061Y-105777907D01*
X96510287Y-105825027D01*
X96524047Y-105872389D01*
X96525339Y-105874881D01*
X96526149Y-105877565D01*
X96549265Y-105921040D01*
X96571955Y-105964813D01*
X96573707Y-105967007D01*
X96575022Y-105969481D01*
X96606146Y-106007643D01*
X96636902Y-106046170D01*
X96640753Y-106050075D01*
X96640817Y-106050154D01*
X96640890Y-106050214D01*
X96642131Y-106051473D01*
X97286298Y-106695640D01*
X97245472Y-106827527D01*
X97221379Y-107056755D01*
X97242269Y-107286297D01*
X97307346Y-107507410D01*
X97414131Y-107711672D01*
X97558558Y-107891302D01*
X97735124Y-108039459D01*
X97937105Y-108150499D01*
X98156806Y-108220192D01*
X98385861Y-108245885D01*
X98402350Y-108246000D01*
X99217650Y-108246000D01*
X99447041Y-108223508D01*
X99667694Y-108156889D01*
X99871205Y-108048680D01*
X100049823Y-107903003D01*
X100196743Y-107725407D01*
X100306370Y-107522656D01*
X100374528Y-107302473D01*
X100398621Y-107073245D01*
X100377731Y-106843703D01*
X100312654Y-106622590D01*
X100205869Y-106418328D01*
X100061442Y-106238698D01*
X99884876Y-106090541D01*
X99682895Y-105979501D01*
X99463194Y-105909808D01*
X99234139Y-105884115D01*
X99217650Y-105884000D01*
X98402350Y-105884000D01*
X98172959Y-105906492D01*
X98044591Y-105945249D01*
X97552702Y-105453360D01*
X97552702Y-105412593D01*
X97706178Y-105541375D01*
X97916846Y-105657191D01*
X98145998Y-105729882D01*
X98384905Y-105756680D01*
X98402104Y-105756800D01*
X99217896Y-105756800D01*
X99457154Y-105733341D01*
X99687298Y-105663856D01*
X99899564Y-105550992D01*
X100085864Y-105399049D01*
X100239104Y-105213814D01*
X100254467Y-105185400D01*
X109341752Y-105185400D01*
X109223625Y-105326178D01*
X109107809Y-105536846D01*
X109035118Y-105765998D01*
X109008320Y-106004905D01*
X109008200Y-106022104D01*
X109008200Y-106837896D01*
X109031659Y-107077154D01*
X109101144Y-107307298D01*
X109214008Y-107519564D01*
X109365951Y-107705864D01*
X109551186Y-107859104D01*
X109762658Y-107973447D01*
X109992312Y-108044537D01*
X110231400Y-108069666D01*
X110470816Y-108047877D01*
X110701440Y-107980001D01*
X110914488Y-107868622D01*
X111101845Y-107717983D01*
X111256375Y-107533822D01*
X111372191Y-107323154D01*
X111444882Y-107094002D01*
X111471680Y-106855095D01*
X111471800Y-106837896D01*
X111471800Y-106022350D01*
X111599000Y-106022350D01*
X111599000Y-106837650D01*
X111621492Y-107067041D01*
X111688111Y-107287694D01*
X111796320Y-107491205D01*
X111941997Y-107669823D01*
X112119593Y-107816743D01*
X112322344Y-107926370D01*
X112542527Y-107994528D01*
X112771755Y-108018621D01*
X113001297Y-107997731D01*
X113222410Y-107932654D01*
X113426672Y-107825869D01*
X113606302Y-107681442D01*
X113754459Y-107504876D01*
X113865499Y-107302895D01*
X113935192Y-107083194D01*
X113960885Y-106854139D01*
X113961000Y-106837650D01*
X113961000Y-106022350D01*
X114139000Y-106022350D01*
X114139000Y-106837650D01*
X114161492Y-107067041D01*
X114228111Y-107287694D01*
X114336320Y-107491205D01*
X114481997Y-107669823D01*
X114659593Y-107816743D01*
X114862344Y-107926370D01*
X115082527Y-107994528D01*
X115311755Y-108018621D01*
X115541297Y-107997731D01*
X115762410Y-107932654D01*
X115966672Y-107825869D01*
X116146302Y-107681442D01*
X116294459Y-107504876D01*
X116405499Y-107302895D01*
X116458645Y-107135357D01*
X116477350Y-107234514D01*
X116582834Y-107496483D01*
X116737399Y-107732839D01*
X116935105Y-107934500D01*
X117168354Y-108093715D01*
X117428182Y-108204367D01*
X117510961Y-108221904D01*
X117733000Y-108099915D01*
X117733000Y-106557000D01*
X117987000Y-106557000D01*
X117987000Y-108099915D01*
X118209039Y-108221904D01*
X118291818Y-108204367D01*
X118551646Y-108093715D01*
X118784895Y-107934500D01*
X118982601Y-107732839D01*
X119137166Y-107496483D01*
X119242650Y-107234514D01*
X119295000Y-106957000D01*
X119295000Y-106557000D01*
X117987000Y-106557000D01*
X117733000Y-106557000D01*
X117713000Y-106557000D01*
X117713000Y-106303000D01*
X117733000Y-106303000D01*
X117733000Y-104760085D01*
X117987000Y-104760085D01*
X117987000Y-106303000D01*
X119295000Y-106303000D01*
X119295000Y-105903000D01*
X119242650Y-105625486D01*
X119137166Y-105363517D01*
X118982601Y-105127161D01*
X118784895Y-104925500D01*
X118551646Y-104766285D01*
X118291818Y-104655633D01*
X118209039Y-104638096D01*
X117987000Y-104760085D01*
X117733000Y-104760085D01*
X117510961Y-104638096D01*
X117428182Y-104655633D01*
X117168354Y-104766285D01*
X116935105Y-104925500D01*
X116737399Y-105127161D01*
X116582834Y-105363517D01*
X116477350Y-105625486D01*
X116458352Y-105726198D01*
X116411889Y-105572306D01*
X116303680Y-105368795D01*
X116158003Y-105190177D01*
X115980407Y-105043257D01*
X115777656Y-104933630D01*
X115557473Y-104865472D01*
X115328245Y-104841379D01*
X115098703Y-104862269D01*
X114877590Y-104927346D01*
X114673328Y-105034131D01*
X114493698Y-105178558D01*
X114345541Y-105355124D01*
X114234501Y-105557105D01*
X114164808Y-105776806D01*
X114139115Y-106005861D01*
X114139000Y-106022350D01*
X113961000Y-106022350D01*
X113938508Y-105792959D01*
X113871889Y-105572306D01*
X113763680Y-105368795D01*
X113618003Y-105190177D01*
X113440407Y-105043257D01*
X113237656Y-104933630D01*
X113017473Y-104865472D01*
X112788245Y-104841379D01*
X112558703Y-104862269D01*
X112337590Y-104927346D01*
X112133328Y-105034131D01*
X111953698Y-105178558D01*
X111805541Y-105355124D01*
X111694501Y-105557105D01*
X111624808Y-105776806D01*
X111599115Y-106005861D01*
X111599000Y-106022350D01*
X111471800Y-106022350D01*
X111471800Y-106022104D01*
X111448341Y-105782846D01*
X111378856Y-105552702D01*
X111265992Y-105340436D01*
X111114049Y-105154136D01*
X110928814Y-105000896D01*
X110900400Y-104985533D01*
X110900400Y-104772800D01*
X110894445Y-104712069D01*
X110889130Y-104651318D01*
X110888162Y-104647986D01*
X110887823Y-104644528D01*
X110870190Y-104586124D01*
X110853172Y-104527548D01*
X110851573Y-104524463D01*
X110850570Y-104521141D01*
X110821945Y-104467304D01*
X110793858Y-104413120D01*
X110791691Y-104410405D01*
X110790061Y-104407340D01*
X110751518Y-104360082D01*
X110713448Y-104312392D01*
X110708684Y-104307562D01*
X110708601Y-104307460D01*
X110708507Y-104307382D01*
X110706973Y-104305827D01*
X110459173Y-104058027D01*
X110412058Y-104019326D01*
X110365304Y-103980095D01*
X110362262Y-103978423D01*
X110359578Y-103976218D01*
X110305820Y-103947393D01*
X110252359Y-103918003D01*
X110249048Y-103916953D01*
X110245988Y-103915312D01*
X110187679Y-103897485D01*
X110129505Y-103879031D01*
X110126052Y-103878644D01*
X110122733Y-103877629D01*
X110062078Y-103871468D01*
X110001421Y-103864664D01*
X109994633Y-103864617D01*
X109994506Y-103864604D01*
X109994388Y-103864615D01*
X109992200Y-103864600D01*
X103280400Y-103864600D01*
X103280400Y-102758750D01*
X103287511Y-102735491D01*
X103305969Y-102677305D01*
X103306357Y-102673850D01*
X103307371Y-102670532D01*
X103313532Y-102609883D01*
X103320336Y-102549221D01*
X103320383Y-102542433D01*
X103320396Y-102542306D01*
X103320385Y-102542188D01*
X103320400Y-102540000D01*
X103320400Y-100942207D01*
X103329245Y-100936594D01*
X103482879Y-100790290D01*
X103605171Y-100616932D01*
X103691460Y-100423121D01*
X103738462Y-100216241D01*
X103741846Y-99973924D01*
X103700639Y-99765813D01*
X103619794Y-99569668D01*
X103526999Y-99430000D01*
X104076111Y-99430000D01*
X104076111Y-100730000D01*
X104081594Y-100798763D01*
X104117712Y-100915391D01*
X104184892Y-101017340D01*
X104277814Y-101096537D01*
X104389121Y-101146711D01*
X104510000Y-101163889D01*
X105810000Y-101163889D01*
X105878763Y-101158406D01*
X105995391Y-101122288D01*
X106097340Y-101055108D01*
X106176537Y-100962186D01*
X106226711Y-100850879D01*
X106243889Y-100730000D01*
X106243889Y-99430000D01*
X106238406Y-99361237D01*
X106202288Y-99244609D01*
X106135108Y-99142660D01*
X106042186Y-99063463D01*
X105930879Y-99013289D01*
X105810000Y-98996111D01*
X104510000Y-98996111D01*
X104441237Y-99001594D01*
X104324609Y-99037712D01*
X104222660Y-99104892D01*
X104143463Y-99197814D01*
X104093289Y-99309121D01*
X104076111Y-99430000D01*
X103526999Y-99430000D01*
X103502391Y-99392963D01*
X103352902Y-99242426D01*
X103177020Y-99123792D01*
X102981445Y-99041580D01*
X102773626Y-98998921D01*
X102561479Y-98997440D01*
X102353085Y-99037193D01*
X102156381Y-99116667D01*
X101978860Y-99232833D01*
X101827284Y-99381268D01*
X101707425Y-99556317D01*
X101623849Y-99751314D01*
X101579740Y-99958829D01*
X101576778Y-100170961D01*
X101615076Y-100379627D01*
X101693174Y-100576881D01*
X101808099Y-100755209D01*
X101955472Y-100907818D01*
X101999600Y-100938488D01*
X101999600Y-102361249D01*
X101992485Y-102384521D01*
X101974031Y-102442695D01*
X101973644Y-102446148D01*
X101972629Y-102449467D01*
X101966468Y-102510122D01*
X101959664Y-102570779D01*
X101959617Y-102577567D01*
X101959604Y-102577694D01*
X101959615Y-102577812D01*
X101959600Y-102580000D01*
X101959600Y-103864600D01*
X100255987Y-103864600D01*
X100248622Y-103850512D01*
X100097983Y-103663155D01*
X99913822Y-103508625D01*
X99703154Y-103392809D01*
X99474002Y-103320118D01*
X99235095Y-103293320D01*
X99217896Y-103293200D01*
X98835400Y-103293200D01*
X98835400Y-103255000D01*
X98829449Y-103194311D01*
X98824131Y-103133519D01*
X98823162Y-103130183D01*
X98822823Y-103126728D01*
X98805194Y-103068340D01*
X98788172Y-103009749D01*
X98786574Y-103006666D01*
X98785570Y-103003341D01*
X98756956Y-102949525D01*
X98728859Y-102895320D01*
X98726689Y-102892601D01*
X98725061Y-102889540D01*
X98686565Y-102842340D01*
X98648449Y-102794592D01*
X98643679Y-102789756D01*
X98643601Y-102789660D01*
X98643512Y-102789586D01*
X98641974Y-102788027D01*
X98120400Y-102266454D01*
X98120400Y-101001429D01*
X98160177Y-100976186D01*
X98320912Y-100823120D01*
X98448856Y-100641748D01*
X98539134Y-100438980D01*
X98588308Y-100222538D01*
X98591848Y-99969021D01*
X98548736Y-99751291D01*
X98464155Y-99546081D01*
X98341326Y-99361208D01*
X98184927Y-99203714D01*
X98000916Y-99079597D01*
X97796302Y-98993585D01*
X97578878Y-98948954D01*
X97356926Y-98947405D01*
X97138900Y-98988995D01*
X96933105Y-99072142D01*
X96747379Y-99193678D01*
X96588796Y-99348973D01*
X96463397Y-99532113D01*
X96375959Y-99736122D01*
X96329812Y-99953229D01*
X96326713Y-100175165D01*
X96366780Y-100393476D01*
X96448488Y-100599847D01*
X96568724Y-100786416D01*
X96722909Y-100946079D01*
X96799600Y-100999381D01*
X96799600Y-102540000D01*
X96805555Y-102600734D01*
X96810870Y-102661482D01*
X96811838Y-102664814D01*
X96812177Y-102668272D01*
X96829810Y-102726676D01*
X96846828Y-102785252D01*
X96848427Y-102788337D01*
X96849430Y-102791659D01*
X96878055Y-102845496D01*
X96906142Y-102899680D01*
X96908309Y-102902395D01*
X96909939Y-102905460D01*
X96948482Y-102952718D01*
X96986552Y-103000408D01*
X96991316Y-103005238D01*
X96991399Y-103005340D01*
X96991493Y-103005418D01*
X96993027Y-103006973D01*
X97514600Y-103528547D01*
X97514600Y-103674566D01*
X97472620Y-103725311D01*
X97466649Y-103713792D01*
X97464899Y-103711600D01*
X97463582Y-103709123D01*
X97432440Y-103670939D01*
X97401702Y-103632434D01*
X97397851Y-103628529D01*
X97397787Y-103628450D01*
X97397714Y-103628390D01*
X97396473Y-103627131D01*
X96168400Y-102399058D01*
X96168400Y-98402104D01*
X109008200Y-98402104D01*
X109008200Y-99217896D01*
X109031659Y-99457154D01*
X109101144Y-99687298D01*
X109214008Y-99899564D01*
X109365951Y-100085864D01*
X109551186Y-100239104D01*
X109762658Y-100353447D01*
X109992312Y-100424537D01*
X110231400Y-100449666D01*
X110470816Y-100427877D01*
X110701440Y-100360001D01*
X110914488Y-100248622D01*
X111101845Y-100097983D01*
X111256375Y-99913822D01*
X111372191Y-99703154D01*
X111444882Y-99474002D01*
X111471680Y-99235095D01*
X111471800Y-99217896D01*
X111471800Y-98402104D01*
X111448341Y-98162846D01*
X111442024Y-98141922D01*
X111638846Y-97945100D01*
X111575118Y-98145998D01*
X111548320Y-98384905D01*
X111548200Y-98402104D01*
X111548200Y-99217896D01*
X111571659Y-99457154D01*
X111641144Y-99687298D01*
X111754008Y-99899564D01*
X111905951Y-100085864D01*
X112091186Y-100239104D01*
X112302658Y-100353447D01*
X112532312Y-100424537D01*
X112771400Y-100449666D01*
X113010816Y-100427877D01*
X113241440Y-100360001D01*
X113454488Y-100248622D01*
X113641845Y-100097983D01*
X113796375Y-99913822D01*
X113912191Y-99703154D01*
X113984882Y-99474002D01*
X114011680Y-99235095D01*
X114011800Y-99217896D01*
X114011800Y-98402104D01*
X113988341Y-98162846D01*
X113918856Y-97932702D01*
X113805992Y-97720436D01*
X113654049Y-97534136D01*
X113468814Y-97380896D01*
X113257342Y-97266553D01*
X113027688Y-97195463D01*
X112788600Y-97170334D01*
X112549184Y-97192123D01*
X112326194Y-97257752D01*
X112611973Y-96971973D01*
X112650674Y-96924858D01*
X112689905Y-96878104D01*
X112691577Y-96875062D01*
X112693782Y-96872378D01*
X112722607Y-96818620D01*
X112751997Y-96765159D01*
X112753047Y-96761848D01*
X112754688Y-96758788D01*
X112772515Y-96700479D01*
X112790969Y-96642305D01*
X112791356Y-96638852D01*
X112792371Y-96635533D01*
X112798532Y-96574878D01*
X112805336Y-96514221D01*
X112805383Y-96507433D01*
X112805396Y-96507306D01*
X112805385Y-96507188D01*
X112805400Y-96505000D01*
X112805400Y-94592207D01*
X112814245Y-94586594D01*
X112967879Y-94440290D01*
X113090171Y-94266932D01*
X113176460Y-94073121D01*
X113223462Y-93866241D01*
X113226846Y-93623924D01*
X113185639Y-93415813D01*
X113104794Y-93219668D01*
X113011999Y-93080000D01*
X113561111Y-93080000D01*
X113561111Y-94380000D01*
X113566594Y-94448763D01*
X113602712Y-94565391D01*
X113669892Y-94667340D01*
X113762814Y-94746537D01*
X113874121Y-94796711D01*
X113984600Y-94812411D01*
X113984600Y-96477800D01*
X113990555Y-96538534D01*
X113995870Y-96599282D01*
X113996838Y-96602614D01*
X113997177Y-96606072D01*
X114014810Y-96664476D01*
X114031828Y-96723052D01*
X114033427Y-96726137D01*
X114034430Y-96729459D01*
X114063055Y-96783296D01*
X114091142Y-96837480D01*
X114093309Y-96840195D01*
X114094939Y-96843260D01*
X114133482Y-96890518D01*
X114171552Y-96938208D01*
X114176316Y-96943038D01*
X114176399Y-96943140D01*
X114176493Y-96943218D01*
X114178027Y-96944773D01*
X114622852Y-97389598D01*
X114458155Y-97522017D01*
X114303625Y-97706178D01*
X114187809Y-97916846D01*
X114115118Y-98145998D01*
X114088320Y-98384905D01*
X114088200Y-98402104D01*
X114088200Y-99217896D01*
X114111659Y-99457154D01*
X114181144Y-99687298D01*
X114294008Y-99899564D01*
X114445951Y-100085864D01*
X114631186Y-100239104D01*
X114842658Y-100353447D01*
X115072312Y-100424537D01*
X115311400Y-100449666D01*
X115550816Y-100427877D01*
X115781440Y-100360001D01*
X115994488Y-100248622D01*
X116181845Y-100097983D01*
X116336375Y-99913822D01*
X116452191Y-99703154D01*
X116524882Y-99474002D01*
X116551680Y-99235095D01*
X116551800Y-99217896D01*
X116551800Y-98402104D01*
X116528341Y-98162846D01*
X116458856Y-97932702D01*
X116345992Y-97720436D01*
X116255923Y-97610000D01*
X116677157Y-97610000D01*
X116677157Y-100010000D01*
X116681995Y-100070673D01*
X116713864Y-100173580D01*
X116773140Y-100263535D01*
X116855130Y-100333415D01*
X116953342Y-100377686D01*
X117060000Y-100392843D01*
X118660000Y-100392843D01*
X118720673Y-100388005D01*
X118823580Y-100356136D01*
X118913535Y-100296860D01*
X118983415Y-100214870D01*
X119027686Y-100116658D01*
X119042843Y-100010000D01*
X119042843Y-97610000D01*
X119038005Y-97549327D01*
X119006136Y-97446420D01*
X118946860Y-97356465D01*
X118864870Y-97286585D01*
X118766658Y-97242314D01*
X118660000Y-97227157D01*
X117060000Y-97227157D01*
X116999327Y-97231995D01*
X116896420Y-97263864D01*
X116806465Y-97323140D01*
X116736585Y-97405130D01*
X116692314Y-97503342D01*
X116677157Y-97610000D01*
X116255923Y-97610000D01*
X116194049Y-97534136D01*
X116008814Y-97380896D01*
X115980400Y-97365533D01*
X115980400Y-97152800D01*
X115974445Y-97092069D01*
X115969130Y-97031318D01*
X115968162Y-97027986D01*
X115967823Y-97024528D01*
X115950190Y-96966124D01*
X115933172Y-96907548D01*
X115931573Y-96904463D01*
X115930570Y-96901141D01*
X115901945Y-96847304D01*
X115873858Y-96793120D01*
X115871691Y-96790405D01*
X115870061Y-96787340D01*
X115831518Y-96740082D01*
X115793448Y-96692392D01*
X115788684Y-96687562D01*
X115788601Y-96687460D01*
X115788507Y-96687382D01*
X115786973Y-96685827D01*
X115305400Y-96204254D01*
X115305400Y-94813060D01*
X115363763Y-94808406D01*
X115480391Y-94772288D01*
X115582340Y-94705108D01*
X115661537Y-94612186D01*
X115711711Y-94500879D01*
X115728889Y-94380000D01*
X115728889Y-93080000D01*
X115723406Y-93011237D01*
X115687288Y-92894609D01*
X115620108Y-92792660D01*
X115527186Y-92713463D01*
X115415879Y-92663289D01*
X115295000Y-92646111D01*
X113995000Y-92646111D01*
X113926237Y-92651594D01*
X113809609Y-92687712D01*
X113707660Y-92754892D01*
X113628463Y-92847814D01*
X113578289Y-92959121D01*
X113561111Y-93080000D01*
X113011999Y-93080000D01*
X112987391Y-93042963D01*
X112837902Y-92892426D01*
X112662020Y-92773792D01*
X112466445Y-92691580D01*
X112258626Y-92648921D01*
X112046479Y-92647440D01*
X111838085Y-92687193D01*
X111641381Y-92766667D01*
X111463860Y-92882833D01*
X111312284Y-93031268D01*
X111192425Y-93206317D01*
X111108849Y-93401314D01*
X111064740Y-93608829D01*
X111061778Y-93820961D01*
X111100076Y-94029627D01*
X111178174Y-94226881D01*
X111293099Y-94405209D01*
X111440472Y-94557818D01*
X111484600Y-94588488D01*
X111484600Y-96231454D01*
X110512813Y-97203241D01*
X110487688Y-97195463D01*
X110248600Y-97170334D01*
X110009184Y-97192123D01*
X109778560Y-97259999D01*
X109565512Y-97371378D01*
X109378155Y-97522017D01*
X109223625Y-97706178D01*
X109107809Y-97916846D01*
X109035118Y-98145998D01*
X109008320Y-98384905D01*
X109008200Y-98402104D01*
X96168400Y-98402104D01*
X96168400Y-97760942D01*
X97125942Y-96803400D01*
X97760000Y-96803400D01*
X97808991Y-96798596D01*
X97858120Y-96794298D01*
X97860817Y-96793514D01*
X97863605Y-96793241D01*
X97910725Y-96779015D01*
X97958087Y-96765255D01*
X97960579Y-96763963D01*
X97963263Y-96763153D01*
X98006738Y-96740037D01*
X98050511Y-96717347D01*
X98052705Y-96715595D01*
X98055179Y-96714280D01*
X98093341Y-96683156D01*
X98131868Y-96652400D01*
X98135773Y-96648549D01*
X98135852Y-96648485D01*
X98135912Y-96648412D01*
X98137171Y-96647171D01*
X98688972Y-96095370D01*
X98894009Y-96140451D01*
X99118114Y-96145145D01*
X99338862Y-96106221D01*
X99547846Y-96025162D01*
X99737106Y-95905054D01*
X99899432Y-95750473D01*
X100028641Y-95567307D01*
X100031546Y-95560783D01*
X100129905Y-95713407D01*
X100285615Y-95874650D01*
X100469679Y-96002577D01*
X100675085Y-96092317D01*
X100894009Y-96140451D01*
X101118114Y-96145145D01*
X101338862Y-96106221D01*
X101547846Y-96025162D01*
X101737106Y-95905054D01*
X101899432Y-95750473D01*
X102028641Y-95567307D01*
X102031546Y-95560783D01*
X102129905Y-95713407D01*
X102285615Y-95874650D01*
X102469679Y-96002577D01*
X102675085Y-96092317D01*
X102894009Y-96140451D01*
X103118114Y-96145145D01*
X103338862Y-96106221D01*
X103547846Y-96025162D01*
X103737106Y-95905054D01*
X103899432Y-95750473D01*
X104028641Y-95567307D01*
X104031546Y-95560783D01*
X104129905Y-95713407D01*
X104285615Y-95874650D01*
X104469679Y-96002577D01*
X104675085Y-96092317D01*
X104894009Y-96140451D01*
X105118114Y-96145145D01*
X105338862Y-96106221D01*
X105547846Y-96025162D01*
X105737106Y-95905054D01*
X105899432Y-95750473D01*
X106028641Y-95567307D01*
X106031546Y-95560783D01*
X106129905Y-95713407D01*
X106285615Y-95874650D01*
X106469679Y-96002577D01*
X106675085Y-96092317D01*
X106894009Y-96140451D01*
X107118114Y-96145145D01*
X107338862Y-96106221D01*
X107547846Y-96025162D01*
X107737106Y-95905054D01*
X107899432Y-95750473D01*
X108028641Y-95567307D01*
X108031546Y-95560783D01*
X108129905Y-95713407D01*
X108285615Y-95874650D01*
X108469679Y-96002577D01*
X108675085Y-96092317D01*
X108894009Y-96140451D01*
X109118114Y-96145145D01*
X109338862Y-96106221D01*
X109547846Y-96025162D01*
X109737106Y-95905054D01*
X109899432Y-95750473D01*
X110028641Y-95567307D01*
X110119813Y-95362532D01*
X110169473Y-95143949D01*
X110173049Y-94887923D01*
X110129510Y-94668038D01*
X110044092Y-94460798D01*
X109920047Y-94274095D01*
X109762101Y-94115042D01*
X109576269Y-93989697D01*
X109369630Y-93902834D01*
X109150054Y-93857762D01*
X108925906Y-93856197D01*
X108705722Y-93898199D01*
X108497891Y-93982169D01*
X108310327Y-94104907D01*
X108150175Y-94261739D01*
X108029211Y-94438401D01*
X107920047Y-94274095D01*
X107762101Y-94115042D01*
X107576269Y-93989697D01*
X107369630Y-93902834D01*
X107150054Y-93857762D01*
X106925906Y-93856197D01*
X106705722Y-93898199D01*
X106497891Y-93982169D01*
X106310327Y-94104907D01*
X106150175Y-94261739D01*
X106029211Y-94438401D01*
X105920047Y-94274095D01*
X105762101Y-94115042D01*
X105576269Y-93989697D01*
X105369630Y-93902834D01*
X105150054Y-93857762D01*
X104925906Y-93856197D01*
X104705722Y-93898199D01*
X104497891Y-93982169D01*
X104310327Y-94104907D01*
X104150175Y-94261739D01*
X104029211Y-94438401D01*
X103920047Y-94274095D01*
X103762101Y-94115042D01*
X103576269Y-93989697D01*
X103369630Y-93902834D01*
X103150054Y-93857762D01*
X102925906Y-93856197D01*
X102705722Y-93898199D01*
X102497891Y-93982169D01*
X102310327Y-94104907D01*
X102150175Y-94261739D01*
X102029211Y-94438401D01*
X101920047Y-94274095D01*
X101762101Y-94115042D01*
X101576269Y-93989697D01*
X101369630Y-93902834D01*
X101150054Y-93857762D01*
X100925906Y-93856197D01*
X100705722Y-93898199D01*
X100497891Y-93982169D01*
X100310327Y-94104907D01*
X100150175Y-94261739D01*
X100029211Y-94438401D01*
X99920047Y-94274095D01*
X99762101Y-94115042D01*
X99576269Y-93989697D01*
X99369630Y-93902834D01*
X99150054Y-93857762D01*
X98925906Y-93856197D01*
X98705722Y-93898199D01*
X98497891Y-93982169D01*
X98310327Y-94104907D01*
X98150175Y-94261739D01*
X98060167Y-94393191D01*
X97959605Y-94241833D01*
X97794639Y-94075711D01*
X97600547Y-93944795D01*
X97384724Y-93854071D01*
X97155390Y-93806995D01*
X96921279Y-93805361D01*
X96691310Y-93849230D01*
X96474241Y-93936931D01*
X96278341Y-94065125D01*
X96111071Y-94228927D01*
X95998890Y-94392764D01*
X95920047Y-94274095D01*
X95762101Y-94115042D01*
X95576269Y-93989697D01*
X95369630Y-93902834D01*
X95150054Y-93857762D01*
X94925906Y-93856197D01*
X94705722Y-93898199D01*
X94497891Y-93982169D01*
X94310327Y-94104907D01*
X94150175Y-94261739D01*
X94029211Y-94438401D01*
X93920047Y-94274095D01*
X93762101Y-94115042D01*
X93576269Y-93989697D01*
X93369630Y-93902834D01*
X93150054Y-93857762D01*
X92925906Y-93856197D01*
X92705722Y-93898199D01*
X92497891Y-93982169D01*
X92310327Y-94104907D01*
X92150175Y-94261739D01*
X92029211Y-94438401D01*
X91920047Y-94274095D01*
X91762101Y-94115042D01*
X91576269Y-93989697D01*
X91369630Y-93902834D01*
X91150054Y-93857762D01*
X90925906Y-93856197D01*
X90705722Y-93898199D01*
X90497891Y-93982169D01*
X90310327Y-94104907D01*
X90150175Y-94261739D01*
X90029211Y-94438401D01*
X89920047Y-94274095D01*
X89762101Y-94115042D01*
X89576269Y-93989697D01*
X89369630Y-93902834D01*
X89150054Y-93857762D01*
X88925906Y-93856197D01*
X88705722Y-93898199D01*
X88497891Y-93982169D01*
X88310327Y-94104907D01*
X88150175Y-94261739D01*
X88029211Y-94438401D01*
X87920047Y-94274095D01*
X87762101Y-94115042D01*
X87576269Y-93989697D01*
X87369630Y-93902834D01*
X87150054Y-93857762D01*
X86925906Y-93856197D01*
X86705722Y-93898199D01*
X86497891Y-93982169D01*
X86310327Y-94104907D01*
X86150175Y-94261739D01*
X86029211Y-94438401D01*
X85920047Y-94274095D01*
X85762101Y-94115042D01*
X85576269Y-93989697D01*
X85369630Y-93902834D01*
X85150054Y-93857762D01*
X84925906Y-93856197D01*
X84705722Y-93898199D01*
X84497891Y-93982169D01*
X84310327Y-94104907D01*
X84150175Y-94261739D01*
X84060167Y-94393191D01*
X83959605Y-94241833D01*
X83794639Y-94075711D01*
X83600547Y-93944795D01*
X83384724Y-93854071D01*
X83155390Y-93806995D01*
X82921279Y-93805361D01*
X82691310Y-93849230D01*
X82474241Y-93936931D01*
X82278341Y-94065125D01*
X82111071Y-94228927D01*
X82101104Y-94243483D01*
X81995565Y-94214040D01*
X81209605Y-95000000D01*
X80850395Y-95000000D01*
X80064435Y-94214040D01*
X79824344Y-94281020D01*
X79707244Y-94530048D01*
X79640977Y-94797135D01*
X79628090Y-95072017D01*
X73678732Y-95072017D01*
X73980173Y-94770576D01*
X73980244Y-94770506D01*
X74153367Y-94597383D01*
X74184501Y-94559479D01*
X74216012Y-94521926D01*
X74217358Y-94519478D01*
X74219128Y-94517323D01*
X74242306Y-94474098D01*
X74265924Y-94431136D01*
X74266767Y-94428479D01*
X74268088Y-94426015D01*
X74282447Y-94379047D01*
X74297251Y-94332380D01*
X74297562Y-94329610D01*
X74298379Y-94326937D01*
X74303340Y-94278093D01*
X74308800Y-94229420D01*
X74308838Y-94223967D01*
X74308849Y-94223861D01*
X74308840Y-94223763D01*
X74308852Y-94222008D01*
X74308852Y-94034435D01*
X80244040Y-94034435D01*
X81030000Y-94820395D01*
X81815960Y-94034435D01*
X81748980Y-93794344D01*
X81499952Y-93677244D01*
X81232865Y-93610977D01*
X80957983Y-93598090D01*
X80685867Y-93639078D01*
X80426977Y-93732364D01*
X80311020Y-93794344D01*
X80244040Y-94034435D01*
X74308852Y-94034435D01*
X74308852Y-90683325D01*
X74304066Y-90634518D01*
X74302093Y-90611961D01*
X74302093Y-89886103D01*
X74297308Y-89837300D01*
X74293034Y-89788450D01*
X74292255Y-89785770D01*
X74291983Y-89782992D01*
X74277803Y-89736025D01*
X74264129Y-89688959D01*
X74262846Y-89686483D01*
X74262038Y-89683808D01*
X74238985Y-89640452D01*
X74216449Y-89596976D01*
X74214710Y-89594798D01*
X74213398Y-89592330D01*
X74182378Y-89554295D01*
X74151812Y-89516006D01*
X74147980Y-89512120D01*
X74147916Y-89512041D01*
X74147843Y-89511981D01*
X74146608Y-89510728D01*
X73220260Y-88584380D01*
X73220260Y-84690490D01*
X73785374Y-84125375D01*
X73816503Y-84087479D01*
X73848020Y-84049918D01*
X73849364Y-84047473D01*
X73851136Y-84045316D01*
X73874336Y-84002050D01*
X73897932Y-83959128D01*
X73898774Y-83956473D01*
X73900096Y-83954008D01*
X73914460Y-83907025D01*
X73929259Y-83860372D01*
X73929570Y-83857602D01*
X73930387Y-83854929D01*
X73935349Y-83806081D01*
X73940808Y-83757412D01*
X73940846Y-83751960D01*
X73940857Y-83751854D01*
X73940848Y-83751755D01*
X73940860Y-83750000D01*
X73940860Y-83377250D01*
X73945769Y-83374684D01*
X74094593Y-83255027D01*
X74217341Y-83108742D01*
X74309337Y-82941400D01*
X74367078Y-82759377D01*
X74383642Y-82611708D01*
X74397850Y-82756613D01*
X74456053Y-82949390D01*
X74550592Y-83127191D01*
X74677865Y-83283244D01*
X74833025Y-83411603D01*
X75010161Y-83507380D01*
X75202528Y-83566928D01*
X75402797Y-83587977D01*
X75603340Y-83569726D01*
X75796519Y-83512870D01*
X75974976Y-83419575D01*
X76131913Y-83293395D01*
X76261352Y-83139135D01*
X76358364Y-82962671D01*
X76410470Y-82798412D01*
X76456053Y-82949390D01*
X76550592Y-83127191D01*
X76677865Y-83283244D01*
X76833025Y-83411603D01*
X77010161Y-83507380D01*
X77202528Y-83566928D01*
X77402797Y-83587977D01*
X77603340Y-83569726D01*
X77796519Y-83512870D01*
X77974976Y-83419575D01*
X78131913Y-83293395D01*
X78261352Y-83139135D01*
X78358364Y-82962671D01*
X78419253Y-82770725D01*
X78441699Y-82570608D01*
X78441800Y-82556202D01*
X78441800Y-82496107D01*
X79885498Y-82496107D01*
X79925962Y-82716578D01*
X80008479Y-82924991D01*
X80129905Y-83113407D01*
X80285615Y-83274650D01*
X80468236Y-83401574D01*
X80310327Y-83504907D01*
X80150175Y-83661739D01*
X80023535Y-83846691D01*
X79935232Y-84052719D01*
X79888628Y-84271975D01*
X79885498Y-84496107D01*
X79925962Y-84716578D01*
X80008479Y-84924991D01*
X80129905Y-85113407D01*
X80285615Y-85274650D01*
X80468236Y-85401574D01*
X80310327Y-85504907D01*
X80150175Y-85661739D01*
X80023535Y-85846691D01*
X79935232Y-86052719D01*
X79888628Y-86271975D01*
X79885498Y-86496107D01*
X79925962Y-86716578D01*
X80008479Y-86924991D01*
X80129905Y-87113407D01*
X80285615Y-87274650D01*
X80468236Y-87401574D01*
X80310327Y-87504907D01*
X80150175Y-87661739D01*
X80023535Y-87846691D01*
X79935232Y-88052719D01*
X79888628Y-88271975D01*
X79885498Y-88496107D01*
X79925962Y-88716578D01*
X80008479Y-88924991D01*
X80129905Y-89113407D01*
X80285615Y-89274650D01*
X80468236Y-89401574D01*
X80310327Y-89504907D01*
X80150175Y-89661739D01*
X80023535Y-89846691D01*
X79935232Y-90052719D01*
X79888628Y-90271975D01*
X79885498Y-90496107D01*
X79925962Y-90716578D01*
X80008479Y-90924991D01*
X80129905Y-91113407D01*
X80285615Y-91274650D01*
X80469679Y-91402577D01*
X80675085Y-91492317D01*
X80894009Y-91540451D01*
X81118114Y-91545145D01*
X81338862Y-91506221D01*
X81547846Y-91425162D01*
X81737106Y-91305054D01*
X81899432Y-91150473D01*
X82028641Y-90967307D01*
X82119813Y-90762532D01*
X82169473Y-90543949D01*
X82173049Y-90287923D01*
X82129510Y-90068038D01*
X82044092Y-89860798D01*
X81920047Y-89674095D01*
X81762101Y-89515042D01*
X81589581Y-89398676D01*
X81737106Y-89305054D01*
X81899432Y-89150473D01*
X82028641Y-88967307D01*
X82119813Y-88762532D01*
X82169473Y-88543949D01*
X82173049Y-88287923D01*
X82129510Y-88068038D01*
X82044092Y-87860798D01*
X81920047Y-87674095D01*
X81762101Y-87515042D01*
X81589581Y-87398676D01*
X81737106Y-87305054D01*
X81899432Y-87150473D01*
X82028641Y-86967307D01*
X82119813Y-86762532D01*
X82169473Y-86543949D01*
X82173049Y-86287923D01*
X82129510Y-86068038D01*
X82044092Y-85860798D01*
X81920047Y-85674095D01*
X81762101Y-85515042D01*
X81589581Y-85398676D01*
X81737106Y-85305054D01*
X81899432Y-85150473D01*
X82028641Y-84967307D01*
X82119813Y-84762532D01*
X82169473Y-84543949D01*
X82173049Y-84287923D01*
X82129510Y-84068038D01*
X82044092Y-83860798D01*
X81920047Y-83674095D01*
X81762101Y-83515042D01*
X81589581Y-83398676D01*
X81737106Y-83305054D01*
X81899432Y-83150473D01*
X82028641Y-82967307D01*
X82119813Y-82762532D01*
X82169473Y-82543949D01*
X82173049Y-82287923D01*
X82129510Y-82068038D01*
X82044092Y-81860798D01*
X81920047Y-81674095D01*
X81762101Y-81515042D01*
X81576269Y-81389697D01*
X81369630Y-81302834D01*
X81150054Y-81257762D01*
X80925906Y-81256197D01*
X80705722Y-81298199D01*
X80497891Y-81382169D01*
X80310327Y-81504907D01*
X80150175Y-81661739D01*
X80023535Y-81846691D01*
X79935232Y-82052719D01*
X79888628Y-82271975D01*
X79885498Y-82496107D01*
X78441800Y-82496107D01*
X78441800Y-82043798D01*
X78422150Y-81843387D01*
X78363947Y-81650610D01*
X78269408Y-81472809D01*
X78142135Y-81316756D01*
X77986975Y-81188397D01*
X77809839Y-81092620D01*
X77617472Y-81033072D01*
X77417203Y-81012023D01*
X77216660Y-81030274D01*
X77023481Y-81087130D01*
X76845024Y-81180425D01*
X76688087Y-81306605D01*
X76558648Y-81460865D01*
X76461636Y-81637329D01*
X76409530Y-81801588D01*
X76363947Y-81650610D01*
X76269408Y-81472809D01*
X76142135Y-81316756D01*
X75986975Y-81188397D01*
X75809839Y-81092620D01*
X75617472Y-81033072D01*
X75417203Y-81012023D01*
X75216660Y-81030274D01*
X75023481Y-81087130D01*
X74845024Y-81180425D01*
X74688087Y-81306605D01*
X74558648Y-81460865D01*
X74461636Y-81637329D01*
X74400747Y-81829275D01*
X74382954Y-81987906D01*
X74369825Y-81854005D01*
X74314631Y-81671194D01*
X74224980Y-81502585D01*
X74104287Y-81354600D01*
X73957148Y-81232876D01*
X73789169Y-81142050D01*
X73606747Y-81085581D01*
X73416831Y-81065620D01*
X73226655Y-81082927D01*
X73043462Y-81136844D01*
X72874231Y-81225316D01*
X72725407Y-81344973D01*
X72602659Y-81491258D01*
X72510663Y-81658600D01*
X72452922Y-81840623D01*
X72431635Y-82030395D01*
X72431540Y-82044056D01*
X72431540Y-82555944D01*
X72450175Y-82745995D01*
X72505369Y-82928806D01*
X72595020Y-83097415D01*
X72715713Y-83245400D01*
X72862852Y-83367124D01*
X72879140Y-83375931D01*
X72879140Y-83530111D01*
X72410000Y-83999251D01*
X71940860Y-83530110D01*
X71940860Y-83377250D01*
X71945769Y-83374684D01*
X72094593Y-83255027D01*
X72217341Y-83108742D01*
X72309337Y-82941400D01*
X72367078Y-82759377D01*
X72388365Y-82569605D01*
X72388460Y-82555944D01*
X72388460Y-82044056D01*
X72369825Y-81854005D01*
X72314631Y-81671194D01*
X72224980Y-81502585D01*
X72104287Y-81354600D01*
X71957148Y-81232876D01*
X71789169Y-81142050D01*
X71606747Y-81085581D01*
X71416831Y-81065620D01*
X71226655Y-81082927D01*
X71043462Y-81136844D01*
X70874231Y-81225316D01*
X70725407Y-81344973D01*
X70645000Y-81440798D01*
X70645000Y-81387458D01*
X70620597Y-81264777D01*
X70572730Y-81149215D01*
X70503237Y-81045211D01*
X70414789Y-80956763D01*
X70310785Y-80887270D01*
X70195223Y-80839403D01*
X70072542Y-80815000D01*
X69695750Y-80815000D01*
X69537000Y-80973750D01*
X69537000Y-82173000D01*
X69557000Y-82173000D01*
X69557000Y-82427000D01*
X69537000Y-82427000D01*
X69537000Y-83626250D01*
X69695750Y-83785000D01*
X70072542Y-83785000D01*
X70195223Y-83760597D01*
X70310785Y-83712730D01*
X70414789Y-83643237D01*
X70503237Y-83554789D01*
X70572730Y-83450785D01*
X70620597Y-83335223D01*
X70645000Y-83212542D01*
X70645000Y-83158697D01*
X70715713Y-83245400D01*
X70862852Y-83367124D01*
X70879140Y-83375931D01*
X70879140Y-83750000D01*
X70883925Y-83798803D01*
X70888199Y-83847653D01*
X70888978Y-83850333D01*
X70889250Y-83853111D01*
X70903430Y-83900078D01*
X70917104Y-83947144D01*
X70918387Y-83949620D01*
X70919195Y-83952295D01*
X70942248Y-83995651D01*
X70964784Y-84039127D01*
X70966523Y-84041305D01*
X70967835Y-84043773D01*
X70998855Y-84081808D01*
X71029421Y-84120097D01*
X71033253Y-84123983D01*
X71033317Y-84124062D01*
X71033390Y-84124122D01*
X71034625Y-84125375D01*
X71599740Y-84690489D01*
X71599740Y-85369740D01*
X71435400Y-85369740D01*
X71409429Y-85372286D01*
X71383341Y-85372299D01*
X71375970Y-85373077D01*
X71308146Y-85380718D01*
X71304238Y-85381551D01*
X71300251Y-85381668D01*
X71253633Y-85392333D01*
X71206815Y-85402308D01*
X71203146Y-85403883D01*
X71199254Y-85404773D01*
X71192241Y-85407172D01*
X71127818Y-85429715D01*
X71124201Y-85431393D01*
X71120346Y-85432393D01*
X71077256Y-85453170D01*
X71033833Y-85473314D01*
X71030612Y-85475661D01*
X71027023Y-85477392D01*
X71020719Y-85481291D01*
X70962927Y-85517605D01*
X70959773Y-85520047D01*
X70956234Y-85521881D01*
X70918864Y-85551713D01*
X70880999Y-85581023D01*
X70878378Y-85584032D01*
X70875264Y-85586518D01*
X70869986Y-85591722D01*
X70821723Y-85639985D01*
X70819190Y-85643069D01*
X70816150Y-85645643D01*
X70786335Y-85683067D01*
X70755962Y-85720045D01*
X70754079Y-85723556D01*
X70751593Y-85726677D01*
X70747606Y-85732926D01*
X70711293Y-85790718D01*
X70709512Y-85794284D01*
X70707120Y-85797471D01*
X70686380Y-85840593D01*
X70664995Y-85883404D01*
X70663940Y-85887247D01*
X70662213Y-85890839D01*
X70659716Y-85897817D01*
X70637173Y-85962240D01*
X70636228Y-85966121D01*
X70634606Y-85969759D01*
X70623986Y-86016391D01*
X70612660Y-86062904D01*
X70612487Y-86066887D01*
X70611601Y-86070778D01*
X70610720Y-86078138D01*
X70603078Y-86145963D01*
X70603020Y-86149950D01*
X70602248Y-86153861D01*
X70602272Y-86201701D01*
X70601580Y-86249557D01*
X70602298Y-86253480D01*
X70602300Y-86257467D01*
X70603078Y-86264838D01*
X70610720Y-86332662D01*
X70611552Y-86336565D01*
X70611669Y-86340549D01*
X70622331Y-86387157D01*
X70632311Y-86433993D01*
X70633885Y-86437661D01*
X70634774Y-86441546D01*
X70637173Y-86448559D01*
X70659716Y-86512982D01*
X70661394Y-86516599D01*
X70662394Y-86520454D01*
X70683171Y-86563544D01*
X70703315Y-86606967D01*
X70705662Y-86610188D01*
X70707393Y-86613777D01*
X70711293Y-86620081D01*
X70747606Y-86677873D01*
X70750048Y-86681027D01*
X70751882Y-86684566D01*
X70770127Y-86707421D01*
X70642738Y-86621496D01*
X70248298Y-86455689D01*
X69829164Y-86369653D01*
X69401301Y-86366666D01*
X68981007Y-86446841D01*
X68584290Y-86607125D01*
X68226261Y-86841413D01*
X67920557Y-87140780D01*
X67678823Y-87493824D01*
X67510266Y-87887097D01*
X67421306Y-88305620D01*
X67415332Y-88733452D01*
X64108573Y-88733452D01*
X64141399Y-88440802D01*
X65998731Y-82585750D01*
X68175000Y-82585750D01*
X68175000Y-83212542D01*
X68199403Y-83335223D01*
X68247270Y-83450785D01*
X68316763Y-83554789D01*
X68405211Y-83643237D01*
X68509215Y-83712730D01*
X68624777Y-83760597D01*
X68747458Y-83785000D01*
X69124250Y-83785000D01*
X69283000Y-83626250D01*
X69283000Y-82427000D01*
X68333750Y-82427000D01*
X68175000Y-82585750D01*
X65998731Y-82585750D01*
X66003118Y-82571921D01*
X66654281Y-81387458D01*
X68175000Y-81387458D01*
X68175000Y-82014250D01*
X68333750Y-82173000D01*
X69283000Y-82173000D01*
X69283000Y-80973750D01*
X69124250Y-80815000D01*
X68747458Y-80815000D01*
X68624777Y-80839403D01*
X68509215Y-80887270D01*
X68405211Y-80956763D01*
X68316763Y-81045211D01*
X68247270Y-81149215D01*
X68199403Y-81264777D01*
X68175000Y-81387458D01*
X66654281Y-81387458D01*
X68969319Y-77176421D01*
X70655786Y-75166568D01*
X73016396Y-75166568D01*
X73086527Y-75548680D01*
X73229541Y-75909892D01*
X73439992Y-76236447D01*
X73709862Y-76515907D01*
X74028874Y-76737626D01*
X74384875Y-76893159D01*
X74764307Y-76976582D01*
X75152716Y-76984718D01*
X75535308Y-76917257D01*
X75897510Y-76776768D01*
X76225526Y-76568602D01*
X76506863Y-76300689D01*
X76730804Y-75983233D01*
X76888818Y-75628326D01*
X76974889Y-75249486D01*
X76976046Y-75166568D01*
X113016396Y-75166568D01*
X113086527Y-75548680D01*
X113229541Y-75909892D01*
X113439992Y-76236447D01*
X113709862Y-76515907D01*
X114028874Y-76737626D01*
X114384875Y-76893159D01*
X114764307Y-76976582D01*
X115152716Y-76984718D01*
X115535308Y-76917257D01*
X115897510Y-76776768D01*
X116225526Y-76568602D01*
X116506863Y-76300689D01*
X116730804Y-75983233D01*
X116888818Y-75628326D01*
X116974889Y-75249486D01*
X116981085Y-74805753D01*
X116905626Y-74424658D01*
X116757582Y-74065477D01*
X116542593Y-73741892D01*
X116268847Y-73466228D01*
X115946770Y-73248985D01*
X115588632Y-73098437D01*
X115208073Y-73020320D01*
X114819588Y-73017607D01*
X114437975Y-73090404D01*
X114077770Y-73235936D01*
X113752692Y-73448662D01*
X113475123Y-73720477D01*
X113255637Y-74041028D01*
X113102593Y-74398107D01*
X113021820Y-74778112D01*
X113016396Y-75166568D01*
X76976046Y-75166568D01*
X76981085Y-74805753D01*
X76905626Y-74424658D01*
X76757582Y-74065477D01*
X76542593Y-73741892D01*
X76268847Y-73466228D01*
X75946770Y-73248985D01*
X75588632Y-73098437D01*
X75208073Y-73020320D01*
X74819588Y-73017607D01*
X74437975Y-73090404D01*
X74077770Y-73235936D01*
X73752692Y-73448662D01*
X73475123Y-73720477D01*
X73255637Y-74041028D01*
X73102593Y-74398107D01*
X73021820Y-74778112D01*
X73016396Y-75166568D01*
X70655786Y-75166568D01*
X72927021Y-72459816D01*
X77725475Y-68601759D01*
X83181911Y-65749204D01*
X89088494Y-64010802D01*
X95220245Y-63452769D01*
X101343606Y-64096360D01*
M02*
